<?xml version="1.0" encoding="utf-8"?>
<svg xmlns="http://www.w3.org/2000/svg" xmlns:xlink="http://www.w3.org/1999/xlink" width="600" height="400" viewBox="0 0 2400 1600">
<defs>
  <clipPath id="clip650">
    <rect x="0" y="0" width="2400" height="1600"/>
  </clipPath>
</defs>
<path clip-path="url(#clip650)" d="M0 1600 L2400 1600 L2400 0 L0 0  Z" fill="#ffffff" fill-rule="evenodd" fill-opacity="1"/>
<defs>
  <clipPath id="clip651">
    <rect x="235" y="123" width="2118" height="1288"/>
  </clipPath>
</defs>
<path clip-path="url(#clip650)" d="M235.283 1410.9 L2352.76 1410.9 L2352.76 123.472 L235.283 123.472  Z" fill="#ffffff" fill-rule="evenodd" fill-opacity="1"/>
<polyline clip-path="url(#clip651)" style="stroke:#000000; stroke-linecap:round; stroke-linejoin:round; stroke-width:2; stroke-opacity:0.1; fill:none" points="295.211,1410.9 295.211,123.472 "/>
<polyline clip-path="url(#clip651)" style="stroke:#000000; stroke-linecap:round; stroke-linejoin:round; stroke-width:2; stroke-opacity:0.1; fill:none" points="1294.02,1410.9 1294.02,123.472 "/>
<polyline clip-path="url(#clip651)" style="stroke:#000000; stroke-linecap:round; stroke-linejoin:round; stroke-width:2; stroke-opacity:0.1; fill:none" points="2292.83,1410.9 2292.83,123.472 "/>
<polyline clip-path="url(#clip651)" style="stroke:#000000; stroke-linecap:round; stroke-linejoin:round; stroke-width:2; stroke-opacity:0.1; fill:none" points="235.283,1374.46 2352.76,1374.46 "/>
<polyline clip-path="url(#clip651)" style="stroke:#000000; stroke-linecap:round; stroke-linejoin:round; stroke-width:2; stroke-opacity:0.1; fill:none" points="235.283,1146.73 2352.76,1146.73 "/>
<polyline clip-path="url(#clip651)" style="stroke:#000000; stroke-linecap:round; stroke-linejoin:round; stroke-width:2; stroke-opacity:0.1; fill:none" points="235.283,919.003 2352.76,919.003 "/>
<polyline clip-path="url(#clip651)" style="stroke:#000000; stroke-linecap:round; stroke-linejoin:round; stroke-width:2; stroke-opacity:0.1; fill:none" points="235.283,691.275 2352.76,691.275 "/>
<polyline clip-path="url(#clip651)" style="stroke:#000000; stroke-linecap:round; stroke-linejoin:round; stroke-width:2; stroke-opacity:0.1; fill:none" points="235.283,463.547 2352.76,463.547 "/>
<polyline clip-path="url(#clip651)" style="stroke:#000000; stroke-linecap:round; stroke-linejoin:round; stroke-width:2; stroke-opacity:0.1; fill:none" points="235.283,235.818 2352.76,235.818 "/>
<polyline clip-path="url(#clip650)" style="stroke:#000000; stroke-linecap:round; stroke-linejoin:round; stroke-width:4; stroke-opacity:1; fill:none" points="235.283,1410.9 2352.76,1410.9 "/>
<polyline clip-path="url(#clip650)" style="stroke:#000000; stroke-linecap:round; stroke-linejoin:round; stroke-width:4; stroke-opacity:1; fill:none" points="295.211,1410.9 295.211,1392 "/>
<polyline clip-path="url(#clip650)" style="stroke:#000000; stroke-linecap:round; stroke-linejoin:round; stroke-width:4; stroke-opacity:1; fill:none" points="1294.02,1410.9 1294.02,1392 "/>
<polyline clip-path="url(#clip650)" style="stroke:#000000; stroke-linecap:round; stroke-linejoin:round; stroke-width:4; stroke-opacity:1; fill:none" points="2292.83,1410.9 2292.83,1392 "/>
<path clip-path="url(#clip650)" d="M261.539 1485.02 L269.178 1485.02 L269.178 1458.66 L260.868 1460.32 L260.868 1456.06 L269.131 1454.4 L273.807 1454.4 L273.807 1485.02 L281.446 1485.02 L281.446 1488.96 L261.539 1488.96 L261.539 1485.02 Z" fill="#000000" fill-rule="nonzero" fill-opacity="1" /><path clip-path="url(#clip650)" d="M300.891 1457.48 Q297.279 1457.48 295.451 1461.04 Q293.645 1464.58 293.645 1471.71 Q293.645 1478.82 295.451 1482.38 Q297.279 1485.92 300.891 1485.92 Q304.525 1485.92 306.33 1482.38 Q308.159 1478.82 308.159 1471.71 Q308.159 1464.58 306.33 1461.04 Q304.525 1457.48 300.891 1457.48 M300.891 1453.77 Q306.701 1453.77 309.756 1458.38 Q312.835 1462.96 312.835 1471.71 Q312.835 1480.44 309.756 1485.04 Q306.701 1489.63 300.891 1489.63 Q295.08 1489.63 292.002 1485.04 Q288.946 1480.44 288.946 1471.71 Q288.946 1462.96 292.002 1458.38 Q295.08 1453.77 300.891 1453.77 Z" fill="#000000" fill-rule="nonzero" fill-opacity="1" /><path clip-path="url(#clip650)" d="M313.38 1458.35 L319.587 1458.35 L319.587 1436.93 L312.835 1438.28 L312.835 1434.82 L319.549 1433.47 L323.348 1433.47 L323.348 1458.35 L329.555 1458.35 L329.555 1461.55 L313.38 1461.55 L313.38 1458.35 Z" fill="#000000" fill-rule="nonzero" fill-opacity="1" /><path clip-path="url(#clip650)" d="M1259.79 1485.02 L1267.43 1485.02 L1267.43 1458.66 L1259.12 1460.32 L1259.12 1456.06 L1267.38 1454.4 L1272.06 1454.4 L1272.06 1485.02 L1279.7 1485.02 L1279.7 1488.96 L1259.79 1488.96 L1259.79 1485.02 Z" fill="#000000" fill-rule="nonzero" fill-opacity="1" /><path clip-path="url(#clip650)" d="M1299.14 1457.48 Q1295.53 1457.48 1293.7 1461.04 Q1291.9 1464.58 1291.9 1471.71 Q1291.9 1478.82 1293.7 1482.38 Q1295.53 1485.92 1299.14 1485.92 Q1302.78 1485.92 1304.58 1482.38 Q1306.41 1478.82 1306.41 1471.71 Q1306.41 1464.58 1304.58 1461.04 Q1302.78 1457.48 1299.14 1457.48 M1299.14 1453.77 Q1304.95 1453.77 1308.01 1458.38 Q1311.09 1462.96 1311.09 1471.71 Q1311.09 1480.44 1308.01 1485.04 Q1304.95 1489.63 1299.14 1489.63 Q1293.33 1489.63 1290.25 1485.04 Q1287.2 1480.44 1287.2 1471.71 Q1287.2 1462.96 1290.25 1458.38 Q1293.33 1453.77 1299.14 1453.77 Z" fill="#000000" fill-rule="nonzero" fill-opacity="1" /><path clip-path="url(#clip650)" d="M1315.66 1458.35 L1328.92 1458.35 L1328.92 1461.55 L1311.09 1461.55 L1311.09 1458.35 Q1313.25 1456.11 1316.97 1452.35 Q1320.72 1448.57 1321.68 1447.48 Q1323.5 1445.43 1324.22 1444.02 Q1324.95 1442.59 1324.95 1441.22 Q1324.95 1438.98 1323.37 1437.57 Q1321.81 1436.16 1319.29 1436.16 Q1317.5 1436.16 1315.51 1436.78 Q1313.53 1437.4 1311.28 1438.66 L1311.28 1434.82 Q1313.57 1433.9 1315.56 1433.43 Q1317.56 1432.96 1319.21 1432.96 Q1323.58 1432.96 1326.17 1435.14 Q1328.77 1437.32 1328.77 1440.97 Q1328.77 1442.7 1328.11 1444.26 Q1327.47 1445.8 1325.76 1447.91 Q1325.29 1448.46 1322.77 1451.07 Q1320.25 1453.67 1315.66 1458.35 Z" fill="#000000" fill-rule="nonzero" fill-opacity="1" /><path clip-path="url(#clip650)" d="M2258.27 1485.02 L2265.91 1485.02 L2265.91 1458.66 L2257.6 1460.32 L2257.6 1456.06 L2265.86 1454.4 L2270.54 1454.4 L2270.54 1485.02 L2278.18 1485.02 L2278.18 1488.96 L2258.27 1488.96 L2258.27 1485.02 Z" fill="#000000" fill-rule="nonzero" fill-opacity="1" /><path clip-path="url(#clip650)" d="M2297.62 1457.48 Q2294.01 1457.48 2292.18 1461.04 Q2290.38 1464.58 2290.38 1471.71 Q2290.38 1478.82 2292.18 1482.38 Q2294.01 1485.92 2297.62 1485.92 Q2301.26 1485.92 2303.06 1482.38 Q2304.89 1478.82 2304.89 1471.71 Q2304.89 1464.58 2303.06 1461.04 Q2301.26 1457.48 2297.62 1457.48 M2297.62 1453.77 Q2303.43 1453.77 2306.49 1458.38 Q2309.57 1462.96 2309.57 1471.71 Q2309.57 1480.44 2306.49 1485.04 Q2303.43 1489.63 2297.62 1489.63 Q2291.81 1489.63 2288.73 1485.04 Q2285.68 1480.44 2285.68 1471.71 Q2285.68 1462.96 2288.73 1458.38 Q2291.81 1453.77 2297.62 1453.77 Z" fill="#000000" fill-rule="nonzero" fill-opacity="1" /><path clip-path="url(#clip650)" d="M2322.26 1446.41 Q2324.99 1446.99 2326.51 1448.83 Q2328.06 1450.68 2328.06 1453.38 Q2328.06 1457.54 2325.2 1459.82 Q2322.34 1462.09 2317.07 1462.09 Q2315.3 1462.09 2313.42 1461.73 Q2311.56 1461.4 2309.57 1460.7 L2309.57 1457.03 Q2311.15 1457.95 2313.03 1458.42 Q2314.91 1458.89 2316.96 1458.89 Q2320.53 1458.89 2322.39 1457.48 Q2324.27 1456.07 2324.27 1453.38 Q2324.27 1450.9 2322.53 1449.51 Q2320.8 1448.1 2317.69 1448.1 L2314.42 1448.1 L2314.42 1444.98 L2317.84 1444.98 Q2320.64 1444.98 2322.13 1443.87 Q2323.62 1442.74 2323.62 1440.63 Q2323.62 1438.47 2322.07 1437.32 Q2320.55 1436.16 2317.69 1436.16 Q2316.13 1436.16 2314.34 1436.49 Q2312.56 1436.83 2310.41 1437.55 L2310.41 1434.16 Q2312.58 1433.56 2314.46 1433.26 Q2316.36 1432.96 2318.03 1432.96 Q2322.36 1432.96 2324.88 1434.93 Q2327.4 1436.89 2327.4 1440.24 Q2327.4 1442.57 2326.06 1444.19 Q2324.73 1445.79 2322.26 1446.41 Z" fill="#000000" fill-rule="nonzero" fill-opacity="1" /><path clip-path="url(#clip650)" d="M901.828 1526.67 L910.486 1526.67 L931.556 1566.42 L931.556 1526.67 L937.794 1526.67 L937.794 1574.19 L929.137 1574.19 L908.067 1534.43 L908.067 1574.19 L901.828 1574.19 L901.828 1526.67 Z" fill="#000000" fill-rule="nonzero" fill-opacity="1" /><path clip-path="url(#clip650)" d="M949.73 1560.12 L949.73 1538.54 L955.587 1538.54 L955.587 1559.89 Q955.587 1564.96 957.56 1567.5 Q959.533 1570.02 963.48 1570.02 Q968.223 1570.02 970.96 1566.99 Q973.729 1563.97 973.729 1558.75 L973.729 1538.54 L979.585 1538.54 L979.585 1574.19 L973.729 1574.19 L973.729 1568.71 Q971.596 1571.96 968.764 1573.55 Q965.963 1575.11 962.239 1575.11 Q956.096 1575.11 952.913 1571.29 Q949.73 1567.47 949.73 1560.12 M964.467 1537.68 L964.467 1537.68 Z" fill="#000000" fill-rule="nonzero" fill-opacity="1" /><path clip-path="url(#clip650)" d="M1019.4 1545.38 Q1021.6 1541.43 1024.65 1539.56 Q1027.71 1537.68 1031.85 1537.68 Q1037.42 1537.68 1040.44 1541.59 Q1043.47 1545.48 1043.47 1552.67 L1043.47 1574.19 L1037.58 1574.19 L1037.58 1552.86 Q1037.58 1547.74 1035.76 1545.25 Q1033.95 1542.77 1030.22 1542.77 Q1025.67 1542.77 1023.03 1545.79 Q1020.39 1548.82 1020.39 1554.04 L1020.39 1574.19 L1014.5 1574.19 L1014.5 1552.86 Q1014.5 1547.7 1012.69 1545.25 Q1010.87 1542.77 1007.09 1542.77 Q1002.6 1542.77 999.956 1545.83 Q997.314 1548.85 997.314 1554.04 L997.314 1574.19 L991.426 1574.19 L991.426 1538.54 L997.314 1538.54 L997.314 1544.08 Q999.319 1540.8 1002.12 1539.24 Q1004.92 1537.68 1008.77 1537.68 Q1012.66 1537.68 1015.36 1539.65 Q1018.1 1541.62 1019.4 1545.38 Z" fill="#000000" fill-rule="nonzero" fill-opacity="1" /><path clip-path="url(#clip650)" d="M1080.74 1556.39 Q1080.74 1549.93 1078.06 1546.27 Q1075.42 1542.58 1070.77 1542.58 Q1066.13 1542.58 1063.45 1546.27 Q1060.81 1549.93 1060.81 1556.39 Q1060.81 1562.85 1063.45 1566.55 Q1066.13 1570.21 1070.77 1570.21 Q1075.42 1570.21 1078.06 1566.55 Q1080.74 1562.85 1080.74 1556.39 M1060.81 1543.95 Q1062.66 1540.77 1065.46 1539.24 Q1068.29 1537.68 1072.21 1537.68 Q1078.7 1537.68 1082.74 1542.83 Q1086.82 1547.99 1086.82 1556.39 Q1086.82 1564.8 1082.74 1569.95 Q1078.7 1575.11 1072.21 1575.11 Q1068.29 1575.11 1065.46 1573.58 Q1062.66 1572.02 1060.81 1568.84 L1060.81 1574.19 L1054.92 1574.19 L1054.92 1524.66 L1060.81 1524.66 L1060.81 1543.95 Z" fill="#000000" fill-rule="nonzero" fill-opacity="1" /><path clip-path="url(#clip650)" d="M1127.02 1554.9 L1127.02 1557.76 L1100.09 1557.76 Q1100.47 1563.81 1103.72 1566.99 Q1106.99 1570.14 1112.82 1570.14 Q1116.19 1570.14 1119.34 1569.32 Q1122.53 1568.49 1125.65 1566.83 L1125.65 1572.37 Q1122.5 1573.71 1119.19 1574.41 Q1115.88 1575.11 1112.47 1575.11 Q1103.94 1575.11 1098.94 1570.14 Q1093.98 1565.18 1093.98 1556.71 Q1093.98 1547.96 1098.69 1542.83 Q1103.43 1537.68 1111.45 1537.68 Q1118.64 1537.68 1122.81 1542.33 Q1127.02 1546.94 1127.02 1554.9 M1121.16 1553.18 Q1121.09 1548.37 1118.45 1545.51 Q1115.84 1542.64 1111.51 1542.64 Q1106.61 1542.64 1103.65 1545.41 Q1100.72 1548.18 1100.28 1553.21 L1121.16 1553.18 Z" fill="#000000" fill-rule="nonzero" fill-opacity="1" /><path clip-path="url(#clip650)" d="M1157.28 1544.01 Q1156.3 1543.44 1155.12 1543.18 Q1153.97 1542.9 1152.57 1542.9 Q1147.61 1542.9 1144.93 1546.14 Q1142.29 1549.36 1142.29 1555.41 L1142.29 1574.19 L1136.4 1574.19 L1136.4 1538.54 L1142.29 1538.54 L1142.29 1544.08 Q1144.14 1540.83 1147.1 1539.27 Q1150.06 1537.68 1154.29 1537.68 Q1154.9 1537.68 1155.63 1537.77 Q1156.36 1537.84 1157.25 1538 L1157.28 1544.01 Z" fill="#000000" fill-rule="nonzero" fill-opacity="1" /><path clip-path="url(#clip650)" d="M1197.96 1542.64 Q1193.25 1542.64 1190.51 1546.34 Q1187.78 1550 1187.78 1556.39 Q1187.78 1562.79 1190.48 1566.48 Q1193.22 1570.14 1197.96 1570.14 Q1202.64 1570.14 1205.38 1566.45 Q1208.11 1562.76 1208.11 1556.39 Q1208.11 1550.06 1205.38 1546.37 Q1202.64 1542.64 1197.96 1542.64 M1197.96 1537.68 Q1205.6 1537.68 1209.96 1542.64 Q1214.32 1547.61 1214.32 1556.39 Q1214.32 1565.15 1209.96 1570.14 Q1205.6 1575.11 1197.96 1575.11 Q1190.29 1575.11 1185.93 1570.14 Q1181.6 1565.15 1181.6 1556.39 Q1181.6 1547.61 1185.93 1542.64 Q1190.29 1537.68 1197.96 1537.68 Z" fill="#000000" fill-rule="nonzero" fill-opacity="1" /><path clip-path="url(#clip650)" d="M1242.08 1524.66 L1242.08 1529.53 L1236.47 1529.53 Q1233.32 1529.53 1232.08 1530.8 Q1230.87 1532.08 1230.87 1535.39 L1230.87 1538.54 L1240.52 1538.54 L1240.52 1543.09 L1230.87 1543.09 L1230.87 1574.19 L1224.98 1574.19 L1224.98 1543.09 L1219.38 1543.09 L1219.38 1538.54 L1224.98 1538.54 L1224.98 1536.05 Q1224.98 1530.1 1227.75 1527.4 Q1230.52 1524.66 1236.54 1524.66 L1242.08 1524.66 Z" fill="#000000" fill-rule="nonzero" fill-opacity="1" /><path clip-path="url(#clip650)" d="M1290.42 1539.59 L1290.42 1545.13 Q1287.94 1543.85 1285.27 1543.22 Q1282.59 1542.58 1279.73 1542.58 Q1275.37 1542.58 1273.17 1543.92 Q1271.01 1545.25 1271.01 1547.93 Q1271.01 1549.96 1272.57 1551.14 Q1274.13 1552.29 1278.84 1553.34 L1280.84 1553.78 Q1287.08 1555.12 1289.69 1557.57 Q1292.33 1559.99 1292.33 1564.35 Q1292.33 1569.32 1288.39 1572.21 Q1284.47 1575.11 1277.6 1575.11 Q1274.73 1575.11 1271.61 1574.54 Q1268.52 1573.99 1265.09 1572.88 L1265.09 1566.83 Q1268.33 1568.52 1271.48 1569.38 Q1274.64 1570.21 1277.72 1570.21 Q1281.86 1570.21 1284.09 1568.81 Q1286.32 1567.37 1286.32 1564.8 Q1286.32 1562.41 1284.69 1561.14 Q1283.1 1559.86 1277.66 1558.68 L1275.62 1558.21 Q1270.18 1557.06 1267.76 1554.71 Q1265.34 1552.32 1265.34 1548.18 Q1265.34 1543.15 1268.91 1540.42 Q1272.47 1537.68 1279.03 1537.68 Q1282.27 1537.68 1285.14 1538.16 Q1288 1538.63 1290.42 1539.59 Z" fill="#000000" fill-rule="nonzero" fill-opacity="1" /><path clip-path="url(#clip650)" d="M1327.31 1539.91 L1327.31 1545.38 Q1324.83 1544.01 1322.31 1543.34 Q1319.83 1542.64 1317.29 1542.64 Q1311.59 1542.64 1308.44 1546.27 Q1305.29 1549.87 1305.29 1556.39 Q1305.29 1562.92 1308.44 1566.55 Q1311.59 1570.14 1317.29 1570.14 Q1319.83 1570.14 1322.31 1569.47 Q1324.83 1568.77 1327.31 1567.41 L1327.31 1572.82 Q1324.86 1573.96 1322.22 1574.54 Q1319.61 1575.11 1316.65 1575.11 Q1308.6 1575.11 1303.85 1570.05 Q1299.11 1564.99 1299.11 1556.39 Q1299.11 1547.67 1303.89 1542.68 Q1308.69 1537.68 1317.03 1537.68 Q1319.74 1537.68 1322.31 1538.25 Q1324.89 1538.79 1327.31 1539.91 Z" fill="#000000" fill-rule="nonzero" fill-opacity="1" /><path clip-path="url(#clip650)" d="M1367.99 1554.9 L1367.99 1557.76 L1341.06 1557.76 Q1341.44 1563.81 1344.69 1566.99 Q1347.97 1570.14 1353.79 1570.14 Q1357.17 1570.14 1360.32 1569.32 Q1363.5 1568.49 1366.62 1566.83 L1366.62 1572.37 Q1363.47 1573.71 1360.16 1574.41 Q1356.85 1575.11 1353.44 1575.11 Q1344.91 1575.11 1339.92 1570.14 Q1334.95 1565.18 1334.95 1556.71 Q1334.95 1547.96 1339.66 1542.83 Q1344.4 1537.68 1352.42 1537.68 Q1359.62 1537.68 1363.79 1542.33 Q1367.99 1546.94 1367.99 1554.9 M1362.13 1553.18 Q1362.07 1548.37 1359.43 1545.51 Q1356.82 1542.64 1352.49 1542.64 Q1347.59 1542.64 1344.63 1545.41 Q1341.7 1548.18 1341.25 1553.21 L1362.13 1553.18 Z" fill="#000000" fill-rule="nonzero" fill-opacity="1" /><path clip-path="url(#clip650)" d="M1407.23 1552.67 L1407.23 1574.19 L1401.38 1574.19 L1401.38 1552.86 Q1401.38 1547.8 1399.4 1545.29 Q1397.43 1542.77 1393.48 1542.77 Q1388.74 1542.77 1386 1545.79 Q1383.27 1548.82 1383.27 1554.04 L1383.27 1574.19 L1377.38 1574.19 L1377.38 1538.54 L1383.27 1538.54 L1383.27 1544.08 Q1385.37 1540.86 1388.2 1539.27 Q1391.06 1537.68 1394.79 1537.68 Q1400.93 1537.68 1404.08 1541.5 Q1407.23 1545.29 1407.23 1552.67 Z" fill="#000000" fill-rule="nonzero" fill-opacity="1" /><path clip-path="url(#clip650)" d="M1435.12 1556.27 Q1428.02 1556.27 1425.28 1557.89 Q1422.54 1559.51 1422.54 1563.43 Q1422.54 1566.55 1424.58 1568.39 Q1426.65 1570.21 1430.18 1570.21 Q1435.05 1570.21 1437.98 1566.77 Q1440.94 1563.3 1440.94 1557.57 L1440.94 1556.27 L1435.12 1556.27 M1446.8 1553.85 L1446.8 1574.19 L1440.94 1574.19 L1440.94 1568.77 Q1438.93 1572.02 1435.94 1573.58 Q1432.95 1575.11 1428.62 1575.11 Q1423.15 1575.11 1419.9 1572.05 Q1416.69 1568.97 1416.69 1563.81 Q1416.69 1557.79 1420.7 1554.74 Q1424.74 1551.68 1432.73 1551.68 L1440.94 1551.68 L1440.94 1551.11 Q1440.94 1547.07 1438.27 1544.87 Q1435.62 1542.64 1430.82 1542.64 Q1427.76 1542.64 1424.87 1543.38 Q1421.97 1544.11 1419.3 1545.57 L1419.3 1540.16 Q1422.51 1538.92 1425.53 1538.31 Q1428.56 1537.68 1431.42 1537.68 Q1439.16 1537.68 1442.98 1541.69 Q1446.8 1545.7 1446.8 1553.85 Z" fill="#000000" fill-rule="nonzero" fill-opacity="1" /><path clip-path="url(#clip650)" d="M1479.52 1544.01 Q1478.53 1543.44 1477.35 1543.18 Q1476.21 1542.9 1474.81 1542.9 Q1469.84 1542.9 1467.17 1546.14 Q1464.52 1549.36 1464.52 1555.41 L1464.52 1574.19 L1458.64 1574.19 L1458.64 1538.54 L1464.52 1538.54 L1464.52 1544.08 Q1466.37 1540.83 1469.33 1539.27 Q1472.29 1537.68 1476.52 1537.68 Q1477.13 1537.68 1477.86 1537.77 Q1478.59 1537.84 1479.48 1538 L1479.52 1544.01 Z" fill="#000000" fill-rule="nonzero" fill-opacity="1" /><path clip-path="url(#clip650)" d="M1485.66 1538.54 L1491.52 1538.54 L1491.52 1574.19 L1485.66 1574.19 L1485.66 1538.54 M1485.66 1524.66 L1491.52 1524.66 L1491.52 1532.08 L1485.66 1532.08 L1485.66 1524.66 Z" fill="#000000" fill-rule="nonzero" fill-opacity="1" /><path clip-path="url(#clip650)" d="M1517.58 1542.64 Q1512.87 1542.64 1510.14 1546.34 Q1507.4 1550 1507.4 1556.39 Q1507.4 1562.79 1510.1 1566.48 Q1512.84 1570.14 1517.58 1570.14 Q1522.26 1570.14 1525 1566.45 Q1527.74 1562.76 1527.74 1556.39 Q1527.74 1550.06 1525 1546.37 Q1522.26 1542.64 1517.58 1542.64 M1517.58 1537.68 Q1525.22 1537.68 1529.58 1542.64 Q1533.94 1547.61 1533.94 1556.39 Q1533.94 1565.15 1529.58 1570.14 Q1525.22 1575.11 1517.58 1575.11 Q1509.91 1575.11 1505.55 1570.14 Q1501.22 1565.15 1501.22 1556.39 Q1501.22 1547.61 1505.55 1542.64 Q1509.91 1537.68 1517.58 1537.68 Z" fill="#000000" fill-rule="nonzero" fill-opacity="1" /><path clip-path="url(#clip650)" d="M1566.38 1539.59 L1566.38 1545.13 Q1563.89 1543.85 1561.22 1543.22 Q1558.55 1542.58 1555.68 1542.58 Q1551.32 1542.58 1549.13 1543.92 Q1546.96 1545.25 1546.96 1547.93 Q1546.96 1549.96 1548.52 1551.14 Q1550.08 1552.29 1554.79 1553.34 L1556.8 1553.78 Q1563.03 1555.12 1565.64 1557.57 Q1568.29 1559.99 1568.29 1564.35 Q1568.29 1569.32 1564.34 1572.21 Q1560.42 1575.11 1553.55 1575.11 Q1550.68 1575.11 1547.57 1574.54 Q1544.48 1573.99 1541.04 1572.88 L1541.04 1566.83 Q1544.29 1568.52 1547.44 1569.38 Q1550.59 1570.21 1553.68 1570.21 Q1557.81 1570.21 1560.04 1568.81 Q1562.27 1567.37 1562.27 1564.8 Q1562.27 1562.41 1560.65 1561.14 Q1559.06 1559.86 1553.61 1558.68 L1551.58 1558.21 Q1546.13 1557.06 1543.71 1554.71 Q1541.3 1552.32 1541.3 1548.18 Q1541.3 1543.15 1544.86 1540.42 Q1548.42 1537.68 1554.98 1537.68 Q1558.23 1537.68 1561.09 1538.16 Q1563.96 1538.63 1566.38 1539.59 Z" fill="#000000" fill-rule="nonzero" fill-opacity="1" /><path clip-path="url(#clip650)" d="M1612.4 1524.72 Q1608.14 1532.04 1606.07 1539.21 Q1604 1546.37 1604 1553.72 Q1604 1561.07 1606.07 1568.3 Q1608.17 1575.49 1612.4 1582.78 L1607.31 1582.78 Q1602.53 1575.3 1600.15 1568.07 Q1597.79 1560.85 1597.79 1553.72 Q1597.79 1546.62 1600.15 1539.43 Q1602.5 1532.24 1607.31 1524.72 L1612.4 1524.72 Z" fill="#000000" fill-rule="nonzero" fill-opacity="1" /><path clip-path="url(#clip650)" d="M1624.02 1526.67 L1632.67 1526.67 L1653.75 1566.42 L1653.75 1526.67 L1659.98 1526.67 L1659.98 1574.19 L1651.33 1574.19 L1630.26 1534.43 L1630.26 1574.19 L1624.02 1574.19 L1624.02 1526.67 Z" fill="#000000" fill-rule="nonzero" fill-opacity="1" /><path clip-path="url(#clip650)" d="M1671.6 1524.72 L1676.69 1524.72 Q1681.47 1532.24 1683.82 1539.43 Q1686.21 1546.62 1686.21 1553.72 Q1686.21 1560.85 1683.82 1568.07 Q1681.47 1575.3 1676.69 1582.78 L1671.6 1582.78 Q1675.83 1575.49 1677.9 1568.3 Q1680 1561.07 1680 1553.72 Q1680 1546.37 1677.9 1539.21 Q1675.83 1532.04 1671.6 1524.72 Z" fill="#000000" fill-rule="nonzero" fill-opacity="1" /><polyline clip-path="url(#clip650)" style="stroke:#000000; stroke-linecap:round; stroke-linejoin:round; stroke-width:4; stroke-opacity:1; fill:none" points="235.283,1410.9 235.283,123.472 "/>
<polyline clip-path="url(#clip650)" style="stroke:#000000; stroke-linecap:round; stroke-linejoin:round; stroke-width:4; stroke-opacity:1; fill:none" points="235.283,1374.46 254.18,1374.46 "/>
<polyline clip-path="url(#clip650)" style="stroke:#000000; stroke-linecap:round; stroke-linejoin:round; stroke-width:4; stroke-opacity:1; fill:none" points="235.283,1146.73 254.18,1146.73 "/>
<polyline clip-path="url(#clip650)" style="stroke:#000000; stroke-linecap:round; stroke-linejoin:round; stroke-width:4; stroke-opacity:1; fill:none" points="235.283,919.003 254.18,919.003 "/>
<polyline clip-path="url(#clip650)" style="stroke:#000000; stroke-linecap:round; stroke-linejoin:round; stroke-width:4; stroke-opacity:1; fill:none" points="235.283,691.275 254.18,691.275 "/>
<polyline clip-path="url(#clip650)" style="stroke:#000000; stroke-linecap:round; stroke-linejoin:round; stroke-width:4; stroke-opacity:1; fill:none" points="235.283,463.547 254.18,463.547 "/>
<polyline clip-path="url(#clip650)" style="stroke:#000000; stroke-linecap:round; stroke-linejoin:round; stroke-width:4; stroke-opacity:1; fill:none" points="235.283,235.818 254.18,235.818 "/>
<path clip-path="url(#clip650)" d="M129.862 1361.25 L118.056 1379.7 L129.862 1379.7 L129.862 1361.25 M128.635 1357.18 L134.515 1357.18 L134.515 1379.7 L139.445 1379.7 L139.445 1383.59 L134.515 1383.59 L134.515 1391.74 L129.862 1391.74 L129.862 1383.59 L114.26 1383.59 L114.26 1379.08 L128.635 1357.18 Z" fill="#000000" fill-rule="nonzero" fill-opacity="1" /><path clip-path="url(#clip650)" d="M157.755 1372.6 Q154.607 1372.6 152.755 1374.75 Q150.927 1376.9 150.927 1380.65 Q150.927 1384.38 152.755 1386.55 Q154.607 1388.71 157.755 1388.71 Q160.903 1388.71 162.732 1386.55 Q164.584 1384.38 164.584 1380.65 Q164.584 1376.9 162.732 1374.75 Q160.903 1372.6 157.755 1372.6 M167.038 1357.94 L167.038 1362.2 Q165.278 1361.37 163.473 1360.93 Q161.69 1360.49 159.931 1360.49 Q155.302 1360.49 152.848 1363.62 Q150.417 1366.74 150.07 1373.06 Q151.436 1371.05 153.496 1369.98 Q155.556 1368.89 158.033 1368.89 Q163.241 1368.89 166.251 1372.06 Q169.283 1375.21 169.283 1380.65 Q169.283 1385.98 166.135 1389.19 Q162.987 1392.41 157.755 1392.41 Q151.76 1392.41 148.589 1387.83 Q145.417 1383.22 145.417 1374.49 Q145.417 1366.3 149.306 1361.44 Q153.195 1356.56 159.746 1356.56 Q161.505 1356.56 163.288 1356.9 Q165.093 1357.25 167.038 1357.94 Z" fill="#000000" fill-rule="nonzero" fill-opacity="1" /><path clip-path="url(#clip650)" d="M187.338 1360.26 Q183.727 1360.26 181.899 1363.82 Q180.093 1367.37 180.093 1374.49 Q180.093 1381.6 181.899 1385.17 Q183.727 1388.71 187.338 1388.71 Q190.973 1388.71 192.778 1385.17 Q194.607 1381.6 194.607 1374.49 Q194.607 1367.37 192.778 1363.82 Q190.973 1360.26 187.338 1360.26 M187.338 1356.56 Q193.149 1356.56 196.204 1361.16 Q199.283 1365.74 199.283 1374.49 Q199.283 1383.22 196.204 1387.83 Q193.149 1392.41 187.338 1392.41 Q181.528 1392.41 178.45 1387.83 Q175.394 1383.22 175.394 1374.49 Q175.394 1365.74 178.45 1361.16 Q181.528 1356.56 187.338 1356.56 Z" fill="#000000" fill-rule="nonzero" fill-opacity="1" /><path clip-path="url(#clip650)" d="M130.857 1133.53 L119.052 1151.97 L130.857 1151.97 L130.857 1133.53 M129.63 1129.45 L135.51 1129.45 L135.51 1151.97 L140.441 1151.97 L140.441 1155.86 L135.51 1155.86 L135.51 1164.01 L130.857 1164.01 L130.857 1155.86 L115.256 1155.86 L115.256 1151.35 L129.63 1129.45 Z" fill="#000000" fill-rule="nonzero" fill-opacity="1" /><path clip-path="url(#clip650)" d="M158.751 1144.87 Q155.603 1144.87 153.751 1147.02 Q151.922 1149.17 151.922 1152.92 Q151.922 1156.65 153.751 1158.83 Q155.603 1160.98 158.751 1160.98 Q161.899 1160.98 163.727 1158.83 Q165.579 1156.65 165.579 1152.92 Q165.579 1149.17 163.727 1147.02 Q161.899 1144.87 158.751 1144.87 M168.033 1130.22 L168.033 1134.47 Q166.274 1133.64 164.468 1133.2 Q162.686 1132.76 160.927 1132.76 Q156.297 1132.76 153.843 1135.89 Q151.413 1139.01 151.066 1145.33 Q152.431 1143.32 154.491 1142.25 Q156.552 1141.16 159.028 1141.16 Q164.237 1141.16 167.246 1144.34 Q170.278 1147.48 170.278 1152.92 Q170.278 1158.25 167.13 1161.47 Q163.982 1164.68 158.751 1164.68 Q152.755 1164.68 149.584 1160.1 Q146.413 1155.49 146.413 1146.77 Q146.413 1138.57 150.302 1133.71 Q154.19 1128.83 160.741 1128.83 Q162.501 1128.83 164.283 1129.17 Q166.089 1129.52 168.033 1130.22 Z" fill="#000000" fill-rule="nonzero" fill-opacity="1" /><path clip-path="url(#clip650)" d="M178.38 1129.45 L196.737 1129.45 L196.737 1133.39 L182.663 1133.39 L182.663 1141.86 Q183.681 1141.51 184.7 1141.35 Q185.718 1141.16 186.737 1141.16 Q192.524 1141.16 195.903 1144.34 Q199.283 1147.51 199.283 1152.92 Q199.283 1158.5 195.811 1161.6 Q192.338 1164.68 186.019 1164.68 Q183.843 1164.68 181.575 1164.31 Q179.329 1163.94 176.922 1163.2 L176.922 1158.5 Q179.005 1159.64 181.227 1160.19 Q183.45 1160.75 185.926 1160.75 Q189.931 1160.75 192.269 1158.64 Q194.607 1156.53 194.607 1152.92 Q194.607 1149.31 192.269 1147.21 Q189.931 1145.1 185.926 1145.1 Q184.051 1145.1 182.176 1145.52 Q180.325 1145.93 178.38 1146.81 L178.38 1129.45 Z" fill="#000000" fill-rule="nonzero" fill-opacity="1" /><path clip-path="url(#clip650)" d="M129.862 905.797 L118.056 924.246 L129.862 924.246 L129.862 905.797 M128.635 901.723 L134.515 901.723 L134.515 924.246 L139.445 924.246 L139.445 928.135 L134.515 928.135 L134.515 936.283 L129.862 936.283 L129.862 928.135 L114.26 928.135 L114.26 923.621 L128.635 901.723 Z" fill="#000000" fill-rule="nonzero" fill-opacity="1" /><path clip-path="url(#clip650)" d="M145.996 901.723 L168.218 901.723 L168.218 903.714 L155.672 936.283 L150.788 936.283 L162.593 905.658 L145.996 905.658 L145.996 901.723 Z" fill="#000000" fill-rule="nonzero" fill-opacity="1" /><path clip-path="url(#clip650)" d="M187.338 904.802 Q183.727 904.802 181.899 908.367 Q180.093 911.908 180.093 919.038 Q180.093 926.144 181.899 929.709 Q183.727 933.251 187.338 933.251 Q190.973 933.251 192.778 929.709 Q194.607 926.144 194.607 919.038 Q194.607 911.908 192.778 908.367 Q190.973 904.802 187.338 904.802 M187.338 901.098 Q193.149 901.098 196.204 905.705 Q199.283 910.288 199.283 919.038 Q199.283 927.765 196.204 932.371 Q193.149 936.955 187.338 936.955 Q181.528 936.955 178.45 932.371 Q175.394 927.765 175.394 919.038 Q175.394 910.288 178.45 905.705 Q181.528 901.098 187.338 901.098 Z" fill="#000000" fill-rule="nonzero" fill-opacity="1" /><path clip-path="url(#clip650)" d="M130.857 678.069 L119.052 696.518 L130.857 696.518 L130.857 678.069 M129.63 673.995 L135.51 673.995 L135.51 696.518 L140.441 696.518 L140.441 700.407 L135.51 700.407 L135.51 708.555 L130.857 708.555 L130.857 700.407 L115.256 700.407 L115.256 695.893 L129.63 673.995 Z" fill="#000000" fill-rule="nonzero" fill-opacity="1" /><path clip-path="url(#clip650)" d="M146.991 673.995 L169.214 673.995 L169.214 675.986 L156.667 708.555 L151.783 708.555 L163.589 677.93 L146.991 677.93 L146.991 673.995 Z" fill="#000000" fill-rule="nonzero" fill-opacity="1" /><path clip-path="url(#clip650)" d="M178.38 673.995 L196.737 673.995 L196.737 677.93 L182.663 677.93 L182.663 686.402 Q183.681 686.055 184.7 685.893 Q185.718 685.708 186.737 685.708 Q192.524 685.708 195.903 688.879 Q199.283 692.05 199.283 697.467 Q199.283 703.046 195.811 706.148 Q192.338 709.226 186.019 709.226 Q183.843 709.226 181.575 708.856 Q179.329 708.485 176.922 707.745 L176.922 703.046 Q179.005 704.18 181.227 704.735 Q183.45 705.291 185.926 705.291 Q189.931 705.291 192.269 703.185 Q194.607 701.078 194.607 697.467 Q194.607 693.856 192.269 691.749 Q189.931 689.643 185.926 689.643 Q184.051 689.643 182.176 690.06 Q180.325 690.476 178.38 691.356 L178.38 673.995 Z" fill="#000000" fill-rule="nonzero" fill-opacity="1" /><path clip-path="url(#clip650)" d="M129.862 450.341 L118.056 468.79 L129.862 468.79 L129.862 450.341 M128.635 446.267 L134.515 446.267 L134.515 468.79 L139.445 468.79 L139.445 472.678 L134.515 472.678 L134.515 480.827 L129.862 480.827 L129.862 472.678 L114.26 472.678 L114.26 468.165 L128.635 446.267 Z" fill="#000000" fill-rule="nonzero" fill-opacity="1" /><path clip-path="url(#clip650)" d="M157.177 464.415 Q153.843 464.415 151.922 466.197 Q150.024 467.979 150.024 471.104 Q150.024 474.229 151.922 476.012 Q153.843 477.794 157.177 477.794 Q160.51 477.794 162.431 476.012 Q164.352 474.206 164.352 471.104 Q164.352 467.979 162.431 466.197 Q160.533 464.415 157.177 464.415 M152.501 462.424 Q149.491 461.683 147.802 459.623 Q146.135 457.563 146.135 454.6 Q146.135 450.456 149.075 448.049 Q152.038 445.642 157.177 445.642 Q162.339 445.642 165.278 448.049 Q168.218 450.456 168.218 454.6 Q168.218 457.563 166.528 459.623 Q164.862 461.683 161.876 462.424 Q165.255 463.211 167.13 465.503 Q169.028 467.794 169.028 471.104 Q169.028 476.127 165.95 478.813 Q162.894 481.498 157.177 481.498 Q151.459 481.498 148.38 478.813 Q145.325 476.127 145.325 471.104 Q145.325 467.794 147.223 465.503 Q149.121 463.211 152.501 462.424 M150.788 455.04 Q150.788 457.725 152.454 459.229 Q154.144 460.734 157.177 460.734 Q160.186 460.734 161.876 459.229 Q163.589 457.725 163.589 455.04 Q163.589 452.354 161.876 450.85 Q160.186 449.345 157.177 449.345 Q154.144 449.345 152.454 450.85 Q150.788 452.354 150.788 455.04 Z" fill="#000000" fill-rule="nonzero" fill-opacity="1" /><path clip-path="url(#clip650)" d="M187.338 449.345 Q183.727 449.345 181.899 452.91 Q180.093 456.452 180.093 463.581 Q180.093 470.688 181.899 474.252 Q183.727 477.794 187.338 477.794 Q190.973 477.794 192.778 474.252 Q194.607 470.688 194.607 463.581 Q194.607 456.452 192.778 452.91 Q190.973 449.345 187.338 449.345 M187.338 445.642 Q193.149 445.642 196.204 450.248 Q199.283 454.831 199.283 463.581 Q199.283 472.308 196.204 476.915 Q193.149 481.498 187.338 481.498 Q181.528 481.498 178.45 476.915 Q175.394 472.308 175.394 463.581 Q175.394 454.831 178.45 450.248 Q181.528 445.642 187.338 445.642 Z" fill="#000000" fill-rule="nonzero" fill-opacity="1" /><path clip-path="url(#clip650)" d="M130.857 222.612 L119.052 241.061 L130.857 241.061 L130.857 222.612 M129.63 218.538 L135.51 218.538 L135.51 241.061 L140.441 241.061 L140.441 244.95 L135.51 244.95 L135.51 253.098 L130.857 253.098 L130.857 244.95 L115.256 244.95 L115.256 240.436 L129.63 218.538 Z" fill="#000000" fill-rule="nonzero" fill-opacity="1" /><path clip-path="url(#clip650)" d="M158.172 236.686 Q154.839 236.686 152.917 238.469 Q151.019 240.251 151.019 243.376 Q151.019 246.501 152.917 248.283 Q154.839 250.066 158.172 250.066 Q161.505 250.066 163.427 248.283 Q165.348 246.478 165.348 243.376 Q165.348 240.251 163.427 238.469 Q161.528 236.686 158.172 236.686 M153.496 234.695 Q150.487 233.955 148.797 231.895 Q147.13 229.834 147.13 226.871 Q147.13 222.728 150.07 220.321 Q153.033 217.913 158.172 217.913 Q163.334 217.913 166.274 220.321 Q169.214 222.728 169.214 226.871 Q169.214 229.834 167.524 231.895 Q165.857 233.955 162.871 234.695 Q166.251 235.482 168.126 237.774 Q170.024 240.066 170.024 243.376 Q170.024 248.399 166.945 251.084 Q163.89 253.769 158.172 253.769 Q152.454 253.769 149.376 251.084 Q146.32 248.399 146.32 243.376 Q146.32 240.066 148.218 237.774 Q150.116 235.482 153.496 234.695 M151.783 227.311 Q151.783 229.996 153.45 231.501 Q155.14 233.006 158.172 233.006 Q161.181 233.006 162.871 231.501 Q164.584 229.996 164.584 227.311 Q164.584 224.626 162.871 223.121 Q161.181 221.617 158.172 221.617 Q155.14 221.617 153.45 223.121 Q151.783 224.626 151.783 227.311 Z" fill="#000000" fill-rule="nonzero" fill-opacity="1" /><path clip-path="url(#clip650)" d="M178.38 218.538 L196.737 218.538 L196.737 222.473 L182.663 222.473 L182.663 230.945 Q183.681 230.598 184.7 230.436 Q185.718 230.251 186.737 230.251 Q192.524 230.251 195.903 233.422 Q199.283 236.594 199.283 242.01 Q199.283 247.589 195.811 250.691 Q192.338 253.769 186.019 253.769 Q183.843 253.769 181.575 253.399 Q179.329 253.029 176.922 252.288 L176.922 247.589 Q179.005 248.723 181.227 249.279 Q183.45 249.834 185.926 249.834 Q189.931 249.834 192.269 247.728 Q194.607 245.621 194.607 242.01 Q194.607 238.399 192.269 236.293 Q189.931 234.186 185.926 234.186 Q184.051 234.186 182.176 234.603 Q180.325 235.02 178.38 235.899 L178.38 218.538 Z" fill="#000000" fill-rule="nonzero" fill-opacity="1" /><path clip-path="url(#clip650)" d="M20.8447 995.522 Q20.8447 1002.52 26.0645 1006.66 Q31.2844 1010.77 40.2919 1010.77 Q49.2675 1010.77 54.4874 1006.66 Q59.7073 1002.52 59.7073 995.522 Q59.7073 988.52 54.4874 984.446 Q49.2675 980.34 40.2919 980.34 Q31.2844 980.34 26.0645 984.446 Q20.8447 988.52 20.8447 995.522 M15.6248 995.522 Q15.6248 985.528 22.3406 979.544 Q29.0246 973.561 40.2919 973.561 Q51.5274 973.561 58.2432 979.544 Q64.9272 985.528 64.9272 995.522 Q64.9272 1005.55 58.2432 1011.56 Q51.5592 1017.55 40.2919 1017.55 Q29.0246 1017.55 22.3406 1011.56 Q15.6248 1005.55 15.6248 995.522 Z" fill="#000000" fill-rule="nonzero" fill-opacity="1" /><path clip-path="url(#clip650)" d="M46.212 938.167 Q39.7508 938.167 36.0905 940.841 Q32.3984 943.483 32.3984 948.13 Q32.3984 952.777 36.0905 955.45 Q39.7508 958.092 46.212 958.092 Q52.6732 958.092 56.3653 955.45 Q60.0256 952.777 60.0256 948.13 Q60.0256 943.483 56.3653 940.841 Q52.6732 938.167 46.212 938.167 M33.7671 958.092 Q30.5842 956.246 29.0564 953.445 Q27.4968 950.612 27.4968 946.697 Q27.4968 940.204 32.6531 936.162 Q37.8093 932.088 46.212 932.088 Q54.6147 932.088 59.771 936.162 Q64.9272 940.204 64.9272 946.697 Q64.9272 950.612 63.3994 953.445 Q61.8398 956.246 58.657 958.092 L64.0042 958.092 L64.0042 963.98 L14.479 963.98 L14.479 958.092 L33.7671 958.092 Z" fill="#000000" fill-rule="nonzero" fill-opacity="1" /><path clip-path="url(#clip650)" d="M28.3562 922.38 L28.3562 916.524 L64.6407 916.524 Q71.452 916.524 74.5076 919.134 Q77.5631 921.712 77.5631 927.473 L77.5631 929.701 L72.5979 929.701 L72.5979 928.141 Q72.5979 924.799 71.0383 923.59 Q69.5105 922.38 64.6407 922.38 L28.3562 922.38 M14.479 922.38 L14.479 916.524 L21.895 916.524 L21.895 922.38 L14.479 922.38 Z" fill="#000000" fill-rule="nonzero" fill-opacity="1" /><path clip-path="url(#clip650)" d="M44.7161 873.778 L47.5806 873.778 L47.5806 900.705 Q53.6281 900.323 56.8109 897.077 Q59.9619 893.798 59.9619 887.974 Q59.9619 884.6 59.1344 881.449 Q58.3069 878.266 56.6518 875.147 L62.1899 875.147 Q63.5267 878.298 64.227 881.608 Q64.9272 884.918 64.9272 888.324 Q64.9272 896.854 59.9619 901.851 Q54.9967 906.816 46.5303 906.816 Q37.7774 906.816 32.6531 902.106 Q27.4968 897.363 27.4968 889.342 Q27.4968 882.149 32.1438 877.98 Q36.7589 873.778 44.7161 873.778 M42.9973 879.635 Q38.1912 879.698 35.3266 882.34 Q32.4621 884.95 32.4621 889.279 Q32.4621 894.18 35.2312 897.14 Q38.0002 900.069 43.0292 900.514 L42.9973 879.635 Z" fill="#000000" fill-rule="nonzero" fill-opacity="1" /><path clip-path="url(#clip650)" d="M29.7248 838.512 L35.1993 838.512 Q33.8307 840.995 33.1623 843.509 Q32.4621 845.992 32.4621 848.538 Q32.4621 854.235 36.0905 857.386 Q39.6872 860.537 46.212 860.537 Q52.7369 860.537 56.3653 857.386 Q59.9619 854.235 59.9619 848.538 Q59.9619 845.992 59.2935 843.509 Q58.5933 840.995 57.2247 838.512 L62.6355 838.512 Q63.7814 840.963 64.3543 843.605 Q64.9272 846.215 64.9272 849.175 Q64.9272 857.227 59.8664 861.97 Q54.8057 866.712 46.212 866.712 Q37.491 866.712 32.4939 861.938 Q27.4968 857.132 27.4968 848.793 Q27.4968 846.087 28.0697 843.509 Q28.6108 840.931 29.7248 838.512 Z" fill="#000000" fill-rule="nonzero" fill-opacity="1" /><path clip-path="url(#clip650)" d="M18.2347 822.534 L28.3562 822.534 L28.3562 810.471 L32.9077 810.471 L32.9077 822.534 L52.2594 822.534 Q56.6199 822.534 57.8613 821.357 Q59.1026 820.147 59.1026 816.487 L59.1026 810.471 L64.0042 810.471 L64.0042 816.487 Q64.0042 823.266 61.4897 825.844 Q58.9434 828.422 52.2594 828.422 L32.9077 828.422 L32.9077 832.719 L28.3562 832.719 L28.3562 828.422 L18.2347 828.422 L18.2347 822.534 Z" fill="#000000" fill-rule="nonzero" fill-opacity="1" /><path clip-path="url(#clip650)" d="M28.3562 802.769 L28.3562 796.912 L64.0042 796.912 L64.0042 802.769 L28.3562 802.769 M14.479 802.769 L14.479 796.912 L21.895 796.912 L21.895 802.769 L14.479 802.769 Z" fill="#000000" fill-rule="nonzero" fill-opacity="1" /><path clip-path="url(#clip650)" d="M28.3562 788.86 L28.3562 782.653 L58.275 771.513 L28.3562 760.373 L28.3562 754.167 L64.0042 767.534 L64.0042 775.492 L28.3562 788.86 Z" fill="#000000" fill-rule="nonzero" fill-opacity="1" /><path clip-path="url(#clip650)" d="M44.7161 715.59 L47.5806 715.59 L47.5806 742.517 Q53.6281 742.135 56.8109 738.889 Q59.9619 735.61 59.9619 729.786 Q59.9619 726.412 59.1344 723.261 Q58.3069 720.078 56.6518 716.959 L62.1899 716.959 Q63.5267 720.11 64.227 723.42 Q64.9272 726.73 64.9272 730.136 Q64.9272 738.666 59.9619 743.663 Q54.9967 748.628 46.5303 748.628 Q37.7774 748.628 32.6531 743.918 Q27.4968 739.175 27.4968 731.154 Q27.4968 723.961 32.1438 719.792 Q36.7589 715.59 44.7161 715.59 M42.9973 721.447 Q38.1912 721.51 35.3266 724.152 Q32.4621 726.762 32.4621 731.091 Q32.4621 735.992 35.2312 738.952 Q38.0002 741.881 43.0292 742.326 L42.9973 721.447 Z" fill="#000000" fill-rule="nonzero" fill-opacity="1" /><path clip-path="url(#clip650)" d="M28.3562 689.459 L28.3562 683.253 L58.275 672.113 L28.3562 660.973 L28.3562 654.766 L64.0042 668.134 L64.0042 676.091 L28.3562 689.459 Z" fill="#000000" fill-rule="nonzero" fill-opacity="1" /><path clip-path="url(#clip650)" d="M46.0847 630.481 Q46.0847 637.579 47.7079 640.316 Q49.3312 643.053 53.2461 643.053 Q56.3653 643.053 58.2114 641.016 Q60.0256 638.947 60.0256 635.414 Q60.0256 630.544 56.5881 627.616 Q53.1188 624.656 47.3897 624.656 L46.0847 624.656 L46.0847 630.481 M43.6657 618.8 L64.0042 618.8 L64.0042 624.656 L58.5933 624.656 Q61.8398 626.661 63.3994 629.653 Q64.9272 632.645 64.9272 636.974 Q64.9272 642.448 61.8716 645.695 Q58.7843 648.91 53.6281 648.91 Q47.6125 648.91 44.5569 644.899 Q41.5014 640.857 41.5014 632.868 L41.5014 624.656 L40.9285 624.656 Q36.8862 624.656 34.6901 627.33 Q32.4621 629.972 32.4621 634.778 Q32.4621 637.833 33.1941 640.73 Q33.9262 643.626 35.3903 646.3 L29.9795 646.3 Q28.7381 643.085 28.1334 640.061 Q27.4968 637.038 27.4968 634.173 Q27.4968 626.439 31.5072 622.619 Q35.5176 618.8 43.6657 618.8 Z" fill="#000000" fill-rule="nonzero" fill-opacity="1" /><path clip-path="url(#clip650)" d="M14.479 606.737 L14.479 600.88 L64.0042 600.88 L64.0042 606.737 L14.479 606.737 Z" fill="#000000" fill-rule="nonzero" fill-opacity="1" /><path clip-path="url(#clip650)" d="M49.9359 589.231 L28.3562 589.231 L28.3562 583.375 L49.7131 583.375 Q54.7739 583.375 57.3202 581.401 Q59.8346 579.428 59.8346 575.481 Q59.8346 570.739 56.8109 568.001 Q53.7872 565.232 48.5673 565.232 L28.3562 565.232 L28.3562 559.376 L64.0042 559.376 L64.0042 565.232 L58.5296 565.232 Q61.7762 567.365 63.3676 570.198 Q64.9272 572.999 64.9272 576.722 Q64.9272 582.865 61.1078 586.048 Q57.2883 589.231 49.9359 589.231 M27.4968 574.494 L27.4968 574.494 Z" fill="#000000" fill-rule="nonzero" fill-opacity="1" /><path clip-path="url(#clip650)" d="M44.7161 516.821 L47.5806 516.821 L47.5806 543.748 Q53.6281 543.366 56.8109 540.12 Q59.9619 536.841 59.9619 531.017 Q59.9619 527.643 59.1344 524.492 Q58.3069 521.309 56.6518 518.19 L62.1899 518.19 Q63.5267 521.341 64.227 524.651 Q64.9272 527.961 64.9272 531.367 Q64.9272 539.897 59.9619 544.894 Q54.9967 549.859 46.5303 549.859 Q37.7774 549.859 32.6531 545.149 Q27.4968 540.406 27.4968 532.385 Q27.4968 525.192 32.1438 521.023 Q36.7589 516.821 44.7161 516.821 M42.9973 522.678 Q38.1912 522.741 35.3266 525.383 Q32.4621 527.993 32.4621 532.322 Q32.4621 537.223 35.2312 540.183 Q38.0002 543.112 43.0292 543.557 L42.9973 522.678 Z" fill="#000000" fill-rule="nonzero" fill-opacity="1" /><path clip-path="url(#clip650)" d="M966.2 14.0809 L966.2 22.0612 Q961.541 19.8332 957.409 18.7395 Q953.278 17.6457 949.429 17.6457 Q942.745 17.6457 939.099 20.2383 Q935.494 22.8309 935.494 27.611 Q935.494 31.6214 937.884 33.6873 Q940.315 35.7128 947.039 36.9686 L951.981 37.9813 Q961.136 39.7232 965.471 44.1387 Q969.846 48.5136 969.846 55.8863 Q969.846 64.6767 963.931 69.2137 Q958.058 73.7508 946.675 73.7508 Q942.381 73.7508 937.52 72.7785 Q932.699 71.8063 927.514 69.9024 L927.514 61.4765 Q932.496 64.2716 937.276 65.6895 Q942.057 67.1073 946.675 67.1073 Q953.683 67.1073 957.491 64.3527 Q961.298 61.598 961.298 56.4939 Q961.298 52.0379 958.544 49.5264 Q955.83 47.0148 949.591 45.759 L944.609 44.7868 Q935.454 42.9639 931.362 39.075 Q927.271 35.1862 927.271 28.2591 Q927.271 20.2383 932.902 15.6203 Q938.573 11.0023 948.498 11.0023 Q952.751 11.0023 957.166 11.7719 Q961.582 12.5416 966.2 14.0809 Z" fill="#000000" fill-rule="nonzero" fill-opacity="1" /><path clip-path="url(#clip650)" d="M1004.36 20.1573 L993.26 50.2555 L1015.5 50.2555 L1004.36 20.1573 M999.741 12.096 L1009.02 12.096 L1032.07 72.576 L1023.56 72.576 L1018.05 57.061 L990.789 57.061 L985.28 72.576 L976.651 72.576 L999.741 12.096 Z" fill="#000000" fill-rule="nonzero" fill-opacity="1" /><path clip-path="url(#clip650)" d="M1063.42 20.1573 L1052.32 50.2555 L1074.56 50.2555 L1063.42 20.1573 M1058.8 12.096 L1068.08 12.096 L1091.13 72.576 L1082.62 72.576 L1077.11 57.061 L1049.85 57.061 L1044.34 72.576 L1035.71 72.576 L1058.8 12.096 Z" fill="#000000" fill-rule="nonzero" fill-opacity="1" /><path clip-path="url(#clip650)" d="M1171.62 16.7545 L1171.62 25.383 Q1167.49 21.5346 1162.79 19.6307 Q1158.13 17.7268 1152.87 17.7268 Q1142.5 17.7268 1136.99 24.0867 Q1131.48 30.4061 1131.48 42.3968 Q1131.48 54.3469 1136.99 60.7069 Q1142.5 67.0263 1152.87 67.0263 Q1158.13 67.0263 1162.79 65.1223 Q1167.49 63.2184 1171.62 59.3701 L1171.62 67.9175 Q1167.33 70.8341 1162.51 72.2924 Q1157.73 73.7508 1152.38 73.7508 Q1138.65 73.7508 1130.75 65.3654 Q1122.85 56.9395 1122.85 42.3968 Q1122.85 27.8135 1130.75 19.4281 Q1138.65 11.0023 1152.38 11.0023 Q1157.81 11.0023 1162.59 12.4606 Q1167.41 13.8784 1171.62 16.7545 Z" fill="#000000" fill-rule="nonzero" fill-opacity="1" /><path clip-path="url(#clip650)" d="M1201.52 32.4315 Q1195.52 32.4315 1192.04 37.1306 Q1188.55 41.7891 1188.55 49.9314 Q1188.55 58.0738 1192 62.7728 Q1195.48 67.4314 1201.52 67.4314 Q1207.47 67.4314 1210.96 62.7323 Q1214.44 58.0333 1214.44 49.9314 Q1214.44 41.8701 1210.96 37.1711 Q1207.47 32.4315 1201.52 32.4315 M1201.52 26.1121 Q1211.24 26.1121 1216.79 32.4315 Q1222.34 38.7509 1222.34 49.9314 Q1222.34 61.0714 1216.79 67.4314 Q1211.24 73.7508 1201.52 73.7508 Q1191.75 73.7508 1186.2 67.4314 Q1180.7 61.0714 1180.7 49.9314 Q1180.7 38.7509 1186.2 32.4315 Q1191.75 26.1121 1201.52 26.1121 Z" fill="#000000" fill-rule="nonzero" fill-opacity="1" /><path clip-path="url(#clip650)" d="M1272.41 45.1919 L1272.41 72.576 L1264.95 72.576 L1264.95 45.4349 Q1264.95 38.994 1262.44 35.7938 Q1259.93 32.5936 1254.91 32.5936 Q1248.87 32.5936 1245.39 36.4419 Q1241.9 40.2903 1241.9 46.9338 L1241.9 72.576 L1234.41 72.576 L1234.41 27.2059 L1241.9 27.2059 L1241.9 34.2544 Q1244.58 30.163 1248.18 28.1376 Q1251.83 26.1121 1256.57 26.1121 Q1264.39 26.1121 1268.4 30.9732 Q1272.41 35.7938 1272.41 45.1919 Z" fill="#000000" fill-rule="nonzero" fill-opacity="1" /><path clip-path="url(#clip650)" d="M1281.93 27.2059 L1289.83 27.2059 L1304 65.2844 L1318.18 27.2059 L1326.08 27.2059 L1309.07 72.576 L1298.94 72.576 L1281.93 27.2059 Z" fill="#000000" fill-rule="nonzero" fill-opacity="1" /><path clip-path="url(#clip650)" d="M1375.18 48.0275 L1375.18 51.6733 L1340.91 51.6733 Q1341.39 59.3701 1345.53 63.421 Q1349.7 67.4314 1357.11 67.4314 Q1361.41 67.4314 1365.42 66.3781 Q1369.47 65.3249 1373.44 63.2184 L1373.44 70.267 Q1369.43 71.9684 1365.21 72.8596 Q1361 73.7508 1356.67 73.7508 Q1345.81 73.7508 1339.45 67.4314 Q1333.13 61.1119 1333.13 50.3365 Q1333.13 39.1965 1339.13 32.6746 Q1345.16 26.1121 1355.37 26.1121 Q1364.53 26.1121 1369.83 32.0264 Q1375.18 37.9003 1375.18 48.0275 M1367.73 45.84 Q1367.64 39.7232 1364.28 36.0774 Q1360.96 32.4315 1355.45 32.4315 Q1349.21 32.4315 1345.45 35.9558 Q1341.72 39.4801 1341.15 45.8805 L1367.73 45.84 Z" fill="#000000" fill-rule="nonzero" fill-opacity="1" /><path clip-path="url(#clip650)" d="M1413.7 34.1734 Q1412.45 33.4443 1410.95 33.1202 Q1409.49 32.7556 1407.71 32.7556 Q1401.39 32.7556 1397.99 36.8875 Q1394.62 40.9789 1394.62 48.6757 L1394.62 72.576 L1387.13 72.576 L1387.13 27.2059 L1394.62 27.2059 L1394.62 34.2544 Q1396.97 30.1225 1400.74 28.1376 Q1404.51 26.1121 1409.9 26.1121 Q1410.67 26.1121 1411.6 26.2337 Q1412.53 26.3147 1413.66 26.5172 L1413.7 34.1734 Z" fill="#000000" fill-rule="nonzero" fill-opacity="1" /><path clip-path="url(#clip650)" d="M1449.92 49.3643 Q1449.92 41.2625 1446.56 36.8065 Q1443.23 32.3505 1437.2 32.3505 Q1431.2 32.3505 1427.84 36.8065 Q1424.52 41.2625 1424.52 49.3643 Q1424.52 57.4256 1427.84 61.8816 Q1431.2 66.3376 1437.2 66.3376 Q1443.23 66.3376 1446.56 61.8816 Q1449.92 57.4256 1449.92 49.3643 M1457.37 66.9452 Q1457.37 78.5308 1452.23 84.1616 Q1447.08 89.8329 1436.47 89.8329 Q1432.54 89.8329 1429.06 89.2252 Q1425.57 88.6581 1422.29 87.4428 L1422.29 80.1917 Q1425.57 81.9741 1428.77 82.8248 Q1431.97 83.6755 1435.29 83.6755 Q1442.63 83.6755 1446.27 79.8271 Q1449.92 76.0193 1449.92 68.282 L1449.92 64.5957 Q1447.61 68.6061 1444 70.5911 Q1440.4 72.576 1435.38 72.576 Q1427.03 72.576 1421.93 66.2161 Q1416.82 59.8562 1416.82 49.3643 Q1416.82 38.832 1421.93 32.472 Q1427.03 26.1121 1435.38 26.1121 Q1440.4 26.1121 1444 28.0971 Q1447.61 30.082 1449.92 34.0924 L1449.92 27.2059 L1457.37 27.2059 L1457.37 66.9452 Z" fill="#000000" fill-rule="nonzero" fill-opacity="1" /><path clip-path="url(#clip650)" d="M1511.53 48.0275 L1511.53 51.6733 L1477.26 51.6733 Q1477.75 59.3701 1481.88 63.421 Q1486.05 67.4314 1493.47 67.4314 Q1497.76 67.4314 1501.77 66.3781 Q1505.82 65.3249 1509.79 63.2184 L1509.79 70.267 Q1505.78 71.9684 1501.57 72.8596 Q1497.35 73.7508 1493.02 73.7508 Q1482.16 73.7508 1475.8 67.4314 Q1469.48 61.1119 1469.48 50.3365 Q1469.48 39.1965 1475.48 32.6746 Q1481.52 26.1121 1491.72 26.1121 Q1500.88 26.1121 1506.19 32.0264 Q1511.53 37.9003 1511.53 48.0275 M1504.08 45.84 Q1504 39.7232 1500.64 36.0774 Q1497.31 32.4315 1491.8 32.4315 Q1485.57 32.4315 1481.8 35.9558 Q1478.07 39.4801 1477.51 45.8805 L1504.08 45.84 Z" fill="#000000" fill-rule="nonzero" fill-opacity="1" /><path clip-path="url(#clip650)" d="M1561.48 45.1919 L1561.48 72.576 L1554.03 72.576 L1554.03 45.4349 Q1554.03 38.994 1551.52 35.7938 Q1549 32.5936 1543.98 32.5936 Q1537.94 32.5936 1534.46 36.4419 Q1530.98 40.2903 1530.98 46.9338 L1530.98 72.576 L1523.48 72.576 L1523.48 27.2059 L1530.98 27.2059 L1530.98 34.2544 Q1533.65 30.163 1537.26 28.1376 Q1540.9 26.1121 1545.64 26.1121 Q1553.46 26.1121 1557.47 30.9732 Q1561.48 35.7938 1561.48 45.1919 Z" fill="#000000" fill-rule="nonzero" fill-opacity="1" /><path clip-path="url(#clip650)" d="M1609 28.9478 L1609 35.9153 Q1605.84 34.1734 1602.64 33.3227 Q1599.48 32.4315 1596.24 32.4315 Q1588.99 32.4315 1584.98 37.0496 Q1580.97 41.6271 1580.97 49.9314 Q1580.97 58.2358 1584.98 62.8538 Q1588.99 67.4314 1596.24 67.4314 Q1599.48 67.4314 1602.64 66.5807 Q1605.84 65.6895 1609 63.9476 L1609 70.8341 Q1605.88 72.2924 1602.52 73.0216 Q1599.19 73.7508 1595.43 73.7508 Q1585.18 73.7508 1579.14 67.3098 Q1573.11 60.8689 1573.11 49.9314 Q1573.11 38.832 1579.18 32.472 Q1585.3 26.1121 1595.91 26.1121 Q1599.36 26.1121 1602.64 26.8413 Q1605.92 27.5299 1609 28.9478 Z" fill="#000000" fill-rule="nonzero" fill-opacity="1" /><path clip-path="url(#clip650)" d="M1660.77 48.0275 L1660.77 51.6733 L1626.5 51.6733 Q1626.98 59.3701 1631.12 63.421 Q1635.29 67.4314 1642.7 67.4314 Q1646.99 67.4314 1651.01 66.3781 Q1655.06 65.3249 1659.03 63.2184 L1659.03 70.267 Q1655.02 71.9684 1650.8 72.8596 Q1646.59 73.7508 1642.26 73.7508 Q1631.4 73.7508 1625.04 67.4314 Q1618.72 61.1119 1618.72 50.3365 Q1618.72 39.1965 1624.71 32.6746 Q1630.75 26.1121 1640.96 26.1121 Q1650.11 26.1121 1655.42 32.0264 Q1660.77 37.9003 1660.77 48.0275 M1653.31 45.84 Q1653.23 39.7232 1649.87 36.0774 Q1646.55 32.4315 1641.04 32.4315 Q1634.8 32.4315 1631.03 35.9558 Q1627.31 39.4801 1626.74 45.8805 L1653.31 45.84 Z" fill="#000000" fill-rule="nonzero" fill-opacity="1" /><polyline clip-path="url(#clip651)" style="stroke:#008000; stroke-linecap:round; stroke-linejoin:round; stroke-width:8; stroke-opacity:1; fill:none" points="295.211,277.091 692.677,720.077 993.348,920.48 1294.02,880.805 1594.69,973.946 1992.16,1257.69 2292.83,1163.49 "/>
<circle clip-path="url(#clip651)" cx="295.211" cy="277.091" r="14.4" fill="#008000" fill-rule="evenodd" fill-opacity="1" stroke="#000000" stroke-opacity="1" stroke-width="3.2"/>
<circle clip-path="url(#clip651)" cx="692.677" cy="720.077" r="14.4" fill="#008000" fill-rule="evenodd" fill-opacity="1" stroke="#000000" stroke-opacity="1" stroke-width="3.2"/>
<circle clip-path="url(#clip651)" cx="993.348" cy="920.48" r="14.4" fill="#008000" fill-rule="evenodd" fill-opacity="1" stroke="#000000" stroke-opacity="1" stroke-width="3.2"/>
<circle clip-path="url(#clip651)" cx="1294.02" cy="880.805" r="14.4" fill="#008000" fill-rule="evenodd" fill-opacity="1" stroke="#000000" stroke-opacity="1" stroke-width="3.2"/>
<circle clip-path="url(#clip651)" cx="1594.69" cy="973.946" r="14.4" fill="#008000" fill-rule="evenodd" fill-opacity="1" stroke="#000000" stroke-opacity="1" stroke-width="3.2"/>
<circle clip-path="url(#clip651)" cx="1992.16" cy="1257.69" r="14.4" fill="#008000" fill-rule="evenodd" fill-opacity="1" stroke="#000000" stroke-opacity="1" stroke-width="3.2"/>
<circle clip-path="url(#clip651)" cx="2292.83" cy="1163.49" r="14.4" fill="#008000" fill-rule="evenodd" fill-opacity="1" stroke="#000000" stroke-opacity="1" stroke-width="3.2"/>
<polyline clip-path="url(#clip651)" style="stroke:#4682b4; stroke-linecap:round; stroke-linejoin:round; stroke-width:4; stroke-opacity:1; fill:none" stroke-dasharray="16, 10" points="-1882.19,1374.46 4470.23,1374.46 "/>
<polyline clip-path="url(#clip651)" style="stroke:#ff8c00; stroke-linecap:round; stroke-linejoin:round; stroke-width:4; stroke-opacity:1; fill:none" stroke-dasharray="16, 10" points="-1882.19,159.909 4470.23,159.909 "/>
<path clip-path="url(#clip650)" d="M1636.68 373.746 L2282.17 373.746 L2282.17 166.386 L1636.68 166.386  Z" fill="#ffffff" fill-rule="evenodd" fill-opacity="1"/>
<polyline clip-path="url(#clip650)" style="stroke:#000000; stroke-linecap:round; stroke-linejoin:round; stroke-width:4; stroke-opacity:1; fill:none" points="1636.68,373.746 2282.17,373.746 2282.17,166.386 1636.68,166.386 1636.68,373.746 "/>
<polyline clip-path="url(#clip650)" style="stroke:#008000; stroke-linecap:round; stroke-linejoin:round; stroke-width:8; stroke-opacity:1; fill:none" points="1660.21,218.226 1801.37,218.226 "/>
<circle clip-path="url(#clip650)" cx="1730.79" cy="218.226" r="19.6062" fill="#008000" fill-rule="evenodd" fill-opacity="1" stroke="#000000" stroke-opacity="1" stroke-width="4.55111"/>
<path clip-path="url(#clip650)" d="M1847.14 202.081 L1847.14 206.641 Q1844.48 205.368 1842.12 204.743 Q1839.76 204.118 1837.56 204.118 Q1833.74 204.118 1831.66 205.599 Q1829.6 207.081 1829.6 209.812 Q1829.6 212.104 1830.96 213.284 Q1832.35 214.442 1836.19 215.159 L1839.02 215.738 Q1844.25 216.733 1846.73 219.256 Q1849.23 221.756 1849.23 225.969 Q1849.23 230.992 1845.85 233.585 Q1842.49 236.178 1835.99 236.178 Q1833.53 236.178 1830.75 235.622 Q1828 235.066 1825.04 233.979 L1825.04 229.164 Q1827.88 230.761 1830.62 231.571 Q1833.35 232.381 1835.99 232.381 Q1839.99 232.381 1842.17 230.807 Q1844.34 229.233 1844.34 226.317 Q1844.34 223.77 1842.77 222.335 Q1841.22 220.9 1837.65 220.182 L1834.81 219.627 Q1829.57 218.585 1827.24 216.363 Q1824.9 214.141 1824.9 210.182 Q1824.9 205.599 1828.12 202.96 Q1831.36 200.321 1837.03 200.321 Q1839.46 200.321 1841.98 200.761 Q1844.5 201.201 1847.14 202.081 Z" fill="#000000" fill-rule="nonzero" fill-opacity="1" /><path clip-path="url(#clip650)" d="M1868.12 222.474 Q1862.95 222.474 1860.96 223.654 Q1858.97 224.835 1858.97 227.682 Q1858.97 229.951 1860.45 231.293 Q1861.96 232.613 1864.53 232.613 Q1868.07 232.613 1870.2 230.113 Q1872.35 227.59 1872.35 223.423 L1872.35 222.474 L1868.12 222.474 M1876.61 220.715 L1876.61 235.506 L1872.35 235.506 L1872.35 231.571 Q1870.89 233.932 1868.72 235.066 Q1866.54 236.178 1863.39 236.178 Q1859.41 236.178 1857.05 233.955 Q1854.71 231.71 1854.71 227.96 Q1854.71 223.585 1857.63 221.363 Q1860.57 219.141 1866.38 219.141 L1872.35 219.141 L1872.35 218.724 Q1872.35 215.784 1870.41 214.187 Q1868.49 212.567 1864.99 212.567 Q1862.77 212.567 1860.66 213.099 Q1858.56 213.631 1856.61 214.696 L1856.61 210.761 Q1858.95 209.858 1861.15 209.418 Q1863.35 208.955 1865.43 208.955 Q1871.06 208.955 1873.83 211.872 Q1876.61 214.789 1876.61 220.715 Z" fill="#000000" fill-rule="nonzero" fill-opacity="1" /><path clip-path="url(#clip650)" d="M1905.57 214.557 Q1907.17 211.687 1909.39 210.321 Q1911.61 208.955 1914.62 208.955 Q1918.67 208.955 1920.87 211.803 Q1923.07 214.627 1923.07 219.858 L1923.07 235.506 L1918.79 235.506 L1918.79 219.997 Q1918.79 216.27 1917.47 214.465 Q1916.15 212.659 1913.44 212.659 Q1910.13 212.659 1908.21 214.858 Q1906.29 217.057 1906.29 220.854 L1906.29 235.506 L1902 235.506 L1902 219.997 Q1902 216.247 1900.68 214.465 Q1899.37 212.659 1896.61 212.659 Q1893.35 212.659 1891.43 214.881 Q1889.5 217.08 1889.5 220.854 L1889.5 235.506 L1885.22 235.506 L1885.22 209.58 L1889.5 209.58 L1889.5 213.608 Q1890.96 211.224 1893 210.09 Q1895.04 208.955 1897.84 208.955 Q1900.66 208.955 1902.63 210.391 Q1904.62 211.826 1905.57 214.557 Z" fill="#000000" fill-rule="nonzero" fill-opacity="1" /><path clip-path="url(#clip650)" d="M1935.68 231.617 L1935.68 245.367 L1931.4 245.367 L1931.4 209.58 L1935.68 209.58 L1935.68 213.516 Q1937.03 211.201 1939.06 210.09 Q1941.12 208.955 1943.97 208.955 Q1948.69 208.955 1951.63 212.705 Q1954.6 216.455 1954.6 222.567 Q1954.6 228.678 1951.63 232.428 Q1948.69 236.178 1943.97 236.178 Q1941.12 236.178 1939.06 235.066 Q1937.03 233.932 1935.68 231.617 M1950.18 222.567 Q1950.18 217.867 1948.23 215.205 Q1946.31 212.52 1942.93 212.52 Q1939.55 212.52 1937.61 215.205 Q1935.68 217.867 1935.68 222.567 Q1935.68 227.266 1937.61 229.951 Q1939.55 232.613 1942.93 232.613 Q1946.31 232.613 1948.23 229.951 Q1950.18 227.266 1950.18 222.567 Z" fill="#000000" fill-rule="nonzero" fill-opacity="1" /><path clip-path="url(#clip650)" d="M1961.66 199.488 L1965.92 199.488 L1965.92 235.506 L1961.66 235.506 L1961.66 199.488 Z" fill="#000000" fill-rule="nonzero" fill-opacity="1" /><path clip-path="url(#clip650)" d="M1997 221.479 L1997 223.562 L1977.42 223.562 Q1977.7 227.96 1980.06 230.275 Q1982.44 232.566 1986.68 232.566 Q1989.13 232.566 1991.43 231.965 Q1993.74 231.363 1996.01 230.159 L1996.01 234.187 Q1993.72 235.159 1991.31 235.668 Q1988.9 236.178 1986.43 236.178 Q1980.22 236.178 1976.59 232.566 Q1972.98 228.955 1972.98 222.798 Q1972.98 216.432 1976.4 212.705 Q1979.85 208.955 1985.68 208.955 Q1990.92 208.955 1993.95 212.335 Q1997 215.692 1997 221.479 M1992.74 220.229 Q1992.7 216.733 1990.78 214.65 Q1988.88 212.567 1985.73 212.567 Q1982.17 212.567 1980.01 214.58 Q1977.88 216.594 1977.56 220.252 L1992.74 220.229 Z" fill="#000000" fill-rule="nonzero" fill-opacity="1" /><path clip-path="url(#clip650)" d="M2021.05 213.516 L2021.05 199.488 L2025.31 199.488 L2025.31 235.506 L2021.05 235.506 L2021.05 231.617 Q2019.71 233.932 2017.65 235.066 Q2015.61 236.178 2012.74 236.178 Q2008.05 236.178 2005.08 232.428 Q2002.14 228.678 2002.14 222.567 Q2002.14 216.455 2005.08 212.705 Q2008.05 208.955 2012.74 208.955 Q2015.61 208.955 2017.65 210.09 Q2019.71 211.201 2021.05 213.516 M2006.54 222.567 Q2006.54 227.266 2008.46 229.951 Q2010.41 232.613 2013.79 232.613 Q2017.17 232.613 2019.11 229.951 Q2021.05 227.266 2021.05 222.567 Q2021.05 217.867 2019.11 215.205 Q2017.17 212.52 2013.79 212.52 Q2010.41 212.52 2008.46 215.205 Q2006.54 217.867 2006.54 222.567 Z" fill="#000000" fill-rule="nonzero" fill-opacity="1" /><path clip-path="url(#clip650)" d="M2059.2 212.567 Q2055.78 212.567 2053.79 215.252 Q2051.8 217.914 2051.8 222.567 Q2051.8 227.219 2053.76 229.904 Q2055.75 232.566 2059.2 232.566 Q2062.61 232.566 2064.6 229.881 Q2066.59 227.196 2066.59 222.567 Q2066.59 217.96 2064.6 215.275 Q2062.61 212.567 2059.2 212.567 M2059.2 208.955 Q2064.76 208.955 2067.93 212.567 Q2071.1 216.178 2071.1 222.567 Q2071.1 228.932 2067.93 232.566 Q2064.76 236.178 2059.2 236.178 Q2053.62 236.178 2050.45 232.566 Q2047.3 228.932 2047.3 222.567 Q2047.3 216.178 2050.45 212.567 Q2053.62 208.955 2059.2 208.955 Z" fill="#000000" fill-rule="nonzero" fill-opacity="1" /><path clip-path="url(#clip650)" d="M2096.77 222.567 Q2096.77 217.867 2094.83 215.205 Q2092.91 212.52 2089.53 212.52 Q2086.15 212.52 2084.2 215.205 Q2082.28 217.867 2082.28 222.567 Q2082.28 227.266 2084.2 229.951 Q2086.15 232.613 2089.53 232.613 Q2092.91 232.613 2094.83 229.951 Q2096.77 227.266 2096.77 222.567 M2082.28 213.516 Q2083.62 211.201 2085.66 210.09 Q2087.72 208.955 2090.57 208.955 Q2095.29 208.955 2098.23 212.705 Q2101.19 216.455 2101.19 222.567 Q2101.19 228.678 2098.23 232.428 Q2095.29 236.178 2090.57 236.178 Q2087.72 236.178 2085.66 235.066 Q2083.62 233.932 2082.28 231.617 L2082.28 235.506 L2078 235.506 L2078 199.488 L2082.28 199.488 L2082.28 213.516 Z" fill="#000000" fill-rule="nonzero" fill-opacity="1" /><path clip-path="url(#clip650)" d="M2108.25 209.58 L2112.51 209.58 L2112.51 235.969 Q2112.51 240.923 2110.61 243.145 Q2108.74 245.367 2104.55 245.367 L2102.93 245.367 L2102.93 241.756 L2104.06 241.756 Q2106.49 241.756 2107.37 240.622 Q2108.25 239.511 2108.25 235.969 L2108.25 209.58 M2108.25 199.488 L2112.51 199.488 L2112.51 204.881 L2108.25 204.881 L2108.25 199.488 Z" fill="#000000" fill-rule="nonzero" fill-opacity="1" /><path clip-path="url(#clip650)" d="M2143.6 221.479 L2143.6 223.562 L2124.02 223.562 Q2124.29 227.96 2126.66 230.275 Q2129.04 232.566 2133.28 232.566 Q2135.73 232.566 2138.02 231.965 Q2140.34 231.363 2142.6 230.159 L2142.6 234.187 Q2140.31 235.159 2137.91 235.668 Q2135.5 236.178 2133.02 236.178 Q2126.82 236.178 2123.18 232.566 Q2119.57 228.955 2119.57 222.798 Q2119.57 216.432 2123 212.705 Q2126.45 208.955 2132.28 208.955 Q2137.51 208.955 2140.54 212.335 Q2143.6 215.692 2143.6 221.479 M2139.34 220.229 Q2139.29 216.733 2137.37 214.65 Q2135.48 212.567 2132.33 212.567 Q2128.76 212.567 2126.61 214.58 Q2124.48 216.594 2124.16 220.252 L2139.34 220.229 Z" fill="#000000" fill-rule="nonzero" fill-opacity="1" /><path clip-path="url(#clip650)" d="M2169.25 210.576 L2169.25 214.557 Q2167.44 213.562 2165.61 213.076 Q2163.81 212.567 2161.96 212.567 Q2157.81 212.567 2155.52 215.205 Q2153.23 217.821 2153.23 222.567 Q2153.23 227.312 2155.52 229.951 Q2157.81 232.566 2161.96 232.566 Q2163.81 232.566 2165.61 232.08 Q2167.44 231.571 2169.25 230.576 L2169.25 234.511 Q2167.47 235.344 2165.54 235.761 Q2163.65 236.178 2161.49 236.178 Q2155.64 236.178 2152.19 232.497 Q2148.74 228.816 2148.74 222.567 Q2148.74 216.224 2152.21 212.59 Q2155.71 208.955 2161.77 208.955 Q2163.74 208.955 2165.61 209.372 Q2167.49 209.766 2169.25 210.576 Z" fill="#000000" fill-rule="nonzero" fill-opacity="1" /><path clip-path="url(#clip650)" d="M2180.87 202.219 L2180.87 209.58 L2189.64 209.58 L2189.64 212.891 L2180.87 212.891 L2180.87 226.965 Q2180.87 230.136 2181.73 231.039 Q2182.6 231.941 2185.27 231.941 L2189.64 231.941 L2189.64 235.506 L2185.27 235.506 Q2180.34 235.506 2178.46 233.678 Q2176.59 231.826 2176.59 226.965 L2176.59 212.891 L2173.46 212.891 L2173.46 209.58 L2176.59 209.58 L2176.59 202.219 L2180.87 202.219 Z" fill="#000000" fill-rule="nonzero" fill-opacity="1" /><path clip-path="url(#clip650)" d="M2195.24 209.58 L2199.5 209.58 L2199.5 235.506 L2195.24 235.506 L2195.24 209.58 M2195.24 199.488 L2199.5 199.488 L2199.5 204.881 L2195.24 204.881 L2195.24 199.488 Z" fill="#000000" fill-rule="nonzero" fill-opacity="1" /><path clip-path="url(#clip650)" d="M2205.36 209.58 L2209.87 209.58 L2217.97 231.34 L2226.08 209.58 L2230.59 209.58 L2220.87 235.506 L2215.08 235.506 L2205.36 209.58 Z" fill="#000000" fill-rule="nonzero" fill-opacity="1" /><path clip-path="url(#clip650)" d="M2258.65 221.479 L2258.65 223.562 L2239.06 223.562 Q2239.34 227.96 2241.7 230.275 Q2244.09 232.566 2248.32 232.566 Q2250.78 232.566 2253.07 231.965 Q2255.38 231.363 2257.65 230.159 L2257.65 234.187 Q2255.36 235.159 2252.95 235.668 Q2250.54 236.178 2248.07 236.178 Q2241.86 236.178 2238.23 232.566 Q2234.62 228.955 2234.62 222.798 Q2234.62 216.432 2238.04 212.705 Q2241.49 208.955 2247.33 208.955 Q2252.56 208.955 2255.59 212.335 Q2258.65 215.692 2258.65 221.479 M2254.39 220.229 Q2254.34 216.733 2252.42 214.65 Q2250.52 212.567 2247.37 212.567 Q2243.81 212.567 2241.66 214.58 Q2239.53 216.594 2239.2 220.252 L2254.39 220.229 Z" fill="#000000" fill-rule="nonzero" fill-opacity="1" /><polyline clip-path="url(#clip650)" style="stroke:#4682b4; stroke-linecap:round; stroke-linejoin:round; stroke-width:4; stroke-opacity:1; fill:none" stroke-dasharray="16, 10" points="1660.21,270.066 1801.37,270.066 "/>
<path clip-path="url(#clip650)" d="M1829.57 256.629 L1829.57 269.615 L1835.45 269.615 Q1838.72 269.615 1840.5 267.925 Q1842.28 266.235 1842.28 263.11 Q1842.28 260.008 1840.5 258.319 Q1838.72 256.629 1835.45 256.629 L1829.57 256.629 M1824.9 252.786 L1835.45 252.786 Q1841.26 252.786 1844.23 255.425 Q1847.21 258.041 1847.21 263.11 Q1847.21 268.226 1844.23 270.842 Q1841.26 273.457 1835.45 273.457 L1829.57 273.457 L1829.57 287.346 L1824.9 287.346 L1824.9 252.786 Z" fill="#000000" fill-rule="nonzero" fill-opacity="1" /><path clip-path="url(#clip650)" d="M1867.49 265.402 Q1866.77 264.985 1865.92 264.8 Q1865.08 264.592 1864.06 264.592 Q1860.45 264.592 1858.51 266.953 Q1856.59 269.291 1856.59 273.689 L1856.59 287.346 L1852.31 287.346 L1852.31 261.42 L1856.59 261.42 L1856.59 265.448 Q1857.93 263.087 1860.08 261.953 Q1862.24 260.795 1865.31 260.795 Q1865.75 260.795 1866.29 260.865 Q1866.82 260.911 1867.47 261.027 L1867.49 265.402 Z" fill="#000000" fill-rule="nonzero" fill-opacity="1" /><path clip-path="url(#clip650)" d="M1871.96 261.42 L1876.22 261.42 L1876.22 287.346 L1871.96 287.346 L1871.96 261.42 M1871.96 251.328 L1876.22 251.328 L1876.22 256.721 L1871.96 256.721 L1871.96 251.328 Z" fill="#000000" fill-rule="nonzero" fill-opacity="1" /><path clip-path="url(#clip650)" d="M1905.31 266.397 Q1906.91 263.527 1909.13 262.161 Q1911.36 260.795 1914.37 260.795 Q1918.42 260.795 1920.62 263.643 Q1922.81 266.467 1922.81 271.698 L1922.81 287.346 L1918.53 287.346 L1918.53 271.837 Q1918.53 268.11 1917.21 266.305 Q1915.89 264.499 1913.18 264.499 Q1909.87 264.499 1907.95 266.698 Q1906.03 268.897 1906.03 272.694 L1906.03 287.346 L1901.75 287.346 L1901.75 271.837 Q1901.75 268.087 1900.43 266.305 Q1899.11 264.499 1896.36 264.499 Q1893.09 264.499 1891.17 266.721 Q1889.25 268.92 1889.25 272.694 L1889.25 287.346 L1884.97 287.346 L1884.97 261.42 L1889.25 261.42 L1889.25 265.448 Q1890.71 263.064 1892.75 261.93 Q1894.78 260.795 1897.58 260.795 Q1900.41 260.795 1902.37 262.231 Q1904.37 263.666 1905.31 266.397 Z" fill="#000000" fill-rule="nonzero" fill-opacity="1" /><path clip-path="url(#clip650)" d="M1943.09 274.314 Q1937.93 274.314 1935.94 275.494 Q1933.95 276.675 1933.95 279.522 Q1933.95 281.791 1935.43 283.133 Q1936.93 284.453 1939.5 284.453 Q1943.05 284.453 1945.18 281.953 Q1947.33 279.43 1947.33 275.263 L1947.33 274.314 L1943.09 274.314 M1951.59 272.555 L1951.59 287.346 L1947.33 287.346 L1947.33 283.411 Q1945.87 285.772 1943.69 286.906 Q1941.52 288.018 1938.37 288.018 Q1934.39 288.018 1932.03 285.795 Q1929.69 283.55 1929.69 279.8 Q1929.69 275.425 1932.61 273.203 Q1935.55 270.981 1941.36 270.981 L1947.33 270.981 L1947.33 270.564 Q1947.33 267.624 1945.38 266.027 Q1943.46 264.407 1939.97 264.407 Q1937.74 264.407 1935.64 264.939 Q1933.53 265.471 1931.59 266.536 L1931.59 262.601 Q1933.93 261.698 1936.12 261.258 Q1938.32 260.795 1940.41 260.795 Q1946.03 260.795 1948.81 263.712 Q1951.59 266.629 1951.59 272.555 Z" fill="#000000" fill-rule="nonzero" fill-opacity="1" /><path clip-path="url(#clip650)" d="M1960.36 251.328 L1964.62 251.328 L1964.62 287.346 L1960.36 287.346 L1960.36 251.328 Z" fill="#000000" fill-rule="nonzero" fill-opacity="1" /><path clip-path="url(#clip650)" d="M2007.21 274.407 Q2007.21 269.707 2005.27 267.045 Q2003.35 264.36 1999.97 264.36 Q1996.59 264.36 1994.64 267.045 Q1992.72 269.707 1992.72 274.407 Q1992.72 279.106 1994.64 281.791 Q1996.59 284.453 1999.97 284.453 Q2003.35 284.453 2005.27 281.791 Q2007.21 279.106 2007.21 274.407 M1992.72 265.356 Q1994.06 263.041 1996.1 261.93 Q1998.16 260.795 2001.01 260.795 Q2005.73 260.795 2008.67 264.545 Q2011.63 268.295 2011.63 274.407 Q2011.63 280.518 2008.67 284.268 Q2005.73 288.018 2001.01 288.018 Q1998.16 288.018 1996.1 286.906 Q1994.06 285.772 1992.72 283.457 L1992.72 287.346 L1988.44 287.346 L1988.44 251.328 L1992.72 251.328 L1992.72 265.356 Z" fill="#000000" fill-rule="nonzero" fill-opacity="1" /><path clip-path="url(#clip650)" d="M2028.74 264.407 Q2025.31 264.407 2023.32 267.092 Q2021.33 269.754 2021.33 274.407 Q2021.33 279.059 2023.3 281.744 Q2025.29 284.406 2028.74 284.406 Q2032.14 284.406 2034.13 281.721 Q2036.12 279.036 2036.12 274.407 Q2036.12 269.8 2034.13 267.115 Q2032.14 264.407 2028.74 264.407 M2028.74 260.795 Q2034.3 260.795 2037.47 264.407 Q2040.64 268.018 2040.64 274.407 Q2040.64 280.772 2037.47 284.406 Q2034.3 288.018 2028.74 288.018 Q2023.16 288.018 2019.99 284.406 Q2016.84 280.772 2016.84 274.407 Q2016.84 268.018 2019.99 264.407 Q2023.16 260.795 2028.74 260.795 Z" fill="#000000" fill-rule="nonzero" fill-opacity="1" /><path clip-path="url(#clip650)" d="M2047.26 277.115 L2047.26 261.42 L2051.52 261.42 L2051.52 276.953 Q2051.52 280.633 2052.95 282.485 Q2054.39 284.314 2057.26 284.314 Q2060.71 284.314 2062.7 282.115 Q2064.71 279.916 2064.71 276.119 L2064.71 261.42 L2068.97 261.42 L2068.97 287.346 L2064.71 287.346 L2064.71 283.365 Q2063.16 285.726 2061.1 286.883 Q2059.06 288.018 2056.36 288.018 Q2051.89 288.018 2049.57 285.24 Q2047.26 282.462 2047.26 277.115 M2057.98 260.795 L2057.98 260.795 Z" fill="#000000" fill-rule="nonzero" fill-opacity="1" /><path clip-path="url(#clip650)" d="M2099.29 271.698 L2099.29 287.346 L2095.04 287.346 L2095.04 271.837 Q2095.04 268.157 2093.6 266.328 Q2092.17 264.499 2089.3 264.499 Q2085.85 264.499 2083.86 266.698 Q2081.86 268.897 2081.86 272.694 L2081.86 287.346 L2077.58 287.346 L2077.58 261.42 L2081.86 261.42 L2081.86 265.448 Q2083.39 263.11 2085.45 261.953 Q2087.54 260.795 2090.24 260.795 Q2094.71 260.795 2097 263.573 Q2099.29 266.328 2099.29 271.698 Z" fill="#000000" fill-rule="nonzero" fill-opacity="1" /><path clip-path="url(#clip650)" d="M2124.85 265.356 L2124.85 251.328 L2129.11 251.328 L2129.11 287.346 L2124.85 287.346 L2124.85 283.457 Q2123.51 285.772 2121.45 286.906 Q2119.41 288.018 2116.54 288.018 Q2111.84 288.018 2108.88 284.268 Q2105.94 280.518 2105.94 274.407 Q2105.94 268.295 2108.88 264.545 Q2111.84 260.795 2116.54 260.795 Q2119.41 260.795 2121.45 261.93 Q2123.51 263.041 2124.85 265.356 M2110.34 274.407 Q2110.34 279.106 2112.26 281.791 Q2114.2 284.453 2117.58 284.453 Q2120.96 284.453 2122.91 281.791 Q2124.85 279.106 2124.85 274.407 Q2124.85 269.707 2122.91 267.045 Q2120.96 264.36 2117.58 264.36 Q2114.2 264.36 2112.26 267.045 Q2110.34 269.707 2110.34 274.407 Z" fill="#000000" fill-rule="nonzero" fill-opacity="1" /><polyline clip-path="url(#clip650)" style="stroke:#ff8c00; stroke-linecap:round; stroke-linejoin:round; stroke-width:4; stroke-opacity:1; fill:none" stroke-dasharray="16, 10" points="1660.21,321.906 1801.37,321.906 "/>
<path clip-path="url(#clip650)" d="M1829.57 308.469 L1829.57 335.344 L1835.22 335.344 Q1842.38 335.344 1845.69 332.103 Q1849.02 328.862 1849.02 321.872 Q1849.02 314.927 1845.69 311.71 Q1842.38 308.469 1835.22 308.469 L1829.57 308.469 M1824.9 304.626 L1834.5 304.626 Q1844.55 304.626 1849.25 308.816 Q1853.95 312.983 1853.95 321.872 Q1853.95 330.807 1849.23 334.996 Q1844.5 339.186 1834.5 339.186 L1824.9 339.186 L1824.9 304.626 Z" fill="#000000" fill-rule="nonzero" fill-opacity="1" /><path clip-path="url(#clip650)" d="M1860.78 328.955 L1860.78 313.26 L1865.04 313.26 L1865.04 328.793 Q1865.04 332.473 1866.47 334.325 Q1867.91 336.154 1870.78 336.154 Q1874.23 336.154 1876.22 333.955 Q1878.23 331.756 1878.23 327.959 L1878.23 313.26 L1882.49 313.26 L1882.49 339.186 L1878.23 339.186 L1878.23 335.205 Q1876.68 337.566 1874.62 338.723 Q1872.58 339.858 1869.87 339.858 Q1865.41 339.858 1863.09 337.08 Q1860.78 334.302 1860.78 328.955 M1871.5 312.635 L1871.5 312.635 Z" fill="#000000" fill-rule="nonzero" fill-opacity="1" /><path clip-path="url(#clip650)" d="M1903.05 326.154 Q1897.88 326.154 1895.89 327.334 Q1893.9 328.515 1893.9 331.362 Q1893.9 333.631 1895.38 334.973 Q1896.89 336.293 1899.46 336.293 Q1903 336.293 1905.13 333.793 Q1907.28 331.27 1907.28 327.103 L1907.28 326.154 L1903.05 326.154 M1911.54 324.395 L1911.54 339.186 L1907.28 339.186 L1907.28 335.251 Q1905.82 337.612 1903.65 338.746 Q1901.47 339.858 1898.32 339.858 Q1894.34 339.858 1891.98 337.635 Q1889.64 335.39 1889.64 331.64 Q1889.64 327.265 1892.56 325.043 Q1895.5 322.821 1901.31 322.821 L1907.28 322.821 L1907.28 322.404 Q1907.28 319.464 1905.34 317.867 Q1903.42 316.247 1899.92 316.247 Q1897.7 316.247 1895.59 316.779 Q1893.49 317.311 1891.54 318.376 L1891.54 314.441 Q1893.88 313.538 1896.08 313.098 Q1898.28 312.635 1900.36 312.635 Q1905.99 312.635 1908.76 315.552 Q1911.54 318.469 1911.54 324.395 Z" fill="#000000" fill-rule="nonzero" fill-opacity="1" /><path clip-path="url(#clip650)" d="M1920.31 303.168 L1924.57 303.168 L1924.57 339.186 L1920.31 339.186 L1920.31 303.168 Z" fill="#000000" fill-rule="nonzero" fill-opacity="1" /><path clip-path="url(#clip650)" d="M1967.17 326.247 Q1967.17 321.547 1965.22 318.885 Q1963.3 316.2 1959.92 316.2 Q1956.54 316.2 1954.6 318.885 Q1952.68 321.547 1952.68 326.247 Q1952.68 330.946 1954.6 333.631 Q1956.54 336.293 1959.92 336.293 Q1963.3 336.293 1965.22 333.631 Q1967.17 330.946 1967.17 326.247 M1952.68 317.196 Q1954.02 314.881 1956.06 313.77 Q1958.12 312.635 1960.96 312.635 Q1965.68 312.635 1968.62 316.385 Q1971.59 320.135 1971.59 326.247 Q1971.59 332.358 1968.62 336.108 Q1965.68 339.858 1960.96 339.858 Q1958.12 339.858 1956.06 338.746 Q1954.02 337.612 1952.68 335.297 L1952.68 339.186 L1948.39 339.186 L1948.39 303.168 L1952.68 303.168 L1952.68 317.196 Z" fill="#000000" fill-rule="nonzero" fill-opacity="1" /><path clip-path="url(#clip650)" d="M1988.69 316.247 Q1985.27 316.247 1983.28 318.932 Q1981.29 321.594 1981.29 326.247 Q1981.29 330.899 1983.25 333.584 Q1985.24 336.246 1988.69 336.246 Q1992.1 336.246 1994.09 333.561 Q1996.08 330.876 1996.08 326.247 Q1996.08 321.64 1994.09 318.955 Q1992.1 316.247 1988.69 316.247 M1988.69 312.635 Q1994.25 312.635 1997.42 316.247 Q2000.59 319.858 2000.59 326.247 Q2000.59 332.612 1997.42 336.246 Q1994.25 339.858 1988.69 339.858 Q1983.12 339.858 1979.94 336.246 Q1976.8 332.612 1976.8 326.247 Q1976.8 319.858 1979.94 316.247 Q1983.12 312.635 1988.69 312.635 Z" fill="#000000" fill-rule="nonzero" fill-opacity="1" /><path clip-path="url(#clip650)" d="M2007.21 328.955 L2007.21 313.26 L2011.47 313.26 L2011.47 328.793 Q2011.47 332.473 2012.91 334.325 Q2014.34 336.154 2017.21 336.154 Q2020.66 336.154 2022.65 333.955 Q2024.67 331.756 2024.67 327.959 L2024.67 313.26 L2028.93 313.26 L2028.93 339.186 L2024.67 339.186 L2024.67 335.205 Q2023.11 337.566 2021.05 338.723 Q2019.02 339.858 2016.31 339.858 Q2011.84 339.858 2009.53 337.08 Q2007.21 334.302 2007.21 328.955 M2017.93 312.635 L2017.93 312.635 Z" fill="#000000" fill-rule="nonzero" fill-opacity="1" /><path clip-path="url(#clip650)" d="M2059.25 323.538 L2059.25 339.186 L2054.99 339.186 L2054.99 323.677 Q2054.99 319.997 2053.55 318.168 Q2052.12 316.339 2049.25 316.339 Q2045.8 316.339 2043.81 318.538 Q2041.82 320.737 2041.82 324.534 L2041.82 339.186 L2037.54 339.186 L2037.54 313.26 L2041.82 313.26 L2041.82 317.288 Q2043.35 314.95 2045.41 313.793 Q2047.49 312.635 2050.2 312.635 Q2054.67 312.635 2056.96 315.413 Q2059.25 318.168 2059.25 323.538 Z" fill="#000000" fill-rule="nonzero" fill-opacity="1" /><path clip-path="url(#clip650)" d="M2084.8 317.196 L2084.8 303.168 L2089.06 303.168 L2089.06 339.186 L2084.8 339.186 L2084.8 335.297 Q2083.46 337.612 2081.4 338.746 Q2079.36 339.858 2076.49 339.858 Q2071.8 339.858 2068.83 336.108 Q2065.89 332.358 2065.89 326.247 Q2065.89 320.135 2068.83 316.385 Q2071.8 312.635 2076.49 312.635 Q2079.36 312.635 2081.4 313.77 Q2083.46 314.881 2084.8 317.196 M2070.29 326.247 Q2070.29 330.946 2072.21 333.631 Q2074.16 336.293 2077.54 336.293 Q2080.92 336.293 2082.86 333.631 Q2084.8 330.946 2084.8 326.247 Q2084.8 321.547 2082.86 318.885 Q2080.92 316.2 2077.54 316.2 Q2074.16 316.2 2072.21 318.885 Q2070.29 321.547 2070.29 326.247 Z" fill="#000000" fill-rule="nonzero" fill-opacity="1" /></svg>
