<?xml version="1.0" encoding="utf-8"?>
<svg xmlns="http://www.w3.org/2000/svg" xmlns:xlink="http://www.w3.org/1999/xlink" width="600" height="400" viewBox="0 0 2400 1600">
<defs>
  <clipPath id="clip400">
    <rect x="0" y="0" width="2400" height="1600"/>
  </clipPath>
</defs>
<path clip-path="url(#clip400)" d="M0 1600 L2400 1600 L2400 0 L0 0  Z" fill="#ffffff" fill-rule="evenodd" fill-opacity="1"/>
<defs>
  <clipPath id="clip401">
    <rect x="235" y="123" width="2118" height="1301"/>
  </clipPath>
</defs>
<path clip-path="url(#clip400)" d="M235.283 1423.18 L2352.76 1423.18 L2352.76 123.472 L235.283 123.472  Z" fill="#ffffff" fill-rule="evenodd" fill-opacity="1"/>
<polyline clip-path="url(#clip401)" style="stroke:#000000; stroke-linecap:round; stroke-linejoin:round; stroke-width:2; stroke-opacity:0.1; fill:none" points="295.211,1423.18 295.211,123.472 "/>
<polyline clip-path="url(#clip401)" style="stroke:#000000; stroke-linecap:round; stroke-linejoin:round; stroke-width:2; stroke-opacity:0.1; fill:none" points="794.615,1423.18 794.615,123.472 "/>
<polyline clip-path="url(#clip401)" style="stroke:#000000; stroke-linecap:round; stroke-linejoin:round; stroke-width:2; stroke-opacity:0.1; fill:none" points="1294.02,1423.18 1294.02,123.472 "/>
<polyline clip-path="url(#clip401)" style="stroke:#000000; stroke-linecap:round; stroke-linejoin:round; stroke-width:2; stroke-opacity:0.1; fill:none" points="1793.42,1423.18 1793.42,123.472 "/>
<polyline clip-path="url(#clip401)" style="stroke:#000000; stroke-linecap:round; stroke-linejoin:round; stroke-width:2; stroke-opacity:0.1; fill:none" points="2292.83,1423.18 2292.83,123.472 "/>
<polyline clip-path="url(#clip401)" style="stroke:#000000; stroke-linecap:round; stroke-linejoin:round; stroke-width:2; stroke-opacity:0.1; fill:none" points="235.283,1386.4 2352.76,1386.4 "/>
<polyline clip-path="url(#clip401)" style="stroke:#000000; stroke-linecap:round; stroke-linejoin:round; stroke-width:2; stroke-opacity:0.1; fill:none" points="235.283,1156.49 2352.76,1156.49 "/>
<polyline clip-path="url(#clip401)" style="stroke:#000000; stroke-linecap:round; stroke-linejoin:round; stroke-width:2; stroke-opacity:0.1; fill:none" points="235.283,926.593 2352.76,926.593 "/>
<polyline clip-path="url(#clip401)" style="stroke:#000000; stroke-linecap:round; stroke-linejoin:round; stroke-width:2; stroke-opacity:0.1; fill:none" points="235.283,696.692 2352.76,696.692 "/>
<polyline clip-path="url(#clip401)" style="stroke:#000000; stroke-linecap:round; stroke-linejoin:round; stroke-width:2; stroke-opacity:0.1; fill:none" points="235.283,466.791 2352.76,466.791 "/>
<polyline clip-path="url(#clip401)" style="stroke:#000000; stroke-linecap:round; stroke-linejoin:round; stroke-width:2; stroke-opacity:0.1; fill:none" points="235.283,236.89 2352.76,236.89 "/>
<polyline clip-path="url(#clip400)" style="stroke:#000000; stroke-linecap:round; stroke-linejoin:round; stroke-width:4; stroke-opacity:1; fill:none" points="235.283,1423.18 2352.76,1423.18 "/>
<polyline clip-path="url(#clip400)" style="stroke:#000000; stroke-linecap:round; stroke-linejoin:round; stroke-width:4; stroke-opacity:1; fill:none" points="295.211,1423.18 295.211,1404.28 "/>
<polyline clip-path="url(#clip400)" style="stroke:#000000; stroke-linecap:round; stroke-linejoin:round; stroke-width:4; stroke-opacity:1; fill:none" points="794.615,1423.18 794.615,1404.28 "/>
<polyline clip-path="url(#clip400)" style="stroke:#000000; stroke-linecap:round; stroke-linejoin:round; stroke-width:4; stroke-opacity:1; fill:none" points="1294.02,1423.18 1294.02,1404.28 "/>
<polyline clip-path="url(#clip400)" style="stroke:#000000; stroke-linecap:round; stroke-linejoin:round; stroke-width:4; stroke-opacity:1; fill:none" points="1793.42,1423.18 1793.42,1404.28 "/>
<polyline clip-path="url(#clip400)" style="stroke:#000000; stroke-linecap:round; stroke-linejoin:round; stroke-width:4; stroke-opacity:1; fill:none" points="2292.83,1423.18 2292.83,1404.28 "/>
<path clip-path="url(#clip400)" d="M272.596 1454.1 Q268.985 1454.1 267.156 1457.66 Q265.35 1461.2 265.35 1468.33 Q265.35 1475.44 267.156 1479.01 Q268.985 1482.55 272.596 1482.55 Q276.23 1482.55 278.035 1479.01 Q279.864 1475.44 279.864 1468.33 Q279.864 1461.2 278.035 1457.66 Q276.23 1454.1 272.596 1454.1 M272.596 1450.39 Q278.406 1450.39 281.461 1455 Q284.54 1459.58 284.54 1468.33 Q284.54 1477.06 281.461 1481.67 Q278.406 1486.25 272.596 1486.25 Q266.786 1486.25 263.707 1481.67 Q260.651 1477.06 260.651 1468.33 Q260.651 1459.58 263.707 1455 Q266.786 1450.39 272.596 1450.39 Z" fill="#000000" fill-rule="nonzero" fill-opacity="1" /><path clip-path="url(#clip400)" d="M292.758 1479.7 L297.642 1479.7 L297.642 1485.58 L292.758 1485.58 L292.758 1479.7 Z" fill="#000000" fill-rule="nonzero" fill-opacity="1" /><path clip-path="url(#clip400)" d="M317.827 1454.1 Q314.216 1454.1 312.387 1457.66 Q310.582 1461.2 310.582 1468.33 Q310.582 1475.44 312.387 1479.01 Q314.216 1482.55 317.827 1482.55 Q321.461 1482.55 323.267 1479.01 Q325.095 1475.44 325.095 1468.33 Q325.095 1461.2 323.267 1457.66 Q321.461 1454.1 317.827 1454.1 M317.827 1450.39 Q323.637 1450.39 326.693 1455 Q329.771 1459.58 329.771 1468.33 Q329.771 1477.06 326.693 1481.67 Q323.637 1486.25 317.827 1486.25 Q312.017 1486.25 308.938 1481.67 Q305.883 1477.06 305.883 1468.33 Q305.883 1459.58 308.938 1455 Q312.017 1450.39 317.827 1450.39 Z" fill="#000000" fill-rule="nonzero" fill-opacity="1" /><path clip-path="url(#clip400)" d="M766.352 1481.64 L782.671 1481.64 L782.671 1485.58 L760.727 1485.58 L760.727 1481.64 Q763.389 1478.89 767.972 1474.26 Q772.578 1469.61 773.759 1468.27 Q776.004 1465.74 776.884 1464.01 Q777.787 1462.25 777.787 1460.56 Q777.787 1457.8 775.842 1456.07 Q773.921 1454.33 770.819 1454.33 Q768.62 1454.33 766.166 1455.09 Q763.736 1455.86 760.958 1457.41 L760.958 1452.69 Q763.782 1451.55 766.236 1450.97 Q768.69 1450.39 770.727 1450.39 Q776.097 1450.39 779.291 1453.08 Q782.486 1455.77 782.486 1460.26 Q782.486 1462.39 781.676 1464.31 Q780.889 1466.2 778.782 1468.8 Q778.203 1469.47 775.102 1472.69 Q772 1475.88 766.352 1481.64 Z" fill="#000000" fill-rule="nonzero" fill-opacity="1" /><path clip-path="url(#clip400)" d="M792.486 1479.7 L797.37 1479.7 L797.37 1485.58 L792.486 1485.58 L792.486 1479.7 Z" fill="#000000" fill-rule="nonzero" fill-opacity="1" /><path clip-path="url(#clip400)" d="M807.601 1451.02 L825.958 1451.02 L825.958 1454.96 L811.884 1454.96 L811.884 1463.43 Q812.902 1463.08 813.921 1462.92 Q814.939 1462.73 815.958 1462.73 Q821.745 1462.73 825.124 1465.9 Q828.504 1469.08 828.504 1474.49 Q828.504 1480.07 825.032 1483.17 Q821.56 1486.25 815.24 1486.25 Q813.064 1486.25 810.796 1485.88 Q808.55 1485.51 806.143 1484.77 L806.143 1480.07 Q808.226 1481.2 810.449 1481.76 Q812.671 1482.32 815.148 1482.32 Q819.152 1482.32 821.49 1480.21 Q823.828 1478.1 823.828 1474.49 Q823.828 1470.88 821.49 1468.77 Q819.152 1466.67 815.148 1466.67 Q813.273 1466.67 811.398 1467.08 Q809.546 1467.5 807.601 1468.38 L807.601 1451.02 Z" fill="#000000" fill-rule="nonzero" fill-opacity="1" /><path clip-path="url(#clip400)" d="M1261.18 1451.02 L1279.54 1451.02 L1279.54 1454.96 L1265.47 1454.96 L1265.47 1463.43 Q1266.48 1463.08 1267.5 1462.92 Q1268.52 1462.73 1269.54 1462.73 Q1275.33 1462.73 1278.71 1465.9 Q1282.09 1469.08 1282.09 1474.49 Q1282.09 1480.07 1278.61 1483.17 Q1275.14 1486.25 1268.82 1486.25 Q1266.65 1486.25 1264.38 1485.88 Q1262.13 1485.51 1259.73 1484.77 L1259.73 1480.07 Q1261.81 1481.2 1264.03 1481.76 Q1266.25 1482.32 1268.73 1482.32 Q1272.73 1482.32 1275.07 1480.21 Q1277.41 1478.1 1277.41 1474.49 Q1277.41 1470.88 1275.07 1468.77 Q1272.73 1466.67 1268.73 1466.67 Q1266.86 1466.67 1264.98 1467.08 Q1263.13 1467.5 1261.18 1468.38 L1261.18 1451.02 Z" fill="#000000" fill-rule="nonzero" fill-opacity="1" /><path clip-path="url(#clip400)" d="M1291.3 1479.7 L1296.18 1479.7 L1296.18 1485.58 L1291.3 1485.58 L1291.3 1479.7 Z" fill="#000000" fill-rule="nonzero" fill-opacity="1" /><path clip-path="url(#clip400)" d="M1316.37 1454.1 Q1312.76 1454.1 1310.93 1457.66 Q1309.12 1461.2 1309.12 1468.33 Q1309.12 1475.44 1310.93 1479.01 Q1312.76 1482.55 1316.37 1482.55 Q1320 1482.55 1321.81 1479.01 Q1323.64 1475.44 1323.64 1468.33 Q1323.64 1461.2 1321.81 1457.66 Q1320 1454.1 1316.37 1454.1 M1316.37 1450.39 Q1322.18 1450.39 1325.23 1455 Q1328.31 1459.58 1328.31 1468.33 Q1328.31 1477.06 1325.23 1481.67 Q1322.18 1486.25 1316.37 1486.25 Q1310.56 1486.25 1307.48 1481.67 Q1304.42 1477.06 1304.42 1468.33 Q1304.42 1459.58 1307.48 1455 Q1310.56 1450.39 1316.37 1450.39 Z" fill="#000000" fill-rule="nonzero" fill-opacity="1" /><path clip-path="url(#clip400)" d="M1759.74 1451.02 L1781.97 1451.02 L1781.97 1453.01 L1769.42 1485.58 L1764.53 1485.58 L1776.34 1454.96 L1759.74 1454.96 L1759.74 1451.02 Z" fill="#000000" fill-rule="nonzero" fill-opacity="1" /><path clip-path="url(#clip400)" d="M1791.09 1479.7 L1795.97 1479.7 L1795.97 1485.58 L1791.09 1485.58 L1791.09 1479.7 Z" fill="#000000" fill-rule="nonzero" fill-opacity="1" /><path clip-path="url(#clip400)" d="M1806.2 1451.02 L1824.56 1451.02 L1824.56 1454.96 L1810.48 1454.96 L1810.48 1463.43 Q1811.5 1463.08 1812.52 1462.92 Q1813.54 1462.73 1814.56 1462.73 Q1820.34 1462.73 1823.72 1465.9 Q1827.1 1469.08 1827.1 1474.49 Q1827.1 1480.07 1823.63 1483.17 Q1820.16 1486.25 1813.84 1486.25 Q1811.66 1486.25 1809.4 1485.88 Q1807.15 1485.51 1804.74 1484.77 L1804.74 1480.07 Q1806.83 1481.2 1809.05 1481.76 Q1811.27 1482.32 1813.75 1482.32 Q1817.75 1482.32 1820.09 1480.21 Q1822.43 1478.1 1822.43 1474.49 Q1822.43 1470.88 1820.09 1468.77 Q1817.75 1466.67 1813.75 1466.67 Q1811.87 1466.67 1810 1467.08 Q1808.15 1467.5 1806.2 1468.38 L1806.2 1451.02 Z" fill="#000000" fill-rule="nonzero" fill-opacity="1" /><path clip-path="url(#clip400)" d="M2244.9 1481.64 L2252.54 1481.64 L2252.54 1455.28 L2244.23 1456.95 L2244.23 1452.69 L2252.49 1451.02 L2257.17 1451.02 L2257.17 1481.64 L2264.81 1481.64 L2264.81 1485.58 L2244.9 1485.58 L2244.9 1481.64 Z" fill="#000000" fill-rule="nonzero" fill-opacity="1" /><path clip-path="url(#clip400)" d="M2284.25 1454.1 Q2280.64 1454.1 2278.81 1457.66 Q2277.01 1461.2 2277.01 1468.33 Q2277.01 1475.44 2278.81 1479.01 Q2280.64 1482.55 2284.25 1482.55 Q2287.89 1482.55 2289.69 1479.01 Q2291.52 1475.44 2291.52 1468.33 Q2291.52 1461.2 2289.69 1457.66 Q2287.89 1454.1 2284.25 1454.1 M2284.25 1450.39 Q2290.06 1450.39 2293.12 1455 Q2296.2 1459.58 2296.2 1468.33 Q2296.2 1477.06 2293.12 1481.67 Q2290.06 1486.25 2284.25 1486.25 Q2278.44 1486.25 2275.36 1481.67 Q2272.31 1477.06 2272.31 1468.33 Q2272.31 1459.58 2275.36 1455 Q2278.44 1450.39 2284.25 1450.39 Z" fill="#000000" fill-rule="nonzero" fill-opacity="1" /><path clip-path="url(#clip400)" d="M2304.41 1479.7 L2309.3 1479.7 L2309.3 1485.58 L2304.41 1485.58 L2304.41 1479.7 Z" fill="#000000" fill-rule="nonzero" fill-opacity="1" /><path clip-path="url(#clip400)" d="M2329.48 1454.1 Q2325.87 1454.1 2324.04 1457.66 Q2322.24 1461.2 2322.24 1468.33 Q2322.24 1475.44 2324.04 1479.01 Q2325.87 1482.55 2329.48 1482.55 Q2333.12 1482.55 2334.92 1479.01 Q2336.75 1475.44 2336.75 1468.33 Q2336.75 1461.2 2334.92 1457.66 Q2333.12 1454.1 2329.48 1454.1 M2329.48 1450.39 Q2335.29 1450.39 2338.35 1455 Q2341.43 1459.58 2341.43 1468.33 Q2341.43 1477.06 2338.35 1481.67 Q2335.29 1486.25 2329.48 1486.25 Q2323.67 1486.25 2320.59 1481.67 Q2317.54 1477.06 2317.54 1468.33 Q2317.54 1459.58 2320.59 1455 Q2323.67 1450.39 2329.48 1450.39 Z" fill="#000000" fill-rule="nonzero" fill-opacity="1" /><path clip-path="url(#clip400)" d="M923.376 1520.52 L932.033 1520.52 L953.104 1560.28 L953.104 1520.52 L959.342 1520.52 L959.342 1568.04 L950.685 1568.04 L929.615 1528.29 L929.615 1568.04 L923.376 1568.04 L923.376 1520.52 Z" fill="#000000" fill-rule="nonzero" fill-opacity="1" /><path clip-path="url(#clip400)" d="M971.278 1553.98 L971.278 1532.4 L977.135 1532.4 L977.135 1553.75 Q977.135 1558.81 979.108 1561.36 Q981.081 1563.87 985.028 1563.87 Q989.77 1563.87 992.508 1560.85 Q995.277 1557.83 995.277 1552.61 L995.277 1532.4 L1001.13 1532.4 L1001.13 1568.04 L995.277 1568.04 L995.277 1562.57 Q993.144 1565.82 990.312 1567.41 Q987.511 1568.97 983.787 1568.97 Q977.644 1568.97 974.461 1565.15 Q971.278 1561.33 971.278 1553.98 M986.015 1531.54 L986.015 1531.54 Z" fill="#000000" fill-rule="nonzero" fill-opacity="1" /><path clip-path="url(#clip400)" d="M1040.95 1539.24 Q1043.15 1535.29 1046.2 1533.41 Q1049.26 1531.54 1053.4 1531.54 Q1058.97 1531.54 1061.99 1535.45 Q1065.01 1539.33 1065.01 1546.53 L1065.01 1568.04 L1059.12 1568.04 L1059.12 1546.72 Q1059.12 1541.59 1057.31 1539.11 Q1055.5 1536.63 1051.77 1536.63 Q1047.22 1536.63 1044.58 1539.65 Q1041.94 1542.68 1041.94 1547.9 L1041.94 1568.04 L1036.05 1568.04 L1036.05 1546.72 Q1036.05 1541.56 1034.23 1539.11 Q1032.42 1536.63 1028.63 1536.63 Q1024.15 1536.63 1021.5 1539.68 Q1018.86 1542.71 1018.86 1547.9 L1018.86 1568.04 L1012.97 1568.04 L1012.97 1532.4 L1018.86 1532.4 L1018.86 1537.93 Q1020.87 1534.66 1023.67 1533.1 Q1026.47 1531.54 1030.32 1531.54 Q1034.2 1531.54 1036.91 1533.51 Q1039.65 1535.48 1040.95 1539.24 Z" fill="#000000" fill-rule="nonzero" fill-opacity="1" /><path clip-path="url(#clip400)" d="M1102.28 1550.25 Q1102.28 1543.79 1099.61 1540.13 Q1096.97 1536.44 1092.32 1536.44 Q1087.67 1536.44 1085 1540.13 Q1082.36 1543.79 1082.36 1550.25 Q1082.36 1556.71 1085 1560.4 Q1087.67 1564.07 1092.32 1564.07 Q1096.97 1564.07 1099.61 1560.4 Q1102.28 1556.71 1102.28 1550.25 M1082.36 1537.81 Q1084.21 1534.62 1087.01 1533.1 Q1089.84 1531.54 1093.75 1531.54 Q1100.25 1531.54 1104.29 1536.69 Q1108.36 1541.85 1108.36 1550.25 Q1108.36 1558.65 1104.29 1563.81 Q1100.25 1568.97 1093.75 1568.97 Q1089.84 1568.97 1087.01 1567.44 Q1084.21 1565.88 1082.36 1562.7 L1082.36 1568.04 L1076.47 1568.04 L1076.47 1518.52 L1082.36 1518.52 L1082.36 1537.81 Z" fill="#000000" fill-rule="nonzero" fill-opacity="1" /><path clip-path="url(#clip400)" d="M1148.56 1548.76 L1148.56 1551.62 L1121.64 1551.62 Q1122.02 1557.67 1125.26 1560.85 Q1128.54 1564 1134.37 1564 Q1137.74 1564 1140.89 1563.17 Q1144.08 1562.35 1147.19 1560.69 L1147.19 1566.23 Q1144.04 1567.57 1140.73 1568.27 Q1137.42 1568.97 1134.02 1568.97 Q1125.49 1568.97 1120.49 1564 Q1115.52 1559.04 1115.52 1550.57 Q1115.52 1541.82 1120.24 1536.69 Q1124.98 1531.54 1133 1531.54 Q1140.19 1531.54 1144.36 1536.18 Q1148.56 1540.8 1148.56 1548.76 M1142.71 1547.04 Q1142.64 1542.23 1140 1539.37 Q1137.39 1536.5 1133.06 1536.5 Q1128.16 1536.5 1125.2 1539.27 Q1122.27 1542.04 1121.83 1547.07 L1142.71 1547.04 Z" fill="#000000" fill-rule="nonzero" fill-opacity="1" /><path clip-path="url(#clip400)" d="M1178.83 1537.87 Q1177.85 1537.3 1176.67 1537.04 Q1175.52 1536.76 1174.12 1536.76 Q1169.16 1536.76 1166.48 1540 Q1163.84 1543.22 1163.84 1549.27 L1163.84 1568.04 L1157.95 1568.04 L1157.95 1532.4 L1163.84 1532.4 L1163.84 1537.93 Q1165.69 1534.69 1168.65 1533.13 Q1171.61 1531.54 1175.84 1531.54 Q1176.44 1531.54 1177.18 1531.63 Q1177.91 1531.7 1178.8 1531.85 L1178.83 1537.87 Z" fill="#000000" fill-rule="nonzero" fill-opacity="1" /><path clip-path="url(#clip400)" d="M1219.51 1536.5 Q1214.8 1536.5 1212.06 1540.19 Q1209.32 1543.85 1209.32 1550.25 Q1209.32 1556.65 1212.03 1560.34 Q1214.77 1564 1219.51 1564 Q1224.19 1564 1226.92 1560.31 Q1229.66 1556.62 1229.66 1550.25 Q1229.66 1543.92 1226.92 1540.23 Q1224.19 1536.5 1219.51 1536.5 M1219.51 1531.54 Q1227.15 1531.54 1231.51 1536.5 Q1235.87 1541.47 1235.87 1550.25 Q1235.87 1559 1231.51 1564 Q1227.15 1568.97 1219.51 1568.97 Q1211.84 1568.97 1207.48 1564 Q1203.15 1559 1203.15 1550.25 Q1203.15 1541.47 1207.48 1536.5 Q1211.84 1531.54 1219.51 1531.54 Z" fill="#000000" fill-rule="nonzero" fill-opacity="1" /><path clip-path="url(#clip400)" d="M1263.62 1518.52 L1263.62 1523.39 L1258.02 1523.39 Q1254.87 1523.39 1253.63 1524.66 Q1252.42 1525.93 1252.42 1529.24 L1252.42 1532.4 L1262.06 1532.4 L1262.06 1536.95 L1252.42 1536.95 L1252.42 1568.04 L1246.53 1568.04 L1246.53 1536.95 L1240.93 1536.95 L1240.93 1532.4 L1246.53 1532.4 L1246.53 1529.91 Q1246.53 1523.96 1249.3 1521.26 Q1252.07 1518.52 1258.08 1518.52 L1263.62 1518.52 Z" fill="#000000" fill-rule="nonzero" fill-opacity="1" /><path clip-path="url(#clip400)" d="M1314.84 1550.25 Q1314.84 1543.79 1312.16 1540.13 Q1309.52 1536.44 1304.87 1536.44 Q1300.23 1536.44 1297.55 1540.13 Q1294.91 1543.79 1294.91 1550.25 Q1294.91 1556.71 1297.55 1560.4 Q1300.23 1564.07 1304.87 1564.07 Q1309.52 1564.07 1312.16 1560.4 Q1314.84 1556.71 1314.84 1550.25 M1294.91 1537.81 Q1296.76 1534.62 1299.56 1533.1 Q1302.39 1531.54 1306.31 1531.54 Q1312.8 1531.54 1316.84 1536.69 Q1320.91 1541.85 1320.91 1550.25 Q1320.91 1558.65 1316.84 1563.81 Q1312.8 1568.97 1306.31 1568.97 Q1302.39 1568.97 1299.56 1567.44 Q1296.76 1565.88 1294.91 1562.7 L1294.91 1568.04 L1289.02 1568.04 L1289.02 1518.52 L1294.91 1518.52 L1294.91 1537.81 Z" fill="#000000" fill-rule="nonzero" fill-opacity="1" /><path clip-path="url(#clip400)" d="M1351.28 1537.87 Q1350.29 1537.3 1349.11 1537.04 Q1347.97 1536.76 1346.57 1536.76 Q1341.6 1536.76 1338.93 1540 Q1336.29 1543.22 1336.29 1549.27 L1336.29 1568.04 L1330.4 1568.04 L1330.4 1532.4 L1336.29 1532.4 L1336.29 1537.93 Q1338.13 1534.69 1341.09 1533.13 Q1344.05 1531.54 1348.29 1531.54 Q1348.89 1531.54 1349.62 1531.63 Q1350.36 1531.7 1351.25 1531.85 L1351.28 1537.87 Z" fill="#000000" fill-rule="nonzero" fill-opacity="1" /><path clip-path="url(#clip400)" d="M1386.48 1548.76 L1386.48 1551.62 L1359.55 1551.62 Q1359.94 1557.67 1363.18 1560.85 Q1366.46 1564 1372.29 1564 Q1375.66 1564 1378.81 1563.17 Q1381.99 1562.35 1385.11 1560.69 L1385.11 1566.23 Q1381.96 1567.57 1378.65 1568.27 Q1375.34 1568.97 1371.94 1568.97 Q1363.41 1568.97 1358.41 1564 Q1353.44 1559.04 1353.44 1550.57 Q1353.44 1541.82 1358.15 1536.69 Q1362.9 1531.54 1370.92 1531.54 Q1378.11 1531.54 1382.28 1536.18 Q1386.48 1540.8 1386.48 1548.76 M1380.62 1547.04 Q1380.56 1542.23 1377.92 1539.37 Q1375.31 1536.5 1370.98 1536.5 Q1366.08 1536.5 1363.12 1539.27 Q1360.19 1542.04 1359.75 1547.07 L1380.62 1547.04 Z" fill="#000000" fill-rule="nonzero" fill-opacity="1" /><path clip-path="url(#clip400)" d="M1412.29 1550.12 Q1405.2 1550.12 1402.46 1551.75 Q1399.72 1553.37 1399.72 1557.29 Q1399.72 1560.4 1401.76 1562.25 Q1403.83 1564.07 1407.36 1564.07 Q1412.23 1564.07 1415.16 1560.63 Q1418.12 1557.16 1418.12 1551.43 L1418.12 1550.12 L1412.29 1550.12 M1423.98 1547.71 L1423.98 1568.04 L1418.12 1568.04 L1418.12 1562.63 Q1416.11 1565.88 1413.12 1567.44 Q1410.13 1568.97 1405.8 1568.97 Q1400.33 1568.97 1397.08 1565.91 Q1393.87 1562.82 1393.87 1557.67 Q1393.87 1551.65 1397.88 1548.6 Q1401.92 1545.54 1409.91 1545.54 L1418.12 1545.54 L1418.12 1544.97 Q1418.12 1540.93 1415.45 1538.73 Q1412.8 1536.5 1408 1536.5 Q1404.94 1536.5 1402.05 1537.23 Q1399.15 1537.97 1396.48 1539.43 L1396.48 1534.02 Q1399.69 1532.78 1402.71 1532.17 Q1405.74 1531.54 1408.6 1531.54 Q1416.34 1531.54 1420.16 1535.55 Q1423.98 1539.56 1423.98 1547.71 Z" fill="#000000" fill-rule="nonzero" fill-opacity="1" /><path clip-path="url(#clip400)" d="M1435.82 1518.52 L1441.7 1518.52 L1441.7 1547.77 L1459.18 1532.4 L1466.66 1532.4 L1447.75 1549.07 L1467.45 1568.04 L1459.81 1568.04 L1441.7 1550.63 L1441.7 1568.04 L1435.82 1568.04 L1435.82 1518.52 Z" fill="#000000" fill-rule="nonzero" fill-opacity="1" /><path clip-path="url(#clip400)" d="M1479.45 1562.7 L1479.45 1581.6 L1473.56 1581.6 L1473.56 1532.4 L1479.45 1532.4 L1479.45 1537.81 Q1481.3 1534.62 1484.1 1533.1 Q1486.93 1531.54 1490.85 1531.54 Q1497.34 1531.54 1501.38 1536.69 Q1505.46 1541.85 1505.46 1550.25 Q1505.46 1558.65 1501.38 1563.81 Q1497.34 1568.97 1490.85 1568.97 Q1486.93 1568.97 1484.1 1567.44 Q1481.3 1565.88 1479.45 1562.7 M1499.38 1550.25 Q1499.38 1543.79 1496.7 1540.13 Q1494.06 1536.44 1489.41 1536.44 Q1484.77 1536.44 1482.09 1540.13 Q1479.45 1543.79 1479.45 1550.25 Q1479.45 1556.71 1482.09 1560.4 Q1484.77 1564.07 1489.41 1564.07 Q1494.06 1564.07 1496.7 1560.4 Q1499.38 1556.71 1499.38 1550.25 Z" fill="#000000" fill-rule="nonzero" fill-opacity="1" /><path clip-path="url(#clip400)" d="M1528.98 1536.5 Q1524.27 1536.5 1521.53 1540.19 Q1518.79 1543.85 1518.79 1550.25 Q1518.79 1556.65 1521.5 1560.34 Q1524.24 1564 1528.98 1564 Q1533.66 1564 1536.39 1560.31 Q1539.13 1556.62 1539.13 1550.25 Q1539.13 1543.92 1536.39 1540.23 Q1533.66 1536.5 1528.98 1536.5 M1528.98 1531.54 Q1536.62 1531.54 1540.98 1536.5 Q1545.34 1541.47 1545.34 1550.25 Q1545.34 1559 1540.98 1564 Q1536.62 1568.97 1528.98 1568.97 Q1521.31 1568.97 1516.95 1564 Q1512.62 1559 1512.62 1550.25 Q1512.62 1541.47 1516.95 1536.5 Q1521.31 1531.54 1528.98 1531.54 Z" fill="#000000" fill-rule="nonzero" fill-opacity="1" /><path clip-path="url(#clip400)" d="M1555.05 1532.4 L1560.9 1532.4 L1560.9 1568.04 L1555.05 1568.04 L1555.05 1532.4 M1555.05 1518.52 L1560.9 1518.52 L1560.9 1525.93 L1555.05 1525.93 L1555.05 1518.52 Z" fill="#000000" fill-rule="nonzero" fill-opacity="1" /><path clip-path="url(#clip400)" d="M1602.79 1546.53 L1602.79 1568.04 L1596.93 1568.04 L1596.93 1546.72 Q1596.93 1541.66 1594.96 1539.14 Q1592.98 1536.63 1589.04 1536.63 Q1584.3 1536.63 1581.56 1539.65 Q1578.82 1542.68 1578.82 1547.9 L1578.82 1568.04 L1572.93 1568.04 L1572.93 1532.4 L1578.82 1532.4 L1578.82 1537.93 Q1580.92 1534.72 1583.75 1533.13 Q1586.62 1531.54 1590.34 1531.54 Q1596.49 1531.54 1599.64 1535.36 Q1602.79 1539.14 1602.79 1546.53 Z" fill="#000000" fill-rule="nonzero" fill-opacity="1" /><path clip-path="url(#clip400)" d="M1620.26 1522.27 L1620.26 1532.4 L1632.32 1532.4 L1632.32 1536.95 L1620.26 1536.95 L1620.26 1556.3 Q1620.26 1560.66 1621.44 1561.9 Q1622.65 1563.14 1626.31 1563.14 L1632.32 1563.14 L1632.32 1568.04 L1626.31 1568.04 Q1619.53 1568.04 1616.95 1565.53 Q1614.37 1562.98 1614.37 1556.3 L1614.37 1536.95 L1610.08 1536.95 L1610.08 1532.4 L1614.37 1532.4 L1614.37 1522.27 L1620.26 1522.27 Z" fill="#000000" fill-rule="nonzero" fill-opacity="1" /><path clip-path="url(#clip400)" d="M1662.75 1533.45 L1662.75 1538.98 Q1660.27 1537.71 1657.6 1537.07 Q1654.92 1536.44 1652.06 1536.44 Q1647.7 1536.44 1645.5 1537.77 Q1643.34 1539.11 1643.34 1541.79 Q1643.34 1543.82 1644.9 1545 Q1646.46 1546.15 1651.17 1547.2 L1653.17 1547.64 Q1659.41 1548.98 1662.02 1551.43 Q1664.66 1553.85 1664.66 1558.21 Q1664.66 1563.17 1660.72 1566.07 Q1656.8 1568.97 1649.93 1568.97 Q1647.06 1568.97 1643.94 1568.39 Q1640.85 1567.85 1637.42 1566.74 L1637.42 1560.69 Q1640.66 1562.38 1643.81 1563.24 Q1646.97 1564.07 1650.05 1564.07 Q1654.19 1564.07 1656.42 1562.66 Q1658.65 1561.23 1658.65 1558.65 Q1658.65 1556.27 1657.02 1554.99 Q1655.43 1553.72 1649.99 1552.54 L1647.95 1552.07 Q1642.51 1550.92 1640.09 1548.56 Q1637.67 1546.18 1637.67 1542.04 Q1637.67 1537.01 1641.24 1534.27 Q1644.8 1531.54 1651.36 1531.54 Q1654.6 1531.54 1657.47 1532.01 Q1660.33 1532.49 1662.75 1533.45 Z" fill="#000000" fill-rule="nonzero" fill-opacity="1" /><polyline clip-path="url(#clip400)" style="stroke:#000000; stroke-linecap:round; stroke-linejoin:round; stroke-width:4; stroke-opacity:1; fill:none" points="235.283,1423.18 235.283,123.472 "/>
<polyline clip-path="url(#clip400)" style="stroke:#000000; stroke-linecap:round; stroke-linejoin:round; stroke-width:4; stroke-opacity:1; fill:none" points="235.283,1386.4 254.18,1386.4 "/>
<polyline clip-path="url(#clip400)" style="stroke:#000000; stroke-linecap:round; stroke-linejoin:round; stroke-width:4; stroke-opacity:1; fill:none" points="235.283,1156.49 254.18,1156.49 "/>
<polyline clip-path="url(#clip400)" style="stroke:#000000; stroke-linecap:round; stroke-linejoin:round; stroke-width:4; stroke-opacity:1; fill:none" points="235.283,926.593 254.18,926.593 "/>
<polyline clip-path="url(#clip400)" style="stroke:#000000; stroke-linecap:round; stroke-linejoin:round; stroke-width:4; stroke-opacity:1; fill:none" points="235.283,696.692 254.18,696.692 "/>
<polyline clip-path="url(#clip400)" style="stroke:#000000; stroke-linecap:round; stroke-linejoin:round; stroke-width:4; stroke-opacity:1; fill:none" points="235.283,466.791 254.18,466.791 "/>
<polyline clip-path="url(#clip400)" style="stroke:#000000; stroke-linecap:round; stroke-linejoin:round; stroke-width:4; stroke-opacity:1; fill:none" points="235.283,236.89 254.18,236.89 "/>
<path clip-path="url(#clip400)" d="M129.862 1373.19 L118.056 1391.64 L129.862 1391.64 L129.862 1373.19 M128.635 1369.12 L134.515 1369.12 L134.515 1391.64 L139.445 1391.64 L139.445 1395.53 L134.515 1395.53 L134.515 1403.68 L129.862 1403.68 L129.862 1395.53 L114.26 1395.53 L114.26 1391.01 L128.635 1369.12 Z" fill="#000000" fill-rule="nonzero" fill-opacity="1" /><path clip-path="url(#clip400)" d="M157.755 1384.53 Q154.607 1384.53 152.755 1386.69 Q150.927 1388.84 150.927 1392.59 Q150.927 1396.31 152.755 1398.49 Q154.607 1400.64 157.755 1400.64 Q160.903 1400.64 162.732 1398.49 Q164.584 1396.31 164.584 1392.59 Q164.584 1388.84 162.732 1386.69 Q160.903 1384.53 157.755 1384.53 M167.038 1369.88 L167.038 1374.14 Q165.278 1373.31 163.473 1372.87 Q161.69 1372.43 159.931 1372.43 Q155.302 1372.43 152.848 1375.55 Q150.417 1378.68 150.07 1385 Q151.436 1382.98 153.496 1381.92 Q155.556 1380.83 158.033 1380.83 Q163.241 1380.83 166.251 1384 Q169.283 1387.15 169.283 1392.59 Q169.283 1397.91 166.135 1401.13 Q162.987 1404.35 157.755 1404.35 Q151.76 1404.35 148.589 1399.76 Q145.417 1395.16 145.417 1386.43 Q145.417 1378.24 149.306 1373.37 Q153.195 1368.49 159.746 1368.49 Q161.505 1368.49 163.288 1368.84 Q165.093 1369.19 167.038 1369.88 Z" fill="#000000" fill-rule="nonzero" fill-opacity="1" /><path clip-path="url(#clip400)" d="M187.338 1372.19 Q183.727 1372.19 181.899 1375.76 Q180.093 1379.3 180.093 1386.43 Q180.093 1393.54 181.899 1397.1 Q183.727 1400.64 187.338 1400.64 Q190.973 1400.64 192.778 1397.1 Q194.607 1393.54 194.607 1386.43 Q194.607 1379.3 192.778 1375.76 Q190.973 1372.19 187.338 1372.19 M187.338 1368.49 Q193.149 1368.49 196.204 1373.1 Q199.283 1377.68 199.283 1386.43 Q199.283 1395.16 196.204 1399.76 Q193.149 1404.35 187.338 1404.35 Q181.528 1404.35 178.45 1399.76 Q175.394 1395.16 175.394 1386.43 Q175.394 1377.68 178.45 1373.1 Q181.528 1368.49 187.338 1368.49 Z" fill="#000000" fill-rule="nonzero" fill-opacity="1" /><path clip-path="url(#clip400)" d="M130.857 1143.29 L119.052 1161.74 L130.857 1161.74 L130.857 1143.29 M129.63 1139.21 L135.51 1139.21 L135.51 1161.74 L140.441 1161.74 L140.441 1165.63 L135.51 1165.63 L135.51 1173.77 L130.857 1173.77 L130.857 1165.63 L115.256 1165.63 L115.256 1161.11 L129.63 1139.21 Z" fill="#000000" fill-rule="nonzero" fill-opacity="1" /><path clip-path="url(#clip400)" d="M158.751 1154.63 Q155.603 1154.63 153.751 1156.78 Q151.922 1158.94 151.922 1162.69 Q151.922 1166.41 153.751 1168.59 Q155.603 1170.74 158.751 1170.74 Q161.899 1170.74 163.727 1168.59 Q165.579 1166.41 165.579 1162.69 Q165.579 1158.94 163.727 1156.78 Q161.899 1154.63 158.751 1154.63 M168.033 1139.98 L168.033 1144.24 Q166.274 1143.4 164.468 1142.96 Q162.686 1142.52 160.927 1142.52 Q156.297 1142.52 153.843 1145.65 Q151.413 1148.77 151.066 1155.09 Q152.431 1153.08 154.491 1152.02 Q156.552 1150.93 159.028 1150.93 Q164.237 1150.93 167.246 1154.1 Q170.278 1157.25 170.278 1162.69 Q170.278 1168.01 167.13 1171.23 Q163.982 1174.45 158.751 1174.45 Q152.755 1174.45 149.584 1169.86 Q146.413 1165.26 146.413 1156.53 Q146.413 1148.33 150.302 1143.47 Q154.19 1138.59 160.741 1138.59 Q162.501 1138.59 164.283 1138.94 Q166.089 1139.28 168.033 1139.98 Z" fill="#000000" fill-rule="nonzero" fill-opacity="1" /><path clip-path="url(#clip400)" d="M178.38 1139.21 L196.737 1139.21 L196.737 1143.15 L182.663 1143.15 L182.663 1151.62 Q183.681 1151.27 184.7 1151.11 Q185.718 1150.93 186.737 1150.93 Q192.524 1150.93 195.903 1154.1 Q199.283 1157.27 199.283 1162.69 Q199.283 1168.27 195.811 1171.37 Q192.338 1174.45 186.019 1174.45 Q183.843 1174.45 181.575 1174.08 Q179.329 1173.71 176.922 1172.96 L176.922 1168.27 Q179.005 1169.4 181.227 1169.96 Q183.45 1170.51 185.926 1170.51 Q189.931 1170.51 192.269 1168.4 Q194.607 1166.3 194.607 1162.69 Q194.607 1159.08 192.269 1156.97 Q189.931 1154.86 185.926 1154.86 Q184.051 1154.86 182.176 1155.28 Q180.325 1155.7 178.38 1156.58 L178.38 1139.21 Z" fill="#000000" fill-rule="nonzero" fill-opacity="1" /><path clip-path="url(#clip400)" d="M129.862 913.387 L118.056 931.836 L129.862 931.836 L129.862 913.387 M128.635 909.313 L134.515 909.313 L134.515 931.836 L139.445 931.836 L139.445 935.725 L134.515 935.725 L134.515 943.873 L129.862 943.873 L129.862 935.725 L114.26 935.725 L114.26 931.211 L128.635 909.313 Z" fill="#000000" fill-rule="nonzero" fill-opacity="1" /><path clip-path="url(#clip400)" d="M145.996 909.313 L168.218 909.313 L168.218 911.304 L155.672 943.873 L150.788 943.873 L162.593 913.249 L145.996 913.249 L145.996 909.313 Z" fill="#000000" fill-rule="nonzero" fill-opacity="1" /><path clip-path="url(#clip400)" d="M187.338 912.392 Q183.727 912.392 181.899 915.957 Q180.093 919.499 180.093 926.628 Q180.093 933.735 181.899 937.299 Q183.727 940.841 187.338 940.841 Q190.973 940.841 192.778 937.299 Q194.607 933.735 194.607 926.628 Q194.607 919.499 192.778 915.957 Q190.973 912.392 187.338 912.392 M187.338 908.688 Q193.149 908.688 196.204 913.295 Q199.283 917.878 199.283 926.628 Q199.283 935.355 196.204 939.961 Q193.149 944.545 187.338 944.545 Q181.528 944.545 178.45 939.961 Q175.394 935.355 175.394 926.628 Q175.394 917.878 178.45 913.295 Q181.528 908.688 187.338 908.688 Z" fill="#000000" fill-rule="nonzero" fill-opacity="1" /><path clip-path="url(#clip400)" d="M130.857 683.486 L119.052 701.935 L130.857 701.935 L130.857 683.486 M129.63 679.412 L135.51 679.412 L135.51 701.935 L140.441 701.935 L140.441 705.824 L135.51 705.824 L135.51 713.972 L130.857 713.972 L130.857 705.824 L115.256 705.824 L115.256 701.31 L129.63 679.412 Z" fill="#000000" fill-rule="nonzero" fill-opacity="1" /><path clip-path="url(#clip400)" d="M146.991 679.412 L169.214 679.412 L169.214 681.403 L156.667 713.972 L151.783 713.972 L163.589 683.347 L146.991 683.347 L146.991 679.412 Z" fill="#000000" fill-rule="nonzero" fill-opacity="1" /><path clip-path="url(#clip400)" d="M178.38 679.412 L196.737 679.412 L196.737 683.347 L182.663 683.347 L182.663 691.82 Q183.681 691.472 184.7 691.31 Q185.718 691.125 186.737 691.125 Q192.524 691.125 195.903 694.296 Q199.283 697.468 199.283 702.884 Q199.283 708.463 195.811 711.565 Q192.338 714.644 186.019 714.644 Q183.843 714.644 181.575 714.273 Q179.329 713.903 176.922 713.162 L176.922 708.463 Q179.005 709.597 181.227 710.153 Q183.45 710.708 185.926 710.708 Q189.931 710.708 192.269 708.602 Q194.607 706.495 194.607 702.884 Q194.607 699.273 192.269 697.167 Q189.931 695.06 185.926 695.06 Q184.051 695.06 182.176 695.477 Q180.325 695.894 178.38 696.773 L178.38 679.412 Z" fill="#000000" fill-rule="nonzero" fill-opacity="1" /><path clip-path="url(#clip400)" d="M129.862 453.585 L118.056 472.034 L129.862 472.034 L129.862 453.585 M128.635 449.511 L134.515 449.511 L134.515 472.034 L139.445 472.034 L139.445 475.923 L134.515 475.923 L134.515 484.071 L129.862 484.071 L129.862 475.923 L114.26 475.923 L114.26 471.409 L128.635 449.511 Z" fill="#000000" fill-rule="nonzero" fill-opacity="1" /><path clip-path="url(#clip400)" d="M157.177 467.659 Q153.843 467.659 151.922 469.442 Q150.024 471.224 150.024 474.349 Q150.024 477.474 151.922 479.256 Q153.843 481.039 157.177 481.039 Q160.51 481.039 162.431 479.256 Q164.352 477.451 164.352 474.349 Q164.352 471.224 162.431 469.442 Q160.533 467.659 157.177 467.659 M152.501 465.668 Q149.491 464.928 147.802 462.868 Q146.135 460.807 146.135 457.844 Q146.135 453.701 149.075 451.294 Q152.038 448.886 157.177 448.886 Q162.339 448.886 165.278 451.294 Q168.218 453.701 168.218 457.844 Q168.218 460.807 166.528 462.868 Q164.862 464.928 161.876 465.668 Q165.255 466.455 167.13 468.747 Q169.028 471.039 169.028 474.349 Q169.028 479.372 165.95 482.057 Q162.894 484.742 157.177 484.742 Q151.459 484.742 148.38 482.057 Q145.325 479.372 145.325 474.349 Q145.325 471.039 147.223 468.747 Q149.121 466.455 152.501 465.668 M150.788 458.284 Q150.788 460.969 152.454 462.474 Q154.144 463.979 157.177 463.979 Q160.186 463.979 161.876 462.474 Q163.589 460.969 163.589 458.284 Q163.589 455.599 161.876 454.094 Q160.186 452.59 157.177 452.59 Q154.144 452.59 152.454 454.094 Q150.788 455.599 150.788 458.284 Z" fill="#000000" fill-rule="nonzero" fill-opacity="1" /><path clip-path="url(#clip400)" d="M187.338 452.59 Q183.727 452.59 181.899 456.155 Q180.093 459.696 180.093 466.826 Q180.093 473.932 181.899 477.497 Q183.727 481.039 187.338 481.039 Q190.973 481.039 192.778 477.497 Q194.607 473.932 194.607 466.826 Q194.607 459.696 192.778 456.155 Q190.973 452.59 187.338 452.59 M187.338 448.886 Q193.149 448.886 196.204 453.493 Q199.283 458.076 199.283 466.826 Q199.283 475.553 196.204 480.159 Q193.149 484.742 187.338 484.742 Q181.528 484.742 178.45 480.159 Q175.394 475.553 175.394 466.826 Q175.394 458.076 178.45 453.493 Q181.528 448.886 187.338 448.886 Z" fill="#000000" fill-rule="nonzero" fill-opacity="1" /><path clip-path="url(#clip400)" d="M130.857 223.684 L119.052 242.133 L130.857 242.133 L130.857 223.684 M129.63 219.61 L135.51 219.61 L135.51 242.133 L140.441 242.133 L140.441 246.022 L135.51 246.022 L135.51 254.17 L130.857 254.17 L130.857 246.022 L115.256 246.022 L115.256 241.508 L129.63 219.61 Z" fill="#000000" fill-rule="nonzero" fill-opacity="1" /><path clip-path="url(#clip400)" d="M158.172 237.758 Q154.839 237.758 152.917 239.54 Q151.019 241.323 151.019 244.448 Q151.019 247.573 152.917 249.355 Q154.839 251.138 158.172 251.138 Q161.505 251.138 163.427 249.355 Q165.348 247.55 165.348 244.448 Q165.348 241.323 163.427 239.54 Q161.528 237.758 158.172 237.758 M153.496 235.767 Q150.487 235.027 148.797 232.966 Q147.13 230.906 147.13 227.943 Q147.13 223.8 150.07 221.392 Q153.033 218.985 158.172 218.985 Q163.334 218.985 166.274 221.392 Q169.214 223.8 169.214 227.943 Q169.214 230.906 167.524 232.966 Q165.857 235.027 162.871 235.767 Q166.251 236.554 168.126 238.846 Q170.024 241.138 170.024 244.448 Q170.024 249.471 166.945 252.156 Q163.89 254.841 158.172 254.841 Q152.454 254.841 149.376 252.156 Q146.32 249.471 146.32 244.448 Q146.32 241.138 148.218 238.846 Q150.116 236.554 153.496 235.767 M151.783 228.383 Q151.783 231.068 153.45 232.573 Q155.14 234.078 158.172 234.078 Q161.181 234.078 162.871 232.573 Q164.584 231.068 164.584 228.383 Q164.584 225.698 162.871 224.193 Q161.181 222.689 158.172 222.689 Q155.14 222.689 153.45 224.193 Q151.783 225.698 151.783 228.383 Z" fill="#000000" fill-rule="nonzero" fill-opacity="1" /><path clip-path="url(#clip400)" d="M178.38 219.61 L196.737 219.61 L196.737 223.545 L182.663 223.545 L182.663 232.017 Q183.681 231.67 184.7 231.508 Q185.718 231.323 186.737 231.323 Q192.524 231.323 195.903 234.494 Q199.283 237.665 199.283 243.082 Q199.283 248.661 195.811 251.763 Q192.338 254.841 186.019 254.841 Q183.843 254.841 181.575 254.471 Q179.329 254.101 176.922 253.36 L176.922 248.661 Q179.005 249.795 181.227 250.351 Q183.45 250.906 185.926 250.906 Q189.931 250.906 192.269 248.8 Q194.607 246.693 194.607 243.082 Q194.607 239.471 192.269 237.365 Q189.931 235.258 185.926 235.258 Q184.051 235.258 182.176 235.675 Q180.325 236.091 178.38 236.971 L178.38 219.61 Z" fill="#000000" fill-rule="nonzero" fill-opacity="1" /><path clip-path="url(#clip400)" d="M20.8447 1001.66 Q20.8447 1008.67 26.0645 1012.8 Q31.2844 1016.91 40.2919 1016.91 Q49.2675 1016.91 54.4874 1012.8 Q59.7073 1008.67 59.7073 1001.66 Q59.7073 994.662 54.4874 990.588 Q49.2675 986.482 40.2919 986.482 Q31.2844 986.482 26.0645 990.588 Q20.8447 994.662 20.8447 1001.66 M15.6248 1001.66 Q15.6248 991.67 22.3406 985.686 Q29.0246 979.702 40.2919 979.702 Q51.5274 979.702 58.2432 985.686 Q64.9272 991.67 64.9272 1001.66 Q64.9272 1011.69 58.2432 1017.71 Q51.5592 1023.69 40.2919 1023.69 Q29.0246 1023.69 22.3406 1017.71 Q15.6248 1011.69 15.6248 1001.66 Z" fill="#000000" fill-rule="nonzero" fill-opacity="1" /><path clip-path="url(#clip400)" d="M46.212 944.309 Q39.7508 944.309 36.0905 946.982 Q32.3984 949.624 32.3984 954.271 Q32.3984 958.918 36.0905 961.592 Q39.7508 964.234 46.212 964.234 Q52.6732 964.234 56.3653 961.592 Q60.0256 958.918 60.0256 954.271 Q60.0256 949.624 56.3653 946.982 Q52.6732 944.309 46.212 944.309 M33.7671 964.234 Q30.5842 962.387 29.0564 959.587 Q27.4968 956.754 27.4968 952.839 Q27.4968 946.346 32.6531 942.304 Q37.8093 938.23 46.212 938.23 Q54.6147 938.23 59.771 942.304 Q64.9272 946.346 64.9272 952.839 Q64.9272 956.754 63.3994 959.587 Q61.8398 962.387 58.657 964.234 L64.0042 964.234 L64.0042 970.122 L14.479 970.122 L14.479 964.234 L33.7671 964.234 Z" fill="#000000" fill-rule="nonzero" fill-opacity="1" /><path clip-path="url(#clip400)" d="M28.3562 928.522 L28.3562 922.665 L64.6407 922.665 Q71.452 922.665 74.5076 925.275 Q77.5631 927.854 77.5631 933.614 L77.5631 935.842 L72.5979 935.842 L72.5979 934.283 Q72.5979 930.941 71.0383 929.731 Q69.5105 928.522 64.6407 928.522 L28.3562 928.522 M14.479 928.522 L14.479 922.665 L21.895 922.665 L21.895 928.522 L14.479 928.522 Z" fill="#000000" fill-rule="nonzero" fill-opacity="1" /><path clip-path="url(#clip400)" d="M44.7161 879.92 L47.5806 879.92 L47.5806 906.847 Q53.6281 906.465 56.8109 903.218 Q59.9619 899.94 59.9619 894.115 Q59.9619 890.741 59.1344 887.59 Q58.3069 884.408 56.6518 881.288 L62.1899 881.288 Q63.5267 884.439 64.227 887.75 Q64.9272 891.06 64.9272 894.465 Q64.9272 902.995 59.9619 907.993 Q54.9967 912.958 46.5303 912.958 Q37.7774 912.958 32.6531 908.247 Q27.4968 903.505 27.4968 895.484 Q27.4968 888.291 32.1438 884.121 Q36.7589 879.92 44.7161 879.92 M42.9973 885.776 Q38.1912 885.84 35.3266 888.482 Q32.4621 891.092 32.4621 895.42 Q32.4621 900.322 35.2312 903.282 Q38.0002 906.21 43.0292 906.656 L42.9973 885.776 Z" fill="#000000" fill-rule="nonzero" fill-opacity="1" /><path clip-path="url(#clip400)" d="M29.7248 844.654 L35.1993 844.654 Q33.8307 847.136 33.1623 849.651 Q32.4621 852.133 32.4621 854.68 Q32.4621 860.377 36.0905 863.528 Q39.6872 866.679 46.212 866.679 Q52.7369 866.679 56.3653 863.528 Q59.9619 860.377 59.9619 854.68 Q59.9619 852.133 59.2935 849.651 Q58.5933 847.136 57.2247 844.654 L62.6355 844.654 Q63.7814 847.105 64.3543 849.746 Q64.9272 852.356 64.9272 855.316 Q64.9272 863.369 59.8664 868.111 Q54.8057 872.854 46.212 872.854 Q37.491 872.854 32.4939 868.08 Q27.4968 863.273 27.4968 854.934 Q27.4968 852.229 28.0697 849.651 Q28.6108 847.073 29.7248 844.654 Z" fill="#000000" fill-rule="nonzero" fill-opacity="1" /><path clip-path="url(#clip400)" d="M18.2347 828.676 L28.3562 828.676 L28.3562 816.613 L32.9077 816.613 L32.9077 828.676 L52.2594 828.676 Q56.6199 828.676 57.8613 827.498 Q59.1026 826.289 59.1026 822.628 L59.1026 816.613 L64.0042 816.613 L64.0042 822.628 Q64.0042 829.408 61.4897 831.986 Q58.9434 834.564 52.2594 834.564 L32.9077 834.564 L32.9077 838.861 L28.3562 838.861 L28.3562 834.564 L18.2347 834.564 L18.2347 828.676 Z" fill="#000000" fill-rule="nonzero" fill-opacity="1" /><path clip-path="url(#clip400)" d="M28.3562 808.91 L28.3562 803.054 L64.0042 803.054 L64.0042 808.91 L28.3562 808.91 M14.479 808.91 L14.479 803.054 L21.895 803.054 L21.895 808.91 L14.479 808.91 Z" fill="#000000" fill-rule="nonzero" fill-opacity="1" /><path clip-path="url(#clip400)" d="M28.3562 795.001 L28.3562 788.795 L58.275 777.655 L28.3562 766.515 L28.3562 760.308 L64.0042 773.676 L64.0042 781.633 L28.3562 795.001 Z" fill="#000000" fill-rule="nonzero" fill-opacity="1" /><path clip-path="url(#clip400)" d="M44.7161 721.732 L47.5806 721.732 L47.5806 748.659 Q53.6281 748.277 56.8109 745.03 Q59.9619 741.752 59.9619 735.927 Q59.9619 732.554 59.1344 729.403 Q58.3069 726.22 56.6518 723.101 L62.1899 723.101 Q63.5267 726.252 64.227 729.562 Q64.9272 732.872 64.9272 736.278 Q64.9272 744.808 59.9619 749.805 Q54.9967 754.77 46.5303 754.77 Q37.7774 754.77 32.6531 750.059 Q27.4968 745.317 27.4968 737.296 Q27.4968 730.103 32.1438 725.933 Q36.7589 721.732 44.7161 721.732 M42.9973 727.588 Q38.1912 727.652 35.3266 730.294 Q32.4621 732.904 32.4621 737.232 Q32.4621 742.134 35.2312 745.094 Q38.0002 748.022 43.0292 748.468 L42.9973 727.588 Z" fill="#000000" fill-rule="nonzero" fill-opacity="1" /><path clip-path="url(#clip400)" d="M28.3562 695.601 L28.3562 689.394 L58.275 678.254 L28.3562 667.114 L28.3562 660.908 L64.0042 674.276 L64.0042 682.233 L28.3562 695.601 Z" fill="#000000" fill-rule="nonzero" fill-opacity="1" /><path clip-path="url(#clip400)" d="M46.0847 636.622 Q46.0847 643.72 47.7079 646.457 Q49.3312 649.195 53.2461 649.195 Q56.3653 649.195 58.2114 647.158 Q60.0256 645.089 60.0256 641.556 Q60.0256 636.686 56.5881 633.758 Q53.1188 630.798 47.3897 630.798 L46.0847 630.798 L46.0847 636.622 M43.6657 624.941 L64.0042 624.941 L64.0042 630.798 L58.5933 630.798 Q61.8398 632.803 63.3994 635.795 Q64.9272 638.787 64.9272 643.115 Q64.9272 648.59 61.8716 651.836 Q58.7843 655.051 53.6281 655.051 Q47.6125 655.051 44.5569 651.041 Q41.5014 646.999 41.5014 639.01 L41.5014 630.798 L40.9285 630.798 Q36.8862 630.798 34.6901 633.471 Q32.4621 636.113 32.4621 640.919 Q32.4621 643.975 33.1941 646.871 Q33.9262 649.768 35.3903 652.441 L29.9795 652.441 Q28.7381 649.227 28.1334 646.203 Q27.4968 643.179 27.4968 640.315 Q27.4968 632.58 31.5072 628.761 Q35.5176 624.941 43.6657 624.941 Z" fill="#000000" fill-rule="nonzero" fill-opacity="1" /><path clip-path="url(#clip400)" d="M14.479 612.878 L14.479 607.022 L64.0042 607.022 L64.0042 612.878 L14.479 612.878 Z" fill="#000000" fill-rule="nonzero" fill-opacity="1" /><path clip-path="url(#clip400)" d="M49.9359 595.373 L28.3562 595.373 L28.3562 589.516 L49.7131 589.516 Q54.7739 589.516 57.3202 587.543 Q59.8346 585.569 59.8346 581.623 Q59.8346 576.88 56.8109 574.143 Q53.7872 571.374 48.5673 571.374 L28.3562 571.374 L28.3562 565.517 L64.0042 565.517 L64.0042 571.374 L58.5296 571.374 Q61.7762 573.506 63.3676 576.339 Q64.9272 579.14 64.9272 582.864 Q64.9272 589.007 61.1078 592.19 Q57.2883 595.373 49.9359 595.373 M27.4968 580.636 L27.4968 580.636 Z" fill="#000000" fill-rule="nonzero" fill-opacity="1" /><path clip-path="url(#clip400)" d="M44.7161 522.963 L47.5806 522.963 L47.5806 549.89 Q53.6281 549.508 56.8109 546.261 Q59.9619 542.983 59.9619 537.158 Q59.9619 533.784 59.1344 530.633 Q58.3069 527.451 56.6518 524.331 L62.1899 524.331 Q63.5267 527.482 64.227 530.793 Q64.9272 534.103 64.9272 537.508 Q64.9272 546.038 59.9619 551.036 Q54.9967 556.001 46.5303 556.001 Q37.7774 556.001 32.6531 551.29 Q27.4968 546.548 27.4968 538.527 Q27.4968 531.334 32.1438 527.164 Q36.7589 522.963 44.7161 522.963 M42.9973 528.819 Q38.1912 528.883 35.3266 531.525 Q32.4621 534.135 32.4621 538.463 Q32.4621 543.365 35.2312 546.325 Q38.0002 549.253 43.0292 549.699 L42.9973 528.819 Z" fill="#000000" fill-rule="nonzero" fill-opacity="1" /><path clip-path="url(#clip400)" d="M550.658 18.8205 L550.658 41.5461 L560.947 41.5461 Q566.659 41.5461 569.778 38.5889 Q572.898 35.6318 572.898 30.163 Q572.898 24.7348 569.778 21.7777 Q566.659 18.8205 560.947 18.8205 L550.658 18.8205 M542.475 12.096 L560.947 12.096 Q571.115 12.096 576.3 16.714 Q581.526 21.2916 581.526 30.163 Q581.526 39.1155 576.3 43.6931 Q571.115 48.2706 560.947 48.2706 L550.658 48.2706 L550.658 72.576 L542.475 72.576 L542.475 12.096 Z" fill="#000000" fill-rule="nonzero" fill-opacity="1" /><path clip-path="url(#clip400)" d="M617.012 34.1734 Q615.756 33.4443 614.257 33.1202 Q612.799 32.7556 611.017 32.7556 Q604.697 32.7556 601.295 36.8875 Q597.932 40.9789 597.932 48.6757 L597.932 72.576 L590.438 72.576 L590.438 27.2059 L597.932 27.2059 L597.932 34.2544 Q600.282 30.1225 604.049 28.1376 Q607.816 26.1121 613.204 26.1121 Q613.974 26.1121 614.906 26.2337 Q615.837 26.3147 616.972 26.5172 L617.012 34.1734 Z" fill="#000000" fill-rule="nonzero" fill-opacity="1" /><path clip-path="url(#clip400)" d="M624.83 27.2059 L632.284 27.2059 L632.284 72.576 L624.83 72.576 L624.83 27.2059 M624.83 9.54393 L632.284 9.54393 L632.284 18.9825 L624.83 18.9825 L624.83 9.54393 Z" fill="#000000" fill-rule="nonzero" fill-opacity="1" /><path clip-path="url(#clip400)" d="M683.204 35.9153 Q685.999 30.8922 689.888 28.5022 Q693.777 26.1121 699.043 26.1121 Q706.132 26.1121 709.98 31.0947 Q713.829 36.0368 713.829 45.1919 L713.829 72.576 L706.334 72.576 L706.334 45.4349 Q706.334 38.913 704.025 35.7533 Q701.716 32.5936 696.977 32.5936 Q691.184 32.5936 687.822 36.4419 Q684.46 40.2903 684.46 46.9338 L684.46 72.576 L676.965 72.576 L676.965 45.4349 Q676.965 38.8725 674.656 35.7533 Q672.347 32.5936 667.527 32.5936 Q661.815 32.5936 658.453 36.4824 Q655.091 40.3308 655.091 46.9338 L655.091 72.576 L647.596 72.576 L647.596 27.2059 L655.091 27.2059 L655.091 34.2544 Q657.643 30.082 661.207 28.0971 Q664.772 26.1121 669.674 26.1121 Q674.616 26.1121 678.059 28.6237 Q681.543 31.1352 683.204 35.9153 Z" fill="#000000" fill-rule="nonzero" fill-opacity="1" /><path clip-path="url(#clip400)" d="M749.315 49.7694 Q740.281 49.7694 736.797 51.8354 Q733.313 53.9013 733.313 58.8839 Q733.313 62.8538 735.906 65.2034 Q738.539 67.5124 743.036 67.5124 Q749.234 67.5124 752.96 63.1374 Q756.728 58.7219 756.728 51.4303 L756.728 49.7694 L749.315 49.7694 M764.181 46.6907 L764.181 72.576 L756.728 72.576 L756.728 65.6895 Q754.176 69.8214 750.368 71.8063 Q746.56 73.7508 741.051 73.7508 Q734.083 73.7508 729.951 69.8619 Q725.86 65.9325 725.86 59.3701 Q725.86 51.7138 730.964 47.825 Q736.109 43.9361 746.276 43.9361 L756.728 43.9361 L756.728 43.2069 Q756.728 38.0623 753.325 35.2672 Q749.963 32.4315 743.846 32.4315 Q739.957 32.4315 736.271 33.3632 Q732.584 34.295 729.182 36.1584 L729.182 29.2718 Q733.273 27.692 737.121 26.9223 Q740.97 26.1121 744.615 26.1121 Q754.459 26.1121 759.32 31.2163 Q764.181 36.3204 764.181 46.6907 Z" fill="#000000" fill-rule="nonzero" fill-opacity="1" /><path clip-path="url(#clip400)" d="M779.534 9.54393 L786.988 9.54393 L786.988 72.576 L779.534 72.576 L779.534 9.54393 Z" fill="#000000" fill-rule="nonzero" fill-opacity="1" /><path clip-path="url(#clip400)" d="M823.608 27.2059 L831.507 27.2059 L845.686 65.2844 L859.864 27.2059 L867.763 27.2059 L850.749 72.576 L840.622 72.576 L823.608 27.2059 Z" fill="#000000" fill-rule="nonzero" fill-opacity="1" /><path clip-path="url(#clip400)" d="M906.976 28.5427 L906.976 35.5912 Q903.816 33.9709 900.413 33.1607 Q897.011 32.3505 893.365 32.3505 Q887.815 32.3505 885.02 34.0519 Q882.265 35.7533 882.265 39.156 Q882.265 41.7486 884.25 43.2475 Q886.235 44.7058 892.23 46.0426 L894.783 46.6097 Q902.722 48.3111 906.044 51.4303 Q909.406 54.509 909.406 60.0587 Q909.406 66.3781 904.383 70.0644 Q899.401 73.7508 890.651 73.7508 Q887.005 73.7508 883.035 73.0216 Q879.106 72.3329 874.731 70.9151 L874.731 63.2184 Q878.862 65.3654 882.873 66.4591 Q886.883 67.5124 890.813 67.5124 Q896.079 67.5124 898.914 65.73 Q901.75 63.9071 901.75 60.6258 Q901.75 57.5877 899.684 55.9673 Q897.659 54.3469 890.732 52.8481 L888.139 52.2405 Q881.212 50.7821 878.133 47.7845 Q875.055 44.7463 875.055 39.4801 Q875.055 33.0797 879.592 29.5959 Q884.129 26.1121 892.473 26.1121 Q896.605 26.1121 900.251 26.7198 Q903.897 27.3274 906.976 28.5427 Z" fill="#000000" fill-rule="nonzero" fill-opacity="1" /><path clip-path="url(#clip400)" d="M956.154 18.8205 L956.154 65.8515 L966.038 65.8515 Q978.555 65.8515 984.348 60.1802 Q990.181 54.509 990.181 42.2752 Q990.181 30.1225 984.348 24.4918 Q978.555 18.8205 966.038 18.8205 L956.154 18.8205 M947.971 12.096 L964.782 12.096 Q982.363 12.096 990.586 19.4281 Q998.81 26.7198 998.81 42.2752 Q998.81 57.9117 990.546 65.2439 Q982.282 72.576 964.782 72.576 L947.971 72.576 L947.971 12.096 Z" fill="#000000" fill-rule="nonzero" fill-opacity="1" /><path clip-path="url(#clip400)" d="M1010.76 54.671 L1010.76 27.2059 L1018.21 27.2059 L1018.21 54.3874 Q1018.21 60.8284 1020.73 64.0691 Q1023.24 67.2693 1028.26 67.2693 Q1034.3 67.2693 1037.78 63.421 Q1041.3 59.5726 1041.3 52.9291 L1041.3 27.2059 L1048.76 27.2059 L1048.76 72.576 L1041.3 72.576 L1041.3 65.6084 Q1038.59 69.7404 1034.98 71.7658 Q1031.42 73.7508 1026.68 73.7508 Q1018.86 73.7508 1014.81 68.8897 Q1010.76 64.0286 1010.76 54.671 M1029.52 26.1121 L1029.52 26.1121 Z" fill="#000000" fill-rule="nonzero" fill-opacity="1" /><path clip-path="url(#clip400)" d="M1084.73 49.7694 Q1075.7 49.7694 1072.21 51.8354 Q1068.73 53.9013 1068.73 58.8839 Q1068.73 62.8538 1071.32 65.2034 Q1073.95 67.5124 1078.45 67.5124 Q1084.65 67.5124 1088.38 63.1374 Q1092.14 58.7219 1092.14 51.4303 L1092.14 49.7694 L1084.73 49.7694 M1099.6 46.6907 L1099.6 72.576 L1092.14 72.576 L1092.14 65.6895 Q1089.59 69.8214 1085.78 71.8063 Q1081.97 73.7508 1076.47 73.7508 Q1069.5 73.7508 1065.37 69.8619 Q1061.27 65.9325 1061.27 59.3701 Q1061.27 51.7138 1066.38 47.825 Q1071.52 43.9361 1081.69 43.9361 L1092.14 43.9361 L1092.14 43.2069 Q1092.14 38.0623 1088.74 35.2672 Q1085.38 32.4315 1079.26 32.4315 Q1075.37 32.4315 1071.69 33.3632 Q1068 34.295 1064.6 36.1584 L1064.6 29.2718 Q1068.69 27.692 1072.54 26.9223 Q1076.38 26.1121 1080.03 26.1121 Q1089.87 26.1121 1094.74 31.2163 Q1099.6 36.3204 1099.6 46.6907 Z" fill="#000000" fill-rule="nonzero" fill-opacity="1" /><path clip-path="url(#clip400)" d="M1114.95 9.54393 L1122.4 9.54393 L1122.4 72.576 L1114.95 72.576 L1114.95 9.54393 Z" fill="#000000" fill-rule="nonzero" fill-opacity="1" /><path clip-path="url(#clip400)" d="M1159.02 27.2059 L1166.92 27.2059 L1181.1 65.2844 L1195.28 27.2059 L1203.18 27.2059 L1186.16 72.576 L1176.04 72.576 L1159.02 27.2059 Z" fill="#000000" fill-rule="nonzero" fill-opacity="1" /><path clip-path="url(#clip400)" d="M1242.39 28.5427 L1242.39 35.5912 Q1239.23 33.9709 1235.83 33.1607 Q1232.43 32.3505 1228.78 32.3505 Q1223.23 32.3505 1220.43 34.0519 Q1217.68 35.7533 1217.68 39.156 Q1217.68 41.7486 1219.67 43.2475 Q1221.65 44.7058 1227.65 46.0426 L1230.2 46.6097 Q1238.14 48.3111 1241.46 51.4303 Q1244.82 54.509 1244.82 60.0587 Q1244.82 66.3781 1239.8 70.0644 Q1234.82 73.7508 1226.07 73.7508 Q1222.42 73.7508 1218.45 73.0216 Q1214.52 72.3329 1210.15 70.9151 L1210.15 63.2184 Q1214.28 65.3654 1218.29 66.4591 Q1222.3 67.5124 1226.23 67.5124 Q1231.49 67.5124 1234.33 65.73 Q1237.16 63.9071 1237.16 60.6258 Q1237.16 57.5877 1235.1 55.9673 Q1233.07 54.3469 1226.15 52.8481 L1223.55 52.2405 Q1216.63 50.7821 1213.55 47.7845 Q1210.47 44.7463 1210.47 39.4801 Q1210.47 33.0797 1215.01 29.5959 Q1219.54 26.1121 1227.89 26.1121 Q1232.02 26.1121 1235.67 26.7198 Q1239.31 27.3274 1242.39 28.5427 Z" fill="#000000" fill-rule="nonzero" fill-opacity="1" /><path clip-path="url(#clip400)" d="M1319.64 14.0809 L1319.64 22.0612 Q1314.98 19.8332 1310.85 18.7395 Q1306.72 17.6457 1302.87 17.6457 Q1296.19 17.6457 1292.54 20.2383 Q1288.94 22.8309 1288.94 27.611 Q1288.94 31.6214 1291.33 33.6873 Q1293.76 35.7128 1300.48 36.9686 L1305.42 37.9813 Q1314.58 39.7232 1318.91 44.1387 Q1323.29 48.5136 1323.29 55.8863 Q1323.29 64.6767 1317.37 69.2137 Q1311.5 73.7508 1300.12 73.7508 Q1295.82 73.7508 1290.96 72.7785 Q1286.14 71.8063 1280.96 69.9024 L1280.96 61.4765 Q1285.94 64.2716 1290.72 65.6895 Q1295.5 67.1073 1300.12 67.1073 Q1307.12 67.1073 1310.93 64.3527 Q1314.74 61.598 1314.74 56.4939 Q1314.74 52.0379 1311.99 49.5264 Q1309.27 47.0148 1303.03 45.759 L1298.05 44.7868 Q1288.89 42.9639 1284.8 39.075 Q1280.71 35.1862 1280.71 28.2591 Q1280.71 20.2383 1286.34 15.6203 Q1292.01 11.0023 1301.94 11.0023 Q1306.19 11.0023 1310.61 11.7719 Q1315.02 12.5416 1319.64 14.0809 Z" fill="#000000" fill-rule="nonzero" fill-opacity="1" /><path clip-path="url(#clip400)" d="M1356.34 49.7694 Q1347.31 49.7694 1343.83 51.8354 Q1340.34 53.9013 1340.34 58.8839 Q1340.34 62.8538 1342.93 65.2034 Q1345.57 67.5124 1350.06 67.5124 Q1356.26 67.5124 1359.99 63.1374 Q1363.76 58.7219 1363.76 51.4303 L1363.76 49.7694 L1356.34 49.7694 M1371.21 46.6907 L1371.21 72.576 L1363.76 72.576 L1363.76 65.6895 Q1361.2 69.8214 1357.4 71.8063 Q1353.59 73.7508 1348.08 73.7508 Q1341.11 73.7508 1336.98 69.8619 Q1332.89 65.9325 1332.89 59.3701 Q1332.89 51.7138 1337.99 47.825 Q1343.14 43.9361 1353.3 43.9361 L1363.76 43.9361 L1363.76 43.2069 Q1363.76 38.0623 1360.35 35.2672 Q1356.99 32.4315 1350.87 32.4315 Q1346.98 32.4315 1343.3 33.3632 Q1339.61 34.295 1336.21 36.1584 L1336.21 29.2718 Q1340.3 27.692 1344.15 26.9223 Q1348 26.1121 1351.64 26.1121 Q1361.49 26.1121 1366.35 31.2163 Q1371.21 36.3204 1371.21 46.6907 Z" fill="#000000" fill-rule="nonzero" fill-opacity="1" /><path clip-path="url(#clip400)" d="M1421.89 35.9153 Q1424.68 30.8922 1428.57 28.5022 Q1432.46 26.1121 1437.73 26.1121 Q1444.81 26.1121 1448.66 31.0947 Q1452.51 36.0368 1452.51 45.1919 L1452.51 72.576 L1445.02 72.576 L1445.02 45.4349 Q1445.02 38.913 1442.71 35.7533 Q1440.4 32.5936 1435.66 32.5936 Q1429.87 32.5936 1426.5 36.4419 Q1423.14 40.2903 1423.14 46.9338 L1423.14 72.576 L1415.65 72.576 L1415.65 45.4349 Q1415.65 38.8725 1413.34 35.7533 Q1411.03 32.5936 1406.21 32.5936 Q1400.5 32.5936 1397.14 36.4824 Q1393.77 40.3308 1393.77 46.9338 L1393.77 72.576 L1386.28 72.576 L1386.28 27.2059 L1393.77 27.2059 L1393.77 34.2544 Q1396.32 30.082 1399.89 28.0971 Q1403.45 26.1121 1408.36 26.1121 Q1413.3 26.1121 1416.74 28.6237 Q1420.23 31.1352 1421.89 35.9153 Z" fill="#000000" fill-rule="nonzero" fill-opacity="1" /><path clip-path="url(#clip400)" d="M1474.59 65.7705 L1474.59 89.8329 L1467.09 89.8329 L1467.09 27.2059 L1474.59 27.2059 L1474.59 34.0924 Q1476.94 30.0415 1480.5 28.0971 Q1484.11 26.1121 1489.09 26.1121 Q1497.35 26.1121 1502.5 32.6746 Q1507.68 39.2371 1507.68 49.9314 Q1507.68 60.6258 1502.5 67.1883 Q1497.35 73.7508 1489.09 73.7508 Q1484.11 73.7508 1480.5 71.8063 Q1476.94 69.8214 1474.59 65.7705 M1499.95 49.9314 Q1499.95 41.7081 1496.54 37.0496 Q1493.18 32.3505 1487.27 32.3505 Q1481.35 32.3505 1477.95 37.0496 Q1474.59 41.7081 1474.59 49.9314 Q1474.59 58.1548 1477.95 62.8538 Q1481.35 67.5124 1487.27 67.5124 Q1493.18 67.5124 1496.54 62.8538 Q1499.95 58.1548 1499.95 49.9314 Z" fill="#000000" fill-rule="nonzero" fill-opacity="1" /><path clip-path="url(#clip400)" d="M1520.04 9.54393 L1527.49 9.54393 L1527.49 72.576 L1520.04 72.576 L1520.04 9.54393 Z" fill="#000000" fill-rule="nonzero" fill-opacity="1" /><path clip-path="url(#clip400)" d="M1581.9 48.0275 L1581.9 51.6733 L1547.63 51.6733 Q1548.11 59.3701 1552.24 63.421 Q1556.42 67.4314 1563.83 67.4314 Q1568.12 67.4314 1572.13 66.3781 Q1576.19 65.3249 1580.15 63.2184 L1580.15 70.267 Q1576.14 71.9684 1571.93 72.8596 Q1567.72 73.7508 1563.38 73.7508 Q1552.53 73.7508 1546.17 67.4314 Q1539.85 61.1119 1539.85 50.3365 Q1539.85 39.1965 1545.84 32.6746 Q1551.88 26.1121 1562.09 26.1121 Q1571.24 26.1121 1576.55 32.0264 Q1581.9 37.9003 1581.9 48.0275 M1574.44 45.84 Q1574.36 39.7232 1571 36.0774 Q1567.68 32.4315 1562.17 32.4315 Q1555.93 32.4315 1552.16 35.9558 Q1548.44 39.4801 1547.87 45.8805 L1574.44 45.84 Z" fill="#000000" fill-rule="nonzero" fill-opacity="1" /><path clip-path="url(#clip400)" d="M1623.99 34.0924 L1623.99 9.54393 L1631.44 9.54393 L1631.44 72.576 L1623.99 72.576 L1623.99 65.7705 Q1621.64 69.8214 1618.03 71.8063 Q1614.47 73.7508 1609.44 73.7508 Q1601.22 73.7508 1596.03 67.1883 Q1590.89 60.6258 1590.89 49.9314 Q1590.89 39.2371 1596.03 32.6746 Q1601.22 26.1121 1609.44 26.1121 Q1614.47 26.1121 1618.03 28.0971 Q1621.64 30.0415 1623.99 34.0924 M1598.59 49.9314 Q1598.59 58.1548 1601.95 62.8538 Q1605.35 67.5124 1611.27 67.5124 Q1617.18 67.5124 1620.58 62.8538 Q1623.99 58.1548 1623.99 49.9314 Q1623.99 41.7081 1620.58 37.0496 Q1617.18 32.3505 1611.27 32.3505 Q1605.35 32.3505 1601.95 37.0496 Q1598.59 41.7081 1598.59 49.9314 Z" fill="#000000" fill-rule="nonzero" fill-opacity="1" /><path clip-path="url(#clip400)" d="M1668.83 27.2059 L1676.28 27.2059 L1685.6 62.6108 L1694.88 27.2059 L1703.67 27.2059 L1712.98 62.6108 L1722.26 27.2059 L1729.71 27.2059 L1717.85 72.576 L1709.05 72.576 L1699.29 35.3887 L1689.49 72.576 L1680.7 72.576 L1668.83 27.2059 Z" fill="#000000" fill-rule="nonzero" fill-opacity="1" /><path clip-path="url(#clip400)" d="M1741.02 27.2059 L1748.47 27.2059 L1748.47 72.576 L1741.02 72.576 L1741.02 27.2059 M1741.02 9.54393 L1748.47 9.54393 L1748.47 18.9825 L1741.02 18.9825 L1741.02 9.54393 Z" fill="#000000" fill-rule="nonzero" fill-opacity="1" /><path clip-path="url(#clip400)" d="M1771.44 14.324 L1771.44 27.2059 L1786.79 27.2059 L1786.79 32.9987 L1771.44 32.9987 L1771.44 57.6282 Q1771.44 63.1779 1772.94 64.7578 Q1774.48 66.3376 1779.14 66.3376 L1786.79 66.3376 L1786.79 72.576 L1779.14 72.576 Q1770.51 72.576 1767.23 69.3758 Q1763.94 66.1351 1763.94 57.6282 L1763.94 32.9987 L1758.48 32.9987 L1758.48 27.2059 L1763.94 27.2059 L1763.94 14.324 L1771.44 14.324 Z" fill="#000000" fill-rule="nonzero" fill-opacity="1" /><path clip-path="url(#clip400)" d="M1834.31 45.1919 L1834.31 72.576 L1826.86 72.576 L1826.86 45.4349 Q1826.86 38.994 1824.34 35.7938 Q1821.83 32.5936 1816.81 32.5936 Q1810.77 32.5936 1807.29 36.4419 Q1803.81 40.2903 1803.81 46.9338 L1803.81 72.576 L1796.31 72.576 L1796.31 9.54393 L1803.81 9.54393 L1803.81 34.2544 Q1806.48 30.163 1810.08 28.1376 Q1813.73 26.1121 1818.47 26.1121 Q1826.29 26.1121 1830.3 30.9732 Q1834.31 35.7938 1834.31 45.1919 Z" fill="#000000" fill-rule="nonzero" fill-opacity="1" /><path clip-path="url(#clip400)" d="M1884.05 18.8205 L1884.05 41.5461 L1894.34 41.5461 Q1900.05 41.5461 1903.17 38.5889 Q1906.29 35.6318 1906.29 30.163 Q1906.29 24.7348 1903.17 21.7777 Q1900.05 18.8205 1894.34 18.8205 L1884.05 18.8205 M1875.87 12.096 L1894.34 12.096 Q1904.51 12.096 1909.7 16.714 Q1914.92 21.2916 1914.92 30.163 Q1914.92 39.1155 1909.7 43.6931 Q1904.51 48.2706 1894.34 48.2706 L1884.05 48.2706 L1884.05 72.576 L1875.87 72.576 L1875.87 12.096 Z" fill="#000000" fill-rule="nonzero" fill-opacity="1" /><path clip-path="url(#clip400)" d="M1920.51 12.096 L1928.78 12.096 L1941.5 63.2184 L1954.17 12.096 L1963.37 12.096 L1976.09 63.2184 L1988.77 12.096 L1997.07 12.096 L1981.88 72.576 L1971.59 72.576 L1958.83 20.0763 L1945.95 72.576 L1935.66 72.576 L1920.51 12.096 Z" fill="#000000" fill-rule="nonzero" fill-opacity="1" /><path clip-path="url(#clip400)" d="M2007.93 12.096 L2016.11 12.096 L2016.11 65.6895 L2045.56 65.6895 L2045.56 72.576 L2007.93 72.576 L2007.93 12.096 Z" fill="#000000" fill-rule="nonzero" fill-opacity="1" /><polyline clip-path="url(#clip401)" style="stroke:#4682b4; stroke-linecap:round; stroke-linejoin:round; stroke-width:8; stroke-opacity:1; fill:none" points="295.211,1386.4 494.973,1156.49 694.735,875.504 894.496,869.118 1094.26,908.201 1294.02,875.504 1493.78,860.907 1693.54,869.118 1893.3,875.504 2093.07,862.221 2292.83,861.993 "/>
<circle clip-path="url(#clip401)" cx="295.211" cy="1386.4" r="14.4" fill="#4682b4" fill-rule="evenodd" fill-opacity="1" stroke="#000000" stroke-opacity="1" stroke-width="3.2"/>
<circle clip-path="url(#clip401)" cx="494.973" cy="1156.49" r="14.4" fill="#4682b4" fill-rule="evenodd" fill-opacity="1" stroke="#000000" stroke-opacity="1" stroke-width="3.2"/>
<circle clip-path="url(#clip401)" cx="694.735" cy="875.504" r="14.4" fill="#4682b4" fill-rule="evenodd" fill-opacity="1" stroke="#000000" stroke-opacity="1" stroke-width="3.2"/>
<circle clip-path="url(#clip401)" cx="894.496" cy="869.118" r="14.4" fill="#4682b4" fill-rule="evenodd" fill-opacity="1" stroke="#000000" stroke-opacity="1" stroke-width="3.2"/>
<circle clip-path="url(#clip401)" cx="1094.26" cy="908.201" r="14.4" fill="#4682b4" fill-rule="evenodd" fill-opacity="1" stroke="#000000" stroke-opacity="1" stroke-width="3.2"/>
<circle clip-path="url(#clip401)" cx="1294.02" cy="875.504" r="14.4" fill="#4682b4" fill-rule="evenodd" fill-opacity="1" stroke="#000000" stroke-opacity="1" stroke-width="3.2"/>
<circle clip-path="url(#clip401)" cx="1493.78" cy="860.907" r="14.4" fill="#4682b4" fill-rule="evenodd" fill-opacity="1" stroke="#000000" stroke-opacity="1" stroke-width="3.2"/>
<circle clip-path="url(#clip401)" cx="1693.54" cy="869.118" r="14.4" fill="#4682b4" fill-rule="evenodd" fill-opacity="1" stroke="#000000" stroke-opacity="1" stroke-width="3.2"/>
<circle clip-path="url(#clip401)" cx="1893.3" cy="875.504" r="14.4" fill="#4682b4" fill-rule="evenodd" fill-opacity="1" stroke="#000000" stroke-opacity="1" stroke-width="3.2"/>
<circle clip-path="url(#clip401)" cx="2093.07" cy="862.221" r="14.4" fill="#4682b4" fill-rule="evenodd" fill-opacity="1" stroke="#000000" stroke-opacity="1" stroke-width="3.2"/>
<circle clip-path="url(#clip401)" cx="2292.83" cy="861.993" r="14.4" fill="#4682b4" fill-rule="evenodd" fill-opacity="1" stroke="#000000" stroke-opacity="1" stroke-width="3.2"/>
<polyline clip-path="url(#clip401)" style="stroke:#ff8c00; stroke-linecap:round; stroke-linejoin:round; stroke-width:8; stroke-opacity:1; fill:none" points="295.211,160.256 494.973,620.059 694.735,637.088 894.496,735.009 1094.26,822.372 1294.02,815.9 1493.78,817.117 1693.54,835.591 1893.3,849.014 2093.07,840.764 2292.83,844.26 "/>
<circle clip-path="url(#clip401)" cx="295.211" cy="160.256" r="14.4" fill="#ff8c00" fill-rule="evenodd" fill-opacity="1" stroke="#000000" stroke-opacity="1" stroke-width="3.2"/>
<circle clip-path="url(#clip401)" cx="494.973" cy="620.059" r="14.4" fill="#ff8c00" fill-rule="evenodd" fill-opacity="1" stroke="#000000" stroke-opacity="1" stroke-width="3.2"/>
<circle clip-path="url(#clip401)" cx="694.735" cy="637.088" r="14.4" fill="#ff8c00" fill-rule="evenodd" fill-opacity="1" stroke="#000000" stroke-opacity="1" stroke-width="3.2"/>
<circle clip-path="url(#clip401)" cx="894.496" cy="735.009" r="14.4" fill="#ff8c00" fill-rule="evenodd" fill-opacity="1" stroke="#000000" stroke-opacity="1" stroke-width="3.2"/>
<circle clip-path="url(#clip401)" cx="1094.26" cy="822.372" r="14.4" fill="#ff8c00" fill-rule="evenodd" fill-opacity="1" stroke="#000000" stroke-opacity="1" stroke-width="3.2"/>
<circle clip-path="url(#clip401)" cx="1294.02" cy="815.9" r="14.4" fill="#ff8c00" fill-rule="evenodd" fill-opacity="1" stroke="#000000" stroke-opacity="1" stroke-width="3.2"/>
<circle clip-path="url(#clip401)" cx="1493.78" cy="817.117" r="14.4" fill="#ff8c00" fill-rule="evenodd" fill-opacity="1" stroke="#000000" stroke-opacity="1" stroke-width="3.2"/>
<circle clip-path="url(#clip401)" cx="1693.54" cy="835.591" r="14.4" fill="#ff8c00" fill-rule="evenodd" fill-opacity="1" stroke="#000000" stroke-opacity="1" stroke-width="3.2"/>
<circle clip-path="url(#clip401)" cx="1893.3" cy="849.014" r="14.4" fill="#ff8c00" fill-rule="evenodd" fill-opacity="1" stroke="#000000" stroke-opacity="1" stroke-width="3.2"/>
<circle clip-path="url(#clip401)" cx="2093.07" cy="840.764" r="14.4" fill="#ff8c00" fill-rule="evenodd" fill-opacity="1" stroke="#000000" stroke-opacity="1" stroke-width="3.2"/>
<circle clip-path="url(#clip401)" cx="2292.83" cy="844.26" r="14.4" fill="#ff8c00" fill-rule="evenodd" fill-opacity="1" stroke="#000000" stroke-opacity="1" stroke-width="3.2"/>
<polyline clip-path="url(#clip401)" style="stroke:#008000; stroke-linecap:round; stroke-linejoin:round; stroke-width:8; stroke-opacity:1; fill:none" points="295.211,1268.51 494.973,1039.56 694.735,769.798 894.496,756.242 1094.26,795.675 1294.02,769.798 1493.78,751.145 1693.54,756.242 1893.3,769.798 2093.07,754.002 2292.83,750.705 "/>
<circle clip-path="url(#clip401)" cx="295.211" cy="1268.51" r="14.4" fill="#008000" fill-rule="evenodd" fill-opacity="1" stroke="#000000" stroke-opacity="1" stroke-width="3.2"/>
<circle clip-path="url(#clip401)" cx="494.973" cy="1039.56" r="14.4" fill="#008000" fill-rule="evenodd" fill-opacity="1" stroke="#000000" stroke-opacity="1" stroke-width="3.2"/>
<circle clip-path="url(#clip401)" cx="694.735" cy="769.798" r="14.4" fill="#008000" fill-rule="evenodd" fill-opacity="1" stroke="#000000" stroke-opacity="1" stroke-width="3.2"/>
<circle clip-path="url(#clip401)" cx="894.496" cy="756.242" r="14.4" fill="#008000" fill-rule="evenodd" fill-opacity="1" stroke="#000000" stroke-opacity="1" stroke-width="3.2"/>
<circle clip-path="url(#clip401)" cx="1094.26" cy="795.675" r="14.4" fill="#008000" fill-rule="evenodd" fill-opacity="1" stroke="#000000" stroke-opacity="1" stroke-width="3.2"/>
<circle clip-path="url(#clip401)" cx="1294.02" cy="769.798" r="14.4" fill="#008000" fill-rule="evenodd" fill-opacity="1" stroke="#000000" stroke-opacity="1" stroke-width="3.2"/>
<circle clip-path="url(#clip401)" cx="1493.78" cy="751.145" r="14.4" fill="#008000" fill-rule="evenodd" fill-opacity="1" stroke="#000000" stroke-opacity="1" stroke-width="3.2"/>
<circle clip-path="url(#clip401)" cx="1693.54" cy="756.242" r="14.4" fill="#008000" fill-rule="evenodd" fill-opacity="1" stroke="#000000" stroke-opacity="1" stroke-width="3.2"/>
<circle clip-path="url(#clip401)" cx="1893.3" cy="769.798" r="14.4" fill="#008000" fill-rule="evenodd" fill-opacity="1" stroke="#000000" stroke-opacity="1" stroke-width="3.2"/>
<circle clip-path="url(#clip401)" cx="2093.07" cy="754.002" r="14.4" fill="#008000" fill-rule="evenodd" fill-opacity="1" stroke="#000000" stroke-opacity="1" stroke-width="3.2"/>
<circle clip-path="url(#clip401)" cx="2292.83" cy="750.705" r="14.4" fill="#008000" fill-rule="evenodd" fill-opacity="1" stroke="#000000" stroke-opacity="1" stroke-width="3.2"/>
<path clip-path="url(#clip400)" d="M1524.76 1379.86 L2282.17 1379.86 L2282.17 1172.5 L1524.76 1172.5  Z" fill="#ffffff" fill-rule="evenodd" fill-opacity="1"/>
<polyline clip-path="url(#clip400)" style="stroke:#000000; stroke-linecap:round; stroke-linejoin:round; stroke-width:4; stroke-opacity:1; fill:none" points="1524.76,1379.86 2282.17,1379.86 2282.17,1172.5 1524.76,1172.5 1524.76,1379.86 "/>
<polyline clip-path="url(#clip400)" style="stroke:#4682b4; stroke-linecap:round; stroke-linejoin:round; stroke-width:8; stroke-opacity:1; fill:none" points="1548.29,1224.34 1689.45,1224.34 "/>
<circle clip-path="url(#clip400)" cx="1618.87" cy="1224.34" r="19.6062" fill="#4682b4" fill-rule="evenodd" fill-opacity="1" stroke="#000000" stroke-opacity="1" stroke-width="4.55111"/>
<path clip-path="url(#clip400)" d="M1717.65 1210.9 L1717.65 1223.88 L1723.53 1223.88 Q1726.8 1223.88 1728.58 1222.2 Q1730.36 1220.51 1730.36 1217.38 Q1730.36 1214.28 1728.58 1212.59 Q1726.8 1210.9 1723.53 1210.9 L1717.65 1210.9 M1712.98 1207.06 L1723.53 1207.06 Q1729.34 1207.06 1732.31 1209.7 Q1735.29 1212.31 1735.29 1217.38 Q1735.29 1222.5 1732.31 1225.11 Q1729.34 1227.73 1723.53 1227.73 L1717.65 1227.73 L1717.65 1241.62 L1712.98 1241.62 L1712.98 1207.06 Z" fill="#000000" fill-rule="nonzero" fill-opacity="1" /><path clip-path="url(#clip400)" d="M1755.57 1219.67 Q1754.85 1219.26 1754 1219.07 Q1753.16 1218.86 1752.14 1218.86 Q1748.53 1218.86 1746.59 1221.22 Q1744.67 1223.56 1744.67 1227.96 L1744.67 1241.62 L1740.38 1241.62 L1740.38 1215.69 L1744.67 1215.69 L1744.67 1219.72 Q1746.01 1217.36 1748.16 1216.22 Q1750.32 1215.07 1753.39 1215.07 Q1753.83 1215.07 1754.37 1215.13 Q1754.9 1215.18 1755.55 1215.3 L1755.57 1219.67 Z" fill="#000000" fill-rule="nonzero" fill-opacity="1" /><path clip-path="url(#clip400)" d="M1760.04 1215.69 L1764.3 1215.69 L1764.3 1241.62 L1760.04 1241.62 L1760.04 1215.69 M1760.04 1205.6 L1764.3 1205.6 L1764.3 1210.99 L1760.04 1210.99 L1760.04 1205.6 Z" fill="#000000" fill-rule="nonzero" fill-opacity="1" /><path clip-path="url(#clip400)" d="M1793.39 1220.67 Q1794.99 1217.8 1797.21 1216.43 Q1799.44 1215.07 1802.44 1215.07 Q1806.5 1215.07 1808.69 1217.91 Q1810.89 1220.74 1810.89 1225.97 L1810.89 1241.62 L1806.61 1241.62 L1806.61 1226.11 Q1806.61 1222.38 1805.29 1220.57 Q1803.97 1218.77 1801.26 1218.77 Q1797.95 1218.77 1796.03 1220.97 Q1794.11 1223.17 1794.11 1226.96 L1794.11 1241.62 L1789.83 1241.62 L1789.83 1226.11 Q1789.83 1222.36 1788.51 1220.57 Q1787.19 1218.77 1784.44 1218.77 Q1781.17 1218.77 1779.25 1220.99 Q1777.33 1223.19 1777.33 1226.96 L1777.33 1241.62 L1773.05 1241.62 L1773.05 1215.69 L1777.33 1215.69 L1777.33 1219.72 Q1778.79 1217.33 1780.82 1216.2 Q1782.86 1215.07 1785.66 1215.07 Q1788.49 1215.07 1790.45 1216.5 Q1792.44 1217.94 1793.39 1220.67 Z" fill="#000000" fill-rule="nonzero" fill-opacity="1" /><path clip-path="url(#clip400)" d="M1831.17 1228.58 Q1826.01 1228.58 1824.02 1229.76 Q1822.03 1230.95 1822.03 1233.79 Q1822.03 1236.06 1823.51 1237.4 Q1825.01 1238.72 1827.58 1238.72 Q1831.13 1238.72 1833.25 1236.22 Q1835.41 1233.7 1835.41 1229.53 L1835.41 1228.58 L1831.17 1228.58 M1839.67 1226.82 L1839.67 1241.62 L1835.41 1241.62 L1835.41 1237.68 Q1833.95 1240.04 1831.77 1241.18 Q1829.6 1242.29 1826.45 1242.29 Q1822.47 1242.29 1820.11 1240.07 Q1817.77 1237.82 1817.77 1234.07 Q1817.77 1229.7 1820.69 1227.47 Q1823.63 1225.25 1829.44 1225.25 L1835.41 1225.25 L1835.41 1224.83 Q1835.41 1221.89 1833.46 1220.3 Q1831.54 1218.68 1828.05 1218.68 Q1825.82 1218.68 1823.72 1219.21 Q1821.61 1219.74 1819.67 1220.81 L1819.67 1216.87 Q1822 1215.97 1824.2 1215.53 Q1826.4 1215.07 1828.49 1215.07 Q1834.11 1215.07 1836.89 1217.98 Q1839.67 1220.9 1839.67 1226.82 Z" fill="#000000" fill-rule="nonzero" fill-opacity="1" /><path clip-path="url(#clip400)" d="M1848.44 1205.6 L1852.7 1205.6 L1852.7 1241.62 L1848.44 1241.62 L1848.44 1205.6 Z" fill="#000000" fill-rule="nonzero" fill-opacity="1" /><path clip-path="url(#clip400)" d="M1886.91 1205.64 Q1883.81 1210.97 1882.31 1216.18 Q1880.8 1221.38 1880.8 1226.73 Q1880.8 1232.08 1882.31 1237.33 Q1883.83 1242.57 1886.91 1247.87 L1883.21 1247.87 Q1879.74 1242.43 1878 1237.17 Q1876.29 1231.92 1876.29 1226.73 Q1876.29 1221.57 1878 1216.34 Q1879.71 1211.11 1883.21 1205.64 L1886.91 1205.64 Z" fill="#000000" fill-rule="nonzero" fill-opacity="1" /><path clip-path="url(#clip400)" d="M1895.18 1205.6 L1899.43 1205.6 L1899.43 1241.62 L1895.18 1241.62 L1895.18 1205.6 Z" fill="#000000" fill-rule="nonzero" fill-opacity="1" /><path clip-path="url(#clip400)" d="M1918.39 1218.68 Q1914.97 1218.68 1912.98 1221.36 Q1910.99 1224.02 1910.99 1228.68 Q1910.99 1233.33 1912.95 1236.01 Q1914.94 1238.68 1918.39 1238.68 Q1921.8 1238.68 1923.79 1235.99 Q1925.78 1233.31 1925.78 1228.68 Q1925.78 1224.07 1923.79 1221.38 Q1921.8 1218.68 1918.39 1218.68 M1918.39 1215.07 Q1923.95 1215.07 1927.12 1218.68 Q1930.29 1222.29 1930.29 1228.68 Q1930.29 1235.04 1927.12 1238.68 Q1923.95 1242.29 1918.39 1242.29 Q1912.81 1242.29 1909.64 1238.68 Q1906.5 1235.04 1906.5 1228.68 Q1906.5 1222.29 1909.64 1218.68 Q1912.81 1215.07 1918.39 1215.07 Z" fill="#000000" fill-rule="nonzero" fill-opacity="1" /><path clip-path="url(#clip400)" d="M1934.87 1215.69 L1939.13 1215.69 L1944.46 1235.92 L1949.76 1215.69 L1954.78 1215.69 L1960.11 1235.92 L1965.41 1215.69 L1969.67 1215.69 L1962.88 1241.62 L1957.86 1241.62 L1952.28 1220.37 L1946.68 1241.62 L1941.66 1241.62 L1934.87 1215.69 Z" fill="#000000" fill-rule="nonzero" fill-opacity="1" /><path clip-path="url(#clip400)" d="M1998.3 1227.59 L1998.3 1229.67 L1978.72 1229.67 Q1978.99 1234.07 1981.36 1236.38 Q1983.74 1238.68 1987.98 1238.68 Q1990.43 1238.68 1992.72 1238.07 Q1995.04 1237.47 1997.3 1236.27 L1997.3 1240.3 Q1995.01 1241.27 1992.61 1241.78 Q1990.2 1242.29 1987.72 1242.29 Q1981.52 1242.29 1977.88 1238.68 Q1974.27 1235.07 1974.27 1228.91 Q1974.27 1222.54 1977.7 1218.82 Q1981.15 1215.07 1986.98 1215.07 Q1992.21 1215.07 1995.24 1218.45 Q1998.3 1221.8 1998.3 1227.59 M1994.04 1226.34 Q1993.99 1222.84 1992.07 1220.76 Q1990.18 1218.68 1987.03 1218.68 Q1983.46 1218.68 1981.31 1220.69 Q1979.18 1222.7 1978.86 1226.36 L1994.04 1226.34 Z" fill="#000000" fill-rule="nonzero" fill-opacity="1" /><path clip-path="url(#clip400)" d="M2020.31 1219.67 Q2019.6 1219.26 2018.74 1219.07 Q2017.91 1218.86 2016.89 1218.86 Q2013.28 1218.86 2011.33 1221.22 Q2009.41 1223.56 2009.41 1227.96 L2009.41 1241.62 L2005.13 1241.62 L2005.13 1215.69 L2009.41 1215.69 L2009.41 1219.72 Q2010.75 1217.36 2012.91 1216.22 Q2015.06 1215.07 2018.14 1215.07 Q2018.58 1215.07 2019.11 1215.13 Q2019.64 1215.18 2020.29 1215.3 L2020.31 1219.67 Z" fill="#000000" fill-rule="nonzero" fill-opacity="1" /><path clip-path="url(#clip400)" d="M2058.46 1228.68 Q2058.46 1223.98 2056.52 1221.32 Q2054.6 1218.63 2051.22 1218.63 Q2047.84 1218.63 2045.89 1221.32 Q2043.97 1223.98 2043.97 1228.68 Q2043.97 1233.38 2045.89 1236.06 Q2047.84 1238.72 2051.22 1238.72 Q2054.6 1238.72 2056.52 1236.06 Q2058.46 1233.38 2058.46 1228.68 M2043.97 1219.63 Q2045.31 1217.31 2047.35 1216.2 Q2049.41 1215.07 2052.26 1215.07 Q2056.98 1215.07 2059.92 1218.82 Q2062.88 1222.57 2062.88 1228.68 Q2062.88 1234.79 2059.92 1238.54 Q2056.98 1242.29 2052.26 1242.29 Q2049.41 1242.29 2047.35 1241.18 Q2045.31 1240.04 2043.97 1237.73 L2043.97 1241.62 L2039.69 1241.62 L2039.69 1205.6 L2043.97 1205.6 L2043.97 1219.63 Z" fill="#000000" fill-rule="nonzero" fill-opacity="1" /><path clip-path="url(#clip400)" d="M2079.99 1218.68 Q2076.56 1218.68 2074.57 1221.36 Q2072.58 1224.02 2072.58 1228.68 Q2072.58 1233.33 2074.55 1236.01 Q2076.54 1238.68 2079.99 1238.68 Q2083.39 1238.68 2085.38 1235.99 Q2087.37 1233.31 2087.37 1228.68 Q2087.37 1224.07 2085.38 1221.38 Q2083.39 1218.68 2079.99 1218.68 M2079.99 1215.07 Q2085.55 1215.07 2088.72 1218.68 Q2091.89 1222.29 2091.89 1228.68 Q2091.89 1235.04 2088.72 1238.68 Q2085.55 1242.29 2079.99 1242.29 Q2074.41 1242.29 2071.24 1238.68 Q2068.09 1235.04 2068.09 1228.68 Q2068.09 1222.29 2071.24 1218.68 Q2074.41 1215.07 2079.99 1215.07 Z" fill="#000000" fill-rule="nonzero" fill-opacity="1" /><path clip-path="url(#clip400)" d="M2098.51 1231.38 L2098.51 1215.69 L2102.77 1215.69 L2102.77 1231.22 Q2102.77 1234.9 2104.2 1236.76 Q2105.64 1238.58 2108.51 1238.58 Q2111.96 1238.58 2113.95 1236.38 Q2115.96 1234.19 2115.96 1230.39 L2115.96 1215.69 L2120.22 1215.69 L2120.22 1241.62 L2115.96 1241.62 L2115.96 1237.63 Q2114.41 1240 2112.35 1241.15 Q2110.31 1242.29 2107.61 1242.29 Q2103.14 1242.29 2100.82 1239.51 Q2098.51 1236.73 2098.51 1231.38 M2109.23 1215.07 L2109.23 1215.07 Z" fill="#000000" fill-rule="nonzero" fill-opacity="1" /><path clip-path="url(#clip400)" d="M2150.54 1225.97 L2150.54 1241.62 L2146.29 1241.62 L2146.29 1226.11 Q2146.29 1222.43 2144.85 1220.6 Q2143.42 1218.77 2140.54 1218.77 Q2137.1 1218.77 2135.1 1220.97 Q2133.11 1223.17 2133.11 1226.96 L2133.11 1241.62 L2128.83 1241.62 L2128.83 1215.69 L2133.11 1215.69 L2133.11 1219.72 Q2134.64 1217.38 2136.7 1216.22 Q2138.79 1215.07 2141.49 1215.07 Q2145.96 1215.07 2148.25 1217.84 Q2150.54 1220.6 2150.54 1225.97 Z" fill="#000000" fill-rule="nonzero" fill-opacity="1" /><path clip-path="url(#clip400)" d="M2176.1 1219.63 L2176.1 1205.6 L2180.36 1205.6 L2180.36 1241.62 L2176.1 1241.62 L2176.1 1237.73 Q2174.76 1240.04 2172.7 1241.18 Q2170.66 1242.29 2167.79 1242.29 Q2163.09 1242.29 2160.13 1238.54 Q2157.19 1234.79 2157.19 1228.68 Q2157.19 1222.57 2160.13 1218.82 Q2163.09 1215.07 2167.79 1215.07 Q2170.66 1215.07 2172.7 1216.2 Q2174.76 1217.31 2176.1 1219.63 M2161.59 1228.68 Q2161.59 1233.38 2163.51 1236.06 Q2165.45 1238.72 2168.83 1238.72 Q2172.21 1238.72 2174.16 1236.06 Q2176.1 1233.38 2176.1 1228.68 Q2176.1 1223.98 2174.16 1221.32 Q2172.21 1218.63 2168.83 1218.63 Q2165.45 1218.63 2163.51 1221.32 Q2161.59 1223.98 2161.59 1228.68 Z" fill="#000000" fill-rule="nonzero" fill-opacity="1" /><path clip-path="url(#clip400)" d="M2188.46 1205.64 L2192.16 1205.64 Q2195.64 1211.11 2197.35 1216.34 Q2199.09 1221.57 2199.09 1226.73 Q2199.09 1231.92 2197.35 1237.17 Q2195.64 1242.43 2192.16 1247.87 L2188.46 1247.87 Q2191.54 1242.57 2193.04 1237.33 Q2194.57 1232.08 2194.57 1226.73 Q2194.57 1221.38 2193.04 1216.18 Q2191.54 1210.97 2188.46 1205.64 Z" fill="#000000" fill-rule="nonzero" fill-opacity="1" /><polyline clip-path="url(#clip400)" style="stroke:#ff8c00; stroke-linecap:round; stroke-linejoin:round; stroke-width:8; stroke-opacity:1; fill:none" points="1548.29,1276.18 1689.45,1276.18 "/>
<circle clip-path="url(#clip400)" cx="1618.87" cy="1276.18" r="19.6062" fill="#ff8c00" fill-rule="evenodd" fill-opacity="1" stroke="#000000" stroke-opacity="1" stroke-width="4.55111"/>
<path clip-path="url(#clip400)" d="M1717.65 1262.74 L1717.65 1289.61 L1723.3 1289.61 Q1730.45 1289.61 1733.76 1286.37 Q1737.1 1283.13 1737.1 1276.14 Q1737.1 1269.2 1733.76 1265.98 Q1730.45 1262.74 1723.3 1262.74 L1717.65 1262.74 M1712.98 1258.9 L1722.58 1258.9 Q1732.63 1258.9 1737.33 1263.09 Q1742.03 1267.25 1742.03 1276.14 Q1742.03 1285.08 1737.31 1289.27 Q1732.58 1293.46 1722.58 1293.46 L1712.98 1293.46 L1712.98 1258.9 Z" fill="#000000" fill-rule="nonzero" fill-opacity="1" /><path clip-path="url(#clip400)" d="M1748.86 1283.22 L1748.86 1267.53 L1753.12 1267.53 L1753.12 1283.06 Q1753.12 1286.74 1754.55 1288.6 Q1755.99 1290.42 1758.86 1290.42 Q1762.31 1290.42 1764.3 1288.22 Q1766.31 1286.03 1766.31 1282.23 L1766.31 1267.53 L1770.57 1267.53 L1770.57 1293.46 L1766.31 1293.46 L1766.31 1289.47 Q1764.76 1291.84 1762.7 1292.99 Q1760.66 1294.13 1757.95 1294.13 Q1753.49 1294.13 1751.17 1291.35 Q1748.86 1288.57 1748.86 1283.22 M1759.57 1266.91 L1759.57 1266.91 Z" fill="#000000" fill-rule="nonzero" fill-opacity="1" /><path clip-path="url(#clip400)" d="M1791.13 1280.42 Q1785.96 1280.42 1783.97 1281.6 Q1781.98 1282.79 1781.98 1285.63 Q1781.98 1287.9 1783.46 1289.24 Q1784.97 1290.56 1787.54 1290.56 Q1791.08 1290.56 1793.21 1288.06 Q1795.36 1285.54 1795.36 1281.37 L1795.36 1280.42 L1791.13 1280.42 M1799.62 1278.66 L1799.62 1293.46 L1795.36 1293.46 L1795.36 1289.52 Q1793.9 1291.88 1791.73 1293.02 Q1789.55 1294.13 1786.4 1294.13 Q1782.42 1294.13 1780.06 1291.91 Q1777.72 1289.66 1777.72 1285.91 Q1777.72 1281.54 1780.64 1279.31 Q1783.58 1277.09 1789.39 1277.09 L1795.36 1277.09 L1795.36 1276.67 Q1795.36 1273.73 1793.42 1272.14 Q1791.5 1270.52 1788 1270.52 Q1785.78 1270.52 1783.67 1271.05 Q1781.57 1271.58 1779.62 1272.65 L1779.62 1268.71 Q1781.96 1267.81 1784.16 1267.37 Q1786.36 1266.91 1788.44 1266.91 Q1794.07 1266.91 1796.84 1269.82 Q1799.62 1272.74 1799.62 1278.66 Z" fill="#000000" fill-rule="nonzero" fill-opacity="1" /><path clip-path="url(#clip400)" d="M1808.39 1257.44 L1812.65 1257.44 L1812.65 1293.46 L1808.39 1293.46 L1808.39 1257.44 Z" fill="#000000" fill-rule="nonzero" fill-opacity="1" /><path clip-path="url(#clip400)" d="M1846.87 1257.48 Q1843.76 1262.81 1842.26 1268.02 Q1840.75 1273.22 1840.75 1278.57 Q1840.75 1283.92 1842.26 1289.17 Q1843.79 1294.41 1846.87 1299.71 L1843.16 1299.71 Q1839.69 1294.27 1837.95 1289.01 Q1836.24 1283.76 1836.24 1278.57 Q1836.24 1273.41 1837.95 1268.18 Q1839.67 1262.95 1843.16 1257.48 L1846.87 1257.48 Z" fill="#000000" fill-rule="nonzero" fill-opacity="1" /><path clip-path="url(#clip400)" d="M1854.69 1283.22 L1854.69 1267.53 L1858.95 1267.53 L1858.95 1283.06 Q1858.95 1286.74 1860.38 1288.6 Q1861.82 1290.42 1864.69 1290.42 Q1868.14 1290.42 1870.13 1288.22 Q1872.14 1286.03 1872.14 1282.23 L1872.14 1267.53 L1876.4 1267.53 L1876.4 1293.46 L1872.14 1293.46 L1872.14 1289.47 Q1870.59 1291.84 1868.53 1292.99 Q1866.5 1294.13 1863.79 1294.13 Q1859.32 1294.13 1857 1291.35 Q1854.69 1288.57 1854.69 1283.22 M1865.41 1266.91 L1865.41 1266.91 Z" fill="#000000" fill-rule="nonzero" fill-opacity="1" /><path clip-path="url(#clip400)" d="M1889.3 1289.57 L1889.3 1303.32 L1885.01 1303.32 L1885.01 1267.53 L1889.3 1267.53 L1889.3 1271.47 Q1890.64 1269.15 1892.68 1268.04 Q1894.74 1266.91 1897.58 1266.91 Q1902.31 1266.91 1905.25 1270.66 Q1908.21 1274.41 1908.21 1280.52 Q1908.21 1286.63 1905.25 1290.38 Q1902.31 1294.13 1897.58 1294.13 Q1894.74 1294.13 1892.68 1293.02 Q1890.64 1291.88 1889.3 1289.57 M1903.79 1280.52 Q1903.79 1275.82 1901.84 1273.16 Q1899.92 1270.47 1896.54 1270.47 Q1893.16 1270.47 1891.22 1273.16 Q1889.3 1275.82 1889.3 1280.52 Q1889.3 1285.22 1891.22 1287.9 Q1893.16 1290.56 1896.54 1290.56 Q1899.92 1290.56 1901.84 1287.9 Q1903.79 1285.22 1903.79 1280.52 Z" fill="#000000" fill-rule="nonzero" fill-opacity="1" /><path clip-path="url(#clip400)" d="M1919.39 1289.57 L1919.39 1303.32 L1915.11 1303.32 L1915.11 1267.53 L1919.39 1267.53 L1919.39 1271.47 Q1920.73 1269.15 1922.77 1268.04 Q1924.83 1266.91 1927.68 1266.91 Q1932.4 1266.91 1935.34 1270.66 Q1938.3 1274.41 1938.3 1280.52 Q1938.3 1286.63 1935.34 1290.38 Q1932.4 1294.13 1927.68 1294.13 Q1924.83 1294.13 1922.77 1293.02 Q1920.73 1291.88 1919.39 1289.57 M1933.88 1280.52 Q1933.88 1275.82 1931.93 1273.16 Q1930.01 1270.47 1926.63 1270.47 Q1923.25 1270.47 1921.31 1273.16 Q1919.39 1275.82 1919.39 1280.52 Q1919.39 1285.22 1921.31 1287.9 Q1923.25 1290.56 1926.63 1290.56 Q1930.01 1290.56 1931.93 1287.9 Q1933.88 1285.22 1933.88 1280.52 Z" fill="#000000" fill-rule="nonzero" fill-opacity="1" /><path clip-path="url(#clip400)" d="M1967.54 1279.43 L1967.54 1281.51 L1947.95 1281.51 Q1948.23 1285.91 1950.59 1288.22 Q1952.98 1290.52 1957.21 1290.52 Q1959.67 1290.52 1961.96 1289.91 Q1964.27 1289.31 1966.54 1288.11 L1966.54 1292.14 Q1964.25 1293.11 1961.84 1293.62 Q1959.43 1294.13 1956.96 1294.13 Q1950.75 1294.13 1947.12 1290.52 Q1943.51 1286.91 1943.51 1280.75 Q1943.51 1274.38 1946.93 1270.66 Q1950.38 1266.91 1956.22 1266.91 Q1961.45 1266.91 1964.48 1270.29 Q1967.54 1273.64 1967.54 1279.43 M1963.28 1278.18 Q1963.23 1274.68 1961.31 1272.6 Q1959.41 1270.52 1956.26 1270.52 Q1952.7 1270.52 1950.55 1272.53 Q1948.42 1274.54 1948.09 1278.2 L1963.28 1278.18 Z" fill="#000000" fill-rule="nonzero" fill-opacity="1" /><path clip-path="url(#clip400)" d="M1989.55 1271.51 Q1988.83 1271.1 1987.98 1270.91 Q1987.14 1270.7 1986.12 1270.7 Q1982.51 1270.7 1980.57 1273.06 Q1978.65 1275.4 1978.65 1279.8 L1978.65 1293.46 L1974.37 1293.46 L1974.37 1267.53 L1978.65 1267.53 L1978.65 1271.56 Q1979.99 1269.2 1982.14 1268.06 Q1984.3 1266.91 1987.37 1266.91 Q1987.81 1266.91 1988.35 1266.97 Q1988.88 1267.02 1989.53 1267.14 L1989.55 1271.51 Z" fill="#000000" fill-rule="nonzero" fill-opacity="1" /><path clip-path="url(#clip400)" d="M2027.7 1280.52 Q2027.7 1275.82 2025.75 1273.16 Q2023.83 1270.47 2020.45 1270.47 Q2017.07 1270.47 2015.13 1273.16 Q2013.21 1275.82 2013.21 1280.52 Q2013.21 1285.22 2015.13 1287.9 Q2017.07 1290.56 2020.45 1290.56 Q2023.83 1290.56 2025.75 1287.9 Q2027.7 1285.22 2027.7 1280.52 M2013.21 1271.47 Q2014.55 1269.15 2016.59 1268.04 Q2018.65 1266.91 2021.49 1266.91 Q2026.22 1266.91 2029.16 1270.66 Q2032.12 1274.41 2032.12 1280.52 Q2032.12 1286.63 2029.16 1290.38 Q2026.22 1294.13 2021.49 1294.13 Q2018.65 1294.13 2016.59 1293.02 Q2014.55 1291.88 2013.21 1289.57 L2013.21 1293.46 L2008.93 1293.46 L2008.93 1257.44 L2013.21 1257.44 L2013.21 1271.47 Z" fill="#000000" fill-rule="nonzero" fill-opacity="1" /><path clip-path="url(#clip400)" d="M2049.23 1270.52 Q2045.8 1270.52 2043.81 1273.2 Q2041.82 1275.86 2041.82 1280.52 Q2041.82 1285.17 2043.79 1287.85 Q2045.78 1290.52 2049.23 1290.52 Q2052.63 1290.52 2054.62 1287.83 Q2056.61 1285.15 2056.61 1280.52 Q2056.61 1275.91 2054.62 1273.22 Q2052.63 1270.52 2049.23 1270.52 M2049.23 1266.91 Q2054.78 1266.91 2057.95 1270.52 Q2061.12 1274.13 2061.12 1280.52 Q2061.12 1286.88 2057.95 1290.52 Q2054.78 1294.13 2049.23 1294.13 Q2043.65 1294.13 2040.48 1290.52 Q2037.33 1286.88 2037.33 1280.52 Q2037.33 1274.13 2040.48 1270.52 Q2043.65 1266.91 2049.23 1266.91 Z" fill="#000000" fill-rule="nonzero" fill-opacity="1" /><path clip-path="url(#clip400)" d="M2067.74 1283.22 L2067.74 1267.53 L2072 1267.53 L2072 1283.06 Q2072 1286.74 2073.44 1288.6 Q2074.87 1290.42 2077.74 1290.42 Q2081.19 1290.42 2083.18 1288.22 Q2085.2 1286.03 2085.2 1282.23 L2085.2 1267.53 L2089.46 1267.53 L2089.46 1293.46 L2085.2 1293.46 L2085.2 1289.47 Q2083.65 1291.84 2081.59 1292.99 Q2079.55 1294.13 2076.84 1294.13 Q2072.37 1294.13 2070.06 1291.35 Q2067.74 1288.57 2067.74 1283.22 M2078.46 1266.91 L2078.46 1266.91 Z" fill="#000000" fill-rule="nonzero" fill-opacity="1" /><path clip-path="url(#clip400)" d="M2119.78 1277.81 L2119.78 1293.46 L2115.52 1293.46 L2115.52 1277.95 Q2115.52 1274.27 2114.09 1272.44 Q2112.65 1270.61 2109.78 1270.61 Q2106.33 1270.61 2104.34 1272.81 Q2102.35 1275.01 2102.35 1278.8 L2102.35 1293.46 L2098.07 1293.46 L2098.07 1267.53 L2102.35 1267.53 L2102.35 1271.56 Q2103.88 1269.22 2105.94 1268.06 Q2108.02 1266.91 2110.73 1266.91 Q2115.2 1266.91 2117.49 1269.68 Q2119.78 1272.44 2119.78 1277.81 Z" fill="#000000" fill-rule="nonzero" fill-opacity="1" /><path clip-path="url(#clip400)" d="M2145.34 1271.47 L2145.34 1257.44 L2149.6 1257.44 L2149.6 1293.46 L2145.34 1293.46 L2145.34 1289.57 Q2143.99 1291.88 2141.93 1293.02 Q2139.9 1294.13 2137.03 1294.13 Q2132.33 1294.13 2129.36 1290.38 Q2126.42 1286.63 2126.42 1280.52 Q2126.42 1274.41 2129.36 1270.66 Q2132.33 1266.91 2137.03 1266.91 Q2139.9 1266.91 2141.93 1268.04 Q2143.99 1269.15 2145.34 1271.47 M2130.82 1280.52 Q2130.82 1285.22 2132.74 1287.9 Q2134.69 1290.56 2138.07 1290.56 Q2141.45 1290.56 2143.39 1287.9 Q2145.34 1285.22 2145.34 1280.52 Q2145.34 1275.82 2143.39 1273.16 Q2141.45 1270.47 2138.07 1270.47 Q2134.69 1270.47 2132.74 1273.16 Q2130.82 1275.82 2130.82 1280.52 Z" fill="#000000" fill-rule="nonzero" fill-opacity="1" /><path clip-path="url(#clip400)" d="M2157.7 1257.48 L2161.4 1257.48 Q2164.87 1262.95 2166.59 1268.18 Q2168.32 1273.41 2168.32 1278.57 Q2168.32 1283.76 2166.59 1289.01 Q2164.87 1294.27 2161.4 1299.71 L2157.7 1299.71 Q2160.78 1294.41 2162.28 1289.17 Q2163.81 1283.92 2163.81 1278.57 Q2163.81 1273.22 2162.28 1268.02 Q2160.78 1262.81 2157.7 1257.48 Z" fill="#000000" fill-rule="nonzero" fill-opacity="1" /><polyline clip-path="url(#clip400)" style="stroke:#008000; stroke-linecap:round; stroke-linejoin:round; stroke-width:8; stroke-opacity:1; fill:none" points="1548.29,1328.02 1689.45,1328.02 "/>
<circle clip-path="url(#clip400)" cx="1618.87" cy="1328.02" r="19.6062" fill="#008000" fill-rule="evenodd" fill-opacity="1" stroke="#000000" stroke-opacity="1" stroke-width="4.55111"/>
<path clip-path="url(#clip400)" d="M1735.22 1311.87 L1735.22 1316.43 Q1732.56 1315.16 1730.2 1314.53 Q1727.84 1313.91 1725.64 1313.91 Q1721.82 1313.91 1719.74 1315.39 Q1717.68 1316.87 1717.68 1319.6 Q1717.68 1321.89 1719.04 1323.07 Q1720.43 1324.23 1724.27 1324.95 L1727.1 1325.53 Q1732.33 1326.52 1734.81 1329.05 Q1737.31 1331.55 1737.31 1335.76 Q1737.31 1340.78 1733.93 1343.37 Q1730.57 1345.97 1724.07 1345.97 Q1721.61 1345.97 1718.83 1345.41 Q1716.08 1344.86 1713.12 1343.77 L1713.12 1338.95 Q1715.96 1340.55 1718.7 1341.36 Q1721.43 1342.17 1724.07 1342.17 Q1728.07 1342.17 1730.25 1340.6 Q1732.42 1339.02 1732.42 1336.11 Q1732.42 1333.56 1730.85 1332.13 Q1729.3 1330.69 1725.73 1329.97 L1722.88 1329.42 Q1717.65 1328.38 1715.32 1326.15 Q1712.98 1323.93 1712.98 1319.97 Q1712.98 1315.39 1716.2 1312.75 Q1719.44 1310.11 1725.11 1310.11 Q1727.54 1310.11 1730.06 1310.55 Q1732.58 1310.99 1735.22 1311.87 Z" fill="#000000" fill-rule="nonzero" fill-opacity="1" /><path clip-path="url(#clip400)" d="M1756.19 1332.26 Q1751.03 1332.26 1749.04 1333.44 Q1747.05 1334.63 1747.05 1337.47 Q1747.05 1339.74 1748.53 1341.08 Q1750.04 1342.4 1752.61 1342.4 Q1756.15 1342.4 1758.28 1339.9 Q1760.43 1337.38 1760.43 1333.21 L1760.43 1332.26 L1756.19 1332.26 M1764.69 1330.5 L1764.69 1345.3 L1760.43 1345.3 L1760.43 1341.36 Q1758.97 1343.72 1756.8 1344.86 Q1754.62 1345.97 1751.47 1345.97 Q1747.49 1345.97 1745.13 1343.75 Q1742.79 1341.5 1742.79 1337.75 Q1742.79 1333.38 1745.71 1331.15 Q1748.65 1328.93 1754.46 1328.93 L1760.43 1328.93 L1760.43 1328.51 Q1760.43 1325.57 1758.49 1323.98 Q1756.57 1322.36 1753.07 1322.36 Q1750.85 1322.36 1748.74 1322.89 Q1746.63 1323.42 1744.69 1324.49 L1744.69 1320.55 Q1747.03 1319.65 1749.23 1319.21 Q1751.43 1318.75 1753.51 1318.75 Q1759.13 1318.75 1761.91 1321.66 Q1764.69 1324.58 1764.69 1330.5 Z" fill="#000000" fill-rule="nonzero" fill-opacity="1" /><path clip-path="url(#clip400)" d="M1793.65 1324.35 Q1795.25 1321.48 1797.47 1320.11 Q1799.69 1318.75 1802.7 1318.75 Q1806.75 1318.75 1808.95 1321.59 Q1811.15 1324.42 1811.15 1329.65 L1811.15 1345.3 L1806.87 1345.3 L1806.87 1329.79 Q1806.87 1326.06 1805.55 1324.25 Q1804.23 1322.45 1801.52 1322.45 Q1798.21 1322.45 1796.29 1324.65 Q1794.37 1326.85 1794.37 1330.64 L1794.37 1345.3 L1790.08 1345.3 L1790.08 1329.79 Q1790.08 1326.04 1788.76 1324.25 Q1787.44 1322.45 1784.69 1322.45 Q1781.43 1322.45 1779.51 1324.67 Q1777.58 1326.87 1777.58 1330.64 L1777.58 1345.3 L1773.3 1345.3 L1773.3 1319.37 L1777.58 1319.37 L1777.58 1323.4 Q1779.04 1321.01 1781.08 1319.88 Q1783.12 1318.75 1785.92 1318.75 Q1788.74 1318.75 1790.71 1320.18 Q1792.7 1321.62 1793.65 1324.35 Z" fill="#000000" fill-rule="nonzero" fill-opacity="1" /><path clip-path="url(#clip400)" d="M1823.76 1341.41 L1823.76 1355.16 L1819.48 1355.16 L1819.48 1319.37 L1823.76 1319.37 L1823.76 1323.31 Q1825.11 1320.99 1827.14 1319.88 Q1829.2 1318.75 1832.05 1318.75 Q1836.77 1318.75 1839.71 1322.5 Q1842.68 1326.25 1842.68 1332.36 Q1842.68 1338.47 1839.71 1342.22 Q1836.77 1345.97 1832.05 1345.97 Q1829.2 1345.97 1827.14 1344.86 Q1825.11 1343.72 1823.76 1341.41 M1838.25 1332.36 Q1838.25 1327.66 1836.31 1325 Q1834.39 1322.31 1831.01 1322.31 Q1827.63 1322.31 1825.69 1325 Q1823.76 1327.66 1823.76 1332.36 Q1823.76 1337.06 1825.69 1339.74 Q1827.63 1342.4 1831.01 1342.4 Q1834.39 1342.4 1836.31 1339.74 Q1838.25 1337.06 1838.25 1332.36 Z" fill="#000000" fill-rule="nonzero" fill-opacity="1" /><path clip-path="url(#clip400)" d="M1849.74 1309.28 L1854 1309.28 L1854 1345.3 L1849.74 1345.3 L1849.74 1309.28 Z" fill="#000000" fill-rule="nonzero" fill-opacity="1" /><path clip-path="url(#clip400)" d="M1885.08 1331.27 L1885.08 1333.35 L1865.5 1333.35 Q1865.78 1337.75 1868.14 1340.06 Q1870.52 1342.36 1874.76 1342.36 Q1877.21 1342.36 1879.5 1341.75 Q1881.82 1341.15 1884.09 1339.95 L1884.09 1343.98 Q1881.8 1344.95 1879.39 1345.46 Q1876.98 1345.97 1874.5 1345.97 Q1868.3 1345.97 1864.67 1342.36 Q1861.06 1338.75 1861.06 1332.59 Q1861.06 1326.22 1864.48 1322.5 Q1867.93 1318.75 1873.76 1318.75 Q1879 1318.75 1882.03 1322.13 Q1885.08 1325.48 1885.08 1331.27 M1880.82 1330.02 Q1880.78 1326.52 1878.86 1324.44 Q1876.96 1322.36 1873.81 1322.36 Q1870.25 1322.36 1868.09 1324.37 Q1865.96 1326.38 1865.64 1330.04 L1880.82 1330.02 Z" fill="#000000" fill-rule="nonzero" fill-opacity="1" /><path clip-path="url(#clip400)" d="M1909.13 1323.31 L1909.13 1309.28 L1913.39 1309.28 L1913.39 1345.3 L1909.13 1345.3 L1909.13 1341.41 Q1907.79 1343.72 1905.73 1344.86 Q1903.69 1345.97 1900.82 1345.97 Q1896.12 1345.97 1893.16 1342.22 Q1890.22 1338.47 1890.22 1332.36 Q1890.22 1326.25 1893.16 1322.5 Q1896.12 1318.75 1900.82 1318.75 Q1903.69 1318.75 1905.73 1319.88 Q1907.79 1320.99 1909.13 1323.31 M1894.62 1332.36 Q1894.62 1337.06 1896.54 1339.74 Q1898.49 1342.4 1901.87 1342.4 Q1905.25 1342.4 1907.19 1339.74 Q1909.13 1337.06 1909.13 1332.36 Q1909.13 1327.66 1907.19 1325 Q1905.25 1322.31 1901.87 1322.31 Q1898.49 1322.31 1896.54 1325 Q1894.62 1327.66 1894.62 1332.36 Z" fill="#000000" fill-rule="nonzero" fill-opacity="1" /><path clip-path="url(#clip400)" d="M1947.47 1309.32 Q1944.37 1314.65 1942.86 1319.86 Q1941.36 1325.06 1941.36 1330.41 Q1941.36 1335.76 1942.86 1341.01 Q1944.39 1346.25 1947.47 1351.55 L1943.76 1351.55 Q1940.29 1346.11 1938.56 1340.85 Q1936.84 1335.6 1936.84 1330.41 Q1936.84 1325.25 1938.56 1320.02 Q1940.27 1314.79 1943.76 1309.32 L1947.47 1309.32 Z" fill="#000000" fill-rule="nonzero" fill-opacity="1" /><path clip-path="url(#clip400)" d="M1976.63 1311.87 L1976.63 1316.43 Q1973.97 1315.16 1971.61 1314.53 Q1969.25 1313.91 1967.05 1313.91 Q1963.23 1313.91 1961.15 1315.39 Q1959.09 1316.87 1959.09 1319.6 Q1959.09 1321.89 1960.45 1323.07 Q1961.84 1324.23 1965.68 1324.95 L1968.51 1325.53 Q1973.74 1326.52 1976.22 1329.05 Q1978.72 1331.55 1978.72 1335.76 Q1978.72 1340.78 1975.34 1343.37 Q1971.98 1345.97 1965.48 1345.97 Q1963.02 1345.97 1960.24 1345.41 Q1957.49 1344.86 1954.53 1343.77 L1954.53 1338.95 Q1957.37 1340.55 1960.11 1341.36 Q1962.84 1342.17 1965.48 1342.17 Q1969.48 1342.17 1971.66 1340.6 Q1973.83 1339.02 1973.83 1336.11 Q1973.83 1333.56 1972.26 1332.13 Q1970.71 1330.69 1967.14 1329.97 L1964.3 1329.42 Q1959.06 1328.38 1956.73 1326.15 Q1954.39 1323.93 1954.39 1319.97 Q1954.39 1315.39 1957.61 1312.75 Q1960.85 1310.11 1966.52 1310.11 Q1968.95 1310.11 1971.47 1310.55 Q1973.99 1310.99 1976.63 1311.87 Z" fill="#000000" fill-rule="nonzero" fill-opacity="1" /><path clip-path="url(#clip400)" d="M1998.44 1315.34 L1992.1 1332.54 L2004.8 1332.54 L1998.44 1315.34 M1995.8 1310.74 L2001.1 1310.74 L2014.27 1345.3 L2009.41 1345.3 L2006.26 1336.43 L1990.68 1336.43 L1987.54 1345.3 L1982.61 1345.3 L1995.8 1310.74 Z" fill="#000000" fill-rule="nonzero" fill-opacity="1" /><path clip-path="url(#clip400)" d="M2032.19 1315.34 L2025.85 1332.54 L2038.55 1332.54 L2032.19 1315.34 M2029.55 1310.74 L2034.85 1310.74 L2048.02 1345.3 L2043.16 1345.3 L2040.01 1336.43 L2024.43 1336.43 L2021.29 1345.3 L2016.36 1345.3 L2029.55 1310.74 Z" fill="#000000" fill-rule="nonzero" fill-opacity="1" /><path clip-path="url(#clip400)" d="M2053.97 1339.42 L2058.86 1339.42 L2058.86 1343.4 L2055.06 1350.81 L2052.07 1350.81 L2053.97 1343.4 L2053.97 1339.42 Z" fill="#000000" fill-rule="nonzero" fill-opacity="1" /><path clip-path="url(#clip400)" d="M2083.21 1310.74 L2089.5 1310.74 L2104.83 1339.65 L2104.83 1310.74 L2109.36 1310.74 L2109.36 1345.3 L2103.07 1345.3 L2087.74 1316.38 L2087.74 1345.3 L2083.21 1345.3 L2083.21 1310.74 Z" fill="#000000" fill-rule="nonzero" fill-opacity="1" /><path clip-path="url(#clip400)" d="M2119.04 1323.77 L2148.72 1323.77 L2148.72 1327.66 L2119.04 1327.66 L2119.04 1323.77 M2119.04 1333.21 L2148.72 1333.21 L2148.72 1337.15 L2119.04 1337.15 L2119.04 1333.21 Z" fill="#000000" fill-rule="nonzero" fill-opacity="1" /><path clip-path="url(#clip400)" d="M2158.85 1310.74 L2177.21 1310.74 L2177.21 1314.67 L2163.14 1314.67 L2163.14 1323.14 Q2164.16 1322.8 2165.17 1322.63 Q2166.19 1322.45 2167.21 1322.45 Q2173 1322.45 2176.38 1325.62 Q2179.76 1328.79 2179.76 1334.21 Q2179.76 1339.79 2176.29 1342.89 Q2172.81 1345.97 2166.49 1345.97 Q2164.32 1345.97 2162.05 1345.6 Q2159.8 1345.23 2157.4 1344.49 L2157.4 1339.79 Q2159.48 1340.92 2161.7 1341.48 Q2163.92 1342.03 2166.4 1342.03 Q2170.41 1342.03 2172.74 1339.93 Q2175.08 1337.82 2175.08 1334.21 Q2175.08 1330.6 2172.74 1328.49 Q2170.41 1326.38 2166.4 1326.38 Q2164.53 1326.38 2162.65 1326.8 Q2160.8 1327.22 2158.85 1328.1 L2158.85 1310.74 Z" fill="#000000" fill-rule="nonzero" fill-opacity="1" /><path clip-path="url(#clip400)" d="M2198.97 1313.81 Q2195.36 1313.81 2193.53 1317.38 Q2191.73 1320.92 2191.73 1328.05 Q2191.73 1335.16 2193.53 1338.72 Q2195.36 1342.26 2198.97 1342.26 Q2202.6 1342.26 2204.41 1338.72 Q2206.24 1335.16 2206.24 1328.05 Q2206.24 1320.92 2204.41 1317.38 Q2202.6 1313.81 2198.97 1313.81 M2198.97 1310.11 Q2204.78 1310.11 2207.84 1314.72 Q2210.91 1319.3 2210.91 1328.05 Q2210.91 1336.78 2207.84 1341.38 Q2204.78 1345.97 2198.97 1345.97 Q2193.16 1345.97 2190.08 1341.38 Q2187.03 1336.78 2187.03 1328.05 Q2187.03 1319.3 2190.08 1314.72 Q2193.16 1310.11 2198.97 1310.11 Z" fill="#000000" fill-rule="nonzero" fill-opacity="1" /><path clip-path="url(#clip400)" d="M2229.13 1313.81 Q2225.52 1313.81 2223.69 1317.38 Q2221.89 1320.92 2221.89 1328.05 Q2221.89 1335.16 2223.69 1338.72 Q2225.52 1342.26 2229.13 1342.26 Q2232.77 1342.26 2234.57 1338.72 Q2236.4 1335.16 2236.4 1328.05 Q2236.4 1320.92 2234.57 1317.38 Q2232.77 1313.81 2229.13 1313.81 M2229.13 1310.11 Q2234.94 1310.11 2238 1314.72 Q2241.08 1319.3 2241.08 1328.05 Q2241.08 1336.78 2238 1341.38 Q2234.94 1345.97 2229.13 1345.97 Q2223.32 1345.97 2220.24 1341.38 Q2217.19 1336.78 2217.19 1328.05 Q2217.19 1319.3 2220.24 1314.72 Q2223.32 1310.11 2229.13 1310.11 Z" fill="#000000" fill-rule="nonzero" fill-opacity="1" /><path clip-path="url(#clip400)" d="M2248.02 1309.32 L2251.72 1309.32 Q2255.2 1314.79 2256.91 1320.02 Q2258.65 1325.25 2258.65 1330.41 Q2258.65 1335.6 2256.91 1340.85 Q2255.2 1346.11 2251.72 1351.55 L2248.02 1351.55 Q2251.1 1346.25 2252.6 1341.01 Q2254.13 1335.76 2254.13 1330.41 Q2254.13 1325.06 2252.6 1319.86 Q2251.1 1314.65 2248.02 1309.32 Z" fill="#000000" fill-rule="nonzero" fill-opacity="1" /></svg>
