<?xml version="1.0" encoding="utf-8"?>
<svg xmlns="http://www.w3.org/2000/svg" xmlns:xlink="http://www.w3.org/1999/xlink" width="600" height="400" viewBox="0 0 2400 1600">
<defs>
  <clipPath id="clip790">
    <rect x="0" y="0" width="2400" height="1600"/>
  </clipPath>
</defs>
<path clip-path="url(#clip790)" d="M0 1600 L2400 1600 L2400 0 L0 0  Z" fill="#ffffff" fill-rule="evenodd" fill-opacity="1"/>
<defs>
  <clipPath id="clip791">
    <rect x="203" y="123" width="2150" height="1301"/>
  </clipPath>
</defs>
<path clip-path="url(#clip790)" d="M203.964 1423.18 L2352.76 1423.18 L2352.76 123.472 L203.964 123.472  Z" fill="#ffffff" fill-rule="evenodd" fill-opacity="1"/>
<polyline clip-path="url(#clip791)" style="stroke:#000000; stroke-linecap:round; stroke-linejoin:round; stroke-width:2; stroke-opacity:0.1; fill:none" points="264.778,1423.18 264.778,123.472 "/>
<polyline clip-path="url(#clip791)" style="stroke:#000000; stroke-linecap:round; stroke-linejoin:round; stroke-width:2; stroke-opacity:0.1; fill:none" points="771.569,1423.18 771.569,123.472 "/>
<polyline clip-path="url(#clip791)" style="stroke:#000000; stroke-linecap:round; stroke-linejoin:round; stroke-width:2; stroke-opacity:0.1; fill:none" points="1278.36,1423.18 1278.36,123.472 "/>
<polyline clip-path="url(#clip791)" style="stroke:#000000; stroke-linecap:round; stroke-linejoin:round; stroke-width:2; stroke-opacity:0.1; fill:none" points="1785.15,1423.18 1785.15,123.472 "/>
<polyline clip-path="url(#clip791)" style="stroke:#000000; stroke-linecap:round; stroke-linejoin:round; stroke-width:2; stroke-opacity:0.1; fill:none" points="2291.94,1423.18 2291.94,123.472 "/>
<polyline clip-path="url(#clip791)" style="stroke:#000000; stroke-linecap:round; stroke-linejoin:round; stroke-width:2; stroke-opacity:0.1; fill:none" points="203.964,1386.4 2352.76,1386.4 "/>
<polyline clip-path="url(#clip791)" style="stroke:#000000; stroke-linecap:round; stroke-linejoin:round; stroke-width:2; stroke-opacity:0.1; fill:none" points="203.964,977.683 2352.76,977.683 "/>
<polyline clip-path="url(#clip791)" style="stroke:#000000; stroke-linecap:round; stroke-linejoin:round; stroke-width:2; stroke-opacity:0.1; fill:none" points="203.964,568.969 2352.76,568.969 "/>
<polyline clip-path="url(#clip791)" style="stroke:#000000; stroke-linecap:round; stroke-linejoin:round; stroke-width:2; stroke-opacity:0.1; fill:none" points="203.964,160.256 2352.76,160.256 "/>
<polyline clip-path="url(#clip790)" style="stroke:#000000; stroke-linecap:round; stroke-linejoin:round; stroke-width:4; stroke-opacity:1; fill:none" points="203.964,1423.18 2352.76,1423.18 "/>
<polyline clip-path="url(#clip790)" style="stroke:#000000; stroke-linecap:round; stroke-linejoin:round; stroke-width:4; stroke-opacity:1; fill:none" points="264.778,1423.18 264.778,1404.28 "/>
<polyline clip-path="url(#clip790)" style="stroke:#000000; stroke-linecap:round; stroke-linejoin:round; stroke-width:4; stroke-opacity:1; fill:none" points="771.569,1423.18 771.569,1404.28 "/>
<polyline clip-path="url(#clip790)" style="stroke:#000000; stroke-linecap:round; stroke-linejoin:round; stroke-width:4; stroke-opacity:1; fill:none" points="1278.36,1423.18 1278.36,1404.28 "/>
<polyline clip-path="url(#clip790)" style="stroke:#000000; stroke-linecap:round; stroke-linejoin:round; stroke-width:4; stroke-opacity:1; fill:none" points="1785.15,1423.18 1785.15,1404.28 "/>
<polyline clip-path="url(#clip790)" style="stroke:#000000; stroke-linecap:round; stroke-linejoin:round; stroke-width:4; stroke-opacity:1; fill:none" points="2291.94,1423.18 2291.94,1404.28 "/>
<path clip-path="url(#clip790)" d="M249.651 1469.17 Q246.318 1469.17 244.397 1470.95 Q242.498 1472.73 242.498 1475.86 Q242.498 1478.98 244.397 1480.77 Q246.318 1482.55 249.651 1482.55 Q252.985 1482.55 254.906 1480.77 Q256.827 1478.96 256.827 1475.86 Q256.827 1472.73 254.906 1470.95 Q253.008 1469.17 249.651 1469.17 M244.975 1467.18 Q241.966 1466.44 240.276 1464.38 Q238.61 1462.32 238.61 1459.35 Q238.61 1455.21 241.549 1452.8 Q244.512 1450.39 249.651 1450.39 Q254.813 1450.39 257.753 1452.8 Q260.693 1455.21 260.693 1459.35 Q260.693 1462.32 259.003 1464.38 Q257.336 1466.44 254.35 1467.18 Q257.73 1467.96 259.605 1470.26 Q261.503 1472.55 261.503 1475.86 Q261.503 1480.88 258.424 1483.57 Q255.369 1486.25 249.651 1486.25 Q243.934 1486.25 240.855 1483.57 Q237.799 1480.88 237.799 1475.86 Q237.799 1472.55 239.698 1470.26 Q241.596 1467.96 244.975 1467.18 M243.262 1459.79 Q243.262 1462.48 244.929 1463.98 Q246.619 1465.49 249.651 1465.49 Q252.66 1465.49 254.35 1463.98 Q256.063 1462.48 256.063 1459.79 Q256.063 1457.11 254.35 1455.6 Q252.66 1454.1 249.651 1454.1 Q246.619 1454.1 244.929 1455.6 Q243.262 1457.11 243.262 1459.79 Z" fill="#000000" fill-rule="nonzero" fill-opacity="1" /><path clip-path="url(#clip790)" d="M279.813 1454.1 Q276.202 1454.1 274.373 1457.66 Q272.568 1461.2 272.568 1468.33 Q272.568 1475.44 274.373 1479.01 Q276.202 1482.55 279.813 1482.55 Q283.447 1482.55 285.253 1479.01 Q287.082 1475.44 287.082 1468.33 Q287.082 1461.2 285.253 1457.66 Q283.447 1454.1 279.813 1454.1 M279.813 1450.39 Q285.623 1450.39 288.679 1455 Q291.757 1459.58 291.757 1468.33 Q291.757 1477.06 288.679 1481.67 Q285.623 1486.25 279.813 1486.25 Q274.003 1486.25 270.924 1481.67 Q267.869 1477.06 267.869 1468.33 Q267.869 1459.58 270.924 1455 Q274.003 1450.39 279.813 1450.39 Z" fill="#000000" fill-rule="nonzero" fill-opacity="1" /><path clip-path="url(#clip790)" d="M746.697 1484.86 L746.697 1480.6 Q748.456 1481.44 750.261 1481.88 Q752.067 1482.32 753.803 1482.32 Q758.433 1482.32 760.863 1479.21 Q763.317 1476.09 763.664 1469.75 Q762.321 1471.74 760.261 1472.8 Q758.201 1473.87 755.701 1473.87 Q750.516 1473.87 747.484 1470.74 Q744.474 1467.59 744.474 1462.15 Q744.474 1456.83 747.622 1453.61 Q750.771 1450.39 756.002 1450.39 Q761.997 1450.39 765.146 1455 Q768.317 1459.58 768.317 1468.33 Q768.317 1476.51 764.428 1481.39 Q760.562 1486.25 754.011 1486.25 Q752.252 1486.25 750.447 1485.9 Q748.641 1485.56 746.697 1484.86 M756.002 1470.21 Q759.15 1470.21 760.979 1468.06 Q762.831 1465.9 762.831 1462.15 Q762.831 1458.43 760.979 1456.27 Q759.15 1454.1 756.002 1454.1 Q752.854 1454.1 751.002 1456.27 Q749.173 1458.43 749.173 1462.15 Q749.173 1465.9 751.002 1468.06 Q752.854 1470.21 756.002 1470.21 Z" fill="#000000" fill-rule="nonzero" fill-opacity="1" /><path clip-path="url(#clip790)" d="M786.719 1454.1 Q783.108 1454.1 781.28 1457.66 Q779.474 1461.2 779.474 1468.33 Q779.474 1475.44 781.28 1479.01 Q783.108 1482.55 786.719 1482.55 Q790.354 1482.55 792.159 1479.01 Q793.988 1475.44 793.988 1468.33 Q793.988 1461.2 792.159 1457.66 Q790.354 1454.1 786.719 1454.1 M786.719 1450.39 Q792.53 1450.39 795.585 1455 Q798.664 1459.58 798.664 1468.33 Q798.664 1477.06 795.585 1481.67 Q792.53 1486.25 786.719 1486.25 Q780.909 1486.25 777.831 1481.67 Q774.775 1477.06 774.775 1468.33 Q774.775 1459.58 777.831 1455 Q780.909 1450.39 786.719 1450.39 Z" fill="#000000" fill-rule="nonzero" fill-opacity="1" /><path clip-path="url(#clip790)" d="M1237.97 1481.64 L1245.61 1481.64 L1245.61 1455.28 L1237.3 1456.95 L1237.3 1452.69 L1245.56 1451.02 L1250.23 1451.02 L1250.23 1481.64 L1257.87 1481.64 L1257.87 1485.58 L1237.97 1485.58 L1237.97 1481.64 Z" fill="#000000" fill-rule="nonzero" fill-opacity="1" /><path clip-path="url(#clip790)" d="M1277.32 1454.1 Q1273.71 1454.1 1271.88 1457.66 Q1270.07 1461.2 1270.07 1468.33 Q1270.07 1475.44 1271.88 1479.01 Q1273.71 1482.55 1277.32 1482.55 Q1280.95 1482.55 1282.76 1479.01 Q1284.59 1475.44 1284.59 1468.33 Q1284.59 1461.2 1282.76 1457.66 Q1280.95 1454.1 1277.32 1454.1 M1277.32 1450.39 Q1283.13 1450.39 1286.18 1455 Q1289.26 1459.58 1289.26 1468.33 Q1289.26 1477.06 1286.18 1481.67 Q1283.13 1486.25 1277.32 1486.25 Q1271.51 1486.25 1268.43 1481.67 Q1265.37 1477.06 1265.37 1468.33 Q1265.37 1459.58 1268.43 1455 Q1271.51 1450.39 1277.32 1450.39 Z" fill="#000000" fill-rule="nonzero" fill-opacity="1" /><path clip-path="url(#clip790)" d="M1307.48 1454.1 Q1303.87 1454.1 1302.04 1457.66 Q1300.23 1461.2 1300.23 1468.33 Q1300.23 1475.44 1302.04 1479.01 Q1303.87 1482.55 1307.48 1482.55 Q1311.11 1482.55 1312.92 1479.01 Q1314.75 1475.44 1314.75 1468.33 Q1314.75 1461.2 1312.92 1457.66 Q1311.11 1454.1 1307.48 1454.1 M1307.48 1450.39 Q1313.29 1450.39 1316.35 1455 Q1319.42 1459.58 1319.42 1468.33 Q1319.42 1477.06 1316.35 1481.67 Q1313.29 1486.25 1307.48 1486.25 Q1301.67 1486.25 1298.59 1481.67 Q1295.54 1477.06 1295.54 1468.33 Q1295.54 1459.58 1298.59 1455 Q1301.67 1450.39 1307.48 1450.39 Z" fill="#000000" fill-rule="nonzero" fill-opacity="1" /><path clip-path="url(#clip790)" d="M1744.76 1481.64 L1752.4 1481.64 L1752.4 1455.28 L1744.09 1456.95 L1744.09 1452.69 L1752.35 1451.02 L1757.03 1451.02 L1757.03 1481.64 L1764.66 1481.64 L1764.66 1485.58 L1744.76 1485.58 L1744.76 1481.64 Z" fill="#000000" fill-rule="nonzero" fill-opacity="1" /><path clip-path="url(#clip790)" d="M1774.92 1481.64 L1782.56 1481.64 L1782.56 1455.28 L1774.25 1456.95 L1774.25 1452.69 L1782.51 1451.02 L1787.19 1451.02 L1787.19 1481.64 L1794.83 1481.64 L1794.83 1485.58 L1774.92 1485.58 L1774.92 1481.64 Z" fill="#000000" fill-rule="nonzero" fill-opacity="1" /><path clip-path="url(#clip790)" d="M1814.27 1454.1 Q1810.66 1454.1 1808.83 1457.66 Q1807.03 1461.2 1807.03 1468.33 Q1807.03 1475.44 1808.83 1479.01 Q1810.66 1482.55 1814.27 1482.55 Q1817.9 1482.55 1819.71 1479.01 Q1821.54 1475.44 1821.54 1468.33 Q1821.54 1461.2 1819.71 1457.66 Q1817.9 1454.1 1814.27 1454.1 M1814.27 1450.39 Q1820.08 1450.39 1823.14 1455 Q1826.21 1459.58 1826.21 1468.33 Q1826.21 1477.06 1823.14 1481.67 Q1820.08 1486.25 1814.27 1486.25 Q1808.46 1486.25 1805.38 1481.67 Q1802.33 1477.06 1802.33 1468.33 Q1802.33 1459.58 1805.38 1455 Q1808.46 1450.39 1814.27 1450.39 Z" fill="#000000" fill-rule="nonzero" fill-opacity="1" /><path clip-path="url(#clip790)" d="M2251.55 1481.64 L2259.19 1481.64 L2259.19 1455.28 L2250.88 1456.95 L2250.88 1452.69 L2259.14 1451.02 L2263.82 1451.02 L2263.82 1481.64 L2271.46 1481.64 L2271.46 1485.58 L2251.55 1485.58 L2251.55 1481.64 Z" fill="#000000" fill-rule="nonzero" fill-opacity="1" /><path clip-path="url(#clip790)" d="M2284.93 1481.64 L2301.25 1481.64 L2301.25 1485.58 L2279.3 1485.58 L2279.3 1481.64 Q2281.96 1478.89 2286.55 1474.26 Q2291.15 1469.61 2292.33 1468.27 Q2294.58 1465.74 2295.46 1464.01 Q2296.36 1462.25 2296.36 1460.56 Q2296.36 1457.8 2294.42 1456.07 Q2292.5 1454.33 2289.39 1454.33 Q2287.2 1454.33 2284.74 1455.09 Q2282.31 1455.86 2279.53 1457.41 L2279.53 1452.69 Q2282.36 1451.55 2284.81 1450.97 Q2287.27 1450.39 2289.3 1450.39 Q2294.67 1450.39 2297.87 1453.08 Q2301.06 1455.77 2301.06 1460.26 Q2301.06 1462.39 2300.25 1464.31 Q2299.46 1466.2 2297.36 1468.8 Q2296.78 1469.47 2293.68 1472.69 Q2290.58 1475.88 2284.93 1481.64 Z" fill="#000000" fill-rule="nonzero" fill-opacity="1" /><path clip-path="url(#clip790)" d="M2321.06 1454.1 Q2317.45 1454.1 2315.62 1457.66 Q2313.82 1461.2 2313.82 1468.33 Q2313.82 1475.44 2315.62 1479.01 Q2317.45 1482.55 2321.06 1482.55 Q2324.7 1482.55 2326.5 1479.01 Q2328.33 1475.44 2328.33 1468.33 Q2328.33 1461.2 2326.5 1457.66 Q2324.7 1454.1 2321.06 1454.1 M2321.06 1450.39 Q2326.87 1450.39 2329.93 1455 Q2333.01 1459.58 2333.01 1468.33 Q2333.01 1477.06 2329.93 1481.67 Q2326.87 1486.25 2321.06 1486.25 Q2315.25 1486.25 2312.17 1481.67 Q2309.12 1477.06 2309.12 1468.33 Q2309.12 1459.58 2312.17 1455 Q2315.25 1450.39 2321.06 1450.39 Z" fill="#000000" fill-rule="nonzero" fill-opacity="1" /><path clip-path="url(#clip790)" d="M1152.73 1525.81 L1152.73 1562.76 L1160.5 1562.76 Q1170.33 1562.76 1174.89 1558.3 Q1179.47 1553.85 1179.47 1544.24 Q1179.47 1534.69 1174.89 1530.26 Q1170.33 1525.81 1160.5 1525.81 L1152.73 1525.81 M1146.3 1520.52 L1159.51 1520.52 Q1173.33 1520.52 1179.79 1526.28 Q1186.25 1532.01 1186.25 1544.24 Q1186.25 1556.52 1179.75 1562.28 Q1173.26 1568.04 1159.51 1568.04 L1146.3 1568.04 L1146.3 1520.52 Z" fill="#000000" fill-rule="nonzero" fill-opacity="1" /><path clip-path="url(#clip790)" d="M1226.73 1548.76 L1226.73 1551.62 L1199.81 1551.62 Q1200.19 1557.67 1203.44 1560.85 Q1206.71 1564 1212.54 1564 Q1215.91 1564 1219.06 1563.17 Q1222.25 1562.35 1225.37 1560.69 L1225.37 1566.23 Q1222.21 1567.57 1218.9 1568.27 Q1215.59 1568.97 1212.19 1568.97 Q1203.66 1568.97 1198.66 1564 Q1193.7 1559.04 1193.7 1550.57 Q1193.7 1541.82 1198.41 1536.69 Q1203.15 1531.54 1211.17 1531.54 Q1218.36 1531.54 1222.53 1536.18 Q1226.73 1540.8 1226.73 1548.76 M1220.88 1547.04 Q1220.81 1542.23 1218.17 1539.37 Q1215.56 1536.5 1211.23 1536.5 Q1206.33 1536.5 1203.37 1539.27 Q1200.44 1542.04 1200 1547.07 L1220.88 1547.04 Z" fill="#000000" fill-rule="nonzero" fill-opacity="1" /><path clip-path="url(#clip790)" d="M1264.1 1539.24 Q1266.3 1535.29 1269.35 1533.41 Q1272.41 1531.54 1276.55 1531.54 Q1282.12 1531.54 1285.14 1535.45 Q1288.16 1539.33 1288.16 1546.53 L1288.16 1568.04 L1282.27 1568.04 L1282.27 1546.72 Q1282.27 1541.59 1280.46 1539.11 Q1278.65 1536.63 1274.92 1536.63 Q1270.37 1536.63 1267.73 1539.65 Q1265.09 1542.68 1265.09 1547.9 L1265.09 1568.04 L1259.2 1568.04 L1259.2 1546.72 Q1259.2 1541.56 1257.38 1539.11 Q1255.57 1536.63 1251.78 1536.63 Q1247.3 1536.63 1244.65 1539.68 Q1242.01 1542.71 1242.01 1547.9 L1242.01 1568.04 L1236.12 1568.04 L1236.12 1532.4 L1242.01 1532.4 L1242.01 1537.93 Q1244.02 1534.66 1246.82 1533.1 Q1249.62 1531.54 1253.47 1531.54 Q1257.35 1531.54 1260.06 1533.51 Q1262.8 1535.48 1264.1 1539.24 Z" fill="#000000" fill-rule="nonzero" fill-opacity="1" /><path clip-path="url(#clip790)" d="M1316.04 1550.12 Q1308.95 1550.12 1306.21 1551.75 Q1303.47 1553.37 1303.47 1557.29 Q1303.47 1560.4 1305.51 1562.25 Q1307.58 1564.07 1311.11 1564.07 Q1315.98 1564.07 1318.91 1560.63 Q1321.87 1557.16 1321.87 1551.43 L1321.87 1550.12 L1316.04 1550.12 M1327.73 1547.71 L1327.73 1568.04 L1321.87 1568.04 L1321.87 1562.63 Q1319.86 1565.88 1316.87 1567.44 Q1313.88 1568.97 1309.55 1568.97 Q1304.08 1568.97 1300.83 1565.91 Q1297.62 1562.82 1297.62 1557.67 Q1297.62 1551.65 1301.63 1548.6 Q1305.67 1545.54 1313.66 1545.54 L1321.87 1545.54 L1321.87 1544.97 Q1321.87 1540.93 1319.2 1538.73 Q1316.55 1536.5 1311.75 1536.5 Q1308.69 1536.5 1305.8 1537.23 Q1302.9 1537.97 1300.23 1539.43 L1300.23 1534.02 Q1303.44 1532.78 1306.46 1532.17 Q1309.49 1531.54 1312.35 1531.54 Q1320.09 1531.54 1323.91 1535.55 Q1327.73 1539.56 1327.73 1547.71 Z" fill="#000000" fill-rule="nonzero" fill-opacity="1" /><path clip-path="url(#clip790)" d="M1369.42 1546.53 L1369.42 1568.04 L1363.56 1568.04 L1363.56 1546.72 Q1363.56 1541.66 1361.59 1539.14 Q1359.62 1536.63 1355.67 1536.63 Q1350.93 1536.63 1348.19 1539.65 Q1345.45 1542.68 1345.45 1547.9 L1345.45 1568.04 L1339.57 1568.04 L1339.57 1532.4 L1345.45 1532.4 L1345.45 1537.93 Q1347.55 1534.72 1350.39 1533.13 Q1353.25 1531.54 1356.98 1531.54 Q1363.12 1531.54 1366.27 1535.36 Q1369.42 1539.14 1369.42 1546.53 Z" fill="#000000" fill-rule="nonzero" fill-opacity="1" /><path clip-path="url(#clip790)" d="M1404.56 1537.81 L1404.56 1518.52 L1410.42 1518.52 L1410.42 1568.04 L1404.56 1568.04 L1404.56 1562.7 Q1402.71 1565.88 1399.88 1567.44 Q1397.08 1568.97 1393.13 1568.97 Q1386.67 1568.97 1382.6 1563.81 Q1378.56 1558.65 1378.56 1550.25 Q1378.56 1541.85 1382.6 1536.69 Q1386.67 1531.54 1393.13 1531.54 Q1397.08 1531.54 1399.88 1533.1 Q1402.71 1534.62 1404.56 1537.81 M1384.6 1550.25 Q1384.6 1556.71 1387.25 1560.4 Q1389.92 1564.07 1394.57 1564.07 Q1399.21 1564.07 1401.89 1560.4 Q1404.56 1556.71 1404.56 1550.25 Q1404.56 1543.79 1401.89 1540.13 Q1399.21 1536.44 1394.57 1536.44 Q1389.92 1536.44 1387.25 1540.13 Q1384.6 1543.79 1384.6 1550.25 Z" fill="#000000" fill-rule="nonzero" fill-opacity="1" /><polyline clip-path="url(#clip790)" style="stroke:#000000; stroke-linecap:round; stroke-linejoin:round; stroke-width:4; stroke-opacity:1; fill:none" points="203.964,1423.18 203.964,123.472 "/>
<polyline clip-path="url(#clip790)" style="stroke:#000000; stroke-linecap:round; stroke-linejoin:round; stroke-width:4; stroke-opacity:1; fill:none" points="203.964,1386.4 222.861,1386.4 "/>
<polyline clip-path="url(#clip790)" style="stroke:#000000; stroke-linecap:round; stroke-linejoin:round; stroke-width:4; stroke-opacity:1; fill:none" points="203.964,977.683 222.861,977.683 "/>
<polyline clip-path="url(#clip790)" style="stroke:#000000; stroke-linecap:round; stroke-linejoin:round; stroke-width:4; stroke-opacity:1; fill:none" points="203.964,568.969 222.861,568.969 "/>
<polyline clip-path="url(#clip790)" style="stroke:#000000; stroke-linecap:round; stroke-linejoin:round; stroke-width:4; stroke-opacity:1; fill:none" points="203.964,160.256 222.861,160.256 "/>
<path clip-path="url(#clip790)" d="M156.019 1372.19 Q152.408 1372.19 150.579 1375.76 Q148.774 1379.3 148.774 1386.43 Q148.774 1393.54 150.579 1397.1 Q152.408 1400.64 156.019 1400.64 Q159.653 1400.64 161.459 1397.1 Q163.288 1393.54 163.288 1386.43 Q163.288 1379.3 161.459 1375.76 Q159.653 1372.19 156.019 1372.19 M156.019 1368.49 Q161.829 1368.49 164.885 1373.1 Q167.964 1377.68 167.964 1386.43 Q167.964 1395.16 164.885 1399.76 Q161.829 1404.35 156.019 1404.35 Q150.209 1404.35 147.13 1399.76 Q144.075 1395.16 144.075 1386.43 Q144.075 1377.68 147.13 1373.1 Q150.209 1368.49 156.019 1368.49 Z" fill="#000000" fill-rule="nonzero" fill-opacity="1" /><path clip-path="url(#clip790)" d="M116.668 991.027 L124.306 991.027 L124.306 964.662 L115.996 966.328 L115.996 962.069 L124.26 960.403 L128.936 960.403 L128.936 991.027 L136.575 991.027 L136.575 994.963 L116.668 994.963 L116.668 991.027 Z" fill="#000000" fill-rule="nonzero" fill-opacity="1" /><path clip-path="url(#clip790)" d="M156.019 963.481 Q152.408 963.481 150.579 967.046 Q148.774 970.588 148.774 977.717 Q148.774 984.824 150.579 988.389 Q152.408 991.93 156.019 991.93 Q159.653 991.93 161.459 988.389 Q163.288 984.824 163.288 977.717 Q163.288 970.588 161.459 967.046 Q159.653 963.481 156.019 963.481 M156.019 959.778 Q161.829 959.778 164.885 964.384 Q167.964 968.967 167.964 977.717 Q167.964 986.444 164.885 991.051 Q161.829 995.634 156.019 995.634 Q150.209 995.634 147.13 991.051 Q144.075 986.444 144.075 977.717 Q144.075 968.967 147.13 964.384 Q150.209 959.778 156.019 959.778 Z" fill="#000000" fill-rule="nonzero" fill-opacity="1" /><path clip-path="url(#clip790)" d="M119.885 582.314 L136.204 582.314 L136.204 586.249 L114.26 586.249 L114.26 582.314 Q116.922 579.56 121.505 574.93 Q126.112 570.277 127.292 568.935 Q129.538 566.412 130.417 564.675 Q131.32 562.916 131.32 561.226 Q131.32 558.472 129.376 556.736 Q127.455 555 124.353 555 Q122.154 555 119.7 555.763 Q117.269 556.527 114.492 558.078 L114.492 553.356 Q117.316 552.222 119.769 551.643 Q122.223 551.064 124.26 551.064 Q129.63 551.064 132.825 553.75 Q136.019 556.435 136.019 560.925 Q136.019 563.055 135.209 564.976 Q134.422 566.875 132.316 569.467 Q131.737 570.138 128.635 573.356 Q125.533 576.55 119.885 582.314 Z" fill="#000000" fill-rule="nonzero" fill-opacity="1" /><path clip-path="url(#clip790)" d="M156.019 554.768 Q152.408 554.768 150.579 558.333 Q148.774 561.875 148.774 569.004 Q148.774 576.111 150.579 579.675 Q152.408 583.217 156.019 583.217 Q159.653 583.217 161.459 579.675 Q163.288 576.111 163.288 569.004 Q163.288 561.875 161.459 558.333 Q159.653 554.768 156.019 554.768 M156.019 551.064 Q161.829 551.064 164.885 555.671 Q167.964 560.254 167.964 569.004 Q167.964 577.731 164.885 582.337 Q161.829 586.921 156.019 586.921 Q150.209 586.921 147.13 582.337 Q144.075 577.731 144.075 569.004 Q144.075 560.254 147.13 555.671 Q150.209 551.064 156.019 551.064 Z" fill="#000000" fill-rule="nonzero" fill-opacity="1" /><path clip-path="url(#clip790)" d="M130.024 158.902 Q133.38 159.62 135.255 161.888 Q137.154 164.157 137.154 167.49 Q137.154 172.606 133.635 175.407 Q130.117 178.208 123.635 178.208 Q121.459 178.208 119.144 177.768 Q116.853 177.351 114.399 176.495 L114.399 171.981 Q116.343 173.115 118.658 173.694 Q120.973 174.272 123.496 174.272 Q127.894 174.272 130.186 172.536 Q132.501 170.8 132.501 167.49 Q132.501 164.435 130.348 162.722 Q128.218 160.985 124.399 160.985 L120.371 160.985 L120.371 157.143 L124.584 157.143 Q128.033 157.143 129.862 155.777 Q131.691 154.388 131.691 151.796 Q131.691 149.134 129.792 147.722 Q127.917 146.286 124.399 146.286 Q122.478 146.286 120.279 146.703 Q118.08 147.12 115.441 147.999 L115.441 143.833 Q118.103 143.092 120.418 142.722 Q122.755 142.351 124.816 142.351 Q130.14 142.351 133.242 144.782 Q136.343 147.189 136.343 151.31 Q136.343 154.18 134.7 156.171 Q133.056 158.138 130.024 158.902 Z" fill="#000000" fill-rule="nonzero" fill-opacity="1" /><path clip-path="url(#clip790)" d="M156.019 146.055 Q152.408 146.055 150.579 149.62 Q148.774 153.161 148.774 160.291 Q148.774 167.397 150.579 170.962 Q152.408 174.504 156.019 174.504 Q159.653 174.504 161.459 170.962 Q163.288 167.397 163.288 160.291 Q163.288 153.161 161.459 149.62 Q159.653 146.055 156.019 146.055 M156.019 142.351 Q161.829 142.351 164.885 146.958 Q167.964 151.541 167.964 160.291 Q167.964 169.018 164.885 173.624 Q161.829 178.208 156.019 178.208 Q150.209 178.208 147.13 173.624 Q144.075 169.018 144.075 160.291 Q144.075 151.541 147.13 146.958 Q150.209 142.351 156.019 142.351 Z" fill="#000000" fill-rule="nonzero" fill-opacity="1" /><path clip-path="url(#clip790)" d="M41.7242 1001.01 Q42.4244 998.943 44.7161 997.001 Q47.0077 995.028 51.0181 993.054 L64.0042 986.529 L64.0042 993.436 L51.8138 999.515 Q47.0395 1001.87 45.48 1004.1 Q43.9204 1006.29 43.9204 1010.11 L43.9204 1017.12 L64.0042 1017.12 L64.0042 1023.55 L16.4842 1023.55 L16.4842 1009.03 Q16.4842 1000.88 19.8898 996.874 Q23.2955 992.863 30.1704 992.863 Q34.6582 992.863 37.6183 994.964 Q40.5784 997.033 41.7242 1001.01 M21.7677 1017.12 L38.6368 1017.12 L38.6368 1009.03 Q38.6368 1004.39 36.5043 1002.03 Q34.34 999.643 30.1704 999.643 Q26.0009 999.643 23.9002 1002.03 Q21.7677 1004.39 21.7677 1009.03 L21.7677 1017.12 Z" fill="#000000" fill-rule="nonzero" fill-opacity="1" /><path clip-path="url(#clip790)" d="M44.7161 950.945 L47.5806 950.945 L47.5806 977.872 Q53.6281 977.49 56.8109 974.244 Q59.9619 970.965 59.9619 965.141 Q59.9619 961.767 59.1344 958.616 Q58.3069 955.433 56.6518 952.314 L62.1899 952.314 Q63.5267 955.465 64.227 958.775 Q64.9272 962.085 64.9272 965.491 Q64.9272 974.021 59.9619 979.018 Q54.9967 983.983 46.5303 983.983 Q37.7774 983.983 32.6531 979.273 Q27.4968 974.53 27.4968 966.509 Q27.4968 959.316 32.1438 955.146 Q36.7589 950.945 44.7161 950.945 M42.9973 956.802 Q38.1912 956.865 35.3266 959.507 Q32.4621 962.117 32.4621 966.446 Q32.4621 971.347 35.2312 974.307 Q38.0002 977.235 43.0292 977.681 L42.9973 956.802 Z" fill="#000000" fill-rule="nonzero" fill-opacity="1" /><path clip-path="url(#clip790)" d="M18.2347 935.54 L28.3562 935.54 L28.3562 923.477 L32.9077 923.477 L32.9077 935.54 L52.2594 935.54 Q56.6199 935.54 57.8613 934.362 Q59.1026 933.153 59.1026 929.493 L59.1026 923.477 L64.0042 923.477 L64.0042 929.493 Q64.0042 936.272 61.4897 938.85 Q58.9434 941.428 52.2594 941.428 L32.9077 941.428 L32.9077 945.725 L28.3562 945.725 L28.3562 941.428 L18.2347 941.428 L18.2347 935.54 Z" fill="#000000" fill-rule="nonzero" fill-opacity="1" /><path clip-path="url(#clip790)" d="M49.9359 916.379 L28.3562 916.379 L28.3562 910.523 L49.7131 910.523 Q54.7739 910.523 57.3202 908.55 Q59.8346 906.576 59.8346 902.629 Q59.8346 897.887 56.8109 895.15 Q53.7872 892.381 48.5673 892.381 L28.3562 892.381 L28.3562 886.524 L64.0042 886.524 L64.0042 892.381 L58.5296 892.381 Q61.7762 894.513 63.3676 897.346 Q64.9272 900.147 64.9272 903.871 Q64.9272 910.014 61.1078 913.196 Q57.2883 916.379 49.9359 916.379 M27.4968 901.643 L27.4968 901.643 Z" fill="#000000" fill-rule="nonzero" fill-opacity="1" /><path clip-path="url(#clip790)" d="M33.8307 853.804 Q33.2578 854.791 33.0032 855.969 Q32.7167 857.115 32.7167 858.515 Q32.7167 863.48 35.9632 866.154 Q39.1779 868.796 45.2253 868.796 L64.0042 868.796 L64.0042 874.684 L28.3562 874.684 L28.3562 868.796 L33.8944 868.796 Q30.6479 866.95 29.0883 863.99 Q27.4968 861.03 27.4968 856.796 Q27.4968 856.192 27.5923 855.46 Q27.656 854.727 27.8151 853.836 L33.8307 853.804 Z" fill="#000000" fill-rule="nonzero" fill-opacity="1" /><path clip-path="url(#clip790)" d="M42.4881 819.175 L64.0042 819.175 L64.0042 825.031 L42.679 825.031 Q37.6183 825.031 35.1038 827.005 Q32.5894 828.978 32.5894 832.925 Q32.5894 837.667 35.6131 840.405 Q38.6368 843.142 43.8567 843.142 L64.0042 843.142 L64.0042 849.03 L28.3562 849.03 L28.3562 843.142 L33.8944 843.142 Q30.6797 841.041 29.0883 838.208 Q27.4968 835.344 27.4968 831.62 Q27.4968 825.477 31.3163 822.326 Q35.1038 819.175 42.4881 819.175 Z" fill="#000000" fill-rule="nonzero" fill-opacity="1" /><path clip-path="url(#clip790)" d="M46.212 783.272 Q52.6732 783.272 56.3653 780.631 Q60.0256 777.957 60.0256 773.31 Q60.0256 768.663 56.3653 765.99 Q52.6732 763.316 46.212 763.316 Q39.7508 763.316 36.0905 765.99 Q32.3984 768.663 32.3984 773.31 Q32.3984 777.957 36.0905 780.631 Q39.7508 783.272 46.212 783.272 M58.657 763.316 Q61.8398 765.162 63.3994 767.995 Q64.9272 770.796 64.9272 774.742 Q64.9272 781.204 59.771 785.278 Q54.6147 789.32 46.212 789.32 Q37.8093 789.32 32.6531 785.278 Q27.4968 781.204 27.4968 774.742 Q27.4968 770.796 29.0564 767.995 Q30.5842 765.162 33.7671 763.316 L28.3562 763.316 L28.3562 757.459 L77.5631 757.459 L77.5631 763.316 L58.657 763.316 Z" fill="#000000" fill-rule="nonzero" fill-opacity="1" /><path clip-path="url(#clip790)" d="M49.9359 746.001 L28.3562 746.001 L28.3562 740.145 L49.7131 740.145 Q54.7739 740.145 57.3202 738.171 Q59.8346 736.198 59.8346 732.251 Q59.8346 727.509 56.8109 724.772 Q53.7872 722.002 48.5673 722.002 L28.3562 722.002 L28.3562 716.146 L64.0042 716.146 L64.0042 722.002 L58.5296 722.002 Q61.7762 724.135 63.3676 726.968 Q64.9272 729.769 64.9272 733.493 Q64.9272 739.635 61.1078 742.818 Q57.2883 746.001 49.9359 746.001 M27.4968 731.265 L27.4968 731.265 Z" fill="#000000" fill-rule="nonzero" fill-opacity="1" /><path clip-path="url(#clip790)" d="M46.0847 687.882 Q46.0847 694.98 47.7079 697.717 Q49.3312 700.455 53.2461 700.455 Q56.3653 700.455 58.2114 698.418 Q60.0256 696.349 60.0256 692.816 Q60.0256 687.946 56.5881 685.018 Q53.1188 682.058 47.3897 682.058 L46.0847 682.058 L46.0847 687.882 M43.6657 676.201 L64.0042 676.201 L64.0042 682.058 L58.5933 682.058 Q61.8398 684.063 63.3994 687.055 Q64.9272 690.047 64.9272 694.375 Q64.9272 699.85 61.8716 703.096 Q58.7843 706.311 53.6281 706.311 Q47.6125 706.311 44.5569 702.301 Q41.5014 698.258 41.5014 690.269 L41.5014 682.058 L40.9285 682.058 Q36.8862 682.058 34.6901 684.731 Q32.4621 687.373 32.4621 692.179 Q32.4621 695.235 33.1941 698.131 Q33.9262 701.027 35.3903 703.701 L29.9795 703.701 Q28.7381 700.486 28.1334 697.463 Q27.4968 694.439 27.4968 691.574 Q27.4968 683.84 31.5072 680.021 Q35.5176 676.201 43.6657 676.201 Z" fill="#000000" fill-rule="nonzero" fill-opacity="1" /><path clip-path="url(#clip790)" d="M42.4881 634.506 L64.0042 634.506 L64.0042 640.362 L42.679 640.362 Q37.6183 640.362 35.1038 642.336 Q32.5894 644.309 32.5894 648.256 Q32.5894 652.998 35.6131 655.735 Q38.6368 658.473 43.8567 658.473 L64.0042 658.473 L64.0042 664.361 L28.3562 664.361 L28.3562 658.473 L33.8944 658.473 Q30.6797 656.372 29.0883 653.539 Q27.4968 650.675 27.4968 646.951 Q27.4968 640.808 31.3163 637.657 Q35.1038 634.506 42.4881 634.506 Z" fill="#000000" fill-rule="nonzero" fill-opacity="1" /><path clip-path="url(#clip790)" d="M18.2347 617.032 L28.3562 617.032 L28.3562 604.969 L32.9077 604.969 L32.9077 617.032 L52.2594 617.032 Q56.6199 617.032 57.8613 615.854 Q59.1026 614.645 59.1026 610.985 L59.1026 604.969 L64.0042 604.969 L64.0042 610.985 Q64.0042 617.764 61.4897 620.342 Q58.9434 622.92 52.2594 622.92 L32.9077 622.92 L32.9077 627.217 L28.3562 627.217 L28.3562 622.92 L18.2347 622.92 L18.2347 617.032 Z" fill="#000000" fill-rule="nonzero" fill-opacity="1" /><path clip-path="url(#clip790)" d="M28.3562 597.266 L28.3562 591.41 L64.0042 591.41 L64.0042 597.266 L28.3562 597.266 M14.479 597.266 L14.479 591.41 L21.895 591.41 L21.895 597.266 L14.479 597.266 Z" fill="#000000" fill-rule="nonzero" fill-opacity="1" /><path clip-path="url(#clip790)" d="M18.2347 573.363 L28.3562 573.363 L28.3562 561.3 L32.9077 561.3 L32.9077 573.363 L52.2594 573.363 Q56.6199 573.363 57.8613 572.186 Q59.1026 570.976 59.1026 567.316 L59.1026 561.3 L64.0042 561.3 L64.0042 567.316 Q64.0042 574.095 61.4897 576.673 Q58.9434 579.252 52.2594 579.252 L32.9077 579.252 L32.9077 583.548 L28.3562 583.548 L28.3562 579.252 L18.2347 579.252 L18.2347 573.363 Z" fill="#000000" fill-rule="nonzero" fill-opacity="1" /><path clip-path="url(#clip790)" d="M67.3143 538.766 Q73.68 541.248 75.6216 543.604 Q77.5631 545.959 77.5631 549.906 L77.5631 554.584 L72.6615 554.584 L72.6615 551.147 Q72.6615 548.728 71.5157 547.391 Q70.3699 546.054 66.1048 544.431 L63.4312 543.381 L28.3562 557.799 L28.3562 551.593 L56.238 540.453 L28.3562 529.313 L28.3562 523.106 L67.3143 538.766 Z" fill="#000000" fill-rule="nonzero" fill-opacity="1" /><path clip-path="url(#clip790)" d="M495.381 18.8205 L495.381 41.5461 L505.67 41.5461 Q511.382 41.5461 514.501 38.5889 Q517.62 35.6318 517.62 30.163 Q517.62 24.7348 514.501 21.7777 Q511.382 18.8205 505.67 18.8205 L495.381 18.8205 M487.198 12.096 L505.67 12.096 Q515.838 12.096 521.023 16.714 Q526.249 21.2916 526.249 30.163 Q526.249 39.1155 521.023 43.6931 Q515.838 48.2706 505.67 48.2706 L495.381 48.2706 L495.381 72.576 L487.198 72.576 L487.198 12.096 Z" fill="#000000" fill-rule="nonzero" fill-opacity="1" /><path clip-path="url(#clip790)" d="M531.839 12.096 L540.103 12.096 L552.823 63.2184 L565.502 12.096 L574.697 12.096 L587.417 63.2184 L600.097 12.096 L608.401 12.096 L593.21 72.576 L582.921 72.576 L570.16 20.0763 L557.279 72.576 L546.989 72.576 L531.839 12.096 Z" fill="#000000" fill-rule="nonzero" fill-opacity="1" /><path clip-path="url(#clip790)" d="M619.257 12.096 L627.44 12.096 L627.44 65.6895 L656.89 65.6895 L656.89 72.576 L619.257 72.576 L619.257 12.096 Z" fill="#000000" fill-rule="nonzero" fill-opacity="1" /><path clip-path="url(#clip790)" d="M712.064 20.1573 L700.964 50.2555 L723.204 50.2555 L712.064 20.1573 M707.446 12.096 L716.722 12.096 L739.772 72.576 L731.265 72.576 L725.756 57.061 L698.493 57.061 L692.984 72.576 L684.355 72.576 L707.446 12.096 Z" fill="#000000" fill-rule="nonzero" fill-opacity="1" /><path clip-path="url(#clip790)" d="M755.489 65.7705 L755.489 89.8329 L747.995 89.8329 L747.995 27.2059 L755.489 27.2059 L755.489 34.0924 Q757.839 30.0415 761.404 28.0971 Q765.009 26.1121 769.992 26.1121 Q778.255 26.1121 783.4 32.6746 Q788.585 39.2371 788.585 49.9314 Q788.585 60.6258 783.4 67.1883 Q778.255 73.7508 769.992 73.7508 Q765.009 73.7508 761.404 71.8063 Q757.839 69.8214 755.489 65.7705 M780.848 49.9314 Q780.848 41.7081 777.445 37.0496 Q774.083 32.3505 768.169 32.3505 Q762.254 32.3505 758.852 37.0496 Q755.489 41.7081 755.489 49.9314 Q755.489 58.1548 758.852 62.8538 Q762.254 67.5124 768.169 67.5124 Q774.083 67.5124 777.445 62.8538 Q780.848 58.1548 780.848 49.9314 Z" fill="#000000" fill-rule="nonzero" fill-opacity="1" /><path clip-path="url(#clip790)" d="M808.151 65.7705 L808.151 89.8329 L800.657 89.8329 L800.657 27.2059 L808.151 27.2059 L808.151 34.0924 Q810.501 30.0415 814.065 28.0971 Q817.671 26.1121 822.653 26.1121 Q830.917 26.1121 836.062 32.6746 Q841.247 39.2371 841.247 49.9314 Q841.247 60.6258 836.062 67.1883 Q830.917 73.7508 822.653 73.7508 Q817.671 73.7508 814.065 71.8063 Q810.501 69.8214 808.151 65.7705 M833.51 49.9314 Q833.51 41.7081 830.107 37.0496 Q826.745 32.3505 820.83 32.3505 Q814.916 32.3505 811.513 37.0496 Q808.151 41.7081 808.151 49.9314 Q808.151 58.1548 811.513 62.8538 Q814.916 67.5124 820.83 67.5124 Q826.745 67.5124 830.107 62.8538 Q833.51 58.1548 833.51 49.9314 Z" fill="#000000" fill-rule="nonzero" fill-opacity="1" /><path clip-path="url(#clip790)" d="M879.893 34.1734 Q878.637 33.4443 877.138 33.1202 Q875.68 32.7556 873.897 32.7556 Q867.578 32.7556 864.175 36.8875 Q860.813 40.9789 860.813 48.6757 L860.813 72.576 L853.319 72.576 L853.319 27.2059 L860.813 27.2059 L860.813 34.2544 Q863.162 30.1225 866.93 28.1376 Q870.697 26.1121 876.085 26.1121 Q876.854 26.1121 877.786 26.2337 Q878.718 26.3147 879.852 26.5172 L879.893 34.1734 Z" fill="#000000" fill-rule="nonzero" fill-opacity="1" /><path clip-path="url(#clip790)" d="M903.469 32.4315 Q897.473 32.4315 893.99 37.1306 Q890.506 41.7891 890.506 49.9314 Q890.506 58.0738 893.949 62.7728 Q897.433 67.4314 903.469 67.4314 Q909.424 67.4314 912.907 62.7323 Q916.391 58.0333 916.391 49.9314 Q916.391 41.8701 912.907 37.1711 Q909.424 32.4315 903.469 32.4315 M903.469 26.1121 Q913.191 26.1121 918.741 32.4315 Q924.29 38.7509 924.29 49.9314 Q924.29 61.0714 918.741 67.4314 Q913.191 73.7508 903.469 73.7508 Q893.706 73.7508 888.156 67.4314 Q882.647 61.0714 882.647 49.9314 Q882.647 38.7509 888.156 32.4315 Q893.706 26.1121 903.469 26.1121 Z" fill="#000000" fill-rule="nonzero" fill-opacity="1" /><path clip-path="url(#clip790)" d="M971.808 27.2059 L955.401 49.2833 L972.658 72.576 L963.868 72.576 L950.662 54.752 L937.456 72.576 L928.665 72.576 L946.287 48.8377 L930.164 27.2059 L938.955 27.2059 L950.986 43.369 L963.017 27.2059 L971.808 27.2059 Z" fill="#000000" fill-rule="nonzero" fill-opacity="1" /><path clip-path="url(#clip790)" d="M983.191 27.2059 L990.644 27.2059 L990.644 72.576 L983.191 72.576 L983.191 27.2059 M983.191 9.54393 L990.644 9.54393 L990.644 18.9825 L983.191 18.9825 L983.191 9.54393 Z" fill="#000000" fill-rule="nonzero" fill-opacity="1" /><path clip-path="url(#clip790)" d="M1041.56 35.9153 Q1044.36 30.8922 1048.25 28.5022 Q1052.14 26.1121 1057.4 26.1121 Q1064.49 26.1121 1068.34 31.0947 Q1072.19 36.0368 1072.19 45.1919 L1072.19 72.576 L1064.69 72.576 L1064.69 45.4349 Q1064.69 38.913 1062.39 35.7533 Q1060.08 32.5936 1055.34 32.5936 Q1049.54 32.5936 1046.18 36.4419 Q1042.82 40.2903 1042.82 46.9338 L1042.82 72.576 L1035.33 72.576 L1035.33 45.4349 Q1035.33 38.8725 1033.02 35.7533 Q1030.71 32.5936 1025.89 32.5936 Q1020.18 32.5936 1016.81 36.4824 Q1013.45 40.3308 1013.45 46.9338 L1013.45 72.576 L1005.96 72.576 L1005.96 27.2059 L1013.45 27.2059 L1013.45 34.2544 Q1016 30.082 1019.57 28.0971 Q1023.13 26.1121 1028.03 26.1121 Q1032.98 26.1121 1036.42 28.6237 Q1039.9 31.1352 1041.56 35.9153 Z" fill="#000000" fill-rule="nonzero" fill-opacity="1" /><path clip-path="url(#clip790)" d="M1107.67 49.7694 Q1098.64 49.7694 1095.16 51.8354 Q1091.67 53.9013 1091.67 58.8839 Q1091.67 62.8538 1094.27 65.2034 Q1096.9 67.5124 1101.4 67.5124 Q1107.59 67.5124 1111.32 63.1374 Q1115.09 58.7219 1115.09 51.4303 L1115.09 49.7694 L1107.67 49.7694 M1122.54 46.6907 L1122.54 72.576 L1115.09 72.576 L1115.09 65.6895 Q1112.54 69.8214 1108.73 71.8063 Q1104.92 73.7508 1099.41 73.7508 Q1092.44 73.7508 1088.31 69.8619 Q1084.22 65.9325 1084.22 59.3701 Q1084.22 51.7138 1089.32 47.825 Q1094.47 43.9361 1104.64 43.9361 L1115.09 43.9361 L1115.09 43.2069 Q1115.09 38.0623 1111.69 35.2672 Q1108.32 32.4315 1102.21 32.4315 Q1098.32 32.4315 1094.63 33.3632 Q1090.94 34.295 1087.54 36.1584 L1087.54 29.2718 Q1091.63 27.692 1095.48 26.9223 Q1099.33 26.1121 1102.98 26.1121 Q1112.82 26.1121 1117.68 31.2163 Q1122.54 36.3204 1122.54 46.6907 Z" fill="#000000" fill-rule="nonzero" fill-opacity="1" /><path clip-path="url(#clip790)" d="M1145.27 14.324 L1145.27 27.2059 L1160.62 27.2059 L1160.62 32.9987 L1145.27 32.9987 L1145.27 57.6282 Q1145.27 63.1779 1146.77 64.7578 Q1148.31 66.3376 1152.96 66.3376 L1160.62 66.3376 L1160.62 72.576 L1152.96 72.576 Q1144.34 72.576 1141.05 69.3758 Q1137.77 66.1351 1137.77 57.6282 L1137.77 32.9987 L1132.3 32.9987 L1132.3 27.2059 L1137.77 27.2059 L1137.77 14.324 L1145.27 14.324 Z" fill="#000000" fill-rule="nonzero" fill-opacity="1" /><path clip-path="url(#clip790)" d="M1170.42 27.2059 L1177.88 27.2059 L1177.88 72.576 L1170.42 72.576 L1170.42 27.2059 M1170.42 9.54393 L1177.88 9.54393 L1177.88 18.9825 L1170.42 18.9825 L1170.42 9.54393 Z" fill="#000000" fill-rule="nonzero" fill-opacity="1" /><path clip-path="url(#clip790)" d="M1211.05 32.4315 Q1205.06 32.4315 1201.57 37.1306 Q1198.09 41.7891 1198.09 49.9314 Q1198.09 58.0738 1201.53 62.7728 Q1205.02 67.4314 1211.05 67.4314 Q1217.01 67.4314 1220.49 62.7323 Q1223.98 58.0333 1223.98 49.9314 Q1223.98 41.8701 1220.49 37.1711 Q1217.01 32.4315 1211.05 32.4315 M1211.05 26.1121 Q1220.78 26.1121 1226.33 32.4315 Q1231.88 38.7509 1231.88 49.9314 Q1231.88 61.0714 1226.33 67.4314 Q1220.78 73.7508 1211.05 73.7508 Q1201.29 73.7508 1195.74 67.4314 Q1190.23 61.0714 1190.23 49.9314 Q1190.23 38.7509 1195.74 32.4315 Q1201.29 26.1121 1211.05 26.1121 Z" fill="#000000" fill-rule="nonzero" fill-opacity="1" /><path clip-path="url(#clip790)" d="M1281.94 45.1919 L1281.94 72.576 L1274.49 72.576 L1274.49 45.4349 Q1274.49 38.994 1271.98 35.7938 Q1269.47 32.5936 1264.44 32.5936 Q1258.41 32.5936 1254.93 36.4419 Q1251.44 40.2903 1251.44 46.9338 L1251.44 72.576 L1243.95 72.576 L1243.95 27.2059 L1251.44 27.2059 L1251.44 34.2544 Q1254.12 30.163 1257.72 28.1376 Q1261.37 26.1121 1266.11 26.1121 Q1273.92 26.1121 1277.93 30.9732 Q1281.94 35.7938 1281.94 45.1919 Z" fill="#000000" fill-rule="nonzero" fill-opacity="1" /><path clip-path="url(#clip790)" d="M1340.76 32.4315 Q1334.77 32.4315 1331.28 37.1306 Q1327.8 41.7891 1327.8 49.9314 Q1327.8 58.0738 1331.24 62.7728 Q1334.73 67.4314 1340.76 67.4314 Q1346.72 67.4314 1350.2 62.7323 Q1353.69 58.0333 1353.69 49.9314 Q1353.69 41.8701 1350.2 37.1711 Q1346.72 32.4315 1340.76 32.4315 M1340.76 26.1121 Q1350.49 26.1121 1356.04 32.4315 Q1361.59 38.7509 1361.59 49.9314 Q1361.59 61.0714 1356.04 67.4314 Q1350.49 73.7508 1340.76 73.7508 Q1331 73.7508 1325.45 67.4314 Q1319.94 61.0714 1319.94 49.9314 Q1319.94 38.7509 1325.45 32.4315 Q1331 26.1121 1340.76 26.1121 Z" fill="#000000" fill-rule="nonzero" fill-opacity="1" /><path clip-path="url(#clip790)" d="M1396.91 9.54393 L1396.91 15.7418 L1389.78 15.7418 Q1385.77 15.7418 1384.19 17.3622 Q1382.65 18.9825 1382.65 23.1955 L1382.65 27.2059 L1394.92 27.2059 L1394.92 32.9987 L1382.65 32.9987 L1382.65 72.576 L1375.16 72.576 L1375.16 32.9987 L1368.03 32.9987 L1368.03 27.2059 L1375.16 27.2059 L1375.16 24.0462 Q1375.16 16.471 1378.68 13.0277 Q1382.2 9.54393 1389.86 9.54393 L1396.91 9.54393 Z" fill="#000000" fill-rule="nonzero" fill-opacity="1" /><path clip-path="url(#clip790)" d="M1458.52 44.2197 Q1461.16 45.1109 1463.63 48.0275 Q1466.14 50.9442 1468.65 56.0483 L1476.96 72.576 L1468.16 72.576 L1460.43 57.061 Q1457.43 50.9847 1454.59 48.9997 Q1451.8 47.0148 1446.94 47.0148 L1438.03 47.0148 L1438.03 72.576 L1429.84 72.576 L1429.84 12.096 L1448.32 12.096 Q1458.69 12.096 1463.79 16.4305 Q1468.89 20.7649 1468.89 29.5149 Q1468.89 35.2267 1466.22 38.994 Q1463.59 42.7613 1458.52 44.2197 M1438.03 18.8205 L1438.03 40.2903 L1448.32 40.2903 Q1454.23 40.2903 1457.23 37.5762 Q1460.27 34.8216 1460.27 29.5149 Q1460.27 24.2082 1457.23 21.5346 Q1454.23 18.8205 1448.32 18.8205 L1438.03 18.8205 Z" fill="#000000" fill-rule="nonzero" fill-opacity="1" /><path clip-path="url(#clip790)" d="M1522.24 48.0275 L1522.24 51.6733 L1487.97 51.6733 Q1488.46 59.3701 1492.59 63.421 Q1496.76 67.4314 1504.18 67.4314 Q1508.47 67.4314 1512.48 66.3781 Q1516.53 65.3249 1520.5 63.2184 L1520.5 70.267 Q1516.49 71.9684 1512.28 72.8596 Q1508.07 73.7508 1503.73 73.7508 Q1492.88 73.7508 1486.52 67.4314 Q1480.2 61.1119 1480.2 50.3365 Q1480.2 39.1965 1486.19 32.6746 Q1492.23 26.1121 1502.44 26.1121 Q1511.59 26.1121 1516.9 32.0264 Q1522.24 37.9003 1522.24 48.0275 M1514.79 45.84 Q1514.71 39.7232 1511.35 36.0774 Q1508.03 32.4315 1502.52 32.4315 Q1496.28 32.4315 1492.51 35.9558 Q1488.78 39.4801 1488.22 45.8805 L1514.79 45.84 Z" fill="#000000" fill-rule="nonzero" fill-opacity="1" /><path clip-path="url(#clip790)" d="M1541.85 14.324 L1541.85 27.2059 L1557.2 27.2059 L1557.2 32.9987 L1541.85 32.9987 L1541.85 57.6282 Q1541.85 63.1779 1543.35 64.7578 Q1544.89 66.3376 1549.55 66.3376 L1557.2 66.3376 L1557.2 72.576 L1549.55 72.576 Q1540.92 72.576 1537.64 69.3758 Q1534.36 66.1351 1534.36 57.6282 L1534.36 32.9987 L1528.89 32.9987 L1528.89 27.2059 L1534.36 27.2059 L1534.36 14.324 L1541.85 14.324 Z" fill="#000000" fill-rule="nonzero" fill-opacity="1" /><path clip-path="url(#clip790)" d="M1566.24 54.671 L1566.24 27.2059 L1573.69 27.2059 L1573.69 54.3874 Q1573.69 60.8284 1576.2 64.0691 Q1578.71 67.2693 1583.74 67.2693 Q1589.77 67.2693 1593.26 63.421 Q1596.78 59.5726 1596.78 52.9291 L1596.78 27.2059 L1604.23 27.2059 L1604.23 72.576 L1596.78 72.576 L1596.78 65.6084 Q1594.07 69.7404 1590.46 71.7658 Q1586.9 73.7508 1582.16 73.7508 Q1574.34 73.7508 1570.29 68.8897 Q1566.24 64.0286 1566.24 54.671 M1584.99 26.1121 L1584.99 26.1121 Z" fill="#000000" fill-rule="nonzero" fill-opacity="1" /><path clip-path="url(#clip790)" d="M1645.88 34.1734 Q1644.62 33.4443 1643.12 33.1202 Q1641.67 32.7556 1639.88 32.7556 Q1633.56 32.7556 1630.16 36.8875 Q1626.8 40.9789 1626.8 48.6757 L1626.8 72.576 L1619.3 72.576 L1619.3 27.2059 L1626.8 27.2059 L1626.8 34.2544 Q1629.15 30.1225 1632.92 28.1376 Q1636.68 26.1121 1642.07 26.1121 Q1642.84 26.1121 1643.77 26.2337 Q1644.7 26.3147 1645.84 26.5172 L1645.88 34.1734 Z" fill="#000000" fill-rule="nonzero" fill-opacity="1" /><path clip-path="url(#clip790)" d="M1689.95 45.1919 L1689.95 72.576 L1682.5 72.576 L1682.5 45.4349 Q1682.5 38.994 1679.99 35.7938 Q1677.48 32.5936 1672.45 32.5936 Q1666.42 32.5936 1662.93 36.4419 Q1659.45 40.2903 1659.45 46.9338 L1659.45 72.576 L1651.95 72.576 L1651.95 27.2059 L1659.45 27.2059 L1659.45 34.2544 Q1662.12 30.163 1665.73 28.1376 Q1669.37 26.1121 1674.11 26.1121 Q1681.93 26.1121 1685.94 30.9732 Q1689.95 35.7938 1689.95 45.1919 Z" fill="#000000" fill-rule="nonzero" fill-opacity="1" /><path clip-path="url(#clip790)" d="M1739.7 18.8205 L1739.7 65.8515 L1749.58 65.8515 Q1762.1 65.8515 1767.89 60.1802 Q1773.72 54.509 1773.72 42.2752 Q1773.72 30.1225 1767.89 24.4918 Q1762.1 18.8205 1749.58 18.8205 L1739.7 18.8205 M1731.51 12.096 L1748.33 12.096 Q1765.91 12.096 1774.13 19.4281 Q1782.35 26.7198 1782.35 42.2752 Q1782.35 57.9117 1774.09 65.2439 Q1765.83 72.576 1748.33 72.576 L1731.51 72.576 L1731.51 12.096 Z" fill="#000000" fill-rule="nonzero" fill-opacity="1" /><path clip-path="url(#clip790)" d="M1833.88 48.0275 L1833.88 51.6733 L1799.61 51.6733 Q1800.1 59.3701 1804.23 63.421 Q1808.4 67.4314 1815.81 67.4314 Q1820.11 67.4314 1824.12 66.3781 Q1828.17 65.3249 1832.14 63.2184 L1832.14 70.267 Q1828.13 71.9684 1823.92 72.8596 Q1819.7 73.7508 1815.37 73.7508 Q1804.51 73.7508 1798.15 67.4314 Q1791.83 61.1119 1791.83 50.3365 Q1791.83 39.1965 1797.83 32.6746 Q1803.86 26.1121 1814.07 26.1121 Q1823.23 26.1121 1828.53 32.0264 Q1833.88 37.9003 1833.88 48.0275 M1826.43 45.84 Q1826.35 39.7232 1822.98 36.0774 Q1819.66 32.4315 1814.15 32.4315 Q1807.91 32.4315 1804.15 35.9558 Q1800.42 39.4801 1799.85 45.8805 L1826.43 45.84 Z" fill="#000000" fill-rule="nonzero" fill-opacity="1" /><path clip-path="url(#clip790)" d="M1878.76 28.9478 L1878.76 35.9153 Q1875.6 34.1734 1872.4 33.3227 Q1869.24 32.4315 1866 32.4315 Q1858.75 32.4315 1854.74 37.0496 Q1850.73 41.6271 1850.73 49.9314 Q1850.73 58.2358 1854.74 62.8538 Q1858.75 67.4314 1866 67.4314 Q1869.24 67.4314 1872.4 66.5807 Q1875.6 65.6895 1878.76 63.9476 L1878.76 70.8341 Q1875.65 72.2924 1872.28 73.0216 Q1868.96 73.7508 1865.19 73.7508 Q1854.95 73.7508 1848.91 67.3098 Q1842.87 60.8689 1842.87 49.9314 Q1842.87 38.832 1848.95 32.472 Q1855.07 26.1121 1865.68 26.1121 Q1869.12 26.1121 1872.4 26.8413 Q1875.69 27.5299 1878.76 28.9478 Z" fill="#000000" fill-rule="nonzero" fill-opacity="1" /><path clip-path="url(#clip790)" d="M1891.73 27.2059 L1899.18 27.2059 L1899.18 72.576 L1891.73 72.576 L1891.73 27.2059 M1891.73 9.54393 L1899.18 9.54393 L1899.18 18.9825 L1891.73 18.9825 L1891.73 9.54393 Z" fill="#000000" fill-rule="nonzero" fill-opacity="1" /><path clip-path="url(#clip790)" d="M1943.7 28.5427 L1943.7 35.5912 Q1940.54 33.9709 1937.14 33.1607 Q1933.74 32.3505 1930.09 32.3505 Q1924.54 32.3505 1921.74 34.0519 Q1918.99 35.7533 1918.99 39.156 Q1918.99 41.7486 1920.97 43.2475 Q1922.96 44.7058 1928.96 46.0426 L1931.51 46.6097 Q1939.45 48.3111 1942.77 51.4303 Q1946.13 54.509 1946.13 60.0587 Q1946.13 66.3781 1941.11 70.0644 Q1936.13 73.7508 1927.38 73.7508 Q1923.73 73.7508 1919.76 73.0216 Q1915.83 72.3329 1911.46 70.9151 L1911.46 63.2184 Q1915.59 65.3654 1919.6 66.4591 Q1923.61 67.5124 1927.54 67.5124 Q1932.8 67.5124 1935.64 65.73 Q1938.47 63.9071 1938.47 60.6258 Q1938.47 57.5877 1936.41 55.9673 Q1934.38 54.3469 1927.46 52.8481 L1924.86 52.2405 Q1917.94 50.7821 1914.86 47.7845 Q1911.78 44.7463 1911.78 39.4801 Q1911.78 33.0797 1916.32 29.5959 Q1920.85 26.1121 1929.2 26.1121 Q1933.33 26.1121 1936.98 26.7198 Q1940.62 27.3274 1943.7 28.5427 Z" fill="#000000" fill-rule="nonzero" fill-opacity="1" /><path clip-path="url(#clip790)" d="M1958 27.2059 L1965.45 27.2059 L1965.45 72.576 L1958 72.576 L1958 27.2059 M1958 9.54393 L1965.45 9.54393 L1965.45 18.9825 L1958 18.9825 L1958 9.54393 Z" fill="#000000" fill-rule="nonzero" fill-opacity="1" /><path clip-path="url(#clip790)" d="M1998.63 32.4315 Q1992.64 32.4315 1989.15 37.1306 Q1985.67 41.7891 1985.67 49.9314 Q1985.67 58.0738 1989.11 62.7728 Q1992.59 67.4314 1998.63 67.4314 Q2004.59 67.4314 2008.07 62.7323 Q2011.55 58.0333 2011.55 49.9314 Q2011.55 41.8701 2008.07 37.1711 Q2004.59 32.4315 1998.63 32.4315 M1998.63 26.1121 Q2008.35 26.1121 2013.9 32.4315 Q2019.45 38.7509 2019.45 49.9314 Q2019.45 61.0714 2013.9 67.4314 Q2008.35 73.7508 1998.63 73.7508 Q1988.87 73.7508 1983.32 67.4314 Q1977.81 61.0714 1977.81 49.9314 Q1977.81 38.7509 1983.32 32.4315 Q1988.87 26.1121 1998.63 26.1121 Z" fill="#000000" fill-rule="nonzero" fill-opacity="1" /><path clip-path="url(#clip790)" d="M2069.52 45.1919 L2069.52 72.576 L2062.07 72.576 L2062.07 45.4349 Q2062.07 38.994 2059.56 35.7938 Q2057.04 32.5936 2052.02 32.5936 Q2045.99 32.5936 2042.5 36.4419 Q2039.02 40.2903 2039.02 46.9338 L2039.02 72.576 L2031.52 72.576 L2031.52 27.2059 L2039.02 27.2059 L2039.02 34.2544 Q2041.69 30.163 2045.3 28.1376 Q2048.94 26.1121 2053.68 26.1121 Q2061.5 26.1121 2065.51 30.9732 Q2069.52 35.7938 2069.52 45.1919 Z" fill="#000000" fill-rule="nonzero" fill-opacity="1" /><polyline clip-path="url(#clip791)" style="stroke:#0000ff; stroke-linecap:round; stroke-linejoin:round; stroke-width:8; stroke-opacity:1; fill:none" stroke-dasharray="32, 20" points="264.778,160.256 274.965,168.472 285.152,176.687 295.339,184.902 305.525,193.118 315.712,201.333 325.899,209.548 336.086,217.764 346.272,225.979 356.459,234.194 366.646,242.41 376.833,250.625 387.019,258.84 397.206,267.056 407.393,275.271 417.58,283.486 427.766,291.702 437.953,299.917 448.14,308.132 458.327,316.348 468.513,324.563 478.7,332.778 488.887,340.994 499.074,349.209 509.26,357.424 519.447,365.64 529.634,373.855 539.821,382.07 550.007,390.286 560.194,398.501 570.381,406.716 580.568,414.932 590.754,423.147 600.941,431.362 611.128,439.578 621.315,447.793 631.501,456.009 641.688,464.224 651.875,472.439 662.062,480.655 672.248,488.87 682.435,497.085 692.622,505.301 702.809,513.516 712.995,521.731 723.182,529.947 733.369,538.162 743.556,546.377 753.742,554.593 763.929,562.808 774.116,571.023 784.303,579.239 794.489,587.454 804.676,595.669 814.863,603.885 825.05,612.1 835.236,620.315 845.423,628.531 855.61,636.746 865.797,644.961 875.983,653.177 886.17,661.392 896.357,669.607 906.543,677.823 916.73,686.038 926.917,694.253 937.104,702.469 947.29,710.684 957.477,718.899 967.664,727.115 977.851,735.33 988.037,743.545 998.224,751.761 1008.41,759.976 1018.6,768.191 1028.78,776.407 1038.97,784.622 1049.16,792.837 1059.34,801.053 1069.53,809.268 1079.72,817.483 1089.9,825.699 1100.09,833.914 1110.28,842.129 1120.47,850.345 1130.65,858.56 1140.84,866.775 1151.03,874.991 1161.21,883.206 1171.4,891.421 1181.59,899.637 1191.77,907.852 1201.96,916.068 1212.15,924.283 1222.33,932.498 1232.52,940.714 1242.71,948.929 1252.89,957.144 1263.08,965.36 1273.27,973.575 1283.45,981.79 1293.64,990.006 1303.83,998.221 1314.01,1006.44 1324.2,1014.65 1334.39,1022.87 1344.57,1031.08 1354.76,1039.3 1364.95,1047.51 1375.13,1055.73 1385.32,1063.94 1395.51,1072.16 1405.69,1080.37 1415.88,1088.59 1426.07,1096.8 1436.25,1105.02 1446.44,1113.24 1456.63,1121.45 1466.81,1129.67 1477,1137.88 1487.19,1146.1 1497.37,1154.31 1507.56,1162.53 1517.75,1170.74 1527.94,1178.96 1538.12,1187.17 1548.31,1195.39 1558.5,1203.6 1568.68,1211.82 1578.87,1220.04 1589.06,1228.25 1599.24,1236.47 1609.43,1244.68 1619.62,1252.9 1629.8,1261.11 1639.99,1269.33 1650.18,1277.54 1660.36,1285.76 1670.55,1293.97 1680.74,1302.19 1690.92,1310.4 1701.11,1318.62 1711.3,1326.83 1721.48,1335.05 1731.67,1343.27 1741.86,1351.48 1752.04,1359.7 1762.23,1367.91 1772.42,1376.13 1782.6,1384.34 1792.79,1386.4 1802.98,1386.4 1813.16,1386.4 1823.35,1386.4 1833.54,1386.4 1843.72,1386.4 1853.91,1386.4 1864.1,1386.4 1874.28,1386.4 1884.47,1386.4 1894.66,1386.4 1904.84,1386.4 1915.03,1386.4 1925.22,1386.4 1935.4,1386.4 1945.59,1386.4 1955.78,1386.4 1965.97,1386.4 1976.15,1386.4 1986.34,1386.4 1996.53,1386.4 2006.71,1386.4 2016.9,1386.4 2027.09,1386.4 2037.27,1386.4 2047.46,1386.4 2057.65,1386.4 2067.83,1386.4 2078.02,1386.4 2088.21,1386.4 2098.39,1386.4 2108.58,1386.4 2118.77,1386.4 2128.95,1386.4 2139.14,1386.4 2149.33,1386.4 2159.51,1386.4 2169.7,1386.4 2179.89,1386.4 2190.07,1386.4 2200.26,1386.4 2210.45,1386.4 2220.63,1386.4 2230.82,1386.4 2241.01,1386.4 2251.19,1386.4 2261.38,1386.4 2271.57,1386.4 2281.75,1386.4 2291.94,1386.4 "/>
<polyline clip-path="url(#clip791)" style="stroke:#ff0000; stroke-linecap:round; stroke-linejoin:round; stroke-width:8; stroke-opacity:1; fill:none" points="264.778,160.256 274.965,168.472 285.152,176.687 295.339,184.902 305.525,193.118 315.712,201.333 325.899,209.548 336.086,217.764 346.272,225.979 356.459,234.194 366.646,242.41 376.833,250.625 387.019,258.84 397.206,267.056 407.393,275.271 417.58,283.486 427.766,291.702 437.953,299.917 448.14,308.132 458.327,316.348 468.513,324.563 478.7,332.778 488.887,340.994 499.074,349.209 509.26,357.424 519.447,365.64 529.634,373.855 539.821,382.07 550.007,390.286 560.194,398.501 570.381,406.716 580.568,414.932 590.754,423.147 600.941,431.362 611.128,439.578 621.315,447.793 631.501,456.009 641.688,464.224 651.875,472.439 662.062,480.655 672.248,488.87 682.435,497.085 692.622,505.301 702.809,513.516 712.995,521.731 723.182,529.947 733.369,538.162 743.556,546.377 753.742,554.593 763.929,562.808 774.116,571.023 784.303,579.239 794.489,587.454 804.676,595.669 814.863,603.885 825.05,612.1 835.236,620.315 845.423,628.531 855.61,636.746 865.797,644.961 875.983,653.177 886.17,661.392 896.357,669.607 906.543,677.823 916.73,686.038 926.917,694.253 937.104,702.469 947.29,710.684 957.477,718.899 967.664,727.115 977.851,735.33 988.037,743.545 998.224,751.761 1008.41,759.976 1018.6,768.191 1028.78,776.407 1038.97,784.622 1049.16,792.837 1059.34,801.053 1069.53,809.268 1079.72,817.483 1089.9,825.699 1100.09,833.914 1110.28,842.129 1120.47,850.345 1130.65,858.56 1140.84,866.775 1151.03,874.991 1161.21,883.206 1171.4,891.421 1181.59,899.637 1191.77,907.852 1201.96,916.068 1212.15,924.283 1222.33,932.498 1232.52,940.714 1242.71,948.929 1252.89,957.144 1263.08,965.36 1273.27,973.575 1283.45,981.79 1293.64,990.006 1303.83,998.221 1314.01,1006.44 1324.2,1014.65 1334.39,1022.87 1344.57,1031.08 1354.76,1039.3 1364.95,1047.51 1375.13,1055.73 1385.32,1063.94 1395.51,1072.16 1405.69,1080.37 1415.88,1088.59 1426.07,1096.8 1436.25,1105.02 1446.44,1113.24 1456.63,1121.45 1466.81,1129.67 1477,1137.88 1487.19,1146.1 1497.37,1154.31 1507.56,1162.53 1517.75,1170.74 1527.94,1178.96 1538.12,1187.17 1548.31,1195.39 1558.5,1203.6 1568.68,1211.82 1578.87,1220.04 1589.06,1228.25 1599.24,1236.47 1609.43,1244.68 1619.62,1252.9 1629.8,1261.11 1639.99,1269.33 1650.18,1277.54 1660.36,1285.76 1670.55,1293.97 1680.74,1302.19 1690.92,1310.4 1701.11,1318.62 1711.3,1326.83 1721.48,1335.05 1731.67,1343.27 1741.86,1351.48 1752.04,1359.7 1762.23,1367.91 1772.42,1376.13 1782.6,1384.34 1792.79,1386.4 1802.98,1386.4 1813.16,1386.4 1823.35,1386.4 1833.54,1386.4 1843.72,1386.4 1853.91,1386.4 1864.1,1386.4 1874.28,1386.4 1884.47,1386.4 1894.66,1386.4 1904.84,1386.4 1915.03,1386.4 1925.22,1386.4 1935.4,1386.4 1945.59,1386.4 1955.78,1386.4 1965.97,1386.4 1976.15,1386.4 1986.34,1386.4 1996.53,1386.4 2006.71,1386.4 2016.9,1386.4 2027.09,1386.4 2037.27,1386.4 2047.46,1386.4 2057.65,1386.4 2067.83,1386.4 2078.02,1386.4 2088.21,1386.4 2098.39,1386.4 2108.58,1386.4 2118.77,1386.4 2128.95,1386.4 2139.14,1386.4 2149.33,1386.4 2159.51,1386.4 2169.7,1386.4 2179.89,1386.4 2190.07,1386.4 2200.26,1386.4 2210.45,1386.4 2220.63,1386.4 2230.82,1386.4 2241.01,1386.4 2251.19,1386.4 2261.38,1386.4 2271.57,1386.4 2281.75,1386.4 2291.94,1386.4 "/>
<polyline clip-path="url(#clip791)" style="stroke:#808080; stroke-linecap:round; stroke-linejoin:round; stroke-width:4; stroke-opacity:0.5; fill:none" stroke-dasharray="2, 4" points="771.569,2722.89 771.569,-1176.24 "/>
<polyline clip-path="url(#clip791)" style="stroke:#808080; stroke-linecap:round; stroke-linejoin:round; stroke-width:4; stroke-opacity:0.5; fill:none" stroke-dasharray="2, 4" points="1278.36,2722.89 1278.36,-1176.24 "/>
<polyline clip-path="url(#clip791)" style="stroke:#808080; stroke-linecap:round; stroke-linejoin:round; stroke-width:4; stroke-opacity:0.5; fill:none" stroke-dasharray="2, 4" points="1785.15,2722.89 1785.15,-1176.24 "/>
<path clip-path="url(#clip790)" d="M1323.73 322.316 L2281.13 322.316 L2281.13 166.796 L1323.73 166.796  Z" fill="#ffffff" fill-rule="evenodd" fill-opacity="1"/>
<polyline clip-path="url(#clip790)" style="stroke:#000000; stroke-linecap:round; stroke-linejoin:round; stroke-width:4; stroke-opacity:1; fill:none" points="1323.73,322.316 2281.13,322.316 2281.13,166.796 1323.73,166.796 1323.73,322.316 "/>
<polyline clip-path="url(#clip790)" style="stroke:#0000ff; stroke-linecap:round; stroke-linejoin:round; stroke-width:8; stroke-opacity:1; fill:none" stroke-dasharray="32, 20" points="1347.61,218.636 1490.86,218.636 "/>
<path clip-path="url(#clip790)" d="M1530.75 204.527 Q1525.66 204.527 1522.65 208.323 Q1519.67 212.12 1519.67 218.67 Q1519.67 225.198 1522.65 228.994 Q1525.66 232.791 1530.75 232.791 Q1535.85 232.791 1538.81 228.994 Q1541.79 225.198 1541.79 218.67 Q1541.79 212.12 1538.81 208.323 Q1535.85 204.527 1530.75 204.527 M1530.75 200.731 Q1538.02 200.731 1542.37 205.615 Q1546.73 210.476 1546.73 218.67 Q1546.73 226.842 1542.37 231.726 Q1538.02 236.587 1530.75 236.587 Q1523.46 236.587 1519.09 231.726 Q1514.73 226.865 1514.73 218.67 Q1514.73 210.476 1519.09 205.615 Q1523.46 200.731 1530.75 200.731 Z" fill="#000000" fill-rule="nonzero" fill-opacity="1" /><path clip-path="url(#clip790)" d="M1557.98 232.027 L1557.98 245.777 L1553.69 245.777 L1553.69 209.99 L1557.98 209.99 L1557.98 213.925 Q1559.32 211.61 1561.35 210.499 Q1563.42 209.365 1566.26 209.365 Q1570.98 209.365 1573.92 213.115 Q1576.89 216.865 1576.89 222.976 Q1576.89 229.087 1573.92 232.837 Q1570.98 236.587 1566.26 236.587 Q1563.42 236.587 1561.35 235.476 Q1559.32 234.342 1557.98 232.027 M1572.47 222.976 Q1572.47 218.277 1570.52 215.615 Q1568.6 212.93 1565.22 212.93 Q1561.84 212.93 1559.9 215.615 Q1557.98 218.277 1557.98 222.976 Q1557.98 227.675 1559.9 230.36 Q1561.84 233.022 1565.22 233.022 Q1568.6 233.022 1570.52 230.36 Q1572.47 227.675 1572.47 222.976 Z" fill="#000000" fill-rule="nonzero" fill-opacity="1" /><path clip-path="url(#clip790)" d="M1588.16 202.629 L1588.16 209.99 L1596.93 209.99 L1596.93 213.3 L1588.16 213.3 L1588.16 227.374 Q1588.16 230.545 1589.02 231.448 Q1589.9 232.351 1592.56 232.351 L1596.93 232.351 L1596.93 235.916 L1592.56 235.916 Q1587.63 235.916 1585.75 234.087 Q1583.88 232.235 1583.88 227.374 L1583.88 213.3 L1580.75 213.3 L1580.75 209.99 L1583.88 209.99 L1583.88 202.629 L1588.16 202.629 Z" fill="#000000" fill-rule="nonzero" fill-opacity="1" /><path clip-path="url(#clip790)" d="M1602.54 209.99 L1606.79 209.99 L1606.79 235.916 L1602.54 235.916 L1602.54 209.99 M1602.54 199.897 L1606.79 199.897 L1606.79 205.291 L1602.54 205.291 L1602.54 199.897 Z" fill="#000000" fill-rule="nonzero" fill-opacity="1" /><path clip-path="url(#clip790)" d="M1635.89 214.967 Q1637.49 212.096 1639.71 210.731 Q1641.93 209.365 1644.94 209.365 Q1648.99 209.365 1651.19 212.212 Q1653.39 215.036 1653.39 220.268 L1653.39 235.916 L1649.11 235.916 L1649.11 220.407 Q1649.11 216.68 1647.79 214.874 Q1646.47 213.069 1643.76 213.069 Q1640.45 213.069 1638.53 215.268 Q1636.61 217.467 1636.61 221.263 L1636.61 235.916 L1632.33 235.916 L1632.33 220.407 Q1632.33 216.657 1631.01 214.874 Q1629.69 213.069 1626.93 213.069 Q1623.67 213.069 1621.75 215.291 Q1619.83 217.49 1619.83 221.263 L1619.83 235.916 L1615.54 235.916 L1615.54 209.99 L1619.83 209.99 L1619.83 214.018 Q1621.29 211.633 1623.32 210.499 Q1625.36 209.365 1628.16 209.365 Q1630.98 209.365 1632.95 210.8 Q1634.94 212.235 1635.89 214.967 Z" fill="#000000" fill-rule="nonzero" fill-opacity="1" /><path clip-path="url(#clip790)" d="M1673.67 222.883 Q1668.51 222.883 1666.52 224.064 Q1664.53 225.244 1664.53 228.092 Q1664.53 230.36 1666.01 231.703 Q1667.51 233.022 1670.08 233.022 Q1673.62 233.022 1675.75 230.522 Q1677.91 227.999 1677.91 223.832 L1677.91 222.883 L1673.67 222.883 M1682.16 221.124 L1682.16 235.916 L1677.91 235.916 L1677.91 231.981 Q1676.45 234.342 1674.27 235.476 Q1672.1 236.587 1668.95 236.587 Q1664.97 236.587 1662.6 234.365 Q1660.27 232.119 1660.27 228.369 Q1660.27 223.994 1663.18 221.772 Q1666.12 219.55 1671.93 219.55 L1677.91 219.55 L1677.91 219.133 Q1677.91 216.194 1675.96 214.596 Q1674.04 212.976 1670.54 212.976 Q1668.32 212.976 1666.22 213.508 Q1664.11 214.041 1662.16 215.106 L1662.16 211.17 Q1664.5 210.268 1666.7 209.828 Q1668.9 209.365 1670.98 209.365 Q1676.61 209.365 1679.39 212.282 Q1682.16 215.198 1682.16 221.124 Z" fill="#000000" fill-rule="nonzero" fill-opacity="1" /><path clip-path="url(#clip790)" d="M1690.94 199.897 L1695.2 199.897 L1695.2 235.916 L1690.94 235.916 L1690.94 199.897 Z" fill="#000000" fill-rule="nonzero" fill-opacity="1" /><path clip-path="url(#clip790)" d="M1705.2 230.036 L1710.08 230.036 L1710.08 235.916 L1705.2 235.916 L1705.2 230.036 M1705.2 211.402 L1710.08 211.402 L1710.08 217.282 L1705.2 217.282 L1705.2 211.402 Z" fill="#000000" fill-rule="nonzero" fill-opacity="1" /><path clip-path="url(#clip790)" d="M1755.34 214.967 Q1756.93 212.096 1759.15 210.731 Q1761.38 209.365 1764.39 209.365 Q1768.44 209.365 1770.64 212.212 Q1772.84 215.036 1772.84 220.268 L1772.84 235.916 L1768.55 235.916 L1768.55 220.407 Q1768.55 216.68 1767.23 214.874 Q1765.91 213.069 1763.21 213.069 Q1759.9 213.069 1757.97 215.268 Q1756.05 217.467 1756.05 221.263 L1756.05 235.916 L1751.77 235.916 L1751.77 220.407 Q1751.77 216.657 1750.45 214.874 Q1749.13 213.069 1746.38 213.069 Q1743.11 213.069 1741.19 215.291 Q1739.27 217.49 1739.27 221.263 L1739.27 235.916 L1734.99 235.916 L1734.99 209.99 L1739.27 209.99 L1739.27 214.018 Q1740.73 211.633 1742.77 210.499 Q1744.8 209.365 1747.6 209.365 Q1750.43 209.365 1752.4 210.8 Q1754.39 212.235 1755.34 214.967 Z" fill="#000000" fill-rule="nonzero" fill-opacity="1" /><path clip-path="url(#clip790)" d="M1793.11 222.883 Q1787.95 222.883 1785.96 224.064 Q1783.97 225.244 1783.97 228.092 Q1783.97 230.36 1785.45 231.703 Q1786.96 233.022 1789.53 233.022 Q1793.07 233.022 1795.2 230.522 Q1797.35 227.999 1797.35 223.832 L1797.35 222.883 L1793.11 222.883 M1801.61 221.124 L1801.61 235.916 L1797.35 235.916 L1797.35 231.981 Q1795.89 234.342 1793.71 235.476 Q1791.54 236.587 1788.39 236.587 Q1784.41 236.587 1782.05 234.365 Q1779.71 232.119 1779.71 228.369 Q1779.71 223.994 1782.63 221.772 Q1785.57 219.55 1791.38 219.55 L1797.35 219.55 L1797.35 219.133 Q1797.35 216.194 1795.4 214.596 Q1793.48 212.976 1789.99 212.976 Q1787.77 212.976 1785.66 213.508 Q1783.55 214.041 1781.61 215.106 L1781.61 211.17 Q1783.95 210.268 1786.15 209.828 Q1788.34 209.365 1790.43 209.365 Q1796.05 209.365 1798.83 212.282 Q1801.61 215.198 1801.61 221.124 Z" fill="#000000" fill-rule="nonzero" fill-opacity="1" /><path clip-path="url(#clip790)" d="M1831.93 209.99 L1822.56 222.606 L1832.42 235.916 L1827.4 235.916 L1819.85 225.731 L1812.3 235.916 L1807.28 235.916 L1817.35 222.351 L1808.14 209.99 L1813.16 209.99 L1820.03 219.226 L1826.91 209.99 L1831.93 209.99 Z" fill="#000000" fill-rule="nonzero" fill-opacity="1" /><path clip-path="url(#clip790)" d="M1848.67 199.944 Q1845.57 205.268 1844.06 210.476 Q1842.56 215.684 1842.56 221.032 Q1842.56 226.379 1844.06 231.633 Q1845.59 236.865 1848.67 242.166 L1844.96 242.166 Q1841.49 236.726 1839.76 231.471 Q1838.04 226.217 1838.04 221.032 Q1838.04 215.87 1839.76 210.638 Q1841.47 205.407 1844.96 199.944 L1848.67 199.944 Z" fill="#000000" fill-rule="nonzero" fill-opacity="1" /><path clip-path="url(#clip790)" d="M1867.53 204.434 Q1863.92 204.434 1862.09 207.999 Q1860.29 211.541 1860.29 218.67 Q1860.29 225.777 1862.09 229.342 Q1863.92 232.883 1867.53 232.883 Q1871.17 232.883 1872.97 229.342 Q1874.8 225.777 1874.8 218.67 Q1874.8 211.541 1872.97 207.999 Q1871.17 204.434 1867.53 204.434 M1867.53 200.731 Q1873.34 200.731 1876.4 205.337 Q1879.48 209.92 1879.48 218.67 Q1879.48 227.397 1876.4 232.004 Q1873.34 236.587 1867.53 236.587 Q1861.72 236.587 1858.65 232.004 Q1855.59 227.397 1855.59 218.67 Q1855.59 209.92 1858.65 205.337 Q1861.72 200.731 1867.53 200.731 Z" fill="#000000" fill-rule="nonzero" fill-opacity="1" /><path clip-path="url(#clip790)" d="M1888.18 230.036 L1893.07 230.036 L1893.07 234.018 L1889.27 241.425 L1886.28 241.425 L1888.18 234.018 L1888.18 230.036 Z" fill="#000000" fill-rule="nonzero" fill-opacity="1" /><path clip-path="url(#clip790)" d="M1935.84 222.976 Q1935.84 218.277 1933.9 215.615 Q1931.98 212.93 1928.6 212.93 Q1925.22 212.93 1923.27 215.615 Q1921.35 218.277 1921.35 222.976 Q1921.35 227.675 1923.27 230.36 Q1925.22 233.022 1928.6 233.022 Q1931.98 233.022 1933.9 230.36 Q1935.84 227.675 1935.84 222.976 M1921.35 213.925 Q1922.7 211.61 1924.73 210.499 Q1926.79 209.365 1929.64 209.365 Q1934.36 209.365 1937.3 213.115 Q1940.26 216.865 1940.26 222.976 Q1940.26 229.087 1937.3 232.837 Q1934.36 236.587 1929.64 236.587 Q1926.79 236.587 1924.73 235.476 Q1922.7 234.342 1921.35 232.027 L1921.35 235.916 L1917.07 235.916 L1917.07 199.897 L1921.35 199.897 L1921.35 213.925 Z" fill="#000000" fill-rule="nonzero" fill-opacity="1" /><path clip-path="url(#clip790)" d="M1946.89 225.684 L1946.89 209.99 L1951.14 209.99 L1951.14 225.522 Q1951.14 229.203 1952.58 231.055 Q1954.01 232.883 1956.89 232.883 Q1960.33 232.883 1962.33 230.684 Q1964.34 228.485 1964.34 224.689 L1964.34 209.99 L1968.6 209.99 L1968.6 235.916 L1964.34 235.916 L1964.34 231.934 Q1962.79 234.295 1960.73 235.453 Q1958.69 236.587 1955.98 236.587 Q1951.51 236.587 1949.2 233.809 Q1946.89 231.031 1946.89 225.684 M1957.6 209.365 L1957.6 209.365 Z" fill="#000000" fill-rule="nonzero" fill-opacity="1" /><path clip-path="url(#clip790)" d="M1988.16 238.323 Q1986.35 242.953 1984.64 244.365 Q1982.93 245.777 1980.06 245.777 L1976.65 245.777 L1976.65 242.212 L1979.15 242.212 Q1980.91 242.212 1981.89 241.379 Q1982.86 240.545 1984.04 237.443 L1984.8 235.499 L1974.32 209.99 L1978.83 209.99 L1986.93 230.268 L1995.03 209.99 L1999.55 209.99 L1988.16 238.323 Z" fill="#000000" fill-rule="nonzero" fill-opacity="1" /><path clip-path="url(#clip790)" d="M2018.34 221.032 L2030.82 221.032 L2030.82 224.828 L2018.34 224.828 L2018.34 221.032 Z" fill="#000000" fill-rule="nonzero" fill-opacity="1" /><path clip-path="url(#clip790)" d="M2069.73 213.925 L2069.73 199.897 L2073.99 199.897 L2073.99 235.916 L2069.73 235.916 L2069.73 232.027 Q2068.39 234.342 2066.33 235.476 Q2064.29 236.587 2061.42 236.587 Q2056.72 236.587 2053.76 232.837 Q2050.82 229.087 2050.82 222.976 Q2050.82 216.865 2053.76 213.115 Q2056.72 209.365 2061.42 209.365 Q2064.29 209.365 2066.33 210.499 Q2068.39 211.61 2069.73 213.925 M2055.22 222.976 Q2055.22 227.675 2057.14 230.36 Q2059.08 233.022 2062.46 233.022 Q2065.84 233.022 2067.79 230.36 Q2069.73 227.675 2069.73 222.976 Q2069.73 218.277 2067.79 215.615 Q2065.84 212.93 2062.46 212.93 Q2059.08 212.93 2057.14 215.615 Q2055.22 218.277 2055.22 222.976 Z" fill="#000000" fill-rule="nonzero" fill-opacity="1" /><path clip-path="url(#clip790)" d="M2104.94 221.888 L2104.94 223.971 L2085.36 223.971 Q2085.63 228.369 2088 230.684 Q2090.38 232.976 2094.62 232.976 Q2097.07 232.976 2099.36 232.374 Q2101.68 231.772 2103.94 230.569 L2103.94 234.596 Q2101.65 235.568 2099.25 236.078 Q2096.84 236.587 2094.36 236.587 Q2088.16 236.587 2084.52 232.976 Q2080.91 229.365 2080.91 223.207 Q2080.91 216.842 2084.34 213.115 Q2087.79 209.365 2093.62 209.365 Q2098.85 209.365 2101.88 212.745 Q2104.94 216.101 2104.94 221.888 M2100.68 220.638 Q2100.63 217.143 2098.71 215.059 Q2096.82 212.976 2093.67 212.976 Q2090.1 212.976 2087.95 214.99 Q2085.82 217.004 2085.5 220.661 L2100.68 220.638 Z" fill="#000000" fill-rule="nonzero" fill-opacity="1" /><path clip-path="url(#clip790)" d="M2132.12 214.967 Q2133.71 212.096 2135.94 210.731 Q2138.16 209.365 2141.17 209.365 Q2145.22 209.365 2147.42 212.212 Q2149.62 215.036 2149.62 220.268 L2149.62 235.916 L2145.33 235.916 L2145.33 220.407 Q2145.33 216.68 2144.01 214.874 Q2142.69 213.069 2139.99 213.069 Q2136.68 213.069 2134.75 215.268 Q2132.83 217.467 2132.83 221.263 L2132.83 235.916 L2128.55 235.916 L2128.55 220.407 Q2128.55 216.657 2127.23 214.874 Q2125.91 213.069 2123.16 213.069 Q2119.89 213.069 2117.97 215.291 Q2116.05 217.49 2116.05 221.263 L2116.05 235.916 L2111.77 235.916 L2111.77 209.99 L2116.05 209.99 L2116.05 214.018 Q2117.51 211.633 2119.55 210.499 Q2121.58 209.365 2124.38 209.365 Q2127.21 209.365 2129.18 210.8 Q2131.17 212.235 2132.12 214.967 Z" fill="#000000" fill-rule="nonzero" fill-opacity="1" /><path clip-path="url(#clip790)" d="M2169.89 222.883 Q2164.73 222.883 2162.74 224.064 Q2160.75 225.244 2160.75 228.092 Q2160.75 230.36 2162.23 231.703 Q2163.74 233.022 2166.31 233.022 Q2169.85 233.022 2171.98 230.522 Q2174.13 227.999 2174.13 223.832 L2174.13 222.883 L2169.89 222.883 M2178.39 221.124 L2178.39 235.916 L2174.13 235.916 L2174.13 231.981 Q2172.67 234.342 2170.5 235.476 Q2168.32 236.587 2165.17 236.587 Q2161.19 236.587 2158.83 234.365 Q2156.49 232.119 2156.49 228.369 Q2156.49 223.994 2159.41 221.772 Q2162.35 219.55 2168.16 219.55 L2174.13 219.55 L2174.13 219.133 Q2174.13 216.194 2172.19 214.596 Q2170.26 212.976 2166.77 212.976 Q2164.55 212.976 2162.44 213.508 Q2160.33 214.041 2158.39 215.106 L2158.39 211.17 Q2160.73 210.268 2162.93 209.828 Q2165.12 209.365 2167.21 209.365 Q2172.83 209.365 2175.61 212.282 Q2178.39 215.198 2178.39 221.124 Z" fill="#000000" fill-rule="nonzero" fill-opacity="1" /><path clip-path="url(#clip790)" d="M2208.71 220.268 L2208.71 235.916 L2204.45 235.916 L2204.45 220.407 Q2204.45 216.726 2203.02 214.897 Q2201.58 213.069 2198.71 213.069 Q2195.26 213.069 2193.27 215.268 Q2191.28 217.467 2191.28 221.263 L2191.28 235.916 L2187 235.916 L2187 209.99 L2191.28 209.99 L2191.28 214.018 Q2192.81 211.68 2194.87 210.522 Q2196.95 209.365 2199.66 209.365 Q2204.13 209.365 2206.42 212.143 Q2208.71 214.897 2208.71 220.268 Z" fill="#000000" fill-rule="nonzero" fill-opacity="1" /><path clip-path="url(#clip790)" d="M2234.27 213.925 L2234.27 199.897 L2238.53 199.897 L2238.53 235.916 L2234.27 235.916 L2234.27 232.027 Q2232.93 234.342 2230.87 235.476 Q2228.83 236.587 2225.96 236.587 Q2221.26 236.587 2218.3 232.837 Q2215.36 229.087 2215.36 222.976 Q2215.36 216.865 2218.3 213.115 Q2221.26 209.365 2225.96 209.365 Q2228.83 209.365 2230.87 210.499 Q2232.93 211.61 2234.27 213.925 M2219.75 222.976 Q2219.75 227.675 2221.68 230.36 Q2223.62 233.022 2227 233.022 Q2230.38 233.022 2232.32 230.36 Q2234.27 227.675 2234.27 222.976 Q2234.27 218.277 2232.32 215.615 Q2230.38 212.93 2227 212.93 Q2223.62 212.93 2221.68 215.615 Q2219.75 218.277 2219.75 222.976 Z" fill="#000000" fill-rule="nonzero" fill-opacity="1" /><path clip-path="url(#clip790)" d="M2246.63 199.944 L2250.33 199.944 Q2253.8 205.407 2255.52 210.638 Q2257.25 215.87 2257.25 221.032 Q2257.25 226.217 2255.52 231.471 Q2253.8 236.726 2250.33 242.166 L2246.63 242.166 Q2249.71 236.865 2251.21 231.633 Q2252.74 226.379 2252.74 221.032 Q2252.74 215.684 2251.21 210.476 Q2249.71 205.268 2246.63 199.944 Z" fill="#000000" fill-rule="nonzero" fill-opacity="1" /><polyline clip-path="url(#clip790)" style="stroke:#ff0000; stroke-linecap:round; stroke-linejoin:round; stroke-width:8; stroke-opacity:1; fill:none" points="1347.61,270.476 1490.86,270.476 "/>
<path clip-path="url(#clip790)" d="M1519.41 257.038 L1519.41 270.024 L1525.29 270.024 Q1528.55 270.024 1530.34 268.335 Q1532.12 266.645 1532.12 263.52 Q1532.12 260.418 1530.34 258.728 Q1528.55 257.038 1525.29 257.038 L1519.41 257.038 M1514.73 253.196 L1525.29 253.196 Q1531.1 253.196 1534.06 255.835 Q1537.05 258.45 1537.05 263.52 Q1537.05 268.635 1534.06 271.251 Q1531.1 273.867 1525.29 273.867 L1519.41 273.867 L1519.41 287.756 L1514.73 287.756 L1514.73 253.196 Z" fill="#000000" fill-rule="nonzero" fill-opacity="1" /><path clip-path="url(#clip790)" d="M1540.24 253.196 L1544.97 253.196 L1552.23 282.409 L1559.48 253.196 L1564.73 253.196 L1572 282.409 L1579.25 253.196 L1583.99 253.196 L1575.31 287.756 L1569.43 287.756 L1562.14 257.756 L1554.78 287.756 L1548.9 287.756 L1540.24 253.196 Z" fill="#000000" fill-rule="nonzero" fill-opacity="1" /><path clip-path="url(#clip790)" d="M1590.2 253.196 L1594.87 253.196 L1594.87 283.821 L1611.7 283.821 L1611.7 287.756 L1590.2 287.756 L1590.2 253.196 Z" fill="#000000" fill-rule="nonzero" fill-opacity="1" /><path clip-path="url(#clip790)" d="M1641.72 251.784 Q1638.62 257.108 1637.12 262.316 Q1635.61 267.524 1635.61 272.872 Q1635.61 278.219 1637.12 283.473 Q1638.65 288.705 1641.72 294.006 L1638.02 294.006 Q1634.55 288.566 1632.81 283.311 Q1631.1 278.057 1631.1 272.872 Q1631.1 267.71 1632.81 262.478 Q1634.53 257.247 1638.02 251.784 L1641.72 251.784 Z" fill="#000000" fill-rule="nonzero" fill-opacity="1" /><path clip-path="url(#clip790)" d="M1664.76 269.122 Q1668.11 269.839 1669.99 272.108 Q1671.89 274.376 1671.89 277.709 Q1671.89 282.825 1668.37 285.626 Q1664.85 288.427 1658.37 288.427 Q1656.19 288.427 1653.88 287.987 Q1651.59 287.571 1649.13 286.714 L1649.13 282.2 Q1651.08 283.334 1653.39 283.913 Q1655.71 284.492 1658.23 284.492 Q1662.63 284.492 1664.92 282.756 Q1667.23 281.02 1667.23 277.709 Q1667.23 274.654 1665.08 272.941 Q1662.95 271.205 1659.13 271.205 L1655.1 271.205 L1655.1 267.362 L1659.32 267.362 Q1662.77 267.362 1664.6 265.997 Q1666.42 264.608 1666.42 262.015 Q1666.42 259.353 1664.53 257.941 Q1662.65 256.506 1659.13 256.506 Q1657.21 256.506 1655.01 256.923 Q1652.81 257.339 1650.17 258.219 L1650.17 254.052 Q1652.84 253.311 1655.15 252.941 Q1657.49 252.571 1659.55 252.571 Q1664.87 252.571 1667.97 255.001 Q1671.08 257.409 1671.08 261.529 Q1671.08 264.399 1669.43 266.39 Q1667.79 268.358 1664.76 269.122 Z" fill="#000000" fill-rule="nonzero" fill-opacity="1" /><path clip-path="url(#clip790)" d="M1713.83 274.816 Q1713.83 270.117 1711.89 267.455 Q1709.97 264.77 1706.59 264.77 Q1703.21 264.77 1701.26 267.455 Q1699.34 270.117 1699.34 274.816 Q1699.34 279.515 1701.26 282.2 Q1703.21 284.862 1706.59 284.862 Q1709.97 284.862 1711.89 282.2 Q1713.83 279.515 1713.83 274.816 M1699.34 265.765 Q1700.68 263.45 1702.72 262.339 Q1704.78 261.205 1707.63 261.205 Q1712.35 261.205 1715.29 264.955 Q1718.25 268.705 1718.25 274.816 Q1718.25 280.927 1715.29 284.677 Q1712.35 288.427 1707.63 288.427 Q1704.78 288.427 1702.72 287.316 Q1700.68 286.182 1699.34 283.867 L1699.34 287.756 L1695.06 287.756 L1695.06 251.737 L1699.34 251.737 L1699.34 265.765 Z" fill="#000000" fill-rule="nonzero" fill-opacity="1" /><path clip-path="url(#clip790)" d="M1740.34 265.811 Q1739.62 265.395 1738.76 265.21 Q1737.93 265.001 1736.91 265.001 Q1733.3 265.001 1731.35 267.362 Q1729.43 269.7 1729.43 274.098 L1729.43 287.756 L1725.15 287.756 L1725.15 261.83 L1729.43 261.83 L1729.43 265.858 Q1730.78 263.497 1732.93 262.362 Q1735.08 261.205 1738.16 261.205 Q1738.6 261.205 1739.13 261.274 Q1739.66 261.321 1740.31 261.436 L1740.34 265.811 Z" fill="#000000" fill-rule="nonzero" fill-opacity="1" /><path clip-path="url(#clip790)" d="M1765.94 273.728 L1765.94 275.811 L1746.35 275.811 Q1746.63 280.209 1748.99 282.524 Q1751.38 284.816 1755.61 284.816 Q1758.07 284.816 1760.36 284.214 Q1762.67 283.612 1764.94 282.409 L1764.94 286.436 Q1762.65 287.408 1760.24 287.918 Q1757.84 288.427 1755.36 288.427 Q1749.15 288.427 1745.52 284.816 Q1741.91 281.205 1741.91 275.047 Q1741.91 268.682 1745.34 264.955 Q1748.78 261.205 1754.62 261.205 Q1759.85 261.205 1762.88 264.585 Q1765.94 267.941 1765.94 273.728 M1761.68 272.478 Q1761.63 268.983 1759.71 266.899 Q1757.81 264.816 1754.66 264.816 Q1751.1 264.816 1748.95 266.83 Q1746.82 268.844 1746.49 272.501 L1761.68 272.478 Z" fill="#000000" fill-rule="nonzero" fill-opacity="1" /><path clip-path="url(#clip790)" d="M1784.71 274.723 Q1779.55 274.723 1777.56 275.904 Q1775.57 277.084 1775.57 279.932 Q1775.57 282.2 1777.05 283.543 Q1778.55 284.862 1781.12 284.862 Q1784.66 284.862 1786.79 282.362 Q1788.95 279.839 1788.95 275.672 L1788.95 274.723 L1784.71 274.723 M1793.21 272.964 L1793.21 287.756 L1788.95 287.756 L1788.95 283.821 Q1787.49 286.182 1785.31 287.316 Q1783.14 288.427 1779.99 288.427 Q1776.01 288.427 1773.65 286.205 Q1771.31 283.959 1771.31 280.209 Q1771.31 275.834 1774.22 273.612 Q1777.16 271.39 1782.97 271.39 L1788.95 271.39 L1788.95 270.973 Q1788.95 268.034 1787 266.436 Q1785.08 264.816 1781.59 264.816 Q1779.36 264.816 1777.26 265.348 Q1775.15 265.881 1773.21 266.946 L1773.21 263.01 Q1775.54 262.108 1777.74 261.668 Q1779.94 261.205 1782.03 261.205 Q1787.65 261.205 1790.43 264.122 Q1793.21 267.038 1793.21 272.964 Z" fill="#000000" fill-rule="nonzero" fill-opacity="1" /><path clip-path="url(#clip790)" d="M1801.82 251.737 L1806.1 251.737 L1806.1 273.01 L1818.81 261.83 L1824.25 261.83 L1810.5 273.959 L1824.83 287.756 L1819.27 287.756 L1806.1 275.094 L1806.1 287.756 L1801.82 287.756 L1801.82 251.737 Z" fill="#000000" fill-rule="nonzero" fill-opacity="1" /><path clip-path="url(#clip790)" d="M1833.55 283.867 L1833.55 297.617 L1829.27 297.617 L1829.27 261.83 L1833.55 261.83 L1833.55 265.765 Q1834.9 263.45 1836.93 262.339 Q1838.99 261.205 1841.84 261.205 Q1846.56 261.205 1849.5 264.955 Q1852.46 268.705 1852.46 274.816 Q1852.46 280.927 1849.5 284.677 Q1846.56 288.427 1841.84 288.427 Q1838.99 288.427 1836.93 287.316 Q1834.9 286.182 1833.55 283.867 M1848.04 274.816 Q1848.04 270.117 1846.1 267.455 Q1844.18 264.77 1840.8 264.77 Q1837.42 264.77 1835.47 267.455 Q1833.55 270.117 1833.55 274.816 Q1833.55 279.515 1835.47 282.2 Q1837.42 284.862 1840.8 284.862 Q1844.18 284.862 1846.1 282.2 Q1848.04 279.515 1848.04 274.816 Z" fill="#000000" fill-rule="nonzero" fill-opacity="1" /><path clip-path="url(#clip790)" d="M1869.57 264.816 Q1866.15 264.816 1864.15 267.501 Q1862.16 270.163 1862.16 274.816 Q1862.16 279.469 1864.13 282.154 Q1866.12 284.816 1869.57 284.816 Q1872.97 284.816 1874.96 282.131 Q1876.96 279.446 1876.96 274.816 Q1876.96 270.21 1874.96 267.524 Q1872.97 264.816 1869.57 264.816 M1869.57 261.205 Q1875.13 261.205 1878.3 264.816 Q1881.47 268.427 1881.47 274.816 Q1881.47 281.182 1878.3 284.816 Q1875.13 288.427 1869.57 288.427 Q1863.99 288.427 1860.82 284.816 Q1857.67 281.182 1857.67 274.816 Q1857.67 268.427 1860.82 264.816 Q1863.99 261.205 1869.57 261.205 Z" fill="#000000" fill-rule="nonzero" fill-opacity="1" /><path clip-path="url(#clip790)" d="M1888.53 261.83 L1892.79 261.83 L1892.79 287.756 L1888.53 287.756 L1888.53 261.83 M1888.53 251.737 L1892.79 251.737 L1892.79 257.131 L1888.53 257.131 L1888.53 251.737 Z" fill="#000000" fill-rule="nonzero" fill-opacity="1" /><path clip-path="url(#clip790)" d="M1923.25 272.108 L1923.25 287.756 L1918.99 287.756 L1918.99 272.247 Q1918.99 268.566 1917.56 266.737 Q1916.12 264.909 1913.25 264.909 Q1909.8 264.909 1907.81 267.108 Q1905.82 269.307 1905.82 273.103 L1905.82 287.756 L1901.54 287.756 L1901.54 261.83 L1905.82 261.83 L1905.82 265.858 Q1907.35 263.52 1909.41 262.362 Q1911.49 261.205 1914.2 261.205 Q1918.67 261.205 1920.96 263.983 Q1923.25 266.737 1923.25 272.108 Z" fill="#000000" fill-rule="nonzero" fill-opacity="1" /><path clip-path="url(#clip790)" d="M1935.96 254.469 L1935.96 261.83 L1944.73 261.83 L1944.73 265.14 L1935.96 265.14 L1935.96 279.214 Q1935.96 282.385 1936.82 283.288 Q1937.7 284.191 1940.36 284.191 L1944.73 284.191 L1944.73 287.756 L1940.36 287.756 Q1935.43 287.756 1933.55 285.927 Q1931.68 284.075 1931.68 279.214 L1931.68 265.14 L1928.55 265.14 L1928.55 261.83 L1931.68 261.83 L1931.68 254.469 L1935.96 254.469 Z" fill="#000000" fill-rule="nonzero" fill-opacity="1" /><path clip-path="url(#clip790)" d="M1966.86 262.594 L1966.86 266.622 Q1965.06 265.696 1963.11 265.233 Q1961.17 264.77 1959.08 264.77 Q1955.91 264.77 1954.32 265.742 Q1952.74 266.714 1952.74 268.659 Q1952.74 270.14 1953.88 270.997 Q1955.01 271.83 1958.44 272.594 L1959.89 272.918 Q1964.43 273.89 1966.33 275.672 Q1968.25 277.432 1968.25 280.603 Q1968.25 284.214 1965.38 286.321 Q1962.53 288.427 1957.53 288.427 Q1955.45 288.427 1953.18 288.01 Q1950.94 287.617 1948.44 286.807 L1948.44 282.409 Q1950.8 283.635 1953.09 284.26 Q1955.38 284.862 1957.63 284.862 Q1960.64 284.862 1962.26 283.844 Q1963.88 282.802 1963.88 280.927 Q1963.88 279.191 1962.7 278.265 Q1961.54 277.339 1957.58 276.483 L1956.1 276.135 Q1952.14 275.302 1950.38 273.589 Q1948.62 271.853 1948.62 268.844 Q1948.62 265.186 1951.21 263.196 Q1953.81 261.205 1958.58 261.205 Q1960.94 261.205 1963.02 261.552 Q1965.1 261.899 1966.86 262.594 Z" fill="#000000" fill-rule="nonzero" fill-opacity="1" /><path clip-path="url(#clip790)" d="M1974.36 251.784 L1978.07 251.784 Q1981.54 257.247 1983.25 262.478 Q1984.99 267.71 1984.99 272.872 Q1984.99 278.057 1983.25 283.311 Q1981.54 288.566 1978.07 294.006 L1974.36 294.006 Q1977.44 288.705 1978.95 283.473 Q1980.47 278.219 1980.47 272.872 Q1980.47 267.524 1978.95 262.316 Q1977.44 257.108 1974.36 251.784 Z" fill="#000000" fill-rule="nonzero" fill-opacity="1" /></svg>
