<?xml version="1.0" encoding="utf-8"?>
<svg xmlns="http://www.w3.org/2000/svg" xmlns:xlink="http://www.w3.org/1999/xlink" width="600" height="400" viewBox="0 0 2400 1600">
<defs>
  <clipPath id="clip170">
    <rect x="0" y="0" width="2400" height="1600"/>
  </clipPath>
</defs>
<path clip-path="url(#clip170)" d="M0 1600 L2400 1600 L2400 0 L0 0  Z" fill="#ffffff" fill-rule="evenodd" fill-opacity="1"/>
<defs>
  <clipPath id="clip171">
    <rect x="235" y="123" width="2118" height="1301"/>
  </clipPath>
</defs>
<path clip-path="url(#clip170)" d="M235.283 1423.18 L2352.76 1423.18 L2352.76 123.472 L235.283 123.472  Z" fill="#ffffff" fill-rule="evenodd" fill-opacity="1"/>
<polyline clip-path="url(#clip171)" style="stroke:#000000; stroke-linecap:round; stroke-linejoin:round; stroke-width:2; stroke-opacity:0.1; fill:none" points="295.211,1423.18 295.211,123.472 "/>
<polyline clip-path="url(#clip171)" style="stroke:#000000; stroke-linecap:round; stroke-linejoin:round; stroke-width:2; stroke-opacity:0.1; fill:none" points="794.615,1423.18 794.615,123.472 "/>
<polyline clip-path="url(#clip171)" style="stroke:#000000; stroke-linecap:round; stroke-linejoin:round; stroke-width:2; stroke-opacity:0.1; fill:none" points="1294.02,1423.18 1294.02,123.472 "/>
<polyline clip-path="url(#clip171)" style="stroke:#000000; stroke-linecap:round; stroke-linejoin:round; stroke-width:2; stroke-opacity:0.1; fill:none" points="1793.42,1423.18 1793.42,123.472 "/>
<polyline clip-path="url(#clip171)" style="stroke:#000000; stroke-linecap:round; stroke-linejoin:round; stroke-width:2; stroke-opacity:0.1; fill:none" points="2292.83,1423.18 2292.83,123.472 "/>
<polyline clip-path="url(#clip171)" style="stroke:#000000; stroke-linecap:round; stroke-linejoin:round; stroke-width:2; stroke-opacity:0.1; fill:none" points="235.283,1386.4 2352.76,1386.4 "/>
<polyline clip-path="url(#clip171)" style="stroke:#000000; stroke-linecap:round; stroke-linejoin:round; stroke-width:2; stroke-opacity:0.1; fill:none" points="235.283,1156.49 2352.76,1156.49 "/>
<polyline clip-path="url(#clip171)" style="stroke:#000000; stroke-linecap:round; stroke-linejoin:round; stroke-width:2; stroke-opacity:0.1; fill:none" points="235.283,926.593 2352.76,926.593 "/>
<polyline clip-path="url(#clip171)" style="stroke:#000000; stroke-linecap:round; stroke-linejoin:round; stroke-width:2; stroke-opacity:0.1; fill:none" points="235.283,696.692 2352.76,696.692 "/>
<polyline clip-path="url(#clip171)" style="stroke:#000000; stroke-linecap:round; stroke-linejoin:round; stroke-width:2; stroke-opacity:0.1; fill:none" points="235.283,466.791 2352.76,466.791 "/>
<polyline clip-path="url(#clip171)" style="stroke:#000000; stroke-linecap:round; stroke-linejoin:round; stroke-width:2; stroke-opacity:0.1; fill:none" points="235.283,236.89 2352.76,236.89 "/>
<polyline clip-path="url(#clip170)" style="stroke:#000000; stroke-linecap:round; stroke-linejoin:round; stroke-width:4; stroke-opacity:1; fill:none" points="235.283,1423.18 2352.76,1423.18 "/>
<polyline clip-path="url(#clip170)" style="stroke:#000000; stroke-linecap:round; stroke-linejoin:round; stroke-width:4; stroke-opacity:1; fill:none" points="295.211,1423.18 295.211,1404.28 "/>
<polyline clip-path="url(#clip170)" style="stroke:#000000; stroke-linecap:round; stroke-linejoin:round; stroke-width:4; stroke-opacity:1; fill:none" points="794.615,1423.18 794.615,1404.28 "/>
<polyline clip-path="url(#clip170)" style="stroke:#000000; stroke-linecap:round; stroke-linejoin:round; stroke-width:4; stroke-opacity:1; fill:none" points="1294.02,1423.18 1294.02,1404.28 "/>
<polyline clip-path="url(#clip170)" style="stroke:#000000; stroke-linecap:round; stroke-linejoin:round; stroke-width:4; stroke-opacity:1; fill:none" points="1793.42,1423.18 1793.42,1404.28 "/>
<polyline clip-path="url(#clip170)" style="stroke:#000000; stroke-linecap:round; stroke-linejoin:round; stroke-width:4; stroke-opacity:1; fill:none" points="2292.83,1423.18 2292.83,1404.28 "/>
<path clip-path="url(#clip170)" d="M272.596 1454.1 Q268.985 1454.1 267.156 1457.66 Q265.35 1461.2 265.35 1468.33 Q265.35 1475.44 267.156 1479.01 Q268.985 1482.55 272.596 1482.55 Q276.23 1482.55 278.035 1479.01 Q279.864 1475.44 279.864 1468.33 Q279.864 1461.2 278.035 1457.66 Q276.23 1454.1 272.596 1454.1 M272.596 1450.39 Q278.406 1450.39 281.461 1455 Q284.54 1459.58 284.54 1468.33 Q284.54 1477.06 281.461 1481.67 Q278.406 1486.25 272.596 1486.25 Q266.786 1486.25 263.707 1481.67 Q260.651 1477.06 260.651 1468.33 Q260.651 1459.58 263.707 1455 Q266.786 1450.39 272.596 1450.39 Z" fill="#000000" fill-rule="nonzero" fill-opacity="1" /><path clip-path="url(#clip170)" d="M292.758 1479.7 L297.642 1479.7 L297.642 1485.58 L292.758 1485.58 L292.758 1479.7 Z" fill="#000000" fill-rule="nonzero" fill-opacity="1" /><path clip-path="url(#clip170)" d="M317.827 1454.1 Q314.216 1454.1 312.387 1457.66 Q310.582 1461.2 310.582 1468.33 Q310.582 1475.44 312.387 1479.01 Q314.216 1482.55 317.827 1482.55 Q321.461 1482.55 323.267 1479.01 Q325.095 1475.44 325.095 1468.33 Q325.095 1461.2 323.267 1457.66 Q321.461 1454.1 317.827 1454.1 M317.827 1450.39 Q323.637 1450.39 326.693 1455 Q329.771 1459.58 329.771 1468.33 Q329.771 1477.06 326.693 1481.67 Q323.637 1486.25 317.827 1486.25 Q312.017 1486.25 308.938 1481.67 Q305.883 1477.06 305.883 1468.33 Q305.883 1459.58 308.938 1455 Q312.017 1450.39 317.827 1450.39 Z" fill="#000000" fill-rule="nonzero" fill-opacity="1" /><path clip-path="url(#clip170)" d="M766.352 1481.64 L782.671 1481.64 L782.671 1485.58 L760.727 1485.58 L760.727 1481.64 Q763.389 1478.89 767.972 1474.26 Q772.578 1469.61 773.759 1468.27 Q776.004 1465.74 776.884 1464.01 Q777.787 1462.25 777.787 1460.56 Q777.787 1457.8 775.842 1456.07 Q773.921 1454.33 770.819 1454.33 Q768.62 1454.33 766.166 1455.09 Q763.736 1455.86 760.958 1457.41 L760.958 1452.69 Q763.782 1451.55 766.236 1450.97 Q768.69 1450.39 770.727 1450.39 Q776.097 1450.39 779.291 1453.08 Q782.486 1455.77 782.486 1460.26 Q782.486 1462.39 781.676 1464.31 Q780.889 1466.2 778.782 1468.8 Q778.203 1469.47 775.102 1472.69 Q772 1475.88 766.352 1481.64 Z" fill="#000000" fill-rule="nonzero" fill-opacity="1" /><path clip-path="url(#clip170)" d="M792.486 1479.7 L797.37 1479.7 L797.37 1485.58 L792.486 1485.58 L792.486 1479.7 Z" fill="#000000" fill-rule="nonzero" fill-opacity="1" /><path clip-path="url(#clip170)" d="M807.601 1451.02 L825.958 1451.02 L825.958 1454.96 L811.884 1454.96 L811.884 1463.43 Q812.902 1463.08 813.921 1462.92 Q814.939 1462.73 815.958 1462.73 Q821.745 1462.73 825.124 1465.9 Q828.504 1469.08 828.504 1474.49 Q828.504 1480.07 825.032 1483.17 Q821.56 1486.25 815.24 1486.25 Q813.064 1486.25 810.796 1485.88 Q808.55 1485.51 806.143 1484.77 L806.143 1480.07 Q808.226 1481.2 810.449 1481.76 Q812.671 1482.32 815.148 1482.32 Q819.152 1482.32 821.49 1480.21 Q823.828 1478.1 823.828 1474.49 Q823.828 1470.88 821.49 1468.77 Q819.152 1466.67 815.148 1466.67 Q813.273 1466.67 811.398 1467.08 Q809.546 1467.5 807.601 1468.38 L807.601 1451.02 Z" fill="#000000" fill-rule="nonzero" fill-opacity="1" /><path clip-path="url(#clip170)" d="M1261.18 1451.02 L1279.54 1451.02 L1279.54 1454.96 L1265.47 1454.96 L1265.47 1463.43 Q1266.48 1463.08 1267.5 1462.92 Q1268.52 1462.73 1269.54 1462.73 Q1275.33 1462.73 1278.71 1465.9 Q1282.09 1469.08 1282.09 1474.49 Q1282.09 1480.07 1278.61 1483.17 Q1275.14 1486.25 1268.82 1486.25 Q1266.65 1486.25 1264.38 1485.88 Q1262.13 1485.51 1259.73 1484.77 L1259.73 1480.07 Q1261.81 1481.2 1264.03 1481.76 Q1266.25 1482.32 1268.73 1482.32 Q1272.73 1482.32 1275.07 1480.21 Q1277.41 1478.1 1277.41 1474.49 Q1277.41 1470.88 1275.07 1468.77 Q1272.73 1466.67 1268.73 1466.67 Q1266.86 1466.67 1264.98 1467.08 Q1263.13 1467.5 1261.18 1468.38 L1261.18 1451.02 Z" fill="#000000" fill-rule="nonzero" fill-opacity="1" /><path clip-path="url(#clip170)" d="M1291.3 1479.7 L1296.18 1479.7 L1296.18 1485.58 L1291.3 1485.58 L1291.3 1479.7 Z" fill="#000000" fill-rule="nonzero" fill-opacity="1" /><path clip-path="url(#clip170)" d="M1316.37 1454.1 Q1312.76 1454.1 1310.93 1457.66 Q1309.12 1461.2 1309.12 1468.33 Q1309.12 1475.44 1310.93 1479.01 Q1312.76 1482.55 1316.37 1482.55 Q1320 1482.55 1321.81 1479.01 Q1323.64 1475.44 1323.64 1468.33 Q1323.64 1461.2 1321.81 1457.66 Q1320 1454.1 1316.37 1454.1 M1316.37 1450.39 Q1322.18 1450.39 1325.23 1455 Q1328.31 1459.58 1328.31 1468.33 Q1328.31 1477.06 1325.23 1481.67 Q1322.18 1486.25 1316.37 1486.25 Q1310.56 1486.25 1307.48 1481.67 Q1304.42 1477.06 1304.42 1468.33 Q1304.42 1459.58 1307.48 1455 Q1310.56 1450.39 1316.37 1450.39 Z" fill="#000000" fill-rule="nonzero" fill-opacity="1" /><path clip-path="url(#clip170)" d="M1759.74 1451.02 L1781.97 1451.02 L1781.97 1453.01 L1769.42 1485.58 L1764.53 1485.58 L1776.34 1454.96 L1759.74 1454.96 L1759.74 1451.02 Z" fill="#000000" fill-rule="nonzero" fill-opacity="1" /><path clip-path="url(#clip170)" d="M1791.09 1479.7 L1795.97 1479.7 L1795.97 1485.58 L1791.09 1485.58 L1791.09 1479.7 Z" fill="#000000" fill-rule="nonzero" fill-opacity="1" /><path clip-path="url(#clip170)" d="M1806.2 1451.02 L1824.56 1451.02 L1824.56 1454.96 L1810.48 1454.96 L1810.48 1463.43 Q1811.5 1463.08 1812.52 1462.92 Q1813.54 1462.73 1814.56 1462.73 Q1820.34 1462.73 1823.72 1465.9 Q1827.1 1469.08 1827.1 1474.49 Q1827.1 1480.07 1823.63 1483.17 Q1820.16 1486.25 1813.84 1486.25 Q1811.66 1486.25 1809.4 1485.88 Q1807.15 1485.51 1804.74 1484.77 L1804.74 1480.07 Q1806.83 1481.2 1809.05 1481.76 Q1811.27 1482.32 1813.75 1482.32 Q1817.75 1482.32 1820.09 1480.21 Q1822.43 1478.1 1822.43 1474.49 Q1822.43 1470.88 1820.09 1468.77 Q1817.75 1466.67 1813.75 1466.67 Q1811.87 1466.67 1810 1467.08 Q1808.15 1467.5 1806.2 1468.38 L1806.2 1451.02 Z" fill="#000000" fill-rule="nonzero" fill-opacity="1" /><path clip-path="url(#clip170)" d="M2244.9 1481.64 L2252.54 1481.64 L2252.54 1455.28 L2244.23 1456.95 L2244.23 1452.69 L2252.49 1451.02 L2257.17 1451.02 L2257.17 1481.64 L2264.81 1481.64 L2264.81 1485.58 L2244.9 1485.58 L2244.9 1481.64 Z" fill="#000000" fill-rule="nonzero" fill-opacity="1" /><path clip-path="url(#clip170)" d="M2284.25 1454.1 Q2280.64 1454.1 2278.81 1457.66 Q2277.01 1461.2 2277.01 1468.33 Q2277.01 1475.44 2278.81 1479.01 Q2280.64 1482.55 2284.25 1482.55 Q2287.89 1482.55 2289.69 1479.01 Q2291.52 1475.44 2291.52 1468.33 Q2291.52 1461.2 2289.69 1457.66 Q2287.89 1454.1 2284.25 1454.1 M2284.25 1450.39 Q2290.06 1450.39 2293.12 1455 Q2296.2 1459.58 2296.2 1468.33 Q2296.2 1477.06 2293.12 1481.67 Q2290.06 1486.25 2284.25 1486.25 Q2278.44 1486.25 2275.36 1481.67 Q2272.31 1477.06 2272.31 1468.33 Q2272.31 1459.58 2275.36 1455 Q2278.44 1450.39 2284.25 1450.39 Z" fill="#000000" fill-rule="nonzero" fill-opacity="1" /><path clip-path="url(#clip170)" d="M2304.41 1479.7 L2309.3 1479.7 L2309.3 1485.58 L2304.41 1485.58 L2304.41 1479.7 Z" fill="#000000" fill-rule="nonzero" fill-opacity="1" /><path clip-path="url(#clip170)" d="M2329.48 1454.1 Q2325.87 1454.1 2324.04 1457.66 Q2322.24 1461.2 2322.24 1468.33 Q2322.24 1475.44 2324.04 1479.01 Q2325.87 1482.55 2329.48 1482.55 Q2333.12 1482.55 2334.92 1479.01 Q2336.75 1475.44 2336.75 1468.33 Q2336.75 1461.2 2334.92 1457.66 Q2333.12 1454.1 2329.48 1454.1 M2329.48 1450.39 Q2335.29 1450.39 2338.35 1455 Q2341.43 1459.58 2341.43 1468.33 Q2341.43 1477.06 2338.35 1481.67 Q2335.29 1486.25 2329.48 1486.25 Q2323.67 1486.25 2320.59 1481.67 Q2317.54 1477.06 2317.54 1468.33 Q2317.54 1459.58 2320.59 1455 Q2323.67 1450.39 2329.48 1450.39 Z" fill="#000000" fill-rule="nonzero" fill-opacity="1" /><path clip-path="url(#clip170)" d="M923.376 1520.52 L932.033 1520.52 L953.104 1560.28 L953.104 1520.52 L959.342 1520.52 L959.342 1568.04 L950.685 1568.04 L929.615 1528.29 L929.615 1568.04 L923.376 1568.04 L923.376 1520.52 Z" fill="#000000" fill-rule="nonzero" fill-opacity="1" /><path clip-path="url(#clip170)" d="M971.278 1553.98 L971.278 1532.4 L977.135 1532.4 L977.135 1553.75 Q977.135 1558.81 979.108 1561.36 Q981.081 1563.87 985.028 1563.87 Q989.77 1563.87 992.508 1560.85 Q995.277 1557.83 995.277 1552.61 L995.277 1532.4 L1001.13 1532.4 L1001.13 1568.04 L995.277 1568.04 L995.277 1562.57 Q993.144 1565.82 990.312 1567.41 Q987.511 1568.97 983.787 1568.97 Q977.644 1568.97 974.461 1565.15 Q971.278 1561.33 971.278 1553.98 M986.015 1531.54 L986.015 1531.54 Z" fill="#000000" fill-rule="nonzero" fill-opacity="1" /><path clip-path="url(#clip170)" d="M1040.95 1539.24 Q1043.15 1535.29 1046.2 1533.41 Q1049.26 1531.54 1053.4 1531.54 Q1058.97 1531.54 1061.99 1535.45 Q1065.01 1539.33 1065.01 1546.53 L1065.01 1568.04 L1059.12 1568.04 L1059.12 1546.72 Q1059.12 1541.59 1057.31 1539.11 Q1055.5 1536.63 1051.77 1536.63 Q1047.22 1536.63 1044.58 1539.65 Q1041.94 1542.68 1041.94 1547.9 L1041.94 1568.04 L1036.05 1568.04 L1036.05 1546.72 Q1036.05 1541.56 1034.23 1539.11 Q1032.42 1536.63 1028.63 1536.63 Q1024.15 1536.63 1021.5 1539.68 Q1018.86 1542.71 1018.86 1547.9 L1018.86 1568.04 L1012.97 1568.04 L1012.97 1532.4 L1018.86 1532.4 L1018.86 1537.93 Q1020.87 1534.66 1023.67 1533.1 Q1026.47 1531.54 1030.32 1531.54 Q1034.2 1531.54 1036.91 1533.51 Q1039.65 1535.48 1040.95 1539.24 Z" fill="#000000" fill-rule="nonzero" fill-opacity="1" /><path clip-path="url(#clip170)" d="M1102.28 1550.25 Q1102.28 1543.79 1099.61 1540.13 Q1096.97 1536.44 1092.32 1536.44 Q1087.67 1536.44 1085 1540.13 Q1082.36 1543.79 1082.36 1550.25 Q1082.36 1556.71 1085 1560.4 Q1087.67 1564.07 1092.32 1564.07 Q1096.97 1564.07 1099.61 1560.4 Q1102.28 1556.71 1102.28 1550.25 M1082.36 1537.81 Q1084.21 1534.62 1087.01 1533.1 Q1089.84 1531.54 1093.75 1531.54 Q1100.25 1531.54 1104.29 1536.69 Q1108.36 1541.85 1108.36 1550.25 Q1108.36 1558.65 1104.29 1563.81 Q1100.25 1568.97 1093.75 1568.97 Q1089.84 1568.97 1087.01 1567.44 Q1084.21 1565.88 1082.36 1562.7 L1082.36 1568.04 L1076.47 1568.04 L1076.47 1518.52 L1082.36 1518.52 L1082.36 1537.81 Z" fill="#000000" fill-rule="nonzero" fill-opacity="1" /><path clip-path="url(#clip170)" d="M1148.56 1548.76 L1148.56 1551.62 L1121.64 1551.62 Q1122.02 1557.67 1125.26 1560.85 Q1128.54 1564 1134.37 1564 Q1137.74 1564 1140.89 1563.17 Q1144.08 1562.35 1147.19 1560.69 L1147.19 1566.23 Q1144.04 1567.57 1140.73 1568.27 Q1137.42 1568.97 1134.02 1568.97 Q1125.49 1568.97 1120.49 1564 Q1115.52 1559.04 1115.52 1550.57 Q1115.52 1541.82 1120.24 1536.69 Q1124.98 1531.54 1133 1531.54 Q1140.19 1531.54 1144.36 1536.18 Q1148.56 1540.8 1148.56 1548.76 M1142.71 1547.04 Q1142.64 1542.23 1140 1539.37 Q1137.39 1536.5 1133.06 1536.5 Q1128.16 1536.5 1125.2 1539.27 Q1122.27 1542.04 1121.83 1547.07 L1142.71 1547.04 Z" fill="#000000" fill-rule="nonzero" fill-opacity="1" /><path clip-path="url(#clip170)" d="M1178.83 1537.87 Q1177.85 1537.3 1176.67 1537.04 Q1175.52 1536.76 1174.12 1536.76 Q1169.16 1536.76 1166.48 1540 Q1163.84 1543.22 1163.84 1549.27 L1163.84 1568.04 L1157.95 1568.04 L1157.95 1532.4 L1163.84 1532.4 L1163.84 1537.93 Q1165.69 1534.69 1168.65 1533.13 Q1171.61 1531.54 1175.84 1531.54 Q1176.44 1531.54 1177.18 1531.63 Q1177.91 1531.7 1178.8 1531.85 L1178.83 1537.87 Z" fill="#000000" fill-rule="nonzero" fill-opacity="1" /><path clip-path="url(#clip170)" d="M1219.51 1536.5 Q1214.8 1536.5 1212.06 1540.19 Q1209.32 1543.85 1209.32 1550.25 Q1209.32 1556.65 1212.03 1560.34 Q1214.77 1564 1219.51 1564 Q1224.19 1564 1226.92 1560.31 Q1229.66 1556.62 1229.66 1550.25 Q1229.66 1543.92 1226.92 1540.23 Q1224.19 1536.5 1219.51 1536.5 M1219.51 1531.54 Q1227.15 1531.54 1231.51 1536.5 Q1235.87 1541.47 1235.87 1550.25 Q1235.87 1559 1231.51 1564 Q1227.15 1568.97 1219.51 1568.97 Q1211.84 1568.97 1207.48 1564 Q1203.15 1559 1203.15 1550.25 Q1203.15 1541.47 1207.48 1536.5 Q1211.84 1531.54 1219.51 1531.54 Z" fill="#000000" fill-rule="nonzero" fill-opacity="1" /><path clip-path="url(#clip170)" d="M1263.62 1518.52 L1263.62 1523.39 L1258.02 1523.39 Q1254.87 1523.39 1253.63 1524.66 Q1252.42 1525.93 1252.42 1529.24 L1252.42 1532.4 L1262.06 1532.4 L1262.06 1536.95 L1252.42 1536.95 L1252.42 1568.04 L1246.53 1568.04 L1246.53 1536.95 L1240.93 1536.95 L1240.93 1532.4 L1246.53 1532.4 L1246.53 1529.91 Q1246.53 1523.96 1249.3 1521.26 Q1252.07 1518.52 1258.08 1518.52 L1263.62 1518.52 Z" fill="#000000" fill-rule="nonzero" fill-opacity="1" /><path clip-path="url(#clip170)" d="M1314.84 1550.25 Q1314.84 1543.79 1312.16 1540.13 Q1309.52 1536.44 1304.87 1536.44 Q1300.23 1536.44 1297.55 1540.13 Q1294.91 1543.79 1294.91 1550.25 Q1294.91 1556.71 1297.55 1560.4 Q1300.23 1564.07 1304.87 1564.07 Q1309.52 1564.07 1312.16 1560.4 Q1314.84 1556.71 1314.84 1550.25 M1294.91 1537.81 Q1296.76 1534.62 1299.56 1533.1 Q1302.39 1531.54 1306.31 1531.54 Q1312.8 1531.54 1316.84 1536.69 Q1320.91 1541.85 1320.91 1550.25 Q1320.91 1558.65 1316.84 1563.81 Q1312.8 1568.97 1306.31 1568.97 Q1302.39 1568.97 1299.56 1567.44 Q1296.76 1565.88 1294.91 1562.7 L1294.91 1568.04 L1289.02 1568.04 L1289.02 1518.52 L1294.91 1518.52 L1294.91 1537.81 Z" fill="#000000" fill-rule="nonzero" fill-opacity="1" /><path clip-path="url(#clip170)" d="M1351.28 1537.87 Q1350.29 1537.3 1349.11 1537.04 Q1347.97 1536.76 1346.57 1536.76 Q1341.6 1536.76 1338.93 1540 Q1336.29 1543.22 1336.29 1549.27 L1336.29 1568.04 L1330.4 1568.04 L1330.4 1532.4 L1336.29 1532.4 L1336.29 1537.93 Q1338.13 1534.69 1341.09 1533.13 Q1344.05 1531.54 1348.29 1531.54 Q1348.89 1531.54 1349.62 1531.63 Q1350.36 1531.7 1351.25 1531.85 L1351.28 1537.87 Z" fill="#000000" fill-rule="nonzero" fill-opacity="1" /><path clip-path="url(#clip170)" d="M1386.48 1548.76 L1386.48 1551.62 L1359.55 1551.62 Q1359.94 1557.67 1363.18 1560.85 Q1366.46 1564 1372.29 1564 Q1375.66 1564 1378.81 1563.17 Q1381.99 1562.35 1385.11 1560.69 L1385.11 1566.23 Q1381.96 1567.57 1378.65 1568.27 Q1375.34 1568.97 1371.94 1568.97 Q1363.41 1568.97 1358.41 1564 Q1353.44 1559.04 1353.44 1550.57 Q1353.44 1541.82 1358.15 1536.69 Q1362.9 1531.54 1370.92 1531.54 Q1378.11 1531.54 1382.28 1536.18 Q1386.48 1540.8 1386.48 1548.76 M1380.62 1547.04 Q1380.56 1542.23 1377.92 1539.37 Q1375.31 1536.5 1370.98 1536.5 Q1366.08 1536.5 1363.12 1539.27 Q1360.19 1542.04 1359.75 1547.07 L1380.62 1547.04 Z" fill="#000000" fill-rule="nonzero" fill-opacity="1" /><path clip-path="url(#clip170)" d="M1412.29 1550.12 Q1405.2 1550.12 1402.46 1551.75 Q1399.72 1553.37 1399.72 1557.29 Q1399.72 1560.4 1401.76 1562.25 Q1403.83 1564.07 1407.36 1564.07 Q1412.23 1564.07 1415.16 1560.63 Q1418.12 1557.16 1418.12 1551.43 L1418.12 1550.12 L1412.29 1550.12 M1423.98 1547.71 L1423.98 1568.04 L1418.12 1568.04 L1418.12 1562.63 Q1416.11 1565.88 1413.12 1567.44 Q1410.13 1568.97 1405.8 1568.97 Q1400.33 1568.97 1397.08 1565.91 Q1393.87 1562.82 1393.87 1557.67 Q1393.87 1551.65 1397.88 1548.6 Q1401.92 1545.54 1409.91 1545.54 L1418.12 1545.54 L1418.12 1544.97 Q1418.12 1540.93 1415.45 1538.73 Q1412.8 1536.5 1408 1536.5 Q1404.94 1536.5 1402.05 1537.23 Q1399.15 1537.97 1396.48 1539.43 L1396.48 1534.02 Q1399.69 1532.78 1402.71 1532.17 Q1405.74 1531.54 1408.6 1531.54 Q1416.34 1531.54 1420.16 1535.55 Q1423.98 1539.56 1423.98 1547.71 Z" fill="#000000" fill-rule="nonzero" fill-opacity="1" /><path clip-path="url(#clip170)" d="M1435.82 1518.52 L1441.7 1518.52 L1441.7 1547.77 L1459.18 1532.4 L1466.66 1532.4 L1447.75 1549.07 L1467.45 1568.04 L1459.81 1568.04 L1441.7 1550.63 L1441.7 1568.04 L1435.82 1568.04 L1435.82 1518.52 Z" fill="#000000" fill-rule="nonzero" fill-opacity="1" /><path clip-path="url(#clip170)" d="M1479.45 1562.7 L1479.45 1581.6 L1473.56 1581.6 L1473.56 1532.4 L1479.45 1532.4 L1479.45 1537.81 Q1481.3 1534.62 1484.1 1533.1 Q1486.93 1531.54 1490.85 1531.54 Q1497.34 1531.54 1501.38 1536.69 Q1505.46 1541.85 1505.46 1550.25 Q1505.46 1558.65 1501.38 1563.81 Q1497.34 1568.97 1490.85 1568.97 Q1486.93 1568.97 1484.1 1567.44 Q1481.3 1565.88 1479.45 1562.7 M1499.38 1550.25 Q1499.38 1543.79 1496.7 1540.13 Q1494.06 1536.44 1489.41 1536.44 Q1484.77 1536.44 1482.09 1540.13 Q1479.45 1543.79 1479.45 1550.25 Q1479.45 1556.71 1482.09 1560.4 Q1484.77 1564.07 1489.41 1564.07 Q1494.06 1564.07 1496.7 1560.4 Q1499.38 1556.71 1499.38 1550.25 Z" fill="#000000" fill-rule="nonzero" fill-opacity="1" /><path clip-path="url(#clip170)" d="M1528.98 1536.5 Q1524.27 1536.5 1521.53 1540.19 Q1518.79 1543.85 1518.79 1550.25 Q1518.79 1556.65 1521.5 1560.34 Q1524.24 1564 1528.98 1564 Q1533.66 1564 1536.39 1560.31 Q1539.13 1556.62 1539.13 1550.25 Q1539.13 1543.92 1536.39 1540.23 Q1533.66 1536.5 1528.98 1536.5 M1528.98 1531.54 Q1536.62 1531.54 1540.98 1536.5 Q1545.34 1541.47 1545.34 1550.25 Q1545.34 1559 1540.98 1564 Q1536.62 1568.97 1528.98 1568.97 Q1521.31 1568.97 1516.95 1564 Q1512.62 1559 1512.62 1550.25 Q1512.62 1541.47 1516.95 1536.5 Q1521.31 1531.54 1528.98 1531.54 Z" fill="#000000" fill-rule="nonzero" fill-opacity="1" /><path clip-path="url(#clip170)" d="M1555.05 1532.4 L1560.9 1532.4 L1560.9 1568.04 L1555.05 1568.04 L1555.05 1532.4 M1555.05 1518.52 L1560.9 1518.52 L1560.9 1525.93 L1555.05 1525.93 L1555.05 1518.52 Z" fill="#000000" fill-rule="nonzero" fill-opacity="1" /><path clip-path="url(#clip170)" d="M1602.79 1546.53 L1602.79 1568.04 L1596.93 1568.04 L1596.93 1546.72 Q1596.93 1541.66 1594.96 1539.14 Q1592.98 1536.63 1589.04 1536.63 Q1584.3 1536.63 1581.56 1539.65 Q1578.82 1542.68 1578.82 1547.9 L1578.82 1568.04 L1572.93 1568.04 L1572.93 1532.4 L1578.82 1532.4 L1578.82 1537.93 Q1580.92 1534.72 1583.75 1533.13 Q1586.62 1531.54 1590.34 1531.54 Q1596.49 1531.54 1599.64 1535.36 Q1602.79 1539.14 1602.79 1546.53 Z" fill="#000000" fill-rule="nonzero" fill-opacity="1" /><path clip-path="url(#clip170)" d="M1620.26 1522.27 L1620.26 1532.4 L1632.32 1532.4 L1632.32 1536.95 L1620.26 1536.95 L1620.26 1556.3 Q1620.26 1560.66 1621.44 1561.9 Q1622.65 1563.14 1626.31 1563.14 L1632.32 1563.14 L1632.32 1568.04 L1626.31 1568.04 Q1619.53 1568.04 1616.95 1565.53 Q1614.37 1562.98 1614.37 1556.3 L1614.37 1536.95 L1610.08 1536.95 L1610.08 1532.4 L1614.37 1532.4 L1614.37 1522.27 L1620.26 1522.27 Z" fill="#000000" fill-rule="nonzero" fill-opacity="1" /><path clip-path="url(#clip170)" d="M1662.75 1533.45 L1662.75 1538.98 Q1660.27 1537.71 1657.6 1537.07 Q1654.92 1536.44 1652.06 1536.44 Q1647.7 1536.44 1645.5 1537.77 Q1643.34 1539.11 1643.34 1541.79 Q1643.34 1543.82 1644.9 1545 Q1646.46 1546.15 1651.17 1547.2 L1653.17 1547.64 Q1659.41 1548.98 1662.02 1551.43 Q1664.66 1553.85 1664.66 1558.21 Q1664.66 1563.17 1660.72 1566.07 Q1656.8 1568.97 1649.93 1568.97 Q1647.06 1568.97 1643.94 1568.39 Q1640.85 1567.85 1637.42 1566.74 L1637.42 1560.69 Q1640.66 1562.38 1643.81 1563.24 Q1646.97 1564.07 1650.05 1564.07 Q1654.19 1564.07 1656.42 1562.66 Q1658.65 1561.23 1658.65 1558.65 Q1658.65 1556.27 1657.02 1554.99 Q1655.43 1553.72 1649.99 1552.54 L1647.95 1552.07 Q1642.51 1550.92 1640.09 1548.56 Q1637.67 1546.18 1637.67 1542.04 Q1637.67 1537.01 1641.24 1534.27 Q1644.8 1531.54 1651.36 1531.54 Q1654.6 1531.54 1657.47 1532.01 Q1660.33 1532.49 1662.75 1533.45 Z" fill="#000000" fill-rule="nonzero" fill-opacity="1" /><polyline clip-path="url(#clip170)" style="stroke:#000000; stroke-linecap:round; stroke-linejoin:round; stroke-width:4; stroke-opacity:1; fill:none" points="235.283,1423.18 235.283,123.472 "/>
<polyline clip-path="url(#clip170)" style="stroke:#000000; stroke-linecap:round; stroke-linejoin:round; stroke-width:4; stroke-opacity:1; fill:none" points="235.283,1386.4 254.18,1386.4 "/>
<polyline clip-path="url(#clip170)" style="stroke:#000000; stroke-linecap:round; stroke-linejoin:round; stroke-width:4; stroke-opacity:1; fill:none" points="235.283,1156.49 254.18,1156.49 "/>
<polyline clip-path="url(#clip170)" style="stroke:#000000; stroke-linecap:round; stroke-linejoin:round; stroke-width:4; stroke-opacity:1; fill:none" points="235.283,926.593 254.18,926.593 "/>
<polyline clip-path="url(#clip170)" style="stroke:#000000; stroke-linecap:round; stroke-linejoin:round; stroke-width:4; stroke-opacity:1; fill:none" points="235.283,696.692 254.18,696.692 "/>
<polyline clip-path="url(#clip170)" style="stroke:#000000; stroke-linecap:round; stroke-linejoin:round; stroke-width:4; stroke-opacity:1; fill:none" points="235.283,466.791 254.18,466.791 "/>
<polyline clip-path="url(#clip170)" style="stroke:#000000; stroke-linecap:round; stroke-linejoin:round; stroke-width:4; stroke-opacity:1; fill:none" points="235.283,236.89 254.18,236.89 "/>
<path clip-path="url(#clip170)" d="M129.862 1373.19 L118.056 1391.64 L129.862 1391.64 L129.862 1373.19 M128.635 1369.12 L134.515 1369.12 L134.515 1391.64 L139.445 1391.64 L139.445 1395.53 L134.515 1395.53 L134.515 1403.68 L129.862 1403.68 L129.862 1395.53 L114.26 1395.53 L114.26 1391.01 L128.635 1369.12 Z" fill="#000000" fill-rule="nonzero" fill-opacity="1" /><path clip-path="url(#clip170)" d="M157.755 1384.53 Q154.607 1384.53 152.755 1386.69 Q150.927 1388.84 150.927 1392.59 Q150.927 1396.31 152.755 1398.49 Q154.607 1400.64 157.755 1400.64 Q160.903 1400.64 162.732 1398.49 Q164.584 1396.31 164.584 1392.59 Q164.584 1388.84 162.732 1386.69 Q160.903 1384.53 157.755 1384.53 M167.038 1369.88 L167.038 1374.14 Q165.278 1373.31 163.473 1372.87 Q161.69 1372.43 159.931 1372.43 Q155.302 1372.43 152.848 1375.55 Q150.417 1378.68 150.07 1385 Q151.436 1382.98 153.496 1381.92 Q155.556 1380.83 158.033 1380.83 Q163.241 1380.83 166.251 1384 Q169.283 1387.15 169.283 1392.59 Q169.283 1397.91 166.135 1401.13 Q162.987 1404.35 157.755 1404.35 Q151.76 1404.35 148.589 1399.76 Q145.417 1395.16 145.417 1386.43 Q145.417 1378.24 149.306 1373.37 Q153.195 1368.49 159.746 1368.49 Q161.505 1368.49 163.288 1368.84 Q165.093 1369.19 167.038 1369.88 Z" fill="#000000" fill-rule="nonzero" fill-opacity="1" /><path clip-path="url(#clip170)" d="M187.338 1372.19 Q183.727 1372.19 181.899 1375.76 Q180.093 1379.3 180.093 1386.43 Q180.093 1393.54 181.899 1397.1 Q183.727 1400.64 187.338 1400.64 Q190.973 1400.64 192.778 1397.1 Q194.607 1393.54 194.607 1386.43 Q194.607 1379.3 192.778 1375.76 Q190.973 1372.19 187.338 1372.19 M187.338 1368.49 Q193.149 1368.49 196.204 1373.1 Q199.283 1377.68 199.283 1386.43 Q199.283 1395.16 196.204 1399.76 Q193.149 1404.35 187.338 1404.35 Q181.528 1404.35 178.45 1399.76 Q175.394 1395.16 175.394 1386.43 Q175.394 1377.68 178.45 1373.1 Q181.528 1368.49 187.338 1368.49 Z" fill="#000000" fill-rule="nonzero" fill-opacity="1" /><path clip-path="url(#clip170)" d="M130.857 1143.29 L119.052 1161.74 L130.857 1161.74 L130.857 1143.29 M129.63 1139.21 L135.51 1139.21 L135.51 1161.74 L140.441 1161.74 L140.441 1165.63 L135.51 1165.63 L135.51 1173.77 L130.857 1173.77 L130.857 1165.63 L115.256 1165.63 L115.256 1161.11 L129.63 1139.21 Z" fill="#000000" fill-rule="nonzero" fill-opacity="1" /><path clip-path="url(#clip170)" d="M158.751 1154.63 Q155.603 1154.63 153.751 1156.78 Q151.922 1158.94 151.922 1162.69 Q151.922 1166.41 153.751 1168.59 Q155.603 1170.74 158.751 1170.74 Q161.899 1170.74 163.727 1168.59 Q165.579 1166.41 165.579 1162.69 Q165.579 1158.94 163.727 1156.78 Q161.899 1154.63 158.751 1154.63 M168.033 1139.98 L168.033 1144.24 Q166.274 1143.4 164.468 1142.96 Q162.686 1142.52 160.927 1142.52 Q156.297 1142.52 153.843 1145.65 Q151.413 1148.77 151.066 1155.09 Q152.431 1153.08 154.491 1152.02 Q156.552 1150.93 159.028 1150.93 Q164.237 1150.93 167.246 1154.1 Q170.278 1157.25 170.278 1162.69 Q170.278 1168.01 167.13 1171.23 Q163.982 1174.45 158.751 1174.45 Q152.755 1174.45 149.584 1169.86 Q146.413 1165.26 146.413 1156.53 Q146.413 1148.33 150.302 1143.47 Q154.19 1138.59 160.741 1138.59 Q162.501 1138.59 164.283 1138.94 Q166.089 1139.28 168.033 1139.98 Z" fill="#000000" fill-rule="nonzero" fill-opacity="1" /><path clip-path="url(#clip170)" d="M178.38 1139.21 L196.737 1139.21 L196.737 1143.15 L182.663 1143.15 L182.663 1151.62 Q183.681 1151.27 184.7 1151.11 Q185.718 1150.93 186.737 1150.93 Q192.524 1150.93 195.903 1154.1 Q199.283 1157.27 199.283 1162.69 Q199.283 1168.27 195.811 1171.37 Q192.338 1174.45 186.019 1174.45 Q183.843 1174.45 181.575 1174.08 Q179.329 1173.71 176.922 1172.96 L176.922 1168.27 Q179.005 1169.4 181.227 1169.96 Q183.45 1170.51 185.926 1170.51 Q189.931 1170.51 192.269 1168.4 Q194.607 1166.3 194.607 1162.69 Q194.607 1159.08 192.269 1156.97 Q189.931 1154.86 185.926 1154.86 Q184.051 1154.86 182.176 1155.28 Q180.325 1155.7 178.38 1156.58 L178.38 1139.21 Z" fill="#000000" fill-rule="nonzero" fill-opacity="1" /><path clip-path="url(#clip170)" d="M129.862 913.387 L118.056 931.836 L129.862 931.836 L129.862 913.387 M128.635 909.313 L134.515 909.313 L134.515 931.836 L139.445 931.836 L139.445 935.725 L134.515 935.725 L134.515 943.873 L129.862 943.873 L129.862 935.725 L114.26 935.725 L114.26 931.211 L128.635 909.313 Z" fill="#000000" fill-rule="nonzero" fill-opacity="1" /><path clip-path="url(#clip170)" d="M145.996 909.313 L168.218 909.313 L168.218 911.304 L155.672 943.873 L150.788 943.873 L162.593 913.249 L145.996 913.249 L145.996 909.313 Z" fill="#000000" fill-rule="nonzero" fill-opacity="1" /><path clip-path="url(#clip170)" d="M187.338 912.392 Q183.727 912.392 181.899 915.957 Q180.093 919.499 180.093 926.628 Q180.093 933.735 181.899 937.299 Q183.727 940.841 187.338 940.841 Q190.973 940.841 192.778 937.299 Q194.607 933.735 194.607 926.628 Q194.607 919.499 192.778 915.957 Q190.973 912.392 187.338 912.392 M187.338 908.688 Q193.149 908.688 196.204 913.295 Q199.283 917.878 199.283 926.628 Q199.283 935.355 196.204 939.961 Q193.149 944.545 187.338 944.545 Q181.528 944.545 178.45 939.961 Q175.394 935.355 175.394 926.628 Q175.394 917.878 178.45 913.295 Q181.528 908.688 187.338 908.688 Z" fill="#000000" fill-rule="nonzero" fill-opacity="1" /><path clip-path="url(#clip170)" d="M130.857 683.486 L119.052 701.935 L130.857 701.935 L130.857 683.486 M129.63 679.412 L135.51 679.412 L135.51 701.935 L140.441 701.935 L140.441 705.824 L135.51 705.824 L135.51 713.972 L130.857 713.972 L130.857 705.824 L115.256 705.824 L115.256 701.31 L129.63 679.412 Z" fill="#000000" fill-rule="nonzero" fill-opacity="1" /><path clip-path="url(#clip170)" d="M146.991 679.412 L169.214 679.412 L169.214 681.403 L156.667 713.972 L151.783 713.972 L163.589 683.347 L146.991 683.347 L146.991 679.412 Z" fill="#000000" fill-rule="nonzero" fill-opacity="1" /><path clip-path="url(#clip170)" d="M178.38 679.412 L196.737 679.412 L196.737 683.347 L182.663 683.347 L182.663 691.82 Q183.681 691.472 184.7 691.31 Q185.718 691.125 186.737 691.125 Q192.524 691.125 195.903 694.296 Q199.283 697.468 199.283 702.884 Q199.283 708.463 195.811 711.565 Q192.338 714.644 186.019 714.644 Q183.843 714.644 181.575 714.273 Q179.329 713.903 176.922 713.162 L176.922 708.463 Q179.005 709.597 181.227 710.153 Q183.45 710.708 185.926 710.708 Q189.931 710.708 192.269 708.602 Q194.607 706.495 194.607 702.884 Q194.607 699.273 192.269 697.167 Q189.931 695.06 185.926 695.06 Q184.051 695.06 182.176 695.477 Q180.325 695.894 178.38 696.773 L178.38 679.412 Z" fill="#000000" fill-rule="nonzero" fill-opacity="1" /><path clip-path="url(#clip170)" d="M129.862 453.585 L118.056 472.034 L129.862 472.034 L129.862 453.585 M128.635 449.511 L134.515 449.511 L134.515 472.034 L139.445 472.034 L139.445 475.923 L134.515 475.923 L134.515 484.071 L129.862 484.071 L129.862 475.923 L114.26 475.923 L114.26 471.409 L128.635 449.511 Z" fill="#000000" fill-rule="nonzero" fill-opacity="1" /><path clip-path="url(#clip170)" d="M157.177 467.659 Q153.843 467.659 151.922 469.442 Q150.024 471.224 150.024 474.349 Q150.024 477.474 151.922 479.256 Q153.843 481.039 157.177 481.039 Q160.51 481.039 162.431 479.256 Q164.352 477.451 164.352 474.349 Q164.352 471.224 162.431 469.442 Q160.533 467.659 157.177 467.659 M152.501 465.668 Q149.491 464.928 147.802 462.868 Q146.135 460.807 146.135 457.844 Q146.135 453.701 149.075 451.294 Q152.038 448.886 157.177 448.886 Q162.339 448.886 165.278 451.294 Q168.218 453.701 168.218 457.844 Q168.218 460.807 166.528 462.868 Q164.862 464.928 161.876 465.668 Q165.255 466.455 167.13 468.747 Q169.028 471.039 169.028 474.349 Q169.028 479.372 165.95 482.057 Q162.894 484.742 157.177 484.742 Q151.459 484.742 148.38 482.057 Q145.325 479.372 145.325 474.349 Q145.325 471.039 147.223 468.747 Q149.121 466.455 152.501 465.668 M150.788 458.284 Q150.788 460.969 152.454 462.474 Q154.144 463.979 157.177 463.979 Q160.186 463.979 161.876 462.474 Q163.589 460.969 163.589 458.284 Q163.589 455.599 161.876 454.094 Q160.186 452.59 157.177 452.59 Q154.144 452.59 152.454 454.094 Q150.788 455.599 150.788 458.284 Z" fill="#000000" fill-rule="nonzero" fill-opacity="1" /><path clip-path="url(#clip170)" d="M187.338 452.59 Q183.727 452.59 181.899 456.155 Q180.093 459.696 180.093 466.826 Q180.093 473.932 181.899 477.497 Q183.727 481.039 187.338 481.039 Q190.973 481.039 192.778 477.497 Q194.607 473.932 194.607 466.826 Q194.607 459.696 192.778 456.155 Q190.973 452.59 187.338 452.59 M187.338 448.886 Q193.149 448.886 196.204 453.493 Q199.283 458.076 199.283 466.826 Q199.283 475.553 196.204 480.159 Q193.149 484.742 187.338 484.742 Q181.528 484.742 178.45 480.159 Q175.394 475.553 175.394 466.826 Q175.394 458.076 178.45 453.493 Q181.528 448.886 187.338 448.886 Z" fill="#000000" fill-rule="nonzero" fill-opacity="1" /><path clip-path="url(#clip170)" d="M130.857 223.684 L119.052 242.133 L130.857 242.133 L130.857 223.684 M129.63 219.61 L135.51 219.61 L135.51 242.133 L140.441 242.133 L140.441 246.022 L135.51 246.022 L135.51 254.17 L130.857 254.17 L130.857 246.022 L115.256 246.022 L115.256 241.508 L129.63 219.61 Z" fill="#000000" fill-rule="nonzero" fill-opacity="1" /><path clip-path="url(#clip170)" d="M158.172 237.758 Q154.839 237.758 152.917 239.54 Q151.019 241.323 151.019 244.448 Q151.019 247.573 152.917 249.355 Q154.839 251.138 158.172 251.138 Q161.505 251.138 163.427 249.355 Q165.348 247.55 165.348 244.448 Q165.348 241.323 163.427 239.54 Q161.528 237.758 158.172 237.758 M153.496 235.767 Q150.487 235.027 148.797 232.966 Q147.13 230.906 147.13 227.943 Q147.13 223.8 150.07 221.392 Q153.033 218.985 158.172 218.985 Q163.334 218.985 166.274 221.392 Q169.214 223.8 169.214 227.943 Q169.214 230.906 167.524 232.966 Q165.857 235.027 162.871 235.767 Q166.251 236.554 168.126 238.846 Q170.024 241.138 170.024 244.448 Q170.024 249.471 166.945 252.156 Q163.89 254.841 158.172 254.841 Q152.454 254.841 149.376 252.156 Q146.32 249.471 146.32 244.448 Q146.32 241.138 148.218 238.846 Q150.116 236.554 153.496 235.767 M151.783 228.383 Q151.783 231.068 153.45 232.573 Q155.14 234.078 158.172 234.078 Q161.181 234.078 162.871 232.573 Q164.584 231.068 164.584 228.383 Q164.584 225.698 162.871 224.193 Q161.181 222.689 158.172 222.689 Q155.14 222.689 153.45 224.193 Q151.783 225.698 151.783 228.383 Z" fill="#000000" fill-rule="nonzero" fill-opacity="1" /><path clip-path="url(#clip170)" d="M178.38 219.61 L196.737 219.61 L196.737 223.545 L182.663 223.545 L182.663 232.017 Q183.681 231.67 184.7 231.508 Q185.718 231.323 186.737 231.323 Q192.524 231.323 195.903 234.494 Q199.283 237.665 199.283 243.082 Q199.283 248.661 195.811 251.763 Q192.338 254.841 186.019 254.841 Q183.843 254.841 181.575 254.471 Q179.329 254.101 176.922 253.36 L176.922 248.661 Q179.005 249.795 181.227 250.351 Q183.45 250.906 185.926 250.906 Q189.931 250.906 192.269 248.8 Q194.607 246.693 194.607 243.082 Q194.607 239.471 192.269 237.365 Q189.931 235.258 185.926 235.258 Q184.051 235.258 182.176 235.675 Q180.325 236.091 178.38 236.971 L178.38 219.61 Z" fill="#000000" fill-rule="nonzero" fill-opacity="1" /><path clip-path="url(#clip170)" d="M20.8447 1001.66 Q20.8447 1008.67 26.0645 1012.8 Q31.2844 1016.91 40.2919 1016.91 Q49.2675 1016.91 54.4874 1012.8 Q59.7073 1008.67 59.7073 1001.66 Q59.7073 994.662 54.4874 990.588 Q49.2675 986.482 40.2919 986.482 Q31.2844 986.482 26.0645 990.588 Q20.8447 994.662 20.8447 1001.66 M15.6248 1001.66 Q15.6248 991.67 22.3406 985.686 Q29.0246 979.702 40.2919 979.702 Q51.5274 979.702 58.2432 985.686 Q64.9272 991.67 64.9272 1001.66 Q64.9272 1011.69 58.2432 1017.71 Q51.5592 1023.69 40.2919 1023.69 Q29.0246 1023.69 22.3406 1017.71 Q15.6248 1011.69 15.6248 1001.66 Z" fill="#000000" fill-rule="nonzero" fill-opacity="1" /><path clip-path="url(#clip170)" d="M46.212 944.309 Q39.7508 944.309 36.0905 946.982 Q32.3984 949.624 32.3984 954.271 Q32.3984 958.918 36.0905 961.592 Q39.7508 964.234 46.212 964.234 Q52.6732 964.234 56.3653 961.592 Q60.0256 958.918 60.0256 954.271 Q60.0256 949.624 56.3653 946.982 Q52.6732 944.309 46.212 944.309 M33.7671 964.234 Q30.5842 962.387 29.0564 959.587 Q27.4968 956.754 27.4968 952.839 Q27.4968 946.346 32.6531 942.304 Q37.8093 938.23 46.212 938.23 Q54.6147 938.23 59.771 942.304 Q64.9272 946.346 64.9272 952.839 Q64.9272 956.754 63.3994 959.587 Q61.8398 962.387 58.657 964.234 L64.0042 964.234 L64.0042 970.122 L14.479 970.122 L14.479 964.234 L33.7671 964.234 Z" fill="#000000" fill-rule="nonzero" fill-opacity="1" /><path clip-path="url(#clip170)" d="M28.3562 928.522 L28.3562 922.665 L64.6407 922.665 Q71.452 922.665 74.5076 925.275 Q77.5631 927.854 77.5631 933.614 L77.5631 935.842 L72.5979 935.842 L72.5979 934.283 Q72.5979 930.941 71.0383 929.731 Q69.5105 928.522 64.6407 928.522 L28.3562 928.522 M14.479 928.522 L14.479 922.665 L21.895 922.665 L21.895 928.522 L14.479 928.522 Z" fill="#000000" fill-rule="nonzero" fill-opacity="1" /><path clip-path="url(#clip170)" d="M44.7161 879.92 L47.5806 879.92 L47.5806 906.847 Q53.6281 906.465 56.8109 903.218 Q59.9619 899.94 59.9619 894.115 Q59.9619 890.741 59.1344 887.59 Q58.3069 884.408 56.6518 881.288 L62.1899 881.288 Q63.5267 884.439 64.227 887.75 Q64.9272 891.06 64.9272 894.465 Q64.9272 902.995 59.9619 907.993 Q54.9967 912.958 46.5303 912.958 Q37.7774 912.958 32.6531 908.247 Q27.4968 903.505 27.4968 895.484 Q27.4968 888.291 32.1438 884.121 Q36.7589 879.92 44.7161 879.92 M42.9973 885.776 Q38.1912 885.84 35.3266 888.482 Q32.4621 891.092 32.4621 895.42 Q32.4621 900.322 35.2312 903.282 Q38.0002 906.21 43.0292 906.656 L42.9973 885.776 Z" fill="#000000" fill-rule="nonzero" fill-opacity="1" /><path clip-path="url(#clip170)" d="M29.7248 844.654 L35.1993 844.654 Q33.8307 847.136 33.1623 849.651 Q32.4621 852.133 32.4621 854.68 Q32.4621 860.377 36.0905 863.528 Q39.6872 866.679 46.212 866.679 Q52.7369 866.679 56.3653 863.528 Q59.9619 860.377 59.9619 854.68 Q59.9619 852.133 59.2935 849.651 Q58.5933 847.136 57.2247 844.654 L62.6355 844.654 Q63.7814 847.105 64.3543 849.746 Q64.9272 852.356 64.9272 855.316 Q64.9272 863.369 59.8664 868.111 Q54.8057 872.854 46.212 872.854 Q37.491 872.854 32.4939 868.08 Q27.4968 863.273 27.4968 854.934 Q27.4968 852.229 28.0697 849.651 Q28.6108 847.073 29.7248 844.654 Z" fill="#000000" fill-rule="nonzero" fill-opacity="1" /><path clip-path="url(#clip170)" d="M18.2347 828.676 L28.3562 828.676 L28.3562 816.613 L32.9077 816.613 L32.9077 828.676 L52.2594 828.676 Q56.6199 828.676 57.8613 827.498 Q59.1026 826.289 59.1026 822.628 L59.1026 816.613 L64.0042 816.613 L64.0042 822.628 Q64.0042 829.408 61.4897 831.986 Q58.9434 834.564 52.2594 834.564 L32.9077 834.564 L32.9077 838.861 L28.3562 838.861 L28.3562 834.564 L18.2347 834.564 L18.2347 828.676 Z" fill="#000000" fill-rule="nonzero" fill-opacity="1" /><path clip-path="url(#clip170)" d="M28.3562 808.91 L28.3562 803.054 L64.0042 803.054 L64.0042 808.91 L28.3562 808.91 M14.479 808.91 L14.479 803.054 L21.895 803.054 L21.895 808.91 L14.479 808.91 Z" fill="#000000" fill-rule="nonzero" fill-opacity="1" /><path clip-path="url(#clip170)" d="M28.3562 795.001 L28.3562 788.795 L58.275 777.655 L28.3562 766.515 L28.3562 760.308 L64.0042 773.676 L64.0042 781.633 L28.3562 795.001 Z" fill="#000000" fill-rule="nonzero" fill-opacity="1" /><path clip-path="url(#clip170)" d="M44.7161 721.732 L47.5806 721.732 L47.5806 748.659 Q53.6281 748.277 56.8109 745.03 Q59.9619 741.752 59.9619 735.927 Q59.9619 732.554 59.1344 729.403 Q58.3069 726.22 56.6518 723.101 L62.1899 723.101 Q63.5267 726.252 64.227 729.562 Q64.9272 732.872 64.9272 736.278 Q64.9272 744.808 59.9619 749.805 Q54.9967 754.77 46.5303 754.77 Q37.7774 754.77 32.6531 750.059 Q27.4968 745.317 27.4968 737.296 Q27.4968 730.103 32.1438 725.933 Q36.7589 721.732 44.7161 721.732 M42.9973 727.588 Q38.1912 727.652 35.3266 730.294 Q32.4621 732.904 32.4621 737.232 Q32.4621 742.134 35.2312 745.094 Q38.0002 748.022 43.0292 748.468 L42.9973 727.588 Z" fill="#000000" fill-rule="nonzero" fill-opacity="1" /><path clip-path="url(#clip170)" d="M28.3562 695.601 L28.3562 689.394 L58.275 678.254 L28.3562 667.114 L28.3562 660.908 L64.0042 674.276 L64.0042 682.233 L28.3562 695.601 Z" fill="#000000" fill-rule="nonzero" fill-opacity="1" /><path clip-path="url(#clip170)" d="M46.0847 636.622 Q46.0847 643.72 47.7079 646.457 Q49.3312 649.195 53.2461 649.195 Q56.3653 649.195 58.2114 647.158 Q60.0256 645.089 60.0256 641.556 Q60.0256 636.686 56.5881 633.758 Q53.1188 630.798 47.3897 630.798 L46.0847 630.798 L46.0847 636.622 M43.6657 624.941 L64.0042 624.941 L64.0042 630.798 L58.5933 630.798 Q61.8398 632.803 63.3994 635.795 Q64.9272 638.787 64.9272 643.115 Q64.9272 648.59 61.8716 651.836 Q58.7843 655.051 53.6281 655.051 Q47.6125 655.051 44.5569 651.041 Q41.5014 646.999 41.5014 639.01 L41.5014 630.798 L40.9285 630.798 Q36.8862 630.798 34.6901 633.471 Q32.4621 636.113 32.4621 640.919 Q32.4621 643.975 33.1941 646.871 Q33.9262 649.768 35.3903 652.441 L29.9795 652.441 Q28.7381 649.227 28.1334 646.203 Q27.4968 643.179 27.4968 640.315 Q27.4968 632.58 31.5072 628.761 Q35.5176 624.941 43.6657 624.941 Z" fill="#000000" fill-rule="nonzero" fill-opacity="1" /><path clip-path="url(#clip170)" d="M14.479 612.878 L14.479 607.022 L64.0042 607.022 L64.0042 612.878 L14.479 612.878 Z" fill="#000000" fill-rule="nonzero" fill-opacity="1" /><path clip-path="url(#clip170)" d="M49.9359 595.373 L28.3562 595.373 L28.3562 589.516 L49.7131 589.516 Q54.7739 589.516 57.3202 587.543 Q59.8346 585.569 59.8346 581.623 Q59.8346 576.88 56.8109 574.143 Q53.7872 571.374 48.5673 571.374 L28.3562 571.374 L28.3562 565.517 L64.0042 565.517 L64.0042 571.374 L58.5296 571.374 Q61.7762 573.506 63.3676 576.339 Q64.9272 579.14 64.9272 582.864 Q64.9272 589.007 61.1078 592.19 Q57.2883 595.373 49.9359 595.373 M27.4968 580.636 L27.4968 580.636 Z" fill="#000000" fill-rule="nonzero" fill-opacity="1" /><path clip-path="url(#clip170)" d="M44.7161 522.963 L47.5806 522.963 L47.5806 549.89 Q53.6281 549.508 56.8109 546.261 Q59.9619 542.983 59.9619 537.158 Q59.9619 533.784 59.1344 530.633 Q58.3069 527.451 56.6518 524.331 L62.1899 524.331 Q63.5267 527.482 64.227 530.793 Q64.9272 534.103 64.9272 537.508 Q64.9272 546.038 59.9619 551.036 Q54.9967 556.001 46.5303 556.001 Q37.7774 556.001 32.6531 551.29 Q27.4968 546.548 27.4968 538.527 Q27.4968 531.334 32.1438 527.164 Q36.7589 522.963 44.7161 522.963 M42.9973 528.819 Q38.1912 528.883 35.3266 531.525 Q32.4621 534.135 32.4621 538.463 Q32.4621 543.365 35.2312 546.325 Q38.0002 549.253 43.0292 549.699 L42.9973 528.819 Z" fill="#000000" fill-rule="nonzero" fill-opacity="1" /><path clip-path="url(#clip170)" d="M453.112 16.7545 L453.112 25.383 Q448.981 21.5346 444.281 19.6307 Q439.623 17.7268 434.357 17.7268 Q423.986 17.7268 418.477 24.0867 Q412.968 30.4061 412.968 42.3968 Q412.968 54.3469 418.477 60.7069 Q423.986 67.0263 434.357 67.0263 Q439.623 67.0263 444.281 65.1223 Q448.981 63.2184 453.112 59.3701 L453.112 67.9175 Q448.818 70.8341 443.998 72.2924 Q439.218 73.7508 433.871 73.7508 Q420.138 73.7508 412.239 65.3654 Q404.34 56.9395 404.34 42.3968 Q404.34 27.8135 412.239 19.4281 Q420.138 11.0023 433.871 11.0023 Q439.299 11.0023 444.079 12.4606 Q448.899 13.8784 453.112 16.7545 Z" fill="#000000" fill-rule="nonzero" fill-opacity="1" /><path clip-path="url(#clip170)" d="M483.008 32.4315 Q477.013 32.4315 473.529 37.1306 Q470.045 41.7891 470.045 49.9314 Q470.045 58.0738 473.488 62.7728 Q476.972 67.4314 483.008 67.4314 Q488.963 67.4314 492.447 62.7323 Q495.93 58.0333 495.93 49.9314 Q495.93 41.8701 492.447 37.1711 Q488.963 32.4315 483.008 32.4315 M483.008 26.1121 Q492.73 26.1121 498.28 32.4315 Q503.83 38.7509 503.83 49.9314 Q503.83 61.0714 498.28 67.4314 Q492.73 73.7508 483.008 73.7508 Q473.245 73.7508 467.696 67.4314 Q462.186 61.0714 462.186 49.9314 Q462.186 38.7509 467.696 32.4315 Q473.245 26.1121 483.008 26.1121 Z" fill="#000000" fill-rule="nonzero" fill-opacity="1" /><path clip-path="url(#clip170)" d="M553.899 45.1919 L553.899 72.576 L546.445 72.576 L546.445 45.4349 Q546.445 38.994 543.934 35.7938 Q541.422 32.5936 536.399 32.5936 Q530.363 32.5936 526.879 36.4419 Q523.396 40.2903 523.396 46.9338 L523.396 72.576 L515.901 72.576 L515.901 27.2059 L523.396 27.2059 L523.396 34.2544 Q526.069 30.163 529.675 28.1376 Q533.32 26.1121 538.06 26.1121 Q545.878 26.1121 549.889 30.9732 Q553.899 35.7938 553.899 45.1919 Z" fill="#000000" fill-rule="nonzero" fill-opacity="1" /><path clip-path="url(#clip170)" d="M563.419 27.2059 L571.318 27.2059 L585.496 65.2844 L599.674 27.2059 L607.573 27.2059 L590.56 72.576 L580.432 72.576 L563.419 27.2059 Z" fill="#000000" fill-rule="nonzero" fill-opacity="1" /><path clip-path="url(#clip170)" d="M656.67 48.0275 L656.67 51.6733 L622.4 51.6733 Q622.886 59.3701 627.018 63.421 Q631.19 67.4314 638.603 67.4314 Q642.897 67.4314 646.908 66.3781 Q650.959 65.3249 654.928 63.2184 L654.928 70.267 Q650.918 71.9684 646.705 72.8596 Q642.492 73.7508 638.158 73.7508 Q627.301 73.7508 620.941 67.4314 Q614.622 61.1119 614.622 50.3365 Q614.622 39.1965 620.617 32.6746 Q626.653 26.1121 636.861 26.1121 Q646.016 26.1121 651.323 32.0264 Q656.67 37.9003 656.67 48.0275 M649.217 45.84 Q649.136 39.7232 645.773 36.0774 Q642.452 32.4315 636.942 32.4315 Q630.704 32.4315 626.937 35.9558 Q623.21 39.4801 622.643 45.8805 L649.217 45.84 Z" fill="#000000" fill-rule="nonzero" fill-opacity="1" /><path clip-path="url(#clip170)" d="M695.194 34.1734 Q693.939 33.4443 692.44 33.1202 Q690.982 32.7556 689.199 32.7556 Q682.88 32.7556 679.477 36.8875 Q676.115 40.9789 676.115 48.6757 L676.115 72.576 L668.621 72.576 L668.621 27.2059 L676.115 27.2059 L676.115 34.2544 Q678.464 30.1225 682.232 28.1376 Q685.999 26.1121 691.387 26.1121 Q692.156 26.1121 693.088 26.2337 Q694.02 26.3147 695.154 26.5172 L695.194 34.1734 Z" fill="#000000" fill-rule="nonzero" fill-opacity="1" /><path clip-path="url(#clip170)" d="M731.41 49.3643 Q731.41 41.2625 728.047 36.8065 Q724.726 32.3505 718.69 32.3505 Q712.694 32.3505 709.332 36.8065 Q706.01 41.2625 706.01 49.3643 Q706.01 57.4256 709.332 61.8816 Q712.694 66.3376 718.69 66.3376 Q724.726 66.3376 728.047 61.8816 Q731.41 57.4256 731.41 49.3643 M738.863 66.9452 Q738.863 78.5308 733.719 84.1616 Q728.574 89.8329 717.961 89.8329 Q714.031 89.8329 710.547 89.2252 Q707.064 88.6581 703.782 87.4428 L703.782 80.1917 Q707.064 81.9741 710.264 82.8248 Q713.464 83.6755 716.786 83.6755 Q724.118 83.6755 727.764 79.8271 Q731.41 76.0193 731.41 68.282 L731.41 64.5957 Q729.101 68.6061 725.495 70.5911 Q721.89 72.576 716.867 72.576 Q708.522 72.576 703.418 66.2161 Q698.314 59.8562 698.314 49.3643 Q698.314 38.832 703.418 32.472 Q708.522 26.1121 716.867 26.1121 Q721.89 26.1121 725.495 28.0971 Q729.101 30.082 731.41 34.0924 L731.41 27.2059 L738.863 27.2059 L738.863 66.9452 Z" fill="#000000" fill-rule="nonzero" fill-opacity="1" /><path clip-path="url(#clip170)" d="M793.024 48.0275 L793.024 51.6733 L758.753 51.6733 Q759.239 59.3701 763.371 63.421 Q767.544 67.4314 774.957 67.4314 Q779.251 67.4314 783.261 66.3781 Q787.312 65.3249 791.282 63.2184 L791.282 70.267 Q787.272 71.9684 783.059 72.8596 Q778.846 73.7508 774.511 73.7508 Q763.655 73.7508 757.295 67.4314 Q750.975 61.1119 750.975 50.3365 Q750.975 39.1965 756.971 32.6746 Q763.007 26.1121 773.215 26.1121 Q782.37 26.1121 787.677 32.0264 Q793.024 37.9003 793.024 48.0275 M785.57 45.84 Q785.489 39.7232 782.127 36.0774 Q778.805 32.4315 773.296 32.4315 Q767.058 32.4315 763.29 35.9558 Q759.563 39.4801 758.996 45.8805 L785.57 45.84 Z" fill="#000000" fill-rule="nonzero" fill-opacity="1" /><path clip-path="url(#clip170)" d="M842.971 45.1919 L842.971 72.576 L835.518 72.576 L835.518 45.4349 Q835.518 38.994 833.006 35.7938 Q830.495 32.5936 825.472 32.5936 Q819.436 32.5936 815.952 36.4419 Q812.468 40.2903 812.468 46.9338 L812.468 72.576 L804.974 72.576 L804.974 27.2059 L812.468 27.2059 L812.468 34.2544 Q815.142 30.163 818.747 28.1376 Q822.393 26.1121 827.132 26.1121 Q834.951 26.1121 838.961 30.9732 Q842.971 35.7938 842.971 45.1919 Z" fill="#000000" fill-rule="nonzero" fill-opacity="1" /><path clip-path="url(#clip170)" d="M890.489 28.9478 L890.489 35.9153 Q887.329 34.1734 884.129 33.3227 Q880.969 32.4315 877.728 32.4315 Q870.477 32.4315 866.467 37.0496 Q862.456 41.6271 862.456 49.9314 Q862.456 58.2358 866.467 62.8538 Q870.477 67.4314 877.728 67.4314 Q880.969 67.4314 884.129 66.5807 Q887.329 65.6895 890.489 63.9476 L890.489 70.8341 Q887.369 72.2924 884.007 73.0216 Q880.685 73.7508 876.918 73.7508 Q866.669 73.7508 860.633 67.3098 Q854.598 60.8689 854.598 49.9314 Q854.598 38.832 860.674 32.472 Q866.791 26.1121 877.404 26.1121 Q880.847 26.1121 884.129 26.8413 Q887.41 27.5299 890.489 28.9478 Z" fill="#000000" fill-rule="nonzero" fill-opacity="1" /><path clip-path="url(#clip170)" d="M942.259 48.0275 L942.259 51.6733 L907.988 51.6733 Q908.475 59.3701 912.606 63.421 Q916.779 67.4314 924.192 67.4314 Q928.486 67.4314 932.496 66.3781 Q936.547 65.3249 940.517 63.2184 L940.517 70.267 Q936.507 71.9684 932.294 72.8596 Q928.081 73.7508 923.746 73.7508 Q912.89 73.7508 906.53 67.4314 Q900.211 61.1119 900.211 50.3365 Q900.211 39.1965 906.206 32.6746 Q912.242 26.1121 922.45 26.1121 Q931.605 26.1121 936.912 32.0264 Q942.259 37.9003 942.259 48.0275 M934.805 45.84 Q934.724 39.7232 931.362 36.0774 Q928.04 32.4315 922.531 32.4315 Q916.293 32.4315 912.525 35.9558 Q908.799 39.4801 908.232 45.8805 L934.805 45.84 Z" fill="#000000" fill-rule="nonzero" fill-opacity="1" /><path clip-path="url(#clip170)" d="M998.445 32.4315 Q992.45 32.4315 988.966 37.1306 Q985.482 41.7891 985.482 49.9314 Q985.482 58.0738 988.926 62.7728 Q992.409 67.4314 998.445 67.4314 Q1004.4 67.4314 1007.88 62.7323 Q1011.37 58.0333 1011.37 49.9314 Q1011.37 41.8701 1007.88 37.1711 Q1004.4 32.4315 998.445 32.4315 M998.445 26.1121 Q1008.17 26.1121 1013.72 32.4315 Q1019.27 38.7509 1019.27 49.9314 Q1019.27 61.0714 1013.72 67.4314 Q1008.17 73.7508 998.445 73.7508 Q988.682 73.7508 983.133 67.4314 Q977.624 61.0714 977.624 49.9314 Q977.624 38.7509 983.133 32.4315 Q988.682 26.1121 998.445 26.1121 Z" fill="#000000" fill-rule="nonzero" fill-opacity="1" /><path clip-path="url(#clip170)" d="M1054.59 9.54393 L1054.59 15.7418 L1047.46 15.7418 Q1043.45 15.7418 1041.87 17.3622 Q1040.33 18.9825 1040.33 23.1955 L1040.33 27.2059 L1052.61 27.2059 L1052.61 32.9987 L1040.33 32.9987 L1040.33 72.576 L1032.84 72.576 L1032.84 32.9987 L1025.71 32.9987 L1025.71 27.2059 L1032.84 27.2059 L1032.84 24.0462 Q1032.84 16.471 1036.36 13.0277 Q1039.89 9.54393 1047.54 9.54393 L1054.59 9.54393 Z" fill="#000000" fill-rule="nonzero" fill-opacity="1" /><path clip-path="url(#clip170)" d="M1119.77 49.9314 Q1119.77 41.7081 1116.37 37.0496 Q1113 32.3505 1107.09 32.3505 Q1101.18 32.3505 1097.77 37.0496 Q1094.41 41.7081 1094.41 49.9314 Q1094.41 58.1548 1097.77 62.8538 Q1101.18 67.5124 1107.09 67.5124 Q1113 67.5124 1116.37 62.8538 Q1119.77 58.1548 1119.77 49.9314 M1094.41 34.0924 Q1096.76 30.0415 1100.33 28.0971 Q1103.93 26.1121 1108.91 26.1121 Q1117.18 26.1121 1122.32 32.6746 Q1127.51 39.2371 1127.51 49.9314 Q1127.51 60.6258 1122.32 67.1883 Q1117.18 73.7508 1108.91 73.7508 Q1103.93 73.7508 1100.33 71.8063 Q1096.76 69.8214 1094.41 65.7705 L1094.41 72.576 L1086.92 72.576 L1086.92 9.54393 L1094.41 9.54393 L1094.41 34.0924 Z" fill="#000000" fill-rule="nonzero" fill-opacity="1" /><path clip-path="url(#clip170)" d="M1157.44 32.4315 Q1151.45 32.4315 1147.96 37.1306 Q1144.48 41.7891 1144.48 49.9314 Q1144.48 58.0738 1147.92 62.7728 Q1151.41 67.4314 1157.44 67.4314 Q1163.4 67.4314 1166.88 62.7323 Q1170.37 58.0333 1170.37 49.9314 Q1170.37 41.8701 1166.88 37.1711 Q1163.4 32.4315 1157.44 32.4315 M1157.44 26.1121 Q1167.17 26.1121 1172.72 32.4315 Q1178.26 38.7509 1178.26 49.9314 Q1178.26 61.0714 1172.72 67.4314 Q1167.17 73.7508 1157.44 73.7508 Q1147.68 73.7508 1142.13 67.4314 Q1136.62 61.0714 1136.62 49.9314 Q1136.62 38.7509 1142.13 32.4315 Q1147.68 26.1121 1157.44 26.1121 Z" fill="#000000" fill-rule="nonzero" fill-opacity="1" /><path clip-path="url(#clip170)" d="M1189.85 54.671 L1189.85 27.2059 L1197.3 27.2059 L1197.3 54.3874 Q1197.3 60.8284 1199.82 64.0691 Q1202.33 67.2693 1207.35 67.2693 Q1213.39 67.2693 1216.87 63.421 Q1220.39 59.5726 1220.39 52.9291 L1220.39 27.2059 L1227.85 27.2059 L1227.85 72.576 L1220.39 72.576 L1220.39 65.6084 Q1217.68 69.7404 1214.07 71.7658 Q1210.51 73.7508 1205.77 73.7508 Q1197.95 73.7508 1193.9 68.8897 Q1189.85 64.0286 1189.85 54.671 M1208.61 26.1121 L1208.61 26.1121 Z" fill="#000000" fill-rule="nonzero" fill-opacity="1" /><path clip-path="url(#clip170)" d="M1280.91 45.1919 L1280.91 72.576 L1273.46 72.576 L1273.46 45.4349 Q1273.46 38.994 1270.95 35.7938 Q1268.44 32.5936 1263.41 32.5936 Q1257.38 32.5936 1253.9 36.4419 Q1250.41 40.2903 1250.41 46.9338 L1250.41 72.576 L1242.92 72.576 L1242.92 27.2059 L1250.41 27.2059 L1250.41 34.2544 Q1253.08 30.163 1256.69 28.1376 Q1260.34 26.1121 1265.08 26.1121 Q1272.89 26.1121 1276.9 30.9732 Q1280.91 35.7938 1280.91 45.1919 Z" fill="#000000" fill-rule="nonzero" fill-opacity="1" /><path clip-path="url(#clip170)" d="M1325.64 34.0924 L1325.64 9.54393 L1333.09 9.54393 L1333.09 72.576 L1325.64 72.576 L1325.64 65.7705 Q1323.29 69.8214 1319.68 71.8063 Q1316.12 73.7508 1311.09 73.7508 Q1302.87 73.7508 1297.69 67.1883 Q1292.54 60.6258 1292.54 49.9314 Q1292.54 39.2371 1297.69 32.6746 Q1302.87 26.1121 1311.09 26.1121 Q1316.12 26.1121 1319.68 28.0971 Q1323.29 30.0415 1325.64 34.0924 M1300.24 49.9314 Q1300.24 58.1548 1303.6 62.8538 Q1307 67.5124 1312.92 67.5124 Q1318.83 67.5124 1322.23 62.8538 Q1325.64 58.1548 1325.64 49.9314 Q1325.64 41.7081 1322.23 37.0496 Q1318.83 32.3505 1312.92 32.3505 Q1307 32.3505 1303.6 37.0496 Q1300.24 41.7081 1300.24 49.9314 Z" fill="#000000" fill-rule="nonzero" fill-opacity="1" /><path clip-path="url(#clip170)" d="M1377.37 28.5427 L1377.37 35.5912 Q1374.21 33.9709 1370.8 33.1607 Q1367.4 32.3505 1363.76 32.3505 Q1358.21 32.3505 1355.41 34.0519 Q1352.66 35.7533 1352.66 39.156 Q1352.66 41.7486 1354.64 43.2475 Q1356.63 44.7058 1362.62 46.0426 L1365.17 46.6097 Q1373.11 48.3111 1376.44 51.4303 Q1379.8 54.509 1379.8 60.0587 Q1379.8 66.3781 1374.77 70.0644 Q1369.79 73.7508 1361.04 73.7508 Q1357.4 73.7508 1353.43 73.0216 Q1349.5 72.3329 1345.12 70.9151 L1345.12 63.2184 Q1349.25 65.3654 1353.26 66.4591 Q1357.27 67.5124 1361.2 67.5124 Q1366.47 67.5124 1369.31 65.73 Q1372.14 63.9071 1372.14 60.6258 Q1372.14 57.5877 1370.08 55.9673 Q1368.05 54.3469 1361.12 52.8481 L1358.53 52.2405 Q1351.6 50.7821 1348.52 47.7845 Q1345.45 44.7463 1345.45 39.4801 Q1345.45 33.0797 1349.98 29.5959 Q1354.52 26.1121 1362.86 26.1121 Q1367 26.1121 1370.64 26.7198 Q1374.29 27.3274 1377.37 28.5427 Z" fill="#000000" fill-rule="nonzero" fill-opacity="1" /><path clip-path="url(#clip170)" d="M1435.94 9.62495 Q1430.51 18.942 1427.88 28.0566 Q1425.25 37.1711 1425.25 46.5287 Q1425.25 55.8863 1427.88 65.0818 Q1430.56 74.2369 1435.94 83.5134 L1429.46 83.5134 Q1423.39 73.9938 1420.35 64.7983 Q1417.35 55.6027 1417.35 46.5287 Q1417.35 37.4952 1420.35 28.3401 Q1423.34 19.1851 1429.46 9.62495 L1435.94 9.62495 Z" fill="#000000" fill-rule="nonzero" fill-opacity="1" /><path clip-path="url(#clip170)" d="M1468.96 17.4837 Q1462.64 17.4837 1459.44 23.7221 Q1456.28 29.92 1456.28 42.3968 Q1456.28 54.833 1459.44 61.0714 Q1462.64 67.2693 1468.96 67.2693 Q1475.32 67.2693 1478.48 61.0714 Q1481.68 54.833 1481.68 42.3968 Q1481.68 29.92 1478.48 23.7221 Q1475.32 17.4837 1468.96 17.4837 M1468.96 11.0023 Q1479.13 11.0023 1484.47 19.0636 Q1489.86 27.0843 1489.86 42.3968 Q1489.86 57.6687 1484.47 65.73 Q1479.13 73.7508 1468.96 73.7508 Q1458.79 73.7508 1453.4 65.73 Q1448.06 57.6687 1448.06 42.3968 Q1448.06 27.0843 1453.4 19.0636 Q1458.79 11.0023 1468.96 11.0023 Z" fill="#000000" fill-rule="nonzero" fill-opacity="1" /><path clip-path="url(#clip170)" d="M1499.42 46.9338 L1532.8 46.9338 L1532.8 52.7671 L1499.42 52.7671 L1499.42 46.9338 Z" fill="#000000" fill-rule="nonzero" fill-opacity="1" /><path clip-path="url(#clip170)" d="M1547.14 65.6895 L1560.51 65.6895 L1560.51 19.5497 L1545.97 22.4663 L1545.97 15.0127 L1560.43 12.096 L1568.61 12.096 L1568.61 65.6895 L1581.98 65.6895 L1581.98 72.576 L1547.14 72.576 L1547.14 65.6895 Z" fill="#000000" fill-rule="nonzero" fill-opacity="1" /><path clip-path="url(#clip170)" d="M1616.01 17.4837 Q1609.69 17.4837 1606.49 23.7221 Q1603.33 29.92 1603.33 42.3968 Q1603.33 54.833 1606.49 61.0714 Q1609.69 67.2693 1616.01 67.2693 Q1622.37 67.2693 1625.53 61.0714 Q1628.73 54.833 1628.73 42.3968 Q1628.73 29.92 1625.53 23.7221 Q1622.37 17.4837 1616.01 17.4837 M1616.01 11.0023 Q1626.17 11.0023 1631.52 19.0636 Q1636.91 27.0843 1636.91 42.3968 Q1636.91 57.6687 1631.52 65.73 Q1626.17 73.7508 1616.01 73.7508 Q1605.84 73.7508 1600.45 65.73 Q1595.1 57.6687 1595.1 42.3968 Q1595.1 27.0843 1600.45 19.0636 Q1605.84 11.0023 1616.01 11.0023 Z" fill="#000000" fill-rule="nonzero" fill-opacity="1" /><path clip-path="url(#clip170)" d="M1709.18 49.9314 Q1709.18 41.7081 1705.77 37.0496 Q1702.41 32.3505 1696.5 32.3505 Q1690.58 32.3505 1687.18 37.0496 Q1683.82 41.7081 1683.82 49.9314 Q1683.82 58.1548 1687.18 62.8538 Q1690.58 67.5124 1696.5 67.5124 Q1702.41 67.5124 1705.77 62.8538 Q1709.18 58.1548 1709.18 49.9314 M1683.82 34.0924 Q1686.17 30.0415 1689.73 28.0971 Q1693.34 26.1121 1698.32 26.1121 Q1706.58 26.1121 1711.73 32.6746 Q1716.91 39.2371 1716.91 49.9314 Q1716.91 60.6258 1711.73 67.1883 Q1706.58 73.7508 1698.32 73.7508 Q1693.34 73.7508 1689.73 71.8063 Q1686.17 69.8214 1683.82 65.7705 L1683.82 72.576 L1676.32 72.576 L1676.32 9.54393 L1683.82 9.54393 L1683.82 34.0924 Z" fill="#000000" fill-rule="nonzero" fill-opacity="1" /><path clip-path="url(#clip170)" d="M1755.56 34.1734 Q1754.3 33.4443 1752.8 33.1202 Q1751.35 32.7556 1749.56 32.7556 Q1743.24 32.7556 1739.84 36.8875 Q1736.48 40.9789 1736.48 48.6757 L1736.48 72.576 L1728.99 72.576 L1728.99 27.2059 L1736.48 27.2059 L1736.48 34.2544 Q1738.83 30.1225 1742.6 28.1376 Q1746.36 26.1121 1751.75 26.1121 Q1752.52 26.1121 1753.45 26.2337 Q1754.38 26.3147 1755.52 26.5172 L1755.56 34.1734 Z" fill="#000000" fill-rule="nonzero" fill-opacity="1" /><path clip-path="url(#clip170)" d="M1800.36 48.0275 L1800.36 51.6733 L1766.09 51.6733 Q1766.58 59.3701 1770.71 63.421 Q1774.88 67.4314 1782.3 67.4314 Q1786.59 67.4314 1790.6 66.3781 Q1794.65 65.3249 1798.62 63.2184 L1798.62 70.267 Q1794.61 71.9684 1790.4 72.8596 Q1786.18 73.7508 1781.85 73.7508 Q1770.99 73.7508 1764.63 67.4314 Q1758.31 61.1119 1758.31 50.3365 Q1758.31 39.1965 1764.31 32.6746 Q1770.34 26.1121 1780.55 26.1121 Q1789.71 26.1121 1795.01 32.0264 Q1800.36 37.9003 1800.36 48.0275 M1792.91 45.84 Q1792.83 39.7232 1789.47 36.0774 Q1786.14 32.4315 1780.63 32.4315 Q1774.4 32.4315 1770.63 35.9558 Q1766.9 39.4801 1766.33 45.8805 L1792.91 45.84 Z" fill="#000000" fill-rule="nonzero" fill-opacity="1" /><path clip-path="url(#clip170)" d="M1833.21 49.7694 Q1824.18 49.7694 1820.7 51.8354 Q1817.21 53.9013 1817.21 58.8839 Q1817.21 62.8538 1819.81 65.2034 Q1822.44 67.5124 1826.94 67.5124 Q1833.13 67.5124 1836.86 63.1374 Q1840.63 58.7219 1840.63 51.4303 L1840.63 49.7694 L1833.21 49.7694 M1848.08 46.6907 L1848.08 72.576 L1840.63 72.576 L1840.63 65.6895 Q1838.08 69.8214 1834.27 71.8063 Q1830.46 73.7508 1824.95 73.7508 Q1817.98 73.7508 1813.85 69.8619 Q1809.76 65.9325 1809.76 59.3701 Q1809.76 51.7138 1814.86 47.825 Q1820.01 43.9361 1830.18 43.9361 L1840.63 43.9361 L1840.63 43.2069 Q1840.63 38.0623 1837.23 35.2672 Q1833.86 32.4315 1827.75 32.4315 Q1823.86 32.4315 1820.17 33.3632 Q1816.48 34.295 1813.08 36.1584 L1813.08 29.2718 Q1817.17 27.692 1821.02 26.9223 Q1824.87 26.1121 1828.52 26.1121 Q1838.36 26.1121 1843.22 31.2163 Q1848.08 36.3204 1848.08 46.6907 Z" fill="#000000" fill-rule="nonzero" fill-opacity="1" /><path clip-path="url(#clip170)" d="M1863.15 9.54393 L1870.65 9.54393 L1870.65 46.7717 L1892.88 27.2059 L1902.4 27.2059 L1878.34 48.4326 L1903.42 72.576 L1893.69 72.576 L1870.65 50.4176 L1870.65 72.576 L1863.15 72.576 L1863.15 9.54393 Z" fill="#000000" fill-rule="nonzero" fill-opacity="1" /><path clip-path="url(#clip170)" d="M1918.69 65.7705 L1918.69 89.8329 L1911.19 89.8329 L1911.19 27.2059 L1918.69 27.2059 L1918.69 34.0924 Q1921.04 30.0415 1924.6 28.0971 Q1928.21 26.1121 1933.19 26.1121 Q1941.46 26.1121 1946.6 32.6746 Q1951.78 39.2371 1951.78 49.9314 Q1951.78 60.6258 1946.6 67.1883 Q1941.46 73.7508 1933.19 73.7508 Q1928.21 73.7508 1924.6 71.8063 Q1921.04 69.8214 1918.69 65.7705 M1944.05 49.9314 Q1944.05 41.7081 1940.64 37.0496 Q1937.28 32.3505 1931.37 32.3505 Q1925.45 32.3505 1922.05 37.0496 Q1918.69 41.7081 1918.69 49.9314 Q1918.69 58.1548 1922.05 62.8538 Q1925.45 67.5124 1931.37 67.5124 Q1937.28 67.5124 1940.64 62.8538 Q1944.05 58.1548 1944.05 49.9314 Z" fill="#000000" fill-rule="nonzero" fill-opacity="1" /><path clip-path="url(#clip170)" d="M1981.72 32.4315 Q1975.73 32.4315 1972.24 37.1306 Q1968.76 41.7891 1968.76 49.9314 Q1968.76 58.0738 1972.2 62.7728 Q1975.69 67.4314 1981.72 67.4314 Q1987.68 67.4314 1991.16 62.7323 Q1994.64 58.0333 1994.64 49.9314 Q1994.64 41.8701 1991.16 37.1711 Q1987.68 32.4315 1981.72 32.4315 M1981.72 26.1121 Q1991.44 26.1121 1996.99 32.4315 Q2002.54 38.7509 2002.54 49.9314 Q2002.54 61.0714 1996.99 67.4314 Q1991.44 73.7508 1981.72 73.7508 Q1971.96 73.7508 1966.41 67.4314 Q1960.9 61.0714 1960.9 49.9314 Q1960.9 38.7509 1966.41 32.4315 Q1971.96 26.1121 1981.72 26.1121 Z" fill="#000000" fill-rule="nonzero" fill-opacity="1" /><path clip-path="url(#clip170)" d="M2014.9 27.2059 L2022.35 27.2059 L2022.35 72.576 L2014.9 72.576 L2014.9 27.2059 M2014.9 9.54393 L2022.35 9.54393 L2022.35 18.9825 L2014.9 18.9825 L2014.9 9.54393 Z" fill="#000000" fill-rule="nonzero" fill-opacity="1" /><path clip-path="url(#clip170)" d="M2075.66 45.1919 L2075.66 72.576 L2068.21 72.576 L2068.21 45.4349 Q2068.21 38.994 2065.7 35.7938 Q2063.18 32.5936 2058.16 32.5936 Q2052.13 32.5936 2048.64 36.4419 Q2045.16 40.2903 2045.16 46.9338 L2045.16 72.576 L2037.66 72.576 L2037.66 27.2059 L2045.16 27.2059 L2045.16 34.2544 Q2047.83 30.163 2051.44 28.1376 Q2055.08 26.1121 2059.82 26.1121 Q2067.64 26.1121 2071.65 30.9732 Q2075.66 35.7938 2075.66 45.1919 Z" fill="#000000" fill-rule="nonzero" fill-opacity="1" /><path clip-path="url(#clip170)" d="M2097.9 14.324 L2097.9 27.2059 L2113.25 27.2059 L2113.25 32.9987 L2097.9 32.9987 L2097.9 57.6282 Q2097.9 63.1779 2099.4 64.7578 Q2100.94 66.3376 2105.6 66.3376 L2113.25 66.3376 L2113.25 72.576 L2105.6 72.576 Q2096.97 72.576 2093.69 69.3758 Q2090.41 66.1351 2090.41 57.6282 L2090.41 32.9987 L2084.94 32.9987 L2084.94 27.2059 L2090.41 27.2059 L2090.41 14.324 L2097.9 14.324 Z" fill="#000000" fill-rule="nonzero" fill-opacity="1" /><path clip-path="url(#clip170)" d="M2151.98 28.5427 L2151.98 35.5912 Q2148.82 33.9709 2145.42 33.1607 Q2142.02 32.3505 2138.37 32.3505 Q2132.82 32.3505 2130.02 34.0519 Q2127.27 35.7533 2127.27 39.156 Q2127.27 41.7486 2129.26 43.2475 Q2131.24 44.7058 2137.24 46.0426 L2139.79 46.6097 Q2147.73 48.3111 2151.05 51.4303 Q2154.41 54.509 2154.41 60.0587 Q2154.41 66.3781 2149.39 70.0644 Q2144.41 73.7508 2135.66 73.7508 Q2132.01 73.7508 2128.04 73.0216 Q2124.11 72.3329 2119.74 70.9151 L2119.74 63.2184 Q2123.87 65.3654 2127.88 66.4591 Q2131.89 67.5124 2135.82 67.5124 Q2141.08 67.5124 2143.92 65.73 Q2146.75 63.9071 2146.75 60.6258 Q2146.75 57.5877 2144.69 55.9673 Q2142.66 54.3469 2135.74 52.8481 L2133.14 52.2405 Q2126.22 50.7821 2123.14 47.7845 Q2120.06 44.7463 2120.06 39.4801 Q2120.06 33.0797 2124.6 29.5959 Q2129.13 26.1121 2137.48 26.1121 Q2141.61 26.1121 2145.26 26.7198 Q2148.9 27.3274 2151.98 28.5427 Z" fill="#000000" fill-rule="nonzero" fill-opacity="1" /><path clip-path="url(#clip170)" d="M2165.11 9.62495 L2171.59 9.62495 Q2177.66 19.1851 2180.66 28.3401 Q2183.7 37.4952 2183.7 46.5287 Q2183.7 55.6027 2180.66 64.7983 Q2177.66 73.9938 2171.59 83.5134 L2165.11 83.5134 Q2170.49 74.2369 2173.13 65.0818 Q2175.8 55.8863 2175.8 46.5287 Q2175.8 37.1711 2173.13 28.0566 Q2170.49 18.942 2165.11 9.62495 Z" fill="#000000" fill-rule="nonzero" fill-opacity="1" /><polyline clip-path="url(#clip171)" style="stroke:#4682b4; stroke-linecap:round; stroke-linejoin:round; stroke-width:8; stroke-opacity:1; fill:none" points="295.211,1386.4 494.973,1156.49 694.735,875.504 894.496,869.118 1094.26,908.201 1294.02,875.504 1493.78,860.907 1693.54,869.118 1893.3,875.504 2093.07,862.221 2292.83,861.993 "/>
<polyline clip-path="url(#clip171)" style="stroke:#ff8c00; stroke-linecap:round; stroke-linejoin:round; stroke-width:8; stroke-opacity:1; fill:none" points="295.211,160.256 494.973,620.059 694.735,637.088 894.496,735.009 1094.26,822.372 1294.02,815.9 1493.78,817.117 1693.54,835.591 1893.3,849.014 2093.07,840.764 2292.83,844.26 "/>
<circle clip-path="url(#clip171)" cx="295.211" cy="1386.4" r="28.8" fill="#4682b4" fill-rule="evenodd" fill-opacity="1" stroke="#000000" stroke-opacity="1" stroke-width="3.2"/>
<circle clip-path="url(#clip171)" cx="494.973" cy="1156.49" r="28.8" fill="#4682b4" fill-rule="evenodd" fill-opacity="1" stroke="#000000" stroke-opacity="1" stroke-width="3.2"/>
<circle clip-path="url(#clip171)" cx="894.496" cy="869.118" r="28.8" fill="#4682b4" fill-rule="evenodd" fill-opacity="1" stroke="#000000" stroke-opacity="1" stroke-width="3.2"/>
<circle clip-path="url(#clip171)" cx="1693.54" cy="869.118" r="28.8" fill="#4682b4" fill-rule="evenodd" fill-opacity="1" stroke="#000000" stroke-opacity="1" stroke-width="3.2"/>
<circle clip-path="url(#clip171)" cx="295.211" cy="160.256" r="28.8" fill="#ff8c00" fill-rule="evenodd" fill-opacity="1" stroke="#000000" stroke-opacity="1" stroke-width="3.2"/>
<circle clip-path="url(#clip171)" cx="494.973" cy="620.059" r="28.8" fill="#ff8c00" fill-rule="evenodd" fill-opacity="1" stroke="#000000" stroke-opacity="1" stroke-width="3.2"/>
<circle clip-path="url(#clip171)" cx="894.496" cy="735.009" r="28.8" fill="#ff8c00" fill-rule="evenodd" fill-opacity="1" stroke="#000000" stroke-opacity="1" stroke-width="3.2"/>
<circle clip-path="url(#clip171)" cx="1693.54" cy="835.591" r="28.8" fill="#ff8c00" fill-rule="evenodd" fill-opacity="1" stroke="#000000" stroke-opacity="1" stroke-width="3.2"/>
<path clip-path="url(#clip170)" d="M1584.32 1379.86 L2282.17 1379.86 L2282.17 1224.34 L1584.32 1224.34  Z" fill="#ffffff" fill-rule="evenodd" fill-opacity="1"/>
<polyline clip-path="url(#clip170)" style="stroke:#000000; stroke-linecap:round; stroke-linejoin:round; stroke-width:4; stroke-opacity:1; fill:none" points="1584.32,1379.86 2282.17,1379.86 2282.17,1224.34 1584.32,1224.34 1584.32,1379.86 "/>
<polyline clip-path="url(#clip170)" style="stroke:#4682b4; stroke-linecap:round; stroke-linejoin:round; stroke-width:8; stroke-opacity:1; fill:none" points="1607.85,1276.18 1749.01,1276.18 "/>
<path clip-path="url(#clip170)" d="M1777.21 1262.74 L1777.21 1275.72 L1783.09 1275.72 Q1786.36 1275.72 1788.14 1274.04 Q1789.92 1272.35 1789.92 1269.22 Q1789.92 1266.12 1788.14 1264.43 Q1786.36 1262.74 1783.09 1262.74 L1777.21 1262.74 M1772.54 1258.9 L1783.09 1258.9 Q1788.9 1258.9 1791.87 1261.54 Q1794.85 1264.15 1794.85 1269.22 Q1794.85 1274.34 1791.87 1276.95 Q1788.9 1279.57 1783.09 1279.57 L1777.21 1279.57 L1777.21 1293.46 L1772.54 1293.46 L1772.54 1258.9 Z" fill="#000000" fill-rule="nonzero" fill-opacity="1" /><path clip-path="url(#clip170)" d="M1815.13 1271.51 Q1814.41 1271.1 1813.56 1270.91 Q1812.72 1270.7 1811.7 1270.7 Q1808.09 1270.7 1806.15 1273.06 Q1804.23 1275.4 1804.23 1279.8 L1804.23 1293.46 L1799.94 1293.46 L1799.94 1267.53 L1804.23 1267.53 L1804.23 1271.56 Q1805.57 1269.2 1807.72 1268.06 Q1809.88 1266.91 1812.95 1266.91 Q1813.39 1266.91 1813.93 1266.97 Q1814.46 1267.02 1815.11 1267.14 L1815.13 1271.51 Z" fill="#000000" fill-rule="nonzero" fill-opacity="1" /><path clip-path="url(#clip170)" d="M1819.6 1267.53 L1823.86 1267.53 L1823.86 1293.46 L1819.6 1293.46 L1819.6 1267.53 M1819.6 1257.44 L1823.86 1257.44 L1823.86 1262.83 L1819.6 1262.83 L1819.6 1257.44 Z" fill="#000000" fill-rule="nonzero" fill-opacity="1" /><path clip-path="url(#clip170)" d="M1852.95 1272.51 Q1854.55 1269.64 1856.77 1268.27 Q1859 1266.91 1862 1266.91 Q1866.06 1266.91 1868.25 1269.75 Q1870.45 1272.58 1870.45 1277.81 L1870.45 1293.46 L1866.17 1293.46 L1866.17 1277.95 Q1866.17 1274.22 1864.85 1272.41 Q1863.53 1270.61 1860.82 1270.61 Q1857.51 1270.61 1855.59 1272.81 Q1853.67 1275.01 1853.67 1278.8 L1853.67 1293.46 L1849.39 1293.46 L1849.39 1277.95 Q1849.39 1274.2 1848.07 1272.41 Q1846.75 1270.61 1844 1270.61 Q1840.73 1270.61 1838.81 1272.83 Q1836.89 1275.03 1836.89 1278.8 L1836.89 1293.46 L1832.61 1293.46 L1832.61 1267.53 L1836.89 1267.53 L1836.89 1271.56 Q1838.35 1269.17 1840.38 1268.04 Q1842.42 1266.91 1845.22 1266.91 Q1848.05 1266.91 1850.01 1268.34 Q1852 1269.78 1852.95 1272.51 Z" fill="#000000" fill-rule="nonzero" fill-opacity="1" /><path clip-path="url(#clip170)" d="M1890.73 1280.42 Q1885.57 1280.42 1883.58 1281.6 Q1881.59 1282.79 1881.59 1285.63 Q1881.59 1287.9 1883.07 1289.24 Q1884.57 1290.56 1887.14 1290.56 Q1890.69 1290.56 1892.81 1288.06 Q1894.97 1285.54 1894.97 1281.37 L1894.97 1280.42 L1890.73 1280.42 M1899.23 1278.66 L1899.23 1293.46 L1894.97 1293.46 L1894.97 1289.52 Q1893.51 1291.88 1891.33 1293.02 Q1889.16 1294.13 1886.01 1294.13 Q1882.03 1294.13 1879.67 1291.91 Q1877.33 1289.66 1877.33 1285.91 Q1877.33 1281.54 1880.25 1279.31 Q1883.19 1277.09 1889 1277.09 L1894.97 1277.09 L1894.97 1276.67 Q1894.97 1273.73 1893.02 1272.14 Q1891.1 1270.52 1887.61 1270.52 Q1885.38 1270.52 1883.28 1271.05 Q1881.17 1271.58 1879.23 1272.65 L1879.23 1268.71 Q1881.56 1267.81 1883.76 1267.37 Q1885.96 1266.91 1888.05 1266.91 Q1893.67 1266.91 1896.45 1269.82 Q1899.23 1272.74 1899.23 1278.66 Z" fill="#000000" fill-rule="nonzero" fill-opacity="1" /><path clip-path="url(#clip170)" d="M1908 1257.44 L1912.26 1257.44 L1912.26 1293.46 L1908 1293.46 L1908 1257.44 Z" fill="#000000" fill-rule="nonzero" fill-opacity="1" /><path clip-path="url(#clip170)" d="M1946.47 1257.48 Q1943.37 1262.81 1941.87 1268.02 Q1940.36 1273.22 1940.36 1278.57 Q1940.36 1283.92 1941.87 1289.17 Q1943.39 1294.41 1946.47 1299.71 L1942.77 1299.71 Q1939.3 1294.27 1937.56 1289.01 Q1935.85 1283.76 1935.85 1278.57 Q1935.85 1273.41 1937.56 1268.18 Q1939.27 1262.95 1942.77 1257.48 L1946.47 1257.48 Z" fill="#000000" fill-rule="nonzero" fill-opacity="1" /><path clip-path="url(#clip170)" d="M1954.74 1257.44 L1958.99 1257.44 L1958.99 1293.46 L1954.74 1293.46 L1954.74 1257.44 Z" fill="#000000" fill-rule="nonzero" fill-opacity="1" /><path clip-path="url(#clip170)" d="M1977.95 1270.52 Q1974.53 1270.52 1972.54 1273.2 Q1970.55 1275.86 1970.55 1280.52 Q1970.55 1285.17 1972.51 1287.85 Q1974.5 1290.52 1977.95 1290.52 Q1981.36 1290.52 1983.35 1287.83 Q1985.34 1285.15 1985.34 1280.52 Q1985.34 1275.91 1983.35 1273.22 Q1981.36 1270.52 1977.95 1270.52 M1977.95 1266.91 Q1983.51 1266.91 1986.68 1270.52 Q1989.85 1274.13 1989.85 1280.52 Q1989.85 1286.88 1986.68 1290.52 Q1983.51 1294.13 1977.95 1294.13 Q1972.37 1294.13 1969.2 1290.52 Q1966.05 1286.88 1966.05 1280.52 Q1966.05 1274.13 1969.2 1270.52 Q1972.37 1266.91 1977.95 1266.91 Z" fill="#000000" fill-rule="nonzero" fill-opacity="1" /><path clip-path="url(#clip170)" d="M1994.43 1267.53 L1998.69 1267.53 L2004.02 1287.76 L2009.32 1267.53 L2014.34 1267.53 L2019.67 1287.76 L2024.97 1267.53 L2029.23 1267.53 L2022.44 1293.46 L2017.42 1293.46 L2011.84 1272.21 L2006.24 1293.46 L2001.22 1293.46 L1994.43 1267.53 Z" fill="#000000" fill-rule="nonzero" fill-opacity="1" /><path clip-path="url(#clip170)" d="M2057.86 1279.43 L2057.86 1281.51 L2038.28 1281.51 Q2038.55 1285.91 2040.92 1288.22 Q2043.3 1290.52 2047.54 1290.52 Q2049.99 1290.52 2052.28 1289.91 Q2054.6 1289.31 2056.86 1288.11 L2056.86 1292.14 Q2054.57 1293.11 2052.17 1293.62 Q2049.76 1294.13 2047.28 1294.13 Q2041.08 1294.13 2037.44 1290.52 Q2033.83 1286.91 2033.83 1280.75 Q2033.83 1274.38 2037.26 1270.66 Q2040.71 1266.91 2046.54 1266.91 Q2051.77 1266.91 2054.8 1270.29 Q2057.86 1273.64 2057.86 1279.43 M2053.6 1278.18 Q2053.55 1274.68 2051.63 1272.6 Q2049.74 1270.52 2046.59 1270.52 Q2043.02 1270.52 2040.87 1272.53 Q2038.74 1274.54 2038.42 1278.2 L2053.6 1278.18 Z" fill="#000000" fill-rule="nonzero" fill-opacity="1" /><path clip-path="url(#clip170)" d="M2079.87 1271.51 Q2079.16 1271.1 2078.3 1270.91 Q2077.47 1270.7 2076.45 1270.7 Q2072.84 1270.7 2070.89 1273.06 Q2068.97 1275.4 2068.97 1279.8 L2068.97 1293.46 L2064.69 1293.46 L2064.69 1267.53 L2068.97 1267.53 L2068.97 1271.56 Q2070.31 1269.2 2072.47 1268.06 Q2074.62 1266.91 2077.7 1266.91 Q2078.14 1266.91 2078.67 1266.97 Q2079.2 1267.02 2079.85 1267.14 L2079.87 1271.51 Z" fill="#000000" fill-rule="nonzero" fill-opacity="1" /><path clip-path="url(#clip170)" d="M2118.02 1280.52 Q2118.02 1275.82 2116.08 1273.16 Q2114.16 1270.47 2110.78 1270.47 Q2107.4 1270.47 2105.45 1273.16 Q2103.53 1275.82 2103.53 1280.52 Q2103.53 1285.22 2105.45 1287.9 Q2107.4 1290.56 2110.78 1290.56 Q2114.16 1290.56 2116.08 1287.9 Q2118.02 1285.22 2118.02 1280.52 M2103.53 1271.47 Q2104.87 1269.15 2106.91 1268.04 Q2108.97 1266.91 2111.82 1266.91 Q2116.54 1266.91 2119.48 1270.66 Q2122.44 1274.41 2122.44 1280.52 Q2122.44 1286.63 2119.48 1290.38 Q2116.54 1294.13 2111.82 1294.13 Q2108.97 1294.13 2106.91 1293.02 Q2104.87 1291.88 2103.53 1289.57 L2103.53 1293.46 L2099.25 1293.46 L2099.25 1257.44 L2103.53 1257.44 L2103.53 1271.47 Z" fill="#000000" fill-rule="nonzero" fill-opacity="1" /><path clip-path="url(#clip170)" d="M2139.55 1270.52 Q2136.12 1270.52 2134.13 1273.2 Q2132.14 1275.86 2132.14 1280.52 Q2132.14 1285.17 2134.11 1287.85 Q2136.1 1290.52 2139.55 1290.52 Q2142.95 1290.52 2144.94 1287.83 Q2146.93 1285.15 2146.93 1280.52 Q2146.93 1275.91 2144.94 1273.22 Q2142.95 1270.52 2139.55 1270.52 M2139.55 1266.91 Q2145.1 1266.91 2148.28 1270.52 Q2151.45 1274.13 2151.45 1280.52 Q2151.45 1286.88 2148.28 1290.52 Q2145.1 1294.13 2139.55 1294.13 Q2133.97 1294.13 2130.8 1290.52 Q2127.65 1286.88 2127.65 1280.52 Q2127.65 1274.13 2130.8 1270.52 Q2133.97 1266.91 2139.55 1266.91 Z" fill="#000000" fill-rule="nonzero" fill-opacity="1" /><path clip-path="url(#clip170)" d="M2158.07 1283.22 L2158.07 1267.53 L2162.33 1267.53 L2162.33 1283.06 Q2162.33 1286.74 2163.76 1288.6 Q2165.2 1290.42 2168.07 1290.42 Q2171.52 1290.42 2173.51 1288.22 Q2175.52 1286.03 2175.52 1282.23 L2175.52 1267.53 L2179.78 1267.53 L2179.78 1293.46 L2175.52 1293.46 L2175.52 1289.47 Q2173.97 1291.84 2171.91 1292.99 Q2169.87 1294.13 2167.17 1294.13 Q2162.7 1294.13 2160.38 1291.35 Q2158.07 1288.57 2158.07 1283.22 M2168.79 1266.91 L2168.79 1266.91 Z" fill="#000000" fill-rule="nonzero" fill-opacity="1" /><path clip-path="url(#clip170)" d="M2210.1 1277.81 L2210.1 1293.46 L2205.85 1293.46 L2205.85 1277.95 Q2205.85 1274.27 2204.41 1272.44 Q2202.97 1270.61 2200.1 1270.61 Q2196.66 1270.61 2194.66 1272.81 Q2192.67 1275.01 2192.67 1278.8 L2192.67 1293.46 L2188.39 1293.46 L2188.39 1267.53 L2192.67 1267.53 L2192.67 1271.56 Q2194.2 1269.22 2196.26 1268.06 Q2198.35 1266.91 2201.05 1266.91 Q2205.52 1266.91 2207.81 1269.68 Q2210.1 1272.44 2210.1 1277.81 Z" fill="#000000" fill-rule="nonzero" fill-opacity="1" /><path clip-path="url(#clip170)" d="M2235.66 1271.47 L2235.66 1257.44 L2239.92 1257.44 L2239.92 1293.46 L2235.66 1293.46 L2235.66 1289.57 Q2234.32 1291.88 2232.26 1293.02 Q2230.22 1294.13 2227.35 1294.13 Q2222.65 1294.13 2219.69 1290.38 Q2216.75 1286.63 2216.75 1280.52 Q2216.75 1274.41 2219.69 1270.66 Q2222.65 1266.91 2227.35 1266.91 Q2230.22 1266.91 2232.26 1268.04 Q2234.32 1269.15 2235.66 1271.47 M2221.15 1280.52 Q2221.15 1285.22 2223.07 1287.9 Q2225.01 1290.56 2228.39 1290.56 Q2231.77 1290.56 2233.72 1287.9 Q2235.66 1285.22 2235.66 1280.52 Q2235.66 1275.82 2233.72 1273.16 Q2231.77 1270.47 2228.39 1270.47 Q2225.01 1270.47 2223.07 1273.16 Q2221.15 1275.82 2221.15 1280.52 Z" fill="#000000" fill-rule="nonzero" fill-opacity="1" /><path clip-path="url(#clip170)" d="M2248.02 1257.48 L2251.72 1257.48 Q2255.2 1262.95 2256.91 1268.18 Q2258.65 1273.41 2258.65 1278.57 Q2258.65 1283.76 2256.91 1289.01 Q2255.2 1294.27 2251.72 1299.71 L2248.02 1299.71 Q2251.1 1294.41 2252.6 1289.17 Q2254.13 1283.92 2254.13 1278.57 Q2254.13 1273.22 2252.6 1268.02 Q2251.1 1262.81 2248.02 1257.48 Z" fill="#000000" fill-rule="nonzero" fill-opacity="1" /><polyline clip-path="url(#clip170)" style="stroke:#ff8c00; stroke-linecap:round; stroke-linejoin:round; stroke-width:8; stroke-opacity:1; fill:none" points="1607.85,1328.02 1749.01,1328.02 "/>
<path clip-path="url(#clip170)" d="M1777.21 1314.58 L1777.21 1341.45 L1782.86 1341.45 Q1790.01 1341.45 1793.32 1338.21 Q1796.66 1334.97 1796.66 1327.98 Q1796.66 1321.04 1793.32 1317.82 Q1790.01 1314.58 1782.86 1314.58 L1777.21 1314.58 M1772.54 1310.74 L1782.14 1310.74 Q1792.19 1310.74 1796.89 1314.93 Q1801.59 1319.09 1801.59 1327.98 Q1801.59 1336.92 1796.87 1341.11 Q1792.14 1345.3 1782.14 1345.3 L1772.54 1345.3 L1772.54 1310.74 Z" fill="#000000" fill-rule="nonzero" fill-opacity="1" /><path clip-path="url(#clip170)" d="M1808.42 1335.06 L1808.42 1319.37 L1812.68 1319.37 L1812.68 1334.9 Q1812.68 1338.58 1814.11 1340.44 Q1815.55 1342.26 1818.42 1342.26 Q1821.87 1342.26 1823.86 1340.06 Q1825.87 1337.87 1825.87 1334.07 L1825.87 1319.37 L1830.13 1319.37 L1830.13 1345.3 L1825.87 1345.3 L1825.87 1341.31 Q1824.32 1343.68 1822.26 1344.83 Q1820.22 1345.97 1817.51 1345.97 Q1813.05 1345.97 1810.73 1343.19 Q1808.42 1340.41 1808.42 1335.06 M1819.13 1318.75 L1819.13 1318.75 Z" fill="#000000" fill-rule="nonzero" fill-opacity="1" /><path clip-path="url(#clip170)" d="M1850.69 1332.26 Q1845.52 1332.26 1843.53 1333.44 Q1841.54 1334.63 1841.54 1337.47 Q1841.54 1339.74 1843.02 1341.08 Q1844.53 1342.4 1847.1 1342.4 Q1850.64 1342.4 1852.77 1339.9 Q1854.92 1337.38 1854.92 1333.21 L1854.92 1332.26 L1850.69 1332.26 M1859.18 1330.5 L1859.18 1345.3 L1854.92 1345.3 L1854.92 1341.36 Q1853.46 1343.72 1851.29 1344.86 Q1849.11 1345.97 1845.96 1345.97 Q1841.98 1345.97 1839.62 1343.75 Q1837.28 1341.5 1837.28 1337.75 Q1837.28 1333.38 1840.2 1331.15 Q1843.14 1328.93 1848.95 1328.93 L1854.92 1328.93 L1854.92 1328.51 Q1854.92 1325.57 1852.98 1323.98 Q1851.06 1322.36 1847.56 1322.36 Q1845.34 1322.36 1843.23 1322.89 Q1841.13 1323.42 1839.18 1324.49 L1839.18 1320.55 Q1841.52 1319.65 1843.72 1319.21 Q1845.92 1318.75 1848 1318.75 Q1853.63 1318.75 1856.4 1321.66 Q1859.18 1324.58 1859.18 1330.5 Z" fill="#000000" fill-rule="nonzero" fill-opacity="1" /><path clip-path="url(#clip170)" d="M1867.95 1309.28 L1872.21 1309.28 L1872.21 1345.3 L1867.95 1345.3 L1867.95 1309.28 Z" fill="#000000" fill-rule="nonzero" fill-opacity="1" /><path clip-path="url(#clip170)" d="M1906.43 1309.32 Q1903.32 1314.65 1901.82 1319.86 Q1900.31 1325.06 1900.31 1330.41 Q1900.31 1335.76 1901.82 1341.01 Q1903.35 1346.25 1906.43 1351.55 L1902.72 1351.55 Q1899.25 1346.11 1897.51 1340.85 Q1895.8 1335.6 1895.8 1330.41 Q1895.8 1325.25 1897.51 1320.02 Q1899.23 1314.79 1902.72 1309.32 L1906.43 1309.32 Z" fill="#000000" fill-rule="nonzero" fill-opacity="1" /><path clip-path="url(#clip170)" d="M1914.25 1335.06 L1914.25 1319.37 L1918.51 1319.37 L1918.51 1334.9 Q1918.51 1338.58 1919.94 1340.44 Q1921.38 1342.26 1924.25 1342.26 Q1927.7 1342.26 1929.69 1340.06 Q1931.7 1337.87 1931.7 1334.07 L1931.7 1319.37 L1935.96 1319.37 L1935.96 1345.3 L1931.7 1345.3 L1931.7 1341.31 Q1930.15 1343.68 1928.09 1344.83 Q1926.06 1345.97 1923.35 1345.97 Q1918.88 1345.97 1916.56 1343.19 Q1914.25 1340.41 1914.25 1335.06 M1924.97 1318.75 L1924.97 1318.75 Z" fill="#000000" fill-rule="nonzero" fill-opacity="1" /><path clip-path="url(#clip170)" d="M1948.86 1341.41 L1948.86 1355.16 L1944.57 1355.16 L1944.57 1319.37 L1948.86 1319.37 L1948.86 1323.31 Q1950.2 1320.99 1952.24 1319.88 Q1954.3 1318.75 1957.14 1318.75 Q1961.87 1318.75 1964.8 1322.5 Q1967.77 1326.25 1967.77 1332.36 Q1967.77 1338.47 1964.8 1342.22 Q1961.87 1345.97 1957.14 1345.97 Q1954.3 1345.97 1952.24 1344.86 Q1950.2 1343.72 1948.86 1341.41 M1963.35 1332.36 Q1963.35 1327.66 1961.4 1325 Q1959.48 1322.31 1956.1 1322.31 Q1952.72 1322.31 1950.78 1325 Q1948.86 1327.66 1948.86 1332.36 Q1948.86 1337.06 1950.78 1339.74 Q1952.72 1342.4 1956.1 1342.4 Q1959.48 1342.4 1961.4 1339.74 Q1963.35 1337.06 1963.35 1332.36 Z" fill="#000000" fill-rule="nonzero" fill-opacity="1" /><path clip-path="url(#clip170)" d="M1978.95 1341.41 L1978.95 1355.16 L1974.67 1355.16 L1974.67 1319.37 L1978.95 1319.37 L1978.95 1323.31 Q1980.29 1320.99 1982.33 1319.88 Q1984.39 1318.75 1987.24 1318.75 Q1991.96 1318.75 1994.9 1322.5 Q1997.86 1326.25 1997.86 1332.36 Q1997.86 1338.47 1994.9 1342.22 Q1991.96 1345.97 1987.24 1345.97 Q1984.39 1345.97 1982.33 1344.86 Q1980.29 1343.72 1978.95 1341.41 M1993.44 1332.36 Q1993.44 1327.66 1991.49 1325 Q1989.57 1322.31 1986.19 1322.31 Q1982.81 1322.31 1980.87 1325 Q1978.95 1327.66 1978.95 1332.36 Q1978.95 1337.06 1980.87 1339.74 Q1982.81 1342.4 1986.19 1342.4 Q1989.57 1342.4 1991.49 1339.74 Q1993.44 1337.06 1993.44 1332.36 Z" fill="#000000" fill-rule="nonzero" fill-opacity="1" /><path clip-path="url(#clip170)" d="M2027.1 1331.27 L2027.1 1333.35 L2007.51 1333.35 Q2007.79 1337.75 2010.15 1340.06 Q2012.54 1342.36 2016.77 1342.36 Q2019.23 1342.36 2021.52 1341.75 Q2023.83 1341.15 2026.1 1339.95 L2026.1 1343.98 Q2023.81 1344.95 2021.4 1345.46 Q2018.99 1345.97 2016.52 1345.97 Q2010.31 1345.97 2006.68 1342.36 Q2003.07 1338.75 2003.07 1332.59 Q2003.07 1326.22 2006.49 1322.5 Q2009.94 1318.75 2015.78 1318.75 Q2021.01 1318.75 2024.04 1322.13 Q2027.1 1325.48 2027.1 1331.27 M2022.84 1330.02 Q2022.79 1326.52 2020.87 1324.44 Q2018.97 1322.36 2015.82 1322.36 Q2012.26 1322.36 2010.11 1324.37 Q2007.98 1326.38 2007.65 1330.04 L2022.84 1330.02 Z" fill="#000000" fill-rule="nonzero" fill-opacity="1" /><path clip-path="url(#clip170)" d="M2049.11 1323.35 Q2048.39 1322.94 2047.54 1322.75 Q2046.7 1322.54 2045.68 1322.54 Q2042.07 1322.54 2040.13 1324.9 Q2038.21 1327.24 2038.21 1331.64 L2038.21 1345.3 L2033.92 1345.3 L2033.92 1319.37 L2038.21 1319.37 L2038.21 1323.4 Q2039.55 1321.04 2041.7 1319.9 Q2043.86 1318.75 2046.93 1318.75 Q2047.37 1318.75 2047.91 1318.81 Q2048.44 1318.86 2049.09 1318.98 L2049.11 1323.35 Z" fill="#000000" fill-rule="nonzero" fill-opacity="1" /><path clip-path="url(#clip170)" d="M2087.26 1332.36 Q2087.26 1327.66 2085.31 1325 Q2083.39 1322.31 2080.01 1322.31 Q2076.63 1322.31 2074.69 1325 Q2072.77 1327.66 2072.77 1332.36 Q2072.77 1337.06 2074.69 1339.74 Q2076.63 1342.4 2080.01 1342.4 Q2083.39 1342.4 2085.31 1339.74 Q2087.26 1337.06 2087.26 1332.36 M2072.77 1323.31 Q2074.11 1320.99 2076.15 1319.88 Q2078.21 1318.75 2081.05 1318.75 Q2085.78 1318.75 2088.72 1322.5 Q2091.68 1326.25 2091.68 1332.36 Q2091.68 1338.47 2088.72 1342.22 Q2085.78 1345.97 2081.05 1345.97 Q2078.21 1345.97 2076.15 1344.86 Q2074.11 1343.72 2072.77 1341.41 L2072.77 1345.3 L2068.48 1345.3 L2068.48 1309.28 L2072.77 1309.28 L2072.77 1323.31 Z" fill="#000000" fill-rule="nonzero" fill-opacity="1" /><path clip-path="url(#clip170)" d="M2108.79 1322.36 Q2105.36 1322.36 2103.37 1325.04 Q2101.38 1327.7 2101.38 1332.36 Q2101.38 1337.01 2103.35 1339.69 Q2105.34 1342.36 2108.79 1342.36 Q2112.19 1342.36 2114.18 1339.67 Q2116.17 1336.99 2116.17 1332.36 Q2116.17 1327.75 2114.18 1325.06 Q2112.19 1322.36 2108.79 1322.36 M2108.79 1318.75 Q2114.34 1318.75 2117.51 1322.36 Q2120.68 1325.97 2120.68 1332.36 Q2120.68 1338.72 2117.51 1342.36 Q2114.34 1345.97 2108.79 1345.97 Q2103.21 1345.97 2100.04 1342.36 Q2096.89 1338.72 2096.89 1332.36 Q2096.89 1325.97 2100.04 1322.36 Q2103.21 1318.75 2108.79 1318.75 Z" fill="#000000" fill-rule="nonzero" fill-opacity="1" /><path clip-path="url(#clip170)" d="M2127.3 1335.06 L2127.3 1319.37 L2131.56 1319.37 L2131.56 1334.9 Q2131.56 1338.58 2133 1340.44 Q2134.43 1342.26 2137.3 1342.26 Q2140.75 1342.26 2142.74 1340.06 Q2144.76 1337.87 2144.76 1334.07 L2144.76 1319.37 L2149.02 1319.37 L2149.02 1345.3 L2144.76 1345.3 L2144.76 1341.31 Q2143.21 1343.68 2141.15 1344.83 Q2139.11 1345.97 2136.4 1345.97 Q2131.93 1345.97 2129.62 1343.19 Q2127.3 1340.41 2127.3 1335.06 M2138.02 1318.75 L2138.02 1318.75 Z" fill="#000000" fill-rule="nonzero" fill-opacity="1" /><path clip-path="url(#clip170)" d="M2179.34 1329.65 L2179.34 1345.3 L2175.08 1345.3 L2175.08 1329.79 Q2175.08 1326.11 2173.65 1324.28 Q2172.21 1322.45 2169.34 1322.45 Q2165.89 1322.45 2163.9 1324.65 Q2161.91 1326.85 2161.91 1330.64 L2161.91 1345.3 L2157.63 1345.3 L2157.63 1319.37 L2161.91 1319.37 L2161.91 1323.4 Q2163.44 1321.06 2165.5 1319.9 Q2167.58 1318.75 2170.29 1318.75 Q2174.76 1318.75 2177.05 1321.52 Q2179.34 1324.28 2179.34 1329.65 Z" fill="#000000" fill-rule="nonzero" fill-opacity="1" /><path clip-path="url(#clip170)" d="M2204.9 1323.31 L2204.9 1309.28 L2209.16 1309.28 L2209.16 1345.3 L2204.9 1345.3 L2204.9 1341.41 Q2203.55 1343.72 2201.49 1344.86 Q2199.46 1345.97 2196.59 1345.97 Q2191.89 1345.97 2188.92 1342.22 Q2185.98 1338.47 2185.98 1332.36 Q2185.98 1326.25 2188.92 1322.5 Q2191.89 1318.75 2196.59 1318.75 Q2199.46 1318.75 2201.49 1319.88 Q2203.55 1320.99 2204.9 1323.31 M2190.38 1332.36 Q2190.38 1337.06 2192.3 1339.74 Q2194.25 1342.4 2197.63 1342.4 Q2201.01 1342.4 2202.95 1339.74 Q2204.9 1337.06 2204.9 1332.36 Q2204.9 1327.66 2202.95 1325 Q2201.01 1322.31 2197.63 1322.31 Q2194.25 1322.31 2192.3 1325 Q2190.38 1327.66 2190.38 1332.36 Z" fill="#000000" fill-rule="nonzero" fill-opacity="1" /><path clip-path="url(#clip170)" d="M2217.26 1309.32 L2220.96 1309.32 Q2224.43 1314.79 2226.15 1320.02 Q2227.88 1325.25 2227.88 1330.41 Q2227.88 1335.6 2226.15 1340.85 Q2224.43 1346.11 2220.96 1351.55 L2217.26 1351.55 Q2220.34 1346.25 2221.84 1341.01 Q2223.37 1335.76 2223.37 1330.41 Q2223.37 1325.06 2221.84 1319.86 Q2220.34 1314.65 2217.26 1309.32 Z" fill="#000000" fill-rule="nonzero" fill-opacity="1" /></svg>
