<?xml version="1.0" encoding="utf-8"?>
<svg xmlns="http://www.w3.org/2000/svg" xmlns:xlink="http://www.w3.org/1999/xlink" width="600" height="400" viewBox="0 0 2400 1600">
<defs>
  <clipPath id="clip240">
    <rect x="0" y="0" width="2400" height="1600"/>
  </clipPath>
</defs>
<path clip-path="url(#clip240)" d="M0 1600 L2400 1600 L2400 0 L0 0  Z" fill="#ffffff" fill-rule="evenodd" fill-opacity="1"/>
<defs>
  <clipPath id="clip241">
    <rect x="232" y="123" width="2121" height="1301"/>
  </clipPath>
</defs>
<path clip-path="url(#clip240)" d="M232.389 1423.18 L2352.76 1423.18 L2352.76 123.472 L232.389 123.472  Z" fill="#ffffff" fill-rule="evenodd" fill-opacity="1"/>
<polyline clip-path="url(#clip241)" style="stroke:#000000; stroke-linecap:round; stroke-linejoin:round; stroke-width:2; stroke-opacity:0.1; fill:none" points="292.4,1423.18 292.4,123.472 "/>
<polyline clip-path="url(#clip241)" style="stroke:#000000; stroke-linecap:round; stroke-linejoin:round; stroke-width:2; stroke-opacity:0.1; fill:none" points="792.486,1423.18 792.486,123.472 "/>
<polyline clip-path="url(#clip241)" style="stroke:#000000; stroke-linecap:round; stroke-linejoin:round; stroke-width:2; stroke-opacity:0.1; fill:none" points="1292.57,1423.18 1292.57,123.472 "/>
<polyline clip-path="url(#clip241)" style="stroke:#000000; stroke-linecap:round; stroke-linejoin:round; stroke-width:2; stroke-opacity:0.1; fill:none" points="1792.66,1423.18 1792.66,123.472 "/>
<polyline clip-path="url(#clip241)" style="stroke:#000000; stroke-linecap:round; stroke-linejoin:round; stroke-width:2; stroke-opacity:0.1; fill:none" points="2292.75,1423.18 2292.75,123.472 "/>
<polyline clip-path="url(#clip241)" style="stroke:#000000; stroke-linecap:round; stroke-linejoin:round; stroke-width:2; stroke-opacity:0.1; fill:none" points="232.389,1386.4 2352.76,1386.4 "/>
<polyline clip-path="url(#clip241)" style="stroke:#000000; stroke-linecap:round; stroke-linejoin:round; stroke-width:2; stroke-opacity:0.1; fill:none" points="232.389,977.683 2352.76,977.683 "/>
<polyline clip-path="url(#clip241)" style="stroke:#000000; stroke-linecap:round; stroke-linejoin:round; stroke-width:2; stroke-opacity:0.1; fill:none" points="232.389,568.969 2352.76,568.969 "/>
<polyline clip-path="url(#clip241)" style="stroke:#000000; stroke-linecap:round; stroke-linejoin:round; stroke-width:2; stroke-opacity:0.1; fill:none" points="232.389,160.256 2352.76,160.256 "/>
<polyline clip-path="url(#clip240)" style="stroke:#000000; stroke-linecap:round; stroke-linejoin:round; stroke-width:4; stroke-opacity:1; fill:none" points="232.389,1423.18 2352.76,1423.18 "/>
<polyline clip-path="url(#clip240)" style="stroke:#000000; stroke-linecap:round; stroke-linejoin:round; stroke-width:4; stroke-opacity:1; fill:none" points="292.4,1423.18 292.4,1404.28 "/>
<polyline clip-path="url(#clip240)" style="stroke:#000000; stroke-linecap:round; stroke-linejoin:round; stroke-width:4; stroke-opacity:1; fill:none" points="792.486,1423.18 792.486,1404.28 "/>
<polyline clip-path="url(#clip240)" style="stroke:#000000; stroke-linecap:round; stroke-linejoin:round; stroke-width:4; stroke-opacity:1; fill:none" points="1292.57,1423.18 1292.57,1404.28 "/>
<polyline clip-path="url(#clip240)" style="stroke:#000000; stroke-linecap:round; stroke-linejoin:round; stroke-width:4; stroke-opacity:1; fill:none" points="1792.66,1423.18 1792.66,1404.28 "/>
<polyline clip-path="url(#clip240)" style="stroke:#000000; stroke-linecap:round; stroke-linejoin:round; stroke-width:4; stroke-opacity:1; fill:none" points="2292.75,1423.18 2292.75,1404.28 "/>
<path clip-path="url(#clip240)" d="M277.272 1469.17 Q273.939 1469.17 272.018 1470.95 Q270.12 1472.73 270.12 1475.86 Q270.12 1478.98 272.018 1480.77 Q273.939 1482.55 277.272 1482.55 Q280.606 1482.55 282.527 1480.77 Q284.448 1478.96 284.448 1475.86 Q284.448 1472.73 282.527 1470.95 Q280.629 1469.17 277.272 1469.17 M272.597 1467.18 Q269.587 1466.44 267.898 1464.38 Q266.231 1462.32 266.231 1459.35 Q266.231 1455.21 269.171 1452.8 Q272.134 1450.39 277.272 1450.39 Q282.434 1450.39 285.374 1452.8 Q288.314 1455.21 288.314 1459.35 Q288.314 1462.32 286.624 1464.38 Q284.958 1466.44 281.972 1467.18 Q285.351 1467.96 287.226 1470.26 Q289.124 1472.55 289.124 1475.86 Q289.124 1480.88 286.046 1483.57 Q282.99 1486.25 277.272 1486.25 Q271.555 1486.25 268.476 1483.57 Q265.421 1480.88 265.421 1475.86 Q265.421 1472.55 267.319 1470.26 Q269.217 1467.96 272.597 1467.18 M270.884 1459.79 Q270.884 1462.48 272.55 1463.98 Q274.24 1465.49 277.272 1465.49 Q280.282 1465.49 281.972 1463.98 Q283.684 1462.48 283.684 1459.79 Q283.684 1457.11 281.972 1455.6 Q280.282 1454.1 277.272 1454.1 Q274.24 1454.1 272.55 1455.6 Q270.884 1457.11 270.884 1459.79 Z" fill="#000000" fill-rule="nonzero" fill-opacity="1" /><path clip-path="url(#clip240)" d="M307.434 1454.1 Q303.823 1454.1 301.995 1457.66 Q300.189 1461.2 300.189 1468.33 Q300.189 1475.44 301.995 1479.01 Q303.823 1482.55 307.434 1482.55 Q311.069 1482.55 312.874 1479.01 Q314.703 1475.44 314.703 1468.33 Q314.703 1461.2 312.874 1457.66 Q311.069 1454.1 307.434 1454.1 M307.434 1450.39 Q313.245 1450.39 316.3 1455 Q319.379 1459.58 319.379 1468.33 Q319.379 1477.06 316.3 1481.67 Q313.245 1486.25 307.434 1486.25 Q301.624 1486.25 298.546 1481.67 Q295.49 1477.06 295.49 1468.33 Q295.49 1459.58 298.546 1455 Q301.624 1450.39 307.434 1450.39 Z" fill="#000000" fill-rule="nonzero" fill-opacity="1" /><path clip-path="url(#clip240)" d="M767.614 1484.86 L767.614 1480.6 Q769.373 1481.44 771.178 1481.88 Q772.984 1482.32 774.72 1482.32 Q779.35 1482.32 781.78 1479.21 Q784.234 1476.09 784.581 1469.75 Q783.239 1471.74 781.178 1472.8 Q779.118 1473.87 776.618 1473.87 Q771.433 1473.87 768.401 1470.74 Q765.391 1467.59 765.391 1462.15 Q765.391 1456.83 768.54 1453.61 Q771.688 1450.39 776.919 1450.39 Q782.914 1450.39 786.063 1455 Q789.234 1459.58 789.234 1468.33 Q789.234 1476.51 785.345 1481.39 Q781.479 1486.25 774.928 1486.25 Q773.169 1486.25 771.364 1485.9 Q769.558 1485.56 767.614 1484.86 M776.919 1470.21 Q780.067 1470.21 781.896 1468.06 Q783.748 1465.9 783.748 1462.15 Q783.748 1458.43 781.896 1456.27 Q780.067 1454.1 776.919 1454.1 Q773.771 1454.1 771.919 1456.27 Q770.09 1458.43 770.09 1462.15 Q770.09 1465.9 771.919 1468.06 Q773.771 1470.21 776.919 1470.21 Z" fill="#000000" fill-rule="nonzero" fill-opacity="1" /><path clip-path="url(#clip240)" d="M807.637 1454.1 Q804.025 1454.1 802.197 1457.66 Q800.391 1461.2 800.391 1468.33 Q800.391 1475.44 802.197 1479.01 Q804.025 1482.55 807.637 1482.55 Q811.271 1482.55 813.076 1479.01 Q814.905 1475.44 814.905 1468.33 Q814.905 1461.2 813.076 1457.66 Q811.271 1454.1 807.637 1454.1 M807.637 1450.39 Q813.447 1450.39 816.502 1455 Q819.581 1459.58 819.581 1468.33 Q819.581 1477.06 816.502 1481.67 Q813.447 1486.25 807.637 1486.25 Q801.826 1486.25 798.748 1481.67 Q795.692 1477.06 795.692 1468.33 Q795.692 1459.58 798.748 1455 Q801.826 1450.39 807.637 1450.39 Z" fill="#000000" fill-rule="nonzero" fill-opacity="1" /><path clip-path="url(#clip240)" d="M1252.18 1481.64 L1259.82 1481.64 L1259.82 1455.28 L1251.51 1456.95 L1251.51 1452.69 L1259.77 1451.02 L1264.45 1451.02 L1264.45 1481.64 L1272.09 1481.64 L1272.09 1485.58 L1252.18 1485.58 L1252.18 1481.64 Z" fill="#000000" fill-rule="nonzero" fill-opacity="1" /><path clip-path="url(#clip240)" d="M1291.53 1454.1 Q1287.92 1454.1 1286.09 1457.66 Q1284.29 1461.2 1284.29 1468.33 Q1284.29 1475.44 1286.09 1479.01 Q1287.92 1482.55 1291.53 1482.55 Q1295.17 1482.55 1296.97 1479.01 Q1298.8 1475.44 1298.8 1468.33 Q1298.8 1461.2 1296.97 1457.66 Q1295.17 1454.1 1291.53 1454.1 M1291.53 1450.39 Q1297.34 1450.39 1300.4 1455 Q1303.48 1459.58 1303.48 1468.33 Q1303.48 1477.06 1300.4 1481.67 Q1297.34 1486.25 1291.53 1486.25 Q1285.72 1486.25 1282.64 1481.67 Q1279.59 1477.06 1279.59 1468.33 Q1279.59 1459.58 1282.64 1455 Q1285.72 1450.39 1291.53 1450.39 Z" fill="#000000" fill-rule="nonzero" fill-opacity="1" /><path clip-path="url(#clip240)" d="M1321.69 1454.1 Q1318.08 1454.1 1316.25 1457.66 Q1314.45 1461.2 1314.45 1468.33 Q1314.45 1475.44 1316.25 1479.01 Q1318.08 1482.55 1321.69 1482.55 Q1325.33 1482.55 1327.13 1479.01 Q1328.96 1475.44 1328.96 1468.33 Q1328.96 1461.2 1327.13 1457.66 Q1325.33 1454.1 1321.69 1454.1 M1321.69 1450.39 Q1327.5 1450.39 1330.56 1455 Q1333.64 1459.58 1333.64 1468.33 Q1333.64 1477.06 1330.56 1481.67 Q1327.5 1486.25 1321.69 1486.25 Q1315.88 1486.25 1312.8 1481.67 Q1309.75 1477.06 1309.75 1468.33 Q1309.75 1459.58 1312.8 1455 Q1315.88 1450.39 1321.69 1450.39 Z" fill="#000000" fill-rule="nonzero" fill-opacity="1" /><path clip-path="url(#clip240)" d="M1752.27 1481.64 L1759.9 1481.64 L1759.9 1455.28 L1751.59 1456.95 L1751.59 1452.69 L1759.86 1451.02 L1764.53 1451.02 L1764.53 1481.64 L1772.17 1481.64 L1772.17 1485.58 L1752.27 1485.58 L1752.27 1481.64 Z" fill="#000000" fill-rule="nonzero" fill-opacity="1" /><path clip-path="url(#clip240)" d="M1782.43 1481.64 L1790.07 1481.64 L1790.07 1455.28 L1781.76 1456.95 L1781.76 1452.69 L1790.02 1451.02 L1794.7 1451.02 L1794.7 1481.64 L1802.33 1481.64 L1802.33 1485.58 L1782.43 1485.58 L1782.43 1481.64 Z" fill="#000000" fill-rule="nonzero" fill-opacity="1" /><path clip-path="url(#clip240)" d="M1821.78 1454.1 Q1818.17 1454.1 1816.34 1457.66 Q1814.53 1461.2 1814.53 1468.33 Q1814.53 1475.44 1816.34 1479.01 Q1818.17 1482.55 1821.78 1482.55 Q1825.41 1482.55 1827.22 1479.01 Q1829.05 1475.44 1829.05 1468.33 Q1829.05 1461.2 1827.22 1457.66 Q1825.41 1454.1 1821.78 1454.1 M1821.78 1450.39 Q1827.59 1450.39 1830.64 1455 Q1833.72 1459.58 1833.72 1468.33 Q1833.72 1477.06 1830.64 1481.67 Q1827.59 1486.25 1821.78 1486.25 Q1815.97 1486.25 1812.89 1481.67 Q1809.83 1477.06 1809.83 1468.33 Q1809.83 1459.58 1812.89 1455 Q1815.97 1450.39 1821.78 1450.39 Z" fill="#000000" fill-rule="nonzero" fill-opacity="1" /><path clip-path="url(#clip240)" d="M2252.35 1481.64 L2259.99 1481.64 L2259.99 1455.28 L2251.68 1456.95 L2251.68 1452.69 L2259.94 1451.02 L2264.62 1451.02 L2264.62 1481.64 L2272.26 1481.64 L2272.26 1485.58 L2252.35 1485.58 L2252.35 1481.64 Z" fill="#000000" fill-rule="nonzero" fill-opacity="1" /><path clip-path="url(#clip240)" d="M2285.73 1481.64 L2302.05 1481.64 L2302.05 1485.58 L2280.11 1485.58 L2280.11 1481.64 Q2282.77 1478.89 2287.35 1474.26 Q2291.96 1469.61 2293.14 1468.27 Q2295.38 1465.74 2296.26 1464.01 Q2297.17 1462.25 2297.17 1460.56 Q2297.17 1457.8 2295.22 1456.07 Q2293.3 1454.33 2290.2 1454.33 Q2288 1454.33 2285.55 1455.09 Q2283.12 1455.86 2280.34 1457.41 L2280.34 1452.69 Q2283.16 1451.55 2285.62 1450.97 Q2288.07 1450.39 2290.11 1450.39 Q2295.48 1450.39 2298.67 1453.08 Q2301.87 1455.77 2301.87 1460.26 Q2301.87 1462.39 2301.06 1464.31 Q2300.27 1466.2 2298.16 1468.8 Q2297.58 1469.47 2294.48 1472.69 Q2291.38 1475.88 2285.73 1481.64 Z" fill="#000000" fill-rule="nonzero" fill-opacity="1" /><path clip-path="url(#clip240)" d="M2321.87 1454.1 Q2318.25 1454.1 2316.43 1457.66 Q2314.62 1461.2 2314.62 1468.33 Q2314.62 1475.44 2316.43 1479.01 Q2318.25 1482.55 2321.87 1482.55 Q2325.5 1482.55 2327.31 1479.01 Q2329.13 1475.44 2329.13 1468.33 Q2329.13 1461.2 2327.31 1457.66 Q2325.5 1454.1 2321.87 1454.1 M2321.87 1450.39 Q2327.68 1450.39 2330.73 1455 Q2333.81 1459.58 2333.81 1468.33 Q2333.81 1477.06 2330.73 1481.67 Q2327.68 1486.25 2321.87 1486.25 Q2316.06 1486.25 2312.98 1481.67 Q2309.92 1477.06 2309.92 1468.33 Q2309.92 1459.58 2312.98 1455 Q2316.06 1450.39 2321.87 1450.39 Z" fill="#000000" fill-rule="nonzero" fill-opacity="1" /><path clip-path="url(#clip240)" d="M1166.95 1525.81 L1166.95 1562.76 L1174.71 1562.76 Q1184.55 1562.76 1189.1 1558.3 Q1193.68 1553.85 1193.68 1544.24 Q1193.68 1534.69 1189.1 1530.26 Q1184.55 1525.81 1174.71 1525.81 L1166.95 1525.81 M1160.52 1520.52 L1173.72 1520.52 Q1187.54 1520.52 1194 1526.28 Q1200.46 1532.01 1200.46 1544.24 Q1200.46 1556.52 1193.97 1562.28 Q1187.47 1568.04 1173.72 1568.04 L1160.52 1568.04 L1160.52 1520.52 Z" fill="#000000" fill-rule="nonzero" fill-opacity="1" /><path clip-path="url(#clip240)" d="M1240.95 1548.76 L1240.95 1551.62 L1214.02 1551.62 Q1214.4 1557.67 1217.65 1560.85 Q1220.93 1564 1226.75 1564 Q1230.13 1564 1233.28 1563.17 Q1236.46 1562.35 1239.58 1560.69 L1239.58 1566.23 Q1236.43 1567.57 1233.12 1568.27 Q1229.81 1568.97 1226.4 1568.97 Q1217.87 1568.97 1212.87 1564 Q1207.91 1559.04 1207.91 1550.57 Q1207.91 1541.82 1212.62 1536.69 Q1217.36 1531.54 1225.38 1531.54 Q1232.58 1531.54 1236.75 1536.18 Q1240.95 1540.8 1240.95 1548.76 M1235.09 1547.04 Q1235.03 1542.23 1232.38 1539.37 Q1229.77 1536.5 1225.45 1536.5 Q1220.54 1536.5 1217.58 1539.27 Q1214.66 1542.04 1214.21 1547.07 L1235.09 1547.04 Z" fill="#000000" fill-rule="nonzero" fill-opacity="1" /><path clip-path="url(#clip240)" d="M1278.31 1539.24 Q1280.51 1535.29 1283.57 1533.41 Q1286.62 1531.54 1290.76 1531.54 Q1296.33 1531.54 1299.35 1535.45 Q1302.38 1539.33 1302.38 1546.53 L1302.38 1568.04 L1296.49 1568.04 L1296.49 1546.72 Q1296.49 1541.59 1294.67 1539.11 Q1292.86 1536.63 1289.14 1536.63 Q1284.58 1536.63 1281.94 1539.65 Q1279.3 1542.68 1279.3 1547.9 L1279.3 1568.04 L1273.41 1568.04 L1273.41 1546.72 Q1273.41 1541.56 1271.6 1539.11 Q1269.78 1536.63 1266 1536.63 Q1261.51 1536.63 1258.87 1539.68 Q1256.22 1542.71 1256.22 1547.9 L1256.22 1568.04 L1250.34 1568.04 L1250.34 1532.4 L1256.22 1532.4 L1256.22 1537.93 Q1258.23 1534.66 1261.03 1533.1 Q1263.83 1531.54 1267.68 1531.54 Q1271.57 1531.54 1274.27 1533.51 Q1277.01 1535.48 1278.31 1539.24 Z" fill="#000000" fill-rule="nonzero" fill-opacity="1" /><path clip-path="url(#clip240)" d="M1330.26 1550.12 Q1323.16 1550.12 1320.42 1551.75 Q1317.69 1553.37 1317.69 1557.29 Q1317.69 1560.4 1319.72 1562.25 Q1321.79 1564.07 1325.32 1564.07 Q1330.19 1564.07 1333.12 1560.63 Q1336.08 1557.16 1336.08 1551.43 L1336.08 1550.12 L1330.26 1550.12 M1341.94 1547.71 L1341.94 1568.04 L1336.08 1568.04 L1336.08 1562.63 Q1334.08 1565.88 1331.09 1567.44 Q1328.09 1568.97 1323.76 1568.97 Q1318.29 1568.97 1315.04 1565.91 Q1311.83 1562.82 1311.83 1557.67 Q1311.83 1551.65 1315.84 1548.6 Q1319.88 1545.54 1327.87 1545.54 L1336.08 1545.54 L1336.08 1544.97 Q1336.08 1540.93 1333.41 1538.73 Q1330.77 1536.5 1325.96 1536.5 Q1322.91 1536.5 1320.01 1537.23 Q1317.11 1537.97 1314.44 1539.43 L1314.44 1534.02 Q1317.65 1532.78 1320.68 1532.17 Q1323.7 1531.54 1326.57 1531.54 Q1334.3 1531.54 1338.12 1535.55 Q1341.94 1539.56 1341.94 1547.71 Z" fill="#000000" fill-rule="nonzero" fill-opacity="1" /><path clip-path="url(#clip240)" d="M1383.63 1546.53 L1383.63 1568.04 L1377.78 1568.04 L1377.78 1546.72 Q1377.78 1541.66 1375.8 1539.14 Q1373.83 1536.63 1369.88 1536.63 Q1365.14 1536.63 1362.4 1539.65 Q1359.67 1542.68 1359.67 1547.9 L1359.67 1568.04 L1353.78 1568.04 L1353.78 1532.4 L1359.67 1532.4 L1359.67 1537.93 Q1361.77 1534.72 1364.6 1533.13 Q1367.47 1531.54 1371.19 1531.54 Q1377.33 1531.54 1380.48 1535.36 Q1383.63 1539.14 1383.63 1546.53 Z" fill="#000000" fill-rule="nonzero" fill-opacity="1" /><path clip-path="url(#clip240)" d="M1418.77 1537.81 L1418.77 1518.52 L1424.63 1518.52 L1424.63 1568.04 L1418.77 1568.04 L1418.77 1562.7 Q1416.93 1565.88 1414.09 1567.44 Q1411.29 1568.97 1407.35 1568.97 Q1400.89 1568.97 1396.81 1563.81 Q1392.77 1558.65 1392.77 1550.25 Q1392.77 1541.85 1396.81 1536.69 Q1400.89 1531.54 1407.35 1531.54 Q1411.29 1531.54 1414.09 1533.1 Q1416.93 1534.62 1418.77 1537.81 M1398.82 1550.25 Q1398.82 1556.71 1401.46 1560.4 Q1404.13 1564.07 1408.78 1564.07 Q1413.43 1564.07 1416.1 1560.4 Q1418.77 1556.71 1418.77 1550.25 Q1418.77 1543.79 1416.1 1540.13 Q1413.43 1536.44 1408.78 1536.44 Q1404.13 1536.44 1401.46 1540.13 Q1398.82 1543.79 1398.82 1550.25 Z" fill="#000000" fill-rule="nonzero" fill-opacity="1" /><polyline clip-path="url(#clip240)" style="stroke:#000000; stroke-linecap:round; stroke-linejoin:round; stroke-width:4; stroke-opacity:1; fill:none" points="232.389,1423.18 232.389,123.472 "/>
<polyline clip-path="url(#clip240)" style="stroke:#000000; stroke-linecap:round; stroke-linejoin:round; stroke-width:4; stroke-opacity:1; fill:none" points="232.389,1386.4 251.287,1386.4 "/>
<polyline clip-path="url(#clip240)" style="stroke:#000000; stroke-linecap:round; stroke-linejoin:round; stroke-width:4; stroke-opacity:1; fill:none" points="232.389,977.683 251.287,977.683 "/>
<polyline clip-path="url(#clip240)" style="stroke:#000000; stroke-linecap:round; stroke-linejoin:round; stroke-width:4; stroke-opacity:1; fill:none" points="232.389,568.969 251.287,568.969 "/>
<polyline clip-path="url(#clip240)" style="stroke:#000000; stroke-linecap:round; stroke-linejoin:round; stroke-width:4; stroke-opacity:1; fill:none" points="232.389,160.256 251.287,160.256 "/>
<path clip-path="url(#clip240)" d="M154.283 1387.26 Q150.95 1387.26 149.028 1389.05 Q147.13 1390.83 147.13 1393.95 Q147.13 1397.08 149.028 1398.86 Q150.95 1400.64 154.283 1400.64 Q157.616 1400.64 159.538 1398.86 Q161.459 1397.06 161.459 1393.95 Q161.459 1390.83 159.538 1389.05 Q157.64 1387.26 154.283 1387.26 M149.607 1385.27 Q146.598 1384.53 144.908 1382.47 Q143.241 1380.41 143.241 1377.45 Q143.241 1373.31 146.181 1370.9 Q149.144 1368.49 154.283 1368.49 Q159.445 1368.49 162.385 1370.9 Q165.325 1373.31 165.325 1377.45 Q165.325 1380.41 163.635 1382.47 Q161.968 1384.53 158.982 1385.27 Q162.362 1386.06 164.237 1388.35 Q166.135 1390.64 166.135 1393.95 Q166.135 1398.98 163.056 1401.66 Q160.001 1404.35 154.283 1404.35 Q148.566 1404.35 145.487 1401.66 Q142.431 1398.98 142.431 1393.95 Q142.431 1390.64 144.329 1388.35 Q146.228 1386.06 149.607 1385.27 M147.894 1377.89 Q147.894 1380.57 149.561 1382.08 Q151.251 1383.58 154.283 1383.58 Q157.292 1383.58 158.982 1382.08 Q160.695 1380.57 160.695 1377.89 Q160.695 1375.2 158.982 1373.7 Q157.292 1372.19 154.283 1372.19 Q151.251 1372.19 149.561 1373.7 Q147.894 1375.2 147.894 1377.89 Z" fill="#000000" fill-rule="nonzero" fill-opacity="1" /><path clip-path="url(#clip240)" d="M184.445 1372.19 Q180.834 1372.19 179.005 1375.76 Q177.2 1379.3 177.2 1386.43 Q177.2 1393.54 179.005 1397.1 Q180.834 1400.64 184.445 1400.64 Q188.079 1400.64 189.885 1397.1 Q191.713 1393.54 191.713 1386.43 Q191.713 1379.3 189.885 1375.76 Q188.079 1372.19 184.445 1372.19 M184.445 1368.49 Q190.255 1368.49 193.311 1373.1 Q196.389 1377.68 196.389 1386.43 Q196.389 1395.16 193.311 1399.76 Q190.255 1404.35 184.445 1404.35 Q178.635 1404.35 175.556 1399.76 Q172.501 1395.16 172.501 1386.43 Q172.501 1377.68 175.556 1373.1 Q178.635 1368.49 184.445 1368.49 Z" fill="#000000" fill-rule="nonzero" fill-opacity="1" /><path clip-path="url(#clip240)" d="M144.422 994.245 L144.422 989.986 Q146.181 990.819 147.987 991.259 Q149.792 991.699 151.528 991.699 Q156.158 991.699 158.589 988.597 Q161.042 985.472 161.39 979.129 Q160.047 981.12 157.987 982.185 Q155.927 983.25 153.427 983.25 Q148.241 983.25 145.209 980.125 Q142.2 976.977 142.2 971.537 Q142.2 966.213 145.348 962.995 Q148.496 959.778 153.728 959.778 Q159.723 959.778 162.871 964.384 Q166.042 968.967 166.042 977.717 Q166.042 985.889 162.153 990.773 Q158.288 995.634 151.737 995.634 Q149.978 995.634 148.172 995.287 Q146.366 994.939 144.422 994.245 M153.728 979.592 Q156.876 979.592 158.704 977.439 Q160.556 975.287 160.556 971.537 Q160.556 967.81 158.704 965.657 Q156.876 963.481 153.728 963.481 Q150.579 963.481 148.728 965.657 Q146.899 967.81 146.899 971.537 Q146.899 975.287 148.728 977.439 Q150.579 979.592 153.728 979.592 Z" fill="#000000" fill-rule="nonzero" fill-opacity="1" /><path clip-path="url(#clip240)" d="M184.445 963.481 Q180.834 963.481 179.005 967.046 Q177.2 970.588 177.2 977.717 Q177.2 984.824 179.005 988.389 Q180.834 991.93 184.445 991.93 Q188.079 991.93 189.885 988.389 Q191.713 984.824 191.713 977.717 Q191.713 970.588 189.885 967.046 Q188.079 963.481 184.445 963.481 M184.445 959.778 Q190.255 959.778 193.311 964.384 Q196.389 968.967 196.389 977.717 Q196.389 986.444 193.311 991.051 Q190.255 995.634 184.445 995.634 Q178.635 995.634 175.556 991.051 Q172.501 986.444 172.501 977.717 Q172.501 968.967 175.556 964.384 Q178.635 959.778 184.445 959.778 Z" fill="#000000" fill-rule="nonzero" fill-opacity="1" /><path clip-path="url(#clip240)" d="M114.931 582.314 L122.57 582.314 L122.57 555.949 L114.26 557.615 L114.26 553.356 L122.524 551.689 L127.2 551.689 L127.2 582.314 L134.839 582.314 L134.839 586.249 L114.931 586.249 L114.931 582.314 Z" fill="#000000" fill-rule="nonzero" fill-opacity="1" /><path clip-path="url(#clip240)" d="M154.283 554.768 Q150.672 554.768 148.843 558.333 Q147.038 561.875 147.038 569.004 Q147.038 576.111 148.843 579.675 Q150.672 583.217 154.283 583.217 Q157.917 583.217 159.723 579.675 Q161.552 576.111 161.552 569.004 Q161.552 561.875 159.723 558.333 Q157.917 554.768 154.283 554.768 M154.283 551.064 Q160.093 551.064 163.149 555.671 Q166.227 560.254 166.227 569.004 Q166.227 577.731 163.149 582.337 Q160.093 586.921 154.283 586.921 Q148.473 586.921 145.394 582.337 Q142.339 577.731 142.339 569.004 Q142.339 560.254 145.394 555.671 Q148.473 551.064 154.283 551.064 Z" fill="#000000" fill-rule="nonzero" fill-opacity="1" /><path clip-path="url(#clip240)" d="M184.445 554.768 Q180.834 554.768 179.005 558.333 Q177.2 561.875 177.2 569.004 Q177.2 576.111 179.005 579.675 Q180.834 583.217 184.445 583.217 Q188.079 583.217 189.885 579.675 Q191.713 576.111 191.713 569.004 Q191.713 561.875 189.885 558.333 Q188.079 554.768 184.445 554.768 M184.445 551.064 Q190.255 551.064 193.311 555.671 Q196.389 560.254 196.389 569.004 Q196.389 577.731 193.311 582.337 Q190.255 586.921 184.445 586.921 Q178.635 586.921 175.556 582.337 Q172.501 577.731 172.501 569.004 Q172.501 560.254 175.556 555.671 Q178.635 551.064 184.445 551.064 Z" fill="#000000" fill-rule="nonzero" fill-opacity="1" /><path clip-path="url(#clip240)" d="M114.931 173.601 L122.57 173.601 L122.57 147.236 L114.26 148.902 L114.26 144.643 L122.524 142.976 L127.2 142.976 L127.2 173.601 L134.839 173.601 L134.839 177.536 L114.931 177.536 L114.931 173.601 Z" fill="#000000" fill-rule="nonzero" fill-opacity="1" /><path clip-path="url(#clip240)" d="M145.093 173.601 L152.732 173.601 L152.732 147.236 L144.422 148.902 L144.422 144.643 L152.686 142.976 L157.362 142.976 L157.362 173.601 L165.001 173.601 L165.001 177.536 L145.093 177.536 L145.093 173.601 Z" fill="#000000" fill-rule="nonzero" fill-opacity="1" /><path clip-path="url(#clip240)" d="M184.445 146.055 Q180.834 146.055 179.005 149.62 Q177.2 153.161 177.2 160.291 Q177.2 167.397 179.005 170.962 Q180.834 174.504 184.445 174.504 Q188.079 174.504 189.885 170.962 Q191.713 167.397 191.713 160.291 Q191.713 153.161 189.885 149.62 Q188.079 146.055 184.445 146.055 M184.445 142.351 Q190.255 142.351 193.311 146.958 Q196.389 151.541 196.389 160.291 Q196.389 169.018 193.311 173.624 Q190.255 178.208 184.445 178.208 Q178.635 178.208 175.556 173.624 Q172.501 169.018 172.501 160.291 Q172.501 151.541 175.556 146.958 Q178.635 142.351 184.445 142.351 Z" fill="#000000" fill-rule="nonzero" fill-opacity="1" /><path clip-path="url(#clip240)" d="M18.0438 944.707 L24.314 944.707 Q22.5634 948.367 21.704 951.614 Q20.8447 954.86 20.8447 957.884 Q20.8447 963.135 22.8817 966 Q24.9187 968.833 28.6745 968.833 Q31.8255 968.833 33.4488 966.955 Q35.0402 965.045 36.0269 959.762 L36.8226 955.879 Q38.1912 948.685 41.6605 945.28 Q45.098 941.842 50.8908 941.842 Q57.7976 941.842 61.3624 946.489 Q64.9272 951.104 64.9272 960.048 Q64.9272 963.422 64.1633 967.241 Q63.3994 971.029 61.9035 975.103 L55.2831 975.103 Q57.4793 971.188 58.5933 967.432 Q59.7073 963.677 59.7073 960.048 Q59.7073 954.542 57.543 951.55 Q55.3786 948.558 51.3682 948.558 Q47.8671 948.558 45.8937 950.722 Q43.9204 952.855 42.9337 957.756 L42.1698 961.671 Q40.7375 968.865 37.682 972.079 Q34.6264 975.294 29.1837 975.294 Q22.8817 975.294 19.2532 970.87 Q15.6248 966.414 15.6248 958.616 Q15.6248 955.274 16.2295 951.804 Q16.8343 948.335 18.0438 944.707 Z" fill="#000000" fill-rule="nonzero" fill-opacity="1" /><path clip-path="url(#clip240)" d="M44.7161 901.579 L47.5806 901.579 L47.5806 928.506 Q53.6281 928.124 56.8109 924.878 Q59.9619 921.599 59.9619 915.775 Q59.9619 912.401 59.1344 909.25 Q58.3069 906.067 56.6518 902.948 L62.1899 902.948 Q63.5267 906.099 64.227 909.409 Q64.9272 912.719 64.9272 916.125 Q64.9272 924.655 59.9619 929.652 Q54.9967 934.617 46.5303 934.617 Q37.7774 934.617 32.6531 929.906 Q27.4968 925.164 27.4968 917.143 Q27.4968 909.95 32.1438 905.78 Q36.7589 901.579 44.7161 901.579 M42.9973 907.436 Q38.1912 907.499 35.3266 910.141 Q32.4621 912.751 32.4621 917.08 Q32.4621 921.981 35.2312 924.941 Q38.0002 927.869 43.0292 928.315 L42.9973 907.436 Z" fill="#000000" fill-rule="nonzero" fill-opacity="1" /><path clip-path="url(#clip240)" d="M14.479 891.967 L14.479 886.11 L64.0042 886.11 L64.0042 891.967 L14.479 891.967 Z" fill="#000000" fill-rule="nonzero" fill-opacity="1" /><path clip-path="url(#clip240)" d="M14.479 873.856 L14.479 868 L64.0042 868 L64.0042 873.856 L14.479 873.856 Z" fill="#000000" fill-rule="nonzero" fill-opacity="1" /><path clip-path="url(#clip240)" d="M46.212 831.524 Q52.6732 831.524 56.3653 828.883 Q60.0256 826.209 60.0256 821.562 Q60.0256 816.915 56.3653 814.242 Q52.6732 811.568 46.212 811.568 Q39.7508 811.568 36.0905 814.242 Q32.3984 816.915 32.3984 821.562 Q32.3984 826.209 36.0905 828.883 Q39.7508 831.524 46.212 831.524 M58.657 811.568 Q61.8398 813.414 63.3994 816.247 Q64.9272 819.048 64.9272 822.994 Q64.9272 829.456 59.771 833.53 Q54.6147 837.572 46.212 837.572 Q37.8093 837.572 32.6531 833.53 Q27.4968 829.456 27.4968 822.994 Q27.4968 819.048 29.0564 816.247 Q30.5842 813.414 33.7671 811.568 L28.3562 811.568 L28.3562 805.712 L77.5631 805.712 L77.5631 811.568 L58.657 811.568 Z" fill="#000000" fill-rule="nonzero" fill-opacity="1" /><path clip-path="url(#clip240)" d="M49.9359 794.253 L28.3562 794.253 L28.3562 788.397 L49.7131 788.397 Q54.7739 788.397 57.3202 786.423 Q59.8346 784.45 59.8346 780.503 Q59.8346 775.761 56.8109 773.024 Q53.7872 770.255 48.5673 770.255 L28.3562 770.255 L28.3562 764.398 L64.0042 764.398 L64.0042 770.255 L58.5296 770.255 Q61.7762 772.387 63.3676 775.22 Q64.9272 778.021 64.9272 781.745 Q64.9272 787.888 61.1078 791.07 Q57.2883 794.253 49.9359 794.253 M27.4968 779.517 L27.4968 779.517 Z" fill="#000000" fill-rule="nonzero" fill-opacity="1" /><path clip-path="url(#clip240)" d="M46.0847 736.134 Q46.0847 743.232 47.7079 745.969 Q49.3312 748.707 53.2461 748.707 Q56.3653 748.707 58.2114 746.67 Q60.0256 744.601 60.0256 741.068 Q60.0256 736.198 56.5881 733.27 Q53.1188 730.31 47.3897 730.31 L46.0847 730.31 L46.0847 736.134 M43.6657 724.453 L64.0042 724.453 L64.0042 730.31 L58.5933 730.31 Q61.8398 732.315 63.3994 735.307 Q64.9272 738.299 64.9272 742.627 Q64.9272 748.102 61.8716 751.348 Q58.7843 754.563 53.6281 754.563 Q47.6125 754.563 44.5569 750.553 Q41.5014 746.51 41.5014 738.521 L41.5014 730.31 L40.9285 730.31 Q36.8862 730.31 34.6901 732.983 Q32.4621 735.625 32.4621 740.431 Q32.4621 743.487 33.1941 746.383 Q33.9262 749.28 35.3903 751.953 L29.9795 751.953 Q28.7381 748.738 28.1334 745.715 Q27.4968 742.691 27.4968 739.826 Q27.4968 732.092 31.5072 728.273 Q35.5176 724.453 43.6657 724.453 Z" fill="#000000" fill-rule="nonzero" fill-opacity="1" /><path clip-path="url(#clip240)" d="M42.4881 682.758 L64.0042 682.758 L64.0042 688.614 L42.679 688.614 Q37.6183 688.614 35.1038 690.588 Q32.5894 692.561 32.5894 696.508 Q32.5894 701.25 35.6131 703.988 Q38.6368 706.725 43.8567 706.725 L64.0042 706.725 L64.0042 712.613 L28.3562 712.613 L28.3562 706.725 L33.8944 706.725 Q30.6797 704.624 29.0883 701.791 Q27.4968 698.927 27.4968 695.203 Q27.4968 689.06 31.3163 685.909 Q35.1038 682.758 42.4881 682.758 Z" fill="#000000" fill-rule="nonzero" fill-opacity="1" /><path clip-path="url(#clip240)" d="M18.2347 665.284 L28.3562 665.284 L28.3562 653.221 L32.9077 653.221 L32.9077 665.284 L52.2594 665.284 Q56.6199 665.284 57.8613 664.106 Q59.1026 662.897 59.1026 659.237 L59.1026 653.221 L64.0042 653.221 L64.0042 659.237 Q64.0042 666.016 61.4897 668.594 Q58.9434 671.172 52.2594 671.172 L32.9077 671.172 L32.9077 675.469 L28.3562 675.469 L28.3562 671.172 L18.2347 671.172 L18.2347 665.284 Z" fill="#000000" fill-rule="nonzero" fill-opacity="1" /><path clip-path="url(#clip240)" d="M28.3562 645.519 L28.3562 639.662 L64.0042 639.662 L64.0042 645.519 L28.3562 645.519 M14.479 645.519 L14.479 639.662 L21.895 639.662 L21.895 645.519 L14.479 645.519 Z" fill="#000000" fill-rule="nonzero" fill-opacity="1" /><path clip-path="url(#clip240)" d="M18.2347 621.615 L28.3562 621.615 L28.3562 609.552 L32.9077 609.552 L32.9077 621.615 L52.2594 621.615 Q56.6199 621.615 57.8613 620.438 Q59.1026 619.228 59.1026 615.568 L59.1026 609.552 L64.0042 609.552 L64.0042 615.568 Q64.0042 622.347 61.4897 624.925 Q58.9434 627.504 52.2594 627.504 L32.9077 627.504 L32.9077 631.8 L28.3562 631.8 L28.3562 627.504 L18.2347 627.504 L18.2347 621.615 Z" fill="#000000" fill-rule="nonzero" fill-opacity="1" /><path clip-path="url(#clip240)" d="M67.3143 587.018 Q73.68 589.5 75.6216 591.856 Q77.5631 594.211 77.5631 598.158 L77.5631 602.836 L72.6615 602.836 L72.6615 599.399 Q72.6615 596.98 71.5157 595.643 Q70.3699 594.306 66.1048 592.683 L63.4312 591.633 L28.3562 606.051 L28.3562 599.845 L56.238 588.705 L28.3562 577.565 L28.3562 571.358 L67.3143 587.018 Z" fill="#000000" fill-rule="nonzero" fill-opacity="1" /><path clip-path="url(#clip240)" d="M572.342 18.8205 L572.342 41.5461 L582.631 41.5461 Q588.343 41.5461 591.462 38.5889 Q594.582 35.6318 594.582 30.163 Q594.582 24.7348 591.462 21.7777 Q588.343 18.8205 582.631 18.8205 L572.342 18.8205 M564.159 12.096 L582.631 12.096 Q592.799 12.096 597.984 16.714 Q603.21 21.2916 603.21 30.163 Q603.21 39.1155 597.984 43.6931 Q592.799 48.2706 582.631 48.2706 L572.342 48.2706 L572.342 72.576 L564.159 72.576 L564.159 12.096 Z" fill="#000000" fill-rule="nonzero" fill-opacity="1" /><path clip-path="url(#clip240)" d="M608.8 12.096 L617.064 12.096 L629.784 63.2184 L642.463 12.096 L651.659 12.096 L664.379 63.2184 L677.058 12.096 L685.362 12.096 L670.171 72.576 L659.882 72.576 L647.122 20.0763 L634.24 72.576 L623.951 72.576 L608.8 12.096 Z" fill="#000000" fill-rule="nonzero" fill-opacity="1" /><path clip-path="url(#clip240)" d="M696.219 12.096 L704.402 12.096 L704.402 65.6895 L733.852 65.6895 L733.852 72.576 L696.219 72.576 L696.219 12.096 Z" fill="#000000" fill-rule="nonzero" fill-opacity="1" /><path clip-path="url(#clip240)" d="M789.025 20.1573 L777.925 50.2555 L800.165 50.2555 L789.025 20.1573 M784.407 12.096 L793.684 12.096 L816.733 72.576 L808.226 72.576 L802.717 57.061 L775.454 57.061 L769.945 72.576 L761.317 72.576 L784.407 12.096 Z" fill="#000000" fill-rule="nonzero" fill-opacity="1" /><path clip-path="url(#clip240)" d="M832.451 65.7705 L832.451 89.8329 L824.956 89.8329 L824.956 27.2059 L832.451 27.2059 L832.451 34.0924 Q834.8 30.0415 838.365 28.0971 Q841.97 26.1121 846.953 26.1121 Q855.217 26.1121 860.361 32.6746 Q865.547 39.2371 865.547 49.9314 Q865.547 60.6258 860.361 67.1883 Q855.217 73.7508 846.953 73.7508 Q841.97 73.7508 838.365 71.8063 Q834.8 69.8214 832.451 65.7705 M857.809 49.9314 Q857.809 41.7081 854.407 37.0496 Q851.044 32.3505 845.13 32.3505 Q839.216 32.3505 835.813 37.0496 Q832.451 41.7081 832.451 49.9314 Q832.451 58.1548 835.813 62.8538 Q839.216 67.5124 845.13 67.5124 Q851.044 67.5124 854.407 62.8538 Q857.809 58.1548 857.809 49.9314 Z" fill="#000000" fill-rule="nonzero" fill-opacity="1" /><path clip-path="url(#clip240)" d="M885.112 65.7705 L885.112 89.8329 L877.618 89.8329 L877.618 27.2059 L885.112 27.2059 L885.112 34.0924 Q887.462 30.0415 891.027 28.0971 Q894.632 26.1121 899.615 26.1121 Q907.879 26.1121 913.023 32.6746 Q918.208 39.2371 918.208 49.9314 Q918.208 60.6258 913.023 67.1883 Q907.879 73.7508 899.615 73.7508 Q894.632 73.7508 891.027 71.8063 Q887.462 69.8214 885.112 65.7705 M910.471 49.9314 Q910.471 41.7081 907.068 37.0496 Q903.706 32.3505 897.792 32.3505 Q891.877 32.3505 888.475 37.0496 Q885.112 41.7081 885.112 49.9314 Q885.112 58.1548 888.475 62.8538 Q891.877 67.5124 897.792 67.5124 Q903.706 67.5124 907.068 62.8538 Q910.471 58.1548 910.471 49.9314 Z" fill="#000000" fill-rule="nonzero" fill-opacity="1" /><path clip-path="url(#clip240)" d="M956.854 34.1734 Q955.598 33.4443 954.099 33.1202 Q952.641 32.7556 950.859 32.7556 Q944.539 32.7556 941.136 36.8875 Q937.774 40.9789 937.774 48.6757 L937.774 72.576 L930.28 72.576 L930.28 27.2059 L937.774 27.2059 L937.774 34.2544 Q940.124 30.1225 943.891 28.1376 Q947.658 26.1121 953.046 26.1121 Q953.816 26.1121 954.747 26.2337 Q955.679 26.3147 956.813 26.5172 L956.854 34.1734 Z" fill="#000000" fill-rule="nonzero" fill-opacity="1" /><path clip-path="url(#clip240)" d="M980.43 32.4315 Q974.435 32.4315 970.951 37.1306 Q967.467 41.7891 967.467 49.9314 Q967.467 58.0738 970.911 62.7728 Q974.394 67.4314 980.43 67.4314 Q986.385 67.4314 989.869 62.7323 Q993.353 58.0333 993.353 49.9314 Q993.353 41.8701 989.869 37.1711 Q986.385 32.4315 980.43 32.4315 M980.43 26.1121 Q990.152 26.1121 995.702 32.4315 Q1001.25 38.7509 1001.25 49.9314 Q1001.25 61.0714 995.702 67.4314 Q990.152 73.7508 980.43 73.7508 Q970.668 73.7508 965.118 67.4314 Q959.609 61.0714 959.609 49.9314 Q959.609 38.7509 965.118 32.4315 Q970.668 26.1121 980.43 26.1121 Z" fill="#000000" fill-rule="nonzero" fill-opacity="1" /><path clip-path="url(#clip240)" d="M1048.77 27.2059 L1032.36 49.2833 L1049.62 72.576 L1040.83 72.576 L1027.62 54.752 L1014.42 72.576 L1005.63 72.576 L1023.25 48.8377 L1007.13 27.2059 L1015.92 27.2059 L1027.95 43.369 L1039.98 27.2059 L1048.77 27.2059 Z" fill="#000000" fill-rule="nonzero" fill-opacity="1" /><path clip-path="url(#clip240)" d="M1060.15 27.2059 L1067.61 27.2059 L1067.61 72.576 L1060.15 72.576 L1060.15 27.2059 M1060.15 9.54393 L1067.61 9.54393 L1067.61 18.9825 L1060.15 18.9825 L1060.15 9.54393 Z" fill="#000000" fill-rule="nonzero" fill-opacity="1" /><path clip-path="url(#clip240)" d="M1118.53 35.9153 Q1121.32 30.8922 1125.21 28.5022 Q1129.1 26.1121 1134.36 26.1121 Q1141.45 26.1121 1145.3 31.0947 Q1149.15 36.0368 1149.15 45.1919 L1149.15 72.576 L1141.66 72.576 L1141.66 45.4349 Q1141.66 38.913 1139.35 35.7533 Q1137.04 32.5936 1132.3 32.5936 Q1126.51 32.5936 1123.14 36.4419 Q1119.78 40.2903 1119.78 46.9338 L1119.78 72.576 L1112.29 72.576 L1112.29 45.4349 Q1112.29 38.8725 1109.98 35.7533 Q1107.67 32.5936 1102.85 32.5936 Q1097.14 32.5936 1093.77 36.4824 Q1090.41 40.3308 1090.41 46.9338 L1090.41 72.576 L1082.92 72.576 L1082.92 27.2059 L1090.41 27.2059 L1090.41 34.2544 Q1092.96 30.082 1096.53 28.0971 Q1100.09 26.1121 1105 26.1121 Q1109.94 26.1121 1113.38 28.6237 Q1116.86 31.1352 1118.53 35.9153 Z" fill="#000000" fill-rule="nonzero" fill-opacity="1" /><path clip-path="url(#clip240)" d="M1184.64 49.7694 Q1175.6 49.7694 1172.12 51.8354 Q1168.64 53.9013 1168.64 58.8839 Q1168.64 62.8538 1171.23 65.2034 Q1173.86 67.5124 1178.36 67.5124 Q1184.56 67.5124 1188.28 63.1374 Q1192.05 58.7219 1192.05 51.4303 L1192.05 49.7694 L1184.64 49.7694 M1199.5 46.6907 L1199.5 72.576 L1192.05 72.576 L1192.05 65.6895 Q1189.5 69.8214 1185.69 71.8063 Q1181.88 73.7508 1176.37 73.7508 Q1169.4 73.7508 1165.27 69.8619 Q1161.18 65.9325 1161.18 59.3701 Q1161.18 51.7138 1166.29 47.825 Q1171.43 43.9361 1181.6 43.9361 L1192.05 43.9361 L1192.05 43.2069 Q1192.05 38.0623 1188.65 35.2672 Q1185.28 32.4315 1179.17 32.4315 Q1175.28 32.4315 1171.59 33.3632 Q1167.91 34.295 1164.5 36.1584 L1164.5 29.2718 Q1168.59 27.692 1172.44 26.9223 Q1176.29 26.1121 1179.94 26.1121 Q1189.78 26.1121 1194.64 31.2163 Q1199.5 36.3204 1199.5 46.6907 Z" fill="#000000" fill-rule="nonzero" fill-opacity="1" /><path clip-path="url(#clip240)" d="M1222.23 14.324 L1222.23 27.2059 L1237.58 27.2059 L1237.58 32.9987 L1222.23 32.9987 L1222.23 57.6282 Q1222.23 63.1779 1223.73 64.7578 Q1225.27 66.3376 1229.93 66.3376 L1237.58 66.3376 L1237.58 72.576 L1229.93 72.576 Q1221.3 72.576 1218.02 69.3758 Q1214.73 66.1351 1214.73 57.6282 L1214.73 32.9987 L1209.27 32.9987 L1209.27 27.2059 L1214.73 27.2059 L1214.73 14.324 L1222.23 14.324 Z" fill="#000000" fill-rule="nonzero" fill-opacity="1" /><path clip-path="url(#clip240)" d="M1247.38 27.2059 L1254.84 27.2059 L1254.84 72.576 L1247.38 72.576 L1247.38 27.2059 M1247.38 9.54393 L1254.84 9.54393 L1254.84 18.9825 L1247.38 18.9825 L1247.38 9.54393 Z" fill="#000000" fill-rule="nonzero" fill-opacity="1" /><path clip-path="url(#clip240)" d="M1288.02 32.4315 Q1282.02 32.4315 1278.54 37.1306 Q1275.05 41.7891 1275.05 49.9314 Q1275.05 58.0738 1278.5 62.7728 Q1281.98 67.4314 1288.02 67.4314 Q1293.97 67.4314 1297.45 62.7323 Q1300.94 58.0333 1300.94 49.9314 Q1300.94 41.8701 1297.45 37.1711 Q1293.97 32.4315 1288.02 32.4315 M1288.02 26.1121 Q1297.74 26.1121 1303.29 32.4315 Q1308.84 38.7509 1308.84 49.9314 Q1308.84 61.0714 1303.29 67.4314 Q1297.74 73.7508 1288.02 73.7508 Q1278.25 73.7508 1272.7 67.4314 Q1267.19 61.0714 1267.19 49.9314 Q1267.19 38.7509 1272.7 32.4315 Q1278.25 26.1121 1288.02 26.1121 Z" fill="#000000" fill-rule="nonzero" fill-opacity="1" /><path clip-path="url(#clip240)" d="M1358.91 45.1919 L1358.91 72.576 L1351.45 72.576 L1351.45 45.4349 Q1351.45 38.994 1348.94 35.7938 Q1346.43 32.5936 1341.41 32.5936 Q1335.37 32.5936 1331.89 36.4419 Q1328.4 40.2903 1328.4 46.9338 L1328.4 72.576 L1320.91 72.576 L1320.91 27.2059 L1328.4 27.2059 L1328.4 34.2544 Q1331.08 30.163 1334.68 28.1376 Q1338.33 26.1121 1343.07 26.1121 Q1350.89 26.1121 1354.9 30.9732 Q1358.91 35.7938 1358.91 45.1919 Z" fill="#000000" fill-rule="nonzero" fill-opacity="1" /><path clip-path="url(#clip240)" d="M1417.73 32.4315 Q1411.73 32.4315 1408.25 37.1306 Q1404.76 41.7891 1404.76 49.9314 Q1404.76 58.0738 1408.21 62.7728 Q1411.69 67.4314 1417.73 67.4314 Q1423.68 67.4314 1427.16 62.7323 Q1430.65 58.0333 1430.65 49.9314 Q1430.65 41.8701 1427.16 37.1711 Q1423.68 32.4315 1417.73 32.4315 M1417.73 26.1121 Q1427.45 26.1121 1433 32.4315 Q1438.55 38.7509 1438.55 49.9314 Q1438.55 61.0714 1433 67.4314 Q1427.45 73.7508 1417.73 73.7508 Q1407.96 73.7508 1402.41 67.4314 Q1396.9 61.0714 1396.9 49.9314 Q1396.9 38.7509 1402.41 32.4315 Q1407.96 26.1121 1417.73 26.1121 Z" fill="#000000" fill-rule="nonzero" fill-opacity="1" /><path clip-path="url(#clip240)" d="M1473.87 9.54393 L1473.87 15.7418 L1466.74 15.7418 Q1462.73 15.7418 1461.15 17.3622 Q1459.61 18.9825 1459.61 23.1955 L1459.61 27.2059 L1471.89 27.2059 L1471.89 32.9987 L1459.61 32.9987 L1459.61 72.576 L1452.12 72.576 L1452.12 32.9987 L1444.99 32.9987 L1444.99 27.2059 L1452.12 27.2059 L1452.12 24.0462 Q1452.12 16.471 1455.64 13.0277 Q1459.17 9.54393 1466.82 9.54393 L1473.87 9.54393 Z" fill="#000000" fill-rule="nonzero" fill-opacity="1" /><path clip-path="url(#clip240)" d="M1543.06 14.0809 L1543.06 22.0612 Q1538.4 19.8332 1534.27 18.7395 Q1530.14 17.6457 1526.29 17.6457 Q1519.61 17.6457 1515.96 20.2383 Q1512.35 22.8309 1512.35 27.611 Q1512.35 31.6214 1514.74 33.6873 Q1517.18 35.7128 1523.9 36.9686 L1528.84 37.9813 Q1538 39.7232 1542.33 44.1387 Q1546.71 48.5136 1546.71 55.8863 Q1546.71 64.6767 1540.79 69.2137 Q1534.92 73.7508 1523.53 73.7508 Q1519.24 73.7508 1514.38 72.7785 Q1509.56 71.8063 1504.37 69.9024 L1504.37 61.4765 Q1509.36 64.2716 1514.14 65.6895 Q1518.92 67.1073 1523.53 67.1073 Q1530.54 67.1073 1534.35 64.3527 Q1538.16 61.598 1538.16 56.4939 Q1538.16 52.0379 1535.4 49.5264 Q1532.69 47.0148 1526.45 45.759 L1521.47 44.7868 Q1512.31 42.9639 1508.22 39.075 Q1504.13 35.1862 1504.13 28.2591 Q1504.13 20.2383 1509.76 15.6203 Q1515.43 11.0023 1525.36 11.0023 Q1529.61 11.0023 1534.03 11.7719 Q1538.44 12.5416 1543.06 14.0809 Z" fill="#000000" fill-rule="nonzero" fill-opacity="1" /><path clip-path="url(#clip240)" d="M1597.95 48.0275 L1597.95 51.6733 L1563.68 51.6733 Q1564.17 59.3701 1568.3 63.421 Q1572.47 67.4314 1579.88 67.4314 Q1584.18 67.4314 1588.19 66.3781 Q1592.24 65.3249 1596.21 63.2184 L1596.21 70.267 Q1592.2 71.9684 1587.98 72.8596 Q1583.77 73.7508 1579.44 73.7508 Q1568.58 73.7508 1562.22 67.4314 Q1555.9 61.1119 1555.9 50.3365 Q1555.9 39.1965 1561.9 32.6746 Q1567.93 26.1121 1578.14 26.1121 Q1587.3 26.1121 1592.6 32.0264 Q1597.95 37.9003 1597.95 48.0275 M1590.5 45.84 Q1590.42 39.7232 1587.05 36.0774 Q1583.73 32.4315 1578.22 32.4315 Q1571.98 32.4315 1568.22 35.9558 Q1564.49 39.4801 1563.92 45.8805 L1590.5 45.84 Z" fill="#000000" fill-rule="nonzero" fill-opacity="1" /><path clip-path="url(#clip240)" d="M1610.18 9.54393 L1617.64 9.54393 L1617.64 72.576 L1610.18 72.576 L1610.18 9.54393 Z" fill="#000000" fill-rule="nonzero" fill-opacity="1" /><path clip-path="url(#clip240)" d="M1633.23 9.54393 L1640.69 9.54393 L1640.69 72.576 L1633.23 72.576 L1633.23 9.54393 Z" fill="#000000" fill-rule="nonzero" fill-opacity="1" /><path clip-path="url(#clip240)" d="M1691.16 18.8205 L1691.16 65.8515 L1701.05 65.8515 Q1713.56 65.8515 1719.36 60.1802 Q1725.19 54.509 1725.19 42.2752 Q1725.19 30.1225 1719.36 24.4918 Q1713.56 18.8205 1701.05 18.8205 L1691.16 18.8205 M1682.98 12.096 L1699.79 12.096 Q1717.37 12.096 1725.59 19.4281 Q1733.82 26.7198 1733.82 42.2752 Q1733.82 57.9117 1725.55 65.2439 Q1717.29 72.576 1699.79 72.576 L1682.98 72.576 L1682.98 12.096 Z" fill="#000000" fill-rule="nonzero" fill-opacity="1" /><path clip-path="url(#clip240)" d="M1785.34 48.0275 L1785.34 51.6733 L1751.07 51.6733 Q1751.56 59.3701 1755.69 63.421 Q1759.86 67.4314 1767.28 67.4314 Q1771.57 67.4314 1775.58 66.3781 Q1779.63 65.3249 1783.6 63.2184 L1783.6 70.267 Q1779.59 71.9684 1775.38 72.8596 Q1771.17 73.7508 1766.83 73.7508 Q1755.98 73.7508 1749.62 67.4314 Q1743.3 61.1119 1743.3 50.3365 Q1743.3 39.1965 1749.29 32.6746 Q1755.33 26.1121 1765.54 26.1121 Q1774.69 26.1121 1780 32.0264 Q1785.34 37.9003 1785.34 48.0275 M1777.89 45.84 Q1777.81 39.7232 1774.45 36.0774 Q1771.13 32.4315 1765.62 32.4315 Q1759.38 32.4315 1755.61 35.9558 Q1751.88 39.4801 1751.32 45.8805 L1777.89 45.84 Z" fill="#000000" fill-rule="nonzero" fill-opacity="1" /><path clip-path="url(#clip240)" d="M1830.23 28.9478 L1830.23 35.9153 Q1827.07 34.1734 1823.87 33.3227 Q1820.71 32.4315 1817.47 32.4315 Q1810.22 32.4315 1806.21 37.0496 Q1802.2 41.6271 1802.2 49.9314 Q1802.2 58.2358 1806.21 62.8538 Q1810.22 67.4314 1817.47 67.4314 Q1820.71 67.4314 1823.87 66.5807 Q1827.07 65.6895 1830.23 63.9476 L1830.23 70.8341 Q1827.11 72.2924 1823.75 73.0216 Q1820.43 73.7508 1816.66 73.7508 Q1806.41 73.7508 1800.37 67.3098 Q1794.34 60.8689 1794.34 49.9314 Q1794.34 38.832 1800.41 32.472 Q1806.53 26.1121 1817.14 26.1121 Q1820.59 26.1121 1823.87 26.8413 Q1827.15 27.5299 1830.23 28.9478 Z" fill="#000000" fill-rule="nonzero" fill-opacity="1" /><path clip-path="url(#clip240)" d="M1843.19 27.2059 L1850.65 27.2059 L1850.65 72.576 L1843.19 72.576 L1843.19 27.2059 M1843.19 9.54393 L1850.65 9.54393 L1850.65 18.9825 L1843.19 18.9825 L1843.19 9.54393 Z" fill="#000000" fill-rule="nonzero" fill-opacity="1" /><path clip-path="url(#clip240)" d="M1895.16 28.5427 L1895.16 35.5912 Q1892.01 33.9709 1888.6 33.1607 Q1885.2 32.3505 1881.55 32.3505 Q1876 32.3505 1873.21 34.0519 Q1870.45 35.7533 1870.45 39.156 Q1870.45 41.7486 1872.44 43.2475 Q1874.42 44.7058 1880.42 46.0426 L1882.97 46.6097 Q1890.91 48.3111 1894.23 51.4303 Q1897.6 54.509 1897.6 60.0587 Q1897.6 66.3781 1892.57 70.0644 Q1887.59 73.7508 1878.84 73.7508 Q1875.19 73.7508 1871.22 73.0216 Q1867.29 72.3329 1862.92 70.9151 L1862.92 63.2184 Q1867.05 65.3654 1871.06 66.4591 Q1875.07 67.5124 1879 67.5124 Q1884.27 67.5124 1887.1 65.73 Q1889.94 63.9071 1889.94 60.6258 Q1889.94 57.5877 1887.87 55.9673 Q1885.85 54.3469 1878.92 52.8481 L1876.33 52.2405 Q1869.4 50.7821 1866.32 47.7845 Q1863.24 44.7463 1863.24 39.4801 Q1863.24 33.0797 1867.78 29.5959 Q1872.32 26.1121 1880.66 26.1121 Q1884.79 26.1121 1888.44 26.7198 Q1892.09 27.3274 1895.16 28.5427 Z" fill="#000000" fill-rule="nonzero" fill-opacity="1" /><path clip-path="url(#clip240)" d="M1909.46 27.2059 L1916.92 27.2059 L1916.92 72.576 L1909.46 72.576 L1909.46 27.2059 M1909.46 9.54393 L1916.92 9.54393 L1916.92 18.9825 L1909.46 18.9825 L1909.46 9.54393 Z" fill="#000000" fill-rule="nonzero" fill-opacity="1" /><path clip-path="url(#clip240)" d="M1950.1 32.4315 Q1944.1 32.4315 1940.62 37.1306 Q1937.13 41.7891 1937.13 49.9314 Q1937.13 58.0738 1940.58 62.7728 Q1944.06 67.4314 1950.1 67.4314 Q1956.05 67.4314 1959.53 62.7323 Q1963.02 58.0333 1963.02 49.9314 Q1963.02 41.8701 1959.53 37.1711 Q1956.05 32.4315 1950.1 32.4315 M1950.1 26.1121 Q1959.82 26.1121 1965.37 32.4315 Q1970.92 38.7509 1970.92 49.9314 Q1970.92 61.0714 1965.37 67.4314 Q1959.82 73.7508 1950.1 73.7508 Q1940.33 73.7508 1934.78 67.4314 Q1929.27 61.0714 1929.27 49.9314 Q1929.27 38.7509 1934.78 32.4315 Q1940.33 26.1121 1950.1 26.1121 Z" fill="#000000" fill-rule="nonzero" fill-opacity="1" /><path clip-path="url(#clip240)" d="M2020.99 45.1919 L2020.99 72.576 L2013.53 72.576 L2013.53 45.4349 Q2013.53 38.994 2011.02 35.7938 Q2008.51 32.5936 2003.49 32.5936 Q1997.45 32.5936 1993.97 36.4419 Q1990.48 40.2903 1990.48 46.9338 L1990.48 72.576 L1982.99 72.576 L1982.99 27.2059 L1990.48 27.2059 L1990.48 34.2544 Q1993.16 30.163 1996.76 28.1376 Q2000.41 26.1121 2005.15 26.1121 Q2012.97 26.1121 2016.98 30.9732 Q2020.99 35.7938 2020.99 45.1919 Z" fill="#000000" fill-rule="nonzero" fill-opacity="1" /><polyline clip-path="url(#clip241)" style="stroke:#0000ff; stroke-linecap:round; stroke-linejoin:round; stroke-width:8; stroke-opacity:1; fill:none" stroke-dasharray="32, 20" points="292.4,1386.4 302.452,1378.18 312.504,1369.96 322.556,1361.75 332.608,1353.53 342.66,1345.32 352.712,1337.1 362.764,1328.89 372.816,1320.67 382.868,1312.46 392.92,1304.24 402.972,1296.03 413.024,1287.81 423.076,1279.6 433.128,1271.38 443.18,1263.17 453.232,1254.95 463.284,1246.73 473.336,1238.52 483.388,1230.3 493.44,1222.09 503.491,1213.87 513.543,1205.66 523.595,1197.44 533.647,1189.23 543.699,1181.01 553.751,1172.8 563.803,1164.58 573.855,1156.37 583.907,1148.15 593.959,1139.94 604.011,1131.72 614.063,1123.5 624.115,1115.29 634.167,1107.07 644.219,1098.86 654.271,1090.64 664.323,1082.43 674.375,1074.21 684.427,1066 694.479,1057.78 704.531,1049.57 714.583,1041.35 724.635,1033.14 734.687,1024.92 744.739,1016.71 754.791,1008.49 764.843,1000.27 774.895,992.059 784.947,983.844 794.999,975.629 805.051,967.413 815.103,959.198 825.155,950.983 835.207,942.767 845.259,934.552 855.311,926.337 865.363,918.121 875.415,909.906 885.467,901.691 895.519,893.475 905.571,885.26 915.623,877.045 925.675,868.829 935.727,860.614 945.779,852.399 955.831,844.183 965.883,835.968 975.935,827.753 985.987,819.537 996.039,811.322 1006.09,803.107 1016.14,794.891 1026.19,786.676 1036.25,778.461 1046.3,770.245 1056.35,762.03 1066.4,753.815 1076.45,745.599 1086.51,737.384 1096.56,729.169 1106.61,720.953 1116.66,712.738 1126.71,704.523 1136.77,696.307 1146.82,688.092 1156.87,679.877 1166.92,671.661 1176.97,663.446 1187.03,655.23 1197.08,647.015 1207.13,638.8 1217.18,630.584 1227.23,622.369 1237.29,614.154 1247.34,605.938 1257.39,597.723 1267.44,589.508 1277.49,581.292 1287.55,573.077 1297.6,564.862 1307.65,556.646 1317.7,548.431 1327.75,540.216 1337.81,532 1347.86,523.785 1357.91,515.57 1367.96,507.354 1378.01,499.139 1388.07,490.924 1398.12,482.708 1408.17,474.493 1418.22,466.278 1428.27,458.062 1438.33,449.847 1448.38,441.632 1458.43,433.416 1468.48,425.201 1478.53,416.986 1488.59,408.77 1498.64,400.555 1508.69,392.34 1518.74,384.124 1528.79,375.909 1538.85,367.694 1548.9,359.478 1558.95,351.263 1569,343.048 1579.05,334.832 1589.11,326.617 1599.16,318.402 1609.21,310.186 1619.26,301.971 1629.31,293.756 1639.37,285.54 1649.42,277.325 1659.47,269.11 1669.52,260.894 1679.57,252.679 1689.63,244.464 1699.68,236.248 1709.73,228.033 1719.78,219.818 1729.83,211.602 1739.89,203.387 1749.94,195.171 1759.99,186.956 1770.04,178.741 1780.09,170.525 1790.15,162.31 1800.2,160.256 1810.25,160.256 1820.3,160.256 1830.35,160.256 1840.41,160.256 1850.46,160.256 1860.51,160.256 1870.56,160.256 1880.61,160.256 1890.67,160.256 1900.72,160.256 1910.77,160.256 1920.82,160.256 1930.87,160.256 1940.93,160.256 1950.98,160.256 1961.03,160.256 1971.08,160.256 1981.13,160.256 1991.19,160.256 2001.24,160.256 2011.29,160.256 2021.34,160.256 2031.39,160.256 2041.45,160.256 2051.5,160.256 2061.55,160.256 2071.6,160.256 2081.65,160.256 2091.71,160.256 2101.76,160.256 2111.81,160.256 2121.86,160.256 2131.91,160.256 2141.97,160.256 2152.02,160.256 2162.07,160.256 2172.12,160.256 2182.17,160.256 2192.23,160.256 2202.28,160.256 2212.33,160.256 2222.38,160.256 2232.43,160.256 2242.49,160.256 2252.54,160.256 2262.59,160.256 2272.64,160.256 2282.69,160.256 2292.75,160.256 "/>
<polyline clip-path="url(#clip241)" style="stroke:#ff0000; stroke-linecap:round; stroke-linejoin:round; stroke-width:8; stroke-opacity:1; fill:none" points="292.4,1386.4 302.452,1378.18 312.504,1369.96 322.556,1361.75 332.608,1353.53 342.66,1345.32 352.712,1337.1 362.764,1328.89 372.816,1320.67 382.868,1312.46 392.92,1304.24 402.972,1296.03 413.024,1287.81 423.076,1279.6 433.128,1271.38 443.18,1263.17 453.232,1254.95 463.284,1246.73 473.336,1238.52 483.388,1230.3 493.44,1222.09 503.491,1213.87 513.543,1205.66 523.595,1197.44 533.647,1189.23 543.699,1181.01 553.751,1172.8 563.803,1164.58 573.855,1156.37 583.907,1148.15 593.959,1139.94 604.011,1131.72 614.063,1123.5 624.115,1115.29 634.167,1107.07 644.219,1098.86 654.271,1090.64 664.323,1082.43 674.375,1074.21 684.427,1066 694.479,1057.78 704.531,1049.57 714.583,1041.35 724.635,1033.14 734.687,1024.92 744.739,1016.71 754.791,1008.49 764.843,1000.27 774.895,992.059 784.947,983.844 794.999,975.629 805.051,967.413 815.103,959.198 825.155,950.983 835.207,942.767 845.259,934.552 855.311,926.337 865.363,918.121 875.415,909.906 885.467,901.691 895.519,893.475 905.571,885.26 915.623,877.045 925.675,868.829 935.727,860.614 945.779,852.399 955.831,844.183 965.883,835.968 975.935,827.753 985.987,819.537 996.039,811.322 1006.09,803.107 1016.14,794.891 1026.19,786.676 1036.25,778.461 1046.3,770.245 1056.35,762.03 1066.4,753.815 1076.45,745.599 1086.51,737.384 1096.56,729.169 1106.61,720.953 1116.66,712.738 1126.71,704.523 1136.77,696.307 1146.82,688.092 1156.87,679.877 1166.92,671.661 1176.97,663.446 1187.03,655.23 1197.08,647.015 1207.13,638.8 1217.18,630.584 1227.23,622.369 1237.29,614.154 1247.34,605.938 1257.39,597.723 1267.44,589.508 1277.49,581.292 1287.55,573.077 1297.6,564.862 1307.65,556.646 1317.7,548.431 1327.75,540.216 1337.81,532 1347.86,523.785 1357.91,515.57 1367.96,507.354 1378.01,499.139 1388.07,490.924 1398.12,482.708 1408.17,474.493 1418.22,466.278 1428.27,458.062 1438.33,449.847 1448.38,441.632 1458.43,433.416 1468.48,425.201 1478.53,416.986 1488.59,408.77 1498.64,400.555 1508.69,392.34 1518.74,384.124 1528.79,375.909 1538.85,367.694 1548.9,359.478 1558.95,351.263 1569,343.048 1579.05,334.832 1589.11,326.617 1599.16,318.402 1609.21,310.186 1619.26,301.971 1629.31,293.756 1639.37,285.54 1649.42,277.325 1659.47,269.11 1669.52,260.894 1679.57,252.679 1689.63,244.464 1699.68,236.248 1709.73,228.033 1719.78,219.818 1729.83,211.602 1739.89,203.387 1749.94,195.171 1759.99,186.956 1770.04,178.741 1780.09,170.525 1790.15,162.31 1800.2,160.256 1810.25,160.256 1820.3,160.256 1830.35,160.256 1840.41,160.256 1850.46,160.256 1860.51,160.256 1870.56,160.256 1880.61,160.256 1890.67,160.256 1900.72,160.256 1910.77,160.256 1920.82,160.256 1930.87,160.256 1940.93,160.256 1950.98,160.256 1961.03,160.256 1971.08,160.256 1981.13,160.256 1991.19,160.256 2001.24,160.256 2011.29,160.256 2021.34,160.256 2031.39,160.256 2041.45,160.256 2051.5,160.256 2061.55,160.256 2071.6,160.256 2081.65,160.256 2091.71,160.256 2101.76,160.256 2111.81,160.256 2121.86,160.256 2131.91,160.256 2141.97,160.256 2152.02,160.256 2162.07,160.256 2172.12,160.256 2182.17,160.256 2192.23,160.256 2202.28,160.256 2212.33,160.256 2222.38,160.256 2232.43,160.256 2242.49,160.256 2252.54,160.256 2262.59,160.256 2272.64,160.256 2282.69,160.256 2292.75,160.256 "/>
<polyline clip-path="url(#clip241)" style="stroke:#808080; stroke-linecap:round; stroke-linejoin:round; stroke-width:4; stroke-opacity:0.5; fill:none" stroke-dasharray="2, 4" points="792.486,2722.89 792.486,-1176.24 "/>
<polyline clip-path="url(#clip241)" style="stroke:#808080; stroke-linecap:round; stroke-linejoin:round; stroke-width:4; stroke-opacity:0.5; fill:none" stroke-dasharray="2, 4" points="1292.57,2722.89 1292.57,-1176.24 "/>
<polyline clip-path="url(#clip241)" style="stroke:#808080; stroke-linecap:round; stroke-linejoin:round; stroke-width:4; stroke-opacity:0.5; fill:none" stroke-dasharray="2, 4" points="1792.66,2722.89 1792.66,-1176.24 "/>
<path clip-path="url(#clip240)" d="M303.068 322.316 L1166.33 322.316 L1166.33 166.796 L303.068 166.796  Z" fill="#ffffff" fill-rule="evenodd" fill-opacity="1"/>
<polyline clip-path="url(#clip240)" style="stroke:#000000; stroke-linecap:round; stroke-linejoin:round; stroke-width:4; stroke-opacity:1; fill:none" points="303.068,322.316 1166.33,322.316 1166.33,166.796 303.068,166.796 303.068,322.316 "/>
<polyline clip-path="url(#clip240)" style="stroke:#0000ff; stroke-linecap:round; stroke-linejoin:round; stroke-width:8; stroke-opacity:1; fill:none" stroke-dasharray="32, 20" points="326.628,218.636 467.986,218.636 "/>
<path clip-path="url(#clip240)" d="M507.564 204.527 Q502.471 204.527 499.462 208.323 Q496.476 212.12 496.476 218.67 Q496.476 225.198 499.462 228.994 Q502.471 232.791 507.564 232.791 Q512.656 232.791 515.619 228.994 Q518.605 225.198 518.605 218.67 Q518.605 212.12 515.619 208.323 Q512.656 204.527 507.564 204.527 M507.564 200.731 Q514.832 200.731 519.184 205.615 Q523.536 210.476 523.536 218.67 Q523.536 226.842 519.184 231.726 Q514.832 236.587 507.564 236.587 Q500.272 236.587 495.897 231.726 Q491.545 226.865 491.545 218.67 Q491.545 210.476 495.897 205.615 Q500.272 200.731 507.564 200.731 Z" fill="#000000" fill-rule="nonzero" fill-opacity="1" /><path clip-path="url(#clip240)" d="M534.786 232.027 L534.786 245.777 L530.503 245.777 L530.503 209.99 L534.786 209.99 L534.786 213.925 Q536.128 211.61 538.165 210.499 Q540.226 209.365 543.073 209.365 Q547.795 209.365 550.735 213.115 Q553.698 216.865 553.698 222.976 Q553.698 229.087 550.735 232.837 Q547.795 236.587 543.073 236.587 Q540.226 236.587 538.165 235.476 Q536.128 234.342 534.786 232.027 M549.276 222.976 Q549.276 218.277 547.332 215.615 Q545.411 212.93 542.031 212.93 Q538.651 212.93 536.707 215.615 Q534.786 218.277 534.786 222.976 Q534.786 227.675 536.707 230.36 Q538.651 233.022 542.031 233.022 Q545.411 233.022 547.332 230.36 Q549.276 227.675 549.276 222.976 Z" fill="#000000" fill-rule="nonzero" fill-opacity="1" /><path clip-path="url(#clip240)" d="M564.971 202.629 L564.971 209.99 L573.744 209.99 L573.744 213.3 L564.971 213.3 L564.971 227.374 Q564.971 230.545 565.827 231.448 Q566.707 232.351 569.369 232.351 L573.744 232.351 L573.744 235.916 L569.369 235.916 Q564.438 235.916 562.563 234.087 Q560.688 232.235 560.688 227.374 L560.688 213.3 L557.563 213.3 L557.563 209.99 L560.688 209.99 L560.688 202.629 L564.971 202.629 Z" fill="#000000" fill-rule="nonzero" fill-opacity="1" /><path clip-path="url(#clip240)" d="M579.346 209.99 L583.605 209.99 L583.605 235.916 L579.346 235.916 L579.346 209.99 M579.346 199.897 L583.605 199.897 L583.605 205.291 L579.346 205.291 L579.346 199.897 Z" fill="#000000" fill-rule="nonzero" fill-opacity="1" /><path clip-path="url(#clip240)" d="M612.702 214.967 Q614.299 212.096 616.521 210.731 Q618.744 209.365 621.753 209.365 Q625.804 209.365 628.003 212.212 Q630.202 215.036 630.202 220.268 L630.202 235.916 L625.92 235.916 L625.92 220.407 Q625.92 216.68 624.6 214.874 Q623.281 213.069 620.572 213.069 Q617.262 213.069 615.341 215.268 Q613.42 217.467 613.42 221.263 L613.42 235.916 L609.137 235.916 L609.137 220.407 Q609.137 216.657 607.818 214.874 Q606.498 213.069 603.744 213.069 Q600.48 213.069 598.559 215.291 Q596.637 217.49 596.637 221.263 L596.637 235.916 L592.355 235.916 L592.355 209.99 L596.637 209.99 L596.637 214.018 Q598.096 211.633 600.133 210.499 Q602.17 209.365 604.971 209.365 Q607.795 209.365 609.762 210.8 Q611.753 212.235 612.702 214.967 Z" fill="#000000" fill-rule="nonzero" fill-opacity="1" /><path clip-path="url(#clip240)" d="M650.48 222.883 Q645.318 222.883 643.327 224.064 Q641.336 225.244 641.336 228.092 Q641.336 230.36 642.818 231.703 Q644.322 233.022 646.892 233.022 Q650.433 233.022 652.563 230.522 Q654.716 227.999 654.716 223.832 L654.716 222.883 L650.48 222.883 M658.975 221.124 L658.975 235.916 L654.716 235.916 L654.716 231.981 Q653.257 234.342 651.081 235.476 Q648.906 236.587 645.757 236.587 Q641.776 236.587 639.415 234.365 Q637.077 232.119 637.077 228.369 Q637.077 223.994 639.994 221.772 Q642.933 219.55 648.743 219.55 L654.716 219.55 L654.716 219.133 Q654.716 216.194 652.771 214.596 Q650.85 212.976 647.355 212.976 Q645.132 212.976 643.026 213.508 Q640.919 214.041 638.975 215.106 L638.975 211.17 Q641.313 210.268 643.512 209.828 Q645.711 209.365 647.794 209.365 Q653.419 209.365 656.197 212.282 Q658.975 215.198 658.975 221.124 Z" fill="#000000" fill-rule="nonzero" fill-opacity="1" /><path clip-path="url(#clip240)" d="M667.748 199.897 L672.007 199.897 L672.007 235.916 L667.748 235.916 L667.748 199.897 Z" fill="#000000" fill-rule="nonzero" fill-opacity="1" /><path clip-path="url(#clip240)" d="M682.007 230.036 L686.891 230.036 L686.891 235.916 L682.007 235.916 L682.007 230.036 M682.007 211.402 L686.891 211.402 L686.891 217.282 L682.007 217.282 L682.007 211.402 Z" fill="#000000" fill-rule="nonzero" fill-opacity="1" /><path clip-path="url(#clip240)" d="M732.146 214.967 Q733.743 212.096 735.965 210.731 Q738.187 209.365 741.197 209.365 Q745.248 209.365 747.447 212.212 Q749.646 215.036 749.646 220.268 L749.646 235.916 L745.363 235.916 L745.363 220.407 Q745.363 216.68 744.044 214.874 Q742.724 213.069 740.016 213.069 Q736.706 213.069 734.785 215.268 Q732.863 217.467 732.863 221.263 L732.863 235.916 L728.581 235.916 L728.581 220.407 Q728.581 216.657 727.262 214.874 Q725.942 213.069 723.188 213.069 Q719.924 213.069 718.002 215.291 Q716.081 217.49 716.081 221.263 L716.081 235.916 L711.799 235.916 L711.799 209.99 L716.081 209.99 L716.081 214.018 Q717.539 211.633 719.576 210.499 Q721.613 209.365 724.414 209.365 Q727.238 209.365 729.206 210.8 Q731.197 212.235 732.146 214.967 Z" fill="#000000" fill-rule="nonzero" fill-opacity="1" /><path clip-path="url(#clip240)" d="M758.141 209.99 L762.4 209.99 L762.4 235.916 L758.141 235.916 L758.141 209.99 M758.141 199.897 L762.4 199.897 L762.4 205.291 L758.141 205.291 L758.141 199.897 Z" fill="#000000" fill-rule="nonzero" fill-opacity="1" /><path clip-path="url(#clip240)" d="M792.863 220.268 L792.863 235.916 L788.604 235.916 L788.604 220.407 Q788.604 216.726 787.169 214.897 Q785.733 213.069 782.863 213.069 Q779.414 213.069 777.423 215.268 Q775.433 217.467 775.433 221.263 L775.433 235.916 L771.15 235.916 L771.15 209.99 L775.433 209.99 L775.433 214.018 Q776.96 211.68 779.021 210.522 Q781.104 209.365 783.812 209.365 Q788.28 209.365 790.571 212.143 Q792.863 214.897 792.863 220.268 Z" fill="#000000" fill-rule="nonzero" fill-opacity="1" /><path clip-path="url(#clip240)" d="M811.59 199.944 Q808.488 205.268 806.983 210.476 Q805.479 215.684 805.479 221.032 Q805.479 226.379 806.983 231.633 Q808.511 236.865 811.59 242.166 L807.886 242.166 Q804.414 236.726 802.678 231.471 Q800.965 226.217 800.965 221.032 Q800.965 215.87 802.678 210.638 Q804.391 205.407 807.886 199.944 L811.59 199.944 Z" fill="#000000" fill-rule="nonzero" fill-opacity="1" /><path clip-path="url(#clip240)" d="M838.465 222.976 Q838.465 218.277 836.52 215.615 Q834.599 212.93 831.219 212.93 Q827.84 212.93 825.895 215.615 Q823.974 218.277 823.974 222.976 Q823.974 227.675 825.895 230.36 Q827.84 233.022 831.219 233.022 Q834.599 233.022 836.52 230.36 Q838.465 227.675 838.465 222.976 M823.974 213.925 Q825.317 211.61 827.354 210.499 Q829.414 209.365 832.261 209.365 Q836.983 209.365 839.923 213.115 Q842.886 216.865 842.886 222.976 Q842.886 229.087 839.923 232.837 Q836.983 236.587 832.261 236.587 Q829.414 236.587 827.354 235.476 Q825.317 234.342 823.974 232.027 L823.974 235.916 L819.692 235.916 L819.692 199.897 L823.974 199.897 L823.974 213.925 Z" fill="#000000" fill-rule="nonzero" fill-opacity="1" /><path clip-path="url(#clip240)" d="M849.506 225.684 L849.506 209.99 L853.766 209.99 L853.766 225.522 Q853.766 229.203 855.201 231.055 Q856.636 232.883 859.506 232.883 Q862.955 232.883 864.946 230.684 Q866.96 228.485 866.96 224.689 L866.96 209.99 L871.219 209.99 L871.219 235.916 L866.96 235.916 L866.96 231.934 Q865.409 234.295 863.349 235.453 Q861.312 236.587 858.603 236.587 Q854.136 236.587 851.821 233.809 Q849.506 231.031 849.506 225.684 M860.224 209.365 L860.224 209.365 Z" fill="#000000" fill-rule="nonzero" fill-opacity="1" /><path clip-path="url(#clip240)" d="M890.779 238.323 Q888.974 242.953 887.261 244.365 Q885.548 245.777 882.677 245.777 L879.275 245.777 L879.275 242.212 L881.775 242.212 Q883.534 242.212 884.506 241.379 Q885.478 240.545 886.659 237.443 L887.423 235.499 L876.937 209.99 L881.451 209.99 L889.552 230.268 L897.654 209.99 L902.168 209.99 L890.779 238.323 Z" fill="#000000" fill-rule="nonzero" fill-opacity="1" /><path clip-path="url(#clip240)" d="M909.136 230.036 L914.02 230.036 L914.02 234.018 L910.224 241.425 L907.237 241.425 L909.136 234.018 L909.136 230.036 Z" fill="#000000" fill-rule="nonzero" fill-opacity="1" /><path clip-path="url(#clip240)" d="M955.246 213.925 L955.246 199.897 L959.506 199.897 L959.506 235.916 L955.246 235.916 L955.246 232.027 Q953.904 234.342 951.844 235.476 Q949.807 236.587 946.936 236.587 Q942.237 236.587 939.274 232.837 Q936.335 229.087 936.335 222.976 Q936.335 216.865 939.274 213.115 Q942.237 209.365 946.936 209.365 Q949.807 209.365 951.844 210.499 Q953.904 211.61 955.246 213.925 M940.733 222.976 Q940.733 227.675 942.654 230.36 Q944.598 233.022 947.978 233.022 Q951.358 233.022 953.302 230.36 Q955.246 227.675 955.246 222.976 Q955.246 218.277 953.302 215.615 Q951.358 212.93 947.978 212.93 Q944.598 212.93 942.654 215.615 Q940.733 218.277 940.733 222.976 Z" fill="#000000" fill-rule="nonzero" fill-opacity="1" /><path clip-path="url(#clip240)" d="M990.455 221.888 L990.455 223.971 L970.871 223.971 Q971.149 228.369 973.51 230.684 Q975.895 232.976 980.131 232.976 Q982.584 232.976 984.876 232.374 Q987.191 231.772 989.459 230.569 L989.459 234.596 Q987.168 235.568 984.76 236.078 Q982.353 236.587 979.876 236.587 Q973.672 236.587 970.038 232.976 Q966.427 229.365 966.427 223.207 Q966.427 216.842 969.853 213.115 Q973.302 209.365 979.135 209.365 Q984.367 209.365 987.399 212.745 Q990.455 216.101 990.455 221.888 M986.195 220.638 Q986.149 217.143 984.228 215.059 Q982.33 212.976 979.182 212.976 Q975.617 212.976 973.464 214.99 Q971.334 217.004 971.01 220.661 L986.195 220.638 Z" fill="#000000" fill-rule="nonzero" fill-opacity="1" /><path clip-path="url(#clip240)" d="M1017.63 214.967 Q1019.23 212.096 1021.45 210.731 Q1023.67 209.365 1026.68 209.365 Q1030.73 209.365 1032.93 212.212 Q1035.13 215.036 1035.13 220.268 L1035.13 235.916 L1030.85 235.916 L1030.85 220.407 Q1030.85 216.68 1029.53 214.874 Q1028.21 213.069 1025.5 213.069 Q1022.19 213.069 1020.27 215.268 Q1018.35 217.467 1018.35 221.263 L1018.35 235.916 L1014.07 235.916 L1014.07 220.407 Q1014.07 216.657 1012.75 214.874 Q1011.43 213.069 1008.67 213.069 Q1005.41 213.069 1003.49 215.291 Q1001.57 217.49 1001.57 221.263 L1001.57 235.916 L997.283 235.916 L997.283 209.99 L1001.57 209.99 L1001.57 214.018 Q1003.02 211.633 1005.06 210.499 Q1007.1 209.365 1009.9 209.365 Q1012.72 209.365 1014.69 210.8 Q1016.68 212.235 1017.63 214.967 Z" fill="#000000" fill-rule="nonzero" fill-opacity="1" /><path clip-path="url(#clip240)" d="M1055.41 222.883 Q1050.25 222.883 1048.26 224.064 Q1046.26 225.244 1046.26 228.092 Q1046.26 230.36 1047.75 231.703 Q1049.25 233.022 1051.82 233.022 Q1055.36 233.022 1057.49 230.522 Q1059.64 227.999 1059.64 223.832 L1059.64 222.883 L1055.41 222.883 M1063.9 221.124 L1063.9 235.916 L1059.64 235.916 L1059.64 231.981 Q1058.19 234.342 1056.01 235.476 Q1053.83 236.587 1050.69 236.587 Q1046.7 236.587 1044.34 234.365 Q1042.01 232.119 1042.01 228.369 Q1042.01 223.994 1044.92 221.772 Q1047.86 219.55 1053.67 219.55 L1059.64 219.55 L1059.64 219.133 Q1059.64 216.194 1057.7 214.596 Q1055.78 212.976 1052.28 212.976 Q1050.06 212.976 1047.95 213.508 Q1045.85 214.041 1043.9 215.106 L1043.9 211.17 Q1046.24 210.268 1048.44 209.828 Q1050.64 209.365 1052.72 209.365 Q1058.35 209.365 1061.13 212.282 Q1063.9 215.198 1063.9 221.124 Z" fill="#000000" fill-rule="nonzero" fill-opacity="1" /><path clip-path="url(#clip240)" d="M1094.23 220.268 L1094.23 235.916 L1089.97 235.916 L1089.97 220.407 Q1089.97 216.726 1088.53 214.897 Q1087.1 213.069 1084.23 213.069 Q1080.78 213.069 1078.79 215.268 Q1076.8 217.467 1076.8 221.263 L1076.8 235.916 L1072.51 235.916 L1072.51 209.99 L1076.8 209.99 L1076.8 214.018 Q1078.32 211.68 1080.38 210.522 Q1082.47 209.365 1085.18 209.365 Q1089.64 209.365 1091.94 212.143 Q1094.23 214.897 1094.23 220.268 Z" fill="#000000" fill-rule="nonzero" fill-opacity="1" /><path clip-path="url(#clip240)" d="M1119.78 213.925 L1119.78 199.897 L1124.04 199.897 L1124.04 235.916 L1119.78 235.916 L1119.78 232.027 Q1118.44 234.342 1116.38 235.476 Q1114.34 236.587 1111.47 236.587 Q1106.77 236.587 1103.81 232.837 Q1100.87 229.087 1100.87 222.976 Q1100.87 216.865 1103.81 213.115 Q1106.77 209.365 1111.47 209.365 Q1114.34 209.365 1116.38 210.499 Q1118.44 211.61 1119.78 213.925 M1105.27 222.976 Q1105.27 227.675 1107.19 230.36 Q1109.13 233.022 1112.51 233.022 Q1115.89 233.022 1117.84 230.36 Q1119.78 227.675 1119.78 222.976 Q1119.78 218.277 1117.84 215.615 Q1115.89 212.93 1112.51 212.93 Q1109.13 212.93 1107.19 215.615 Q1105.27 218.277 1105.27 222.976 Z" fill="#000000" fill-rule="nonzero" fill-opacity="1" /><path clip-path="url(#clip240)" d="M1132.14 199.944 L1135.85 199.944 Q1139.32 205.407 1141.03 210.638 Q1142.77 215.87 1142.77 221.032 Q1142.77 226.217 1141.03 231.471 Q1139.32 236.726 1135.85 242.166 L1132.14 242.166 Q1135.22 236.865 1136.73 231.633 Q1138.25 226.379 1138.25 221.032 Q1138.25 215.684 1136.73 210.476 Q1135.22 205.268 1132.14 199.944 Z" fill="#000000" fill-rule="nonzero" fill-opacity="1" /><polyline clip-path="url(#clip240)" style="stroke:#ff0000; stroke-linecap:round; stroke-linejoin:round; stroke-width:8; stroke-opacity:1; fill:none" points="326.628,270.476 467.986,270.476 "/>
<path clip-path="url(#clip240)" d="M496.221 257.038 L496.221 270.024 L502.101 270.024 Q505.365 270.024 507.147 268.335 Q508.929 266.645 508.929 263.52 Q508.929 260.418 507.147 258.728 Q505.365 257.038 502.101 257.038 L496.221 257.038 M491.545 253.196 L502.101 253.196 Q507.911 253.196 510.874 255.835 Q513.86 258.45 513.86 263.52 Q513.86 268.635 510.874 271.251 Q507.911 273.867 502.101 273.867 L496.221 273.867 L496.221 287.756 L491.545 287.756 L491.545 253.196 Z" fill="#000000" fill-rule="nonzero" fill-opacity="1" /><path clip-path="url(#clip240)" d="M517.054 253.196 L521.777 253.196 L529.045 282.409 L536.29 253.196 L541.545 253.196 L548.813 282.409 L556.059 253.196 L560.804 253.196 L552.124 287.756 L546.244 287.756 L538.952 257.756 L531.591 287.756 L525.712 287.756 L517.054 253.196 Z" fill="#000000" fill-rule="nonzero" fill-opacity="1" /><path clip-path="url(#clip240)" d="M567.008 253.196 L571.684 253.196 L571.684 283.821 L588.512 283.821 L588.512 287.756 L567.008 287.756 L567.008 253.196 Z" fill="#000000" fill-rule="nonzero" fill-opacity="1" /><path clip-path="url(#clip240)" d="M618.535 251.784 Q615.433 257.108 613.929 262.316 Q612.424 267.524 612.424 272.872 Q612.424 278.219 613.929 283.473 Q615.457 288.705 618.535 294.006 L614.832 294.006 Q611.359 288.566 609.623 283.311 Q607.91 278.057 607.91 272.872 Q607.91 267.71 609.623 262.478 Q611.336 257.247 614.832 251.784 L618.535 251.784 Z" fill="#000000" fill-rule="nonzero" fill-opacity="1" /><path clip-path="url(#clip240)" d="M641.568 269.122 Q644.924 269.839 646.799 272.108 Q648.697 274.376 648.697 277.709 Q648.697 282.825 645.179 285.626 Q641.66 288.427 635.179 288.427 Q633.003 288.427 630.688 287.987 Q628.396 287.571 625.943 286.714 L625.943 282.2 Q627.887 283.334 630.202 283.913 Q632.517 284.492 635.04 284.492 Q639.438 284.492 641.73 282.756 Q644.044 281.02 644.044 277.709 Q644.044 274.654 641.892 272.941 Q639.762 271.205 635.943 271.205 L631.915 271.205 L631.915 267.362 L636.128 267.362 Q639.577 267.362 641.406 265.997 Q643.234 264.608 643.234 262.015 Q643.234 259.353 641.336 257.941 Q639.461 256.506 635.943 256.506 Q634.021 256.506 631.822 256.923 Q629.623 257.339 626.984 258.219 L626.984 254.052 Q629.646 253.311 631.961 252.941 Q634.299 252.571 636.359 252.571 Q641.683 252.571 644.785 255.001 Q647.887 257.409 647.887 261.529 Q647.887 264.399 646.244 266.39 Q644.6 268.358 641.568 269.122 Z" fill="#000000" fill-rule="nonzero" fill-opacity="1" /><path clip-path="url(#clip240)" d="M690.641 274.816 Q690.641 270.117 688.697 267.455 Q686.776 264.77 683.396 264.77 Q680.016 264.77 678.072 267.455 Q676.151 270.117 676.151 274.816 Q676.151 279.515 678.072 282.2 Q680.016 284.862 683.396 284.862 Q686.776 284.862 688.697 282.2 Q690.641 279.515 690.641 274.816 M676.151 265.765 Q677.493 263.45 679.53 262.339 Q681.591 261.205 684.438 261.205 Q689.16 261.205 692.1 264.955 Q695.063 268.705 695.063 274.816 Q695.063 280.927 692.1 284.677 Q689.16 288.427 684.438 288.427 Q681.591 288.427 679.53 287.316 Q677.493 286.182 676.151 283.867 L676.151 287.756 L671.868 287.756 L671.868 251.737 L676.151 251.737 L676.151 265.765 Z" fill="#000000" fill-rule="nonzero" fill-opacity="1" /><path clip-path="url(#clip240)" d="M717.146 265.811 Q716.428 265.395 715.572 265.21 Q714.739 265.001 713.72 265.001 Q710.109 265.001 708.164 267.362 Q706.243 269.7 706.243 274.098 L706.243 287.756 L701.961 287.756 L701.961 261.83 L706.243 261.83 L706.243 265.858 Q707.586 263.497 709.739 262.362 Q711.891 261.205 714.97 261.205 Q715.41 261.205 715.942 261.274 Q716.475 261.321 717.123 261.436 L717.146 265.811 Z" fill="#000000" fill-rule="nonzero" fill-opacity="1" /><path clip-path="url(#clip240)" d="M742.748 273.728 L742.748 275.811 L723.164 275.811 Q723.442 280.209 725.803 282.524 Q728.188 284.816 732.424 284.816 Q734.877 284.816 737.169 284.214 Q739.484 283.612 741.752 282.409 L741.752 286.436 Q739.461 287.408 737.053 287.918 Q734.646 288.427 732.169 288.427 Q725.965 288.427 722.331 284.816 Q718.72 281.205 718.72 275.047 Q718.72 268.682 722.146 264.955 Q725.595 261.205 731.428 261.205 Q736.66 261.205 739.692 264.585 Q742.748 267.941 742.748 273.728 M738.488 272.478 Q738.442 268.983 736.521 266.899 Q734.623 264.816 731.475 264.816 Q727.91 264.816 725.757 266.83 Q723.627 268.844 723.303 272.501 L738.488 272.478 Z" fill="#000000" fill-rule="nonzero" fill-opacity="1" /><path clip-path="url(#clip240)" d="M761.521 274.723 Q756.359 274.723 754.368 275.904 Q752.377 277.084 752.377 279.932 Q752.377 282.2 753.859 283.543 Q755.363 284.862 757.933 284.862 Q761.474 284.862 763.604 282.362 Q765.757 279.839 765.757 275.672 L765.757 274.723 L761.521 274.723 M770.016 272.964 L770.016 287.756 L765.757 287.756 L765.757 283.821 Q764.298 286.182 762.123 287.316 Q759.947 288.427 756.798 288.427 Q752.817 288.427 750.456 286.205 Q748.118 283.959 748.118 280.209 Q748.118 275.834 751.035 273.612 Q753.974 271.39 759.785 271.39 L765.757 271.39 L765.757 270.973 Q765.757 268.034 763.812 266.436 Q761.891 264.816 758.396 264.816 Q756.173 264.816 754.067 265.348 Q751.961 265.881 750.016 266.946 L750.016 263.01 Q752.354 262.108 754.553 261.668 Q756.752 261.205 758.835 261.205 Q764.46 261.205 767.238 264.122 Q770.016 267.038 770.016 272.964 Z" fill="#000000" fill-rule="nonzero" fill-opacity="1" /><path clip-path="url(#clip240)" d="M778.627 251.737 L782.909 251.737 L782.909 273.01 L795.618 261.83 L801.057 261.83 L787.308 273.959 L801.636 287.756 L796.081 287.756 L782.909 275.094 L782.909 287.756 L778.627 287.756 L778.627 251.737 Z" fill="#000000" fill-rule="nonzero" fill-opacity="1" /><path clip-path="url(#clip240)" d="M810.363 283.867 L810.363 297.617 L806.081 297.617 L806.081 261.83 L810.363 261.83 L810.363 265.765 Q811.706 263.45 813.743 262.339 Q815.803 261.205 818.65 261.205 Q823.372 261.205 826.312 264.955 Q829.275 268.705 829.275 274.816 Q829.275 280.927 826.312 284.677 Q823.372 288.427 818.65 288.427 Q815.803 288.427 813.743 287.316 Q811.706 286.182 810.363 283.867 M824.854 274.816 Q824.854 270.117 822.909 267.455 Q820.988 264.77 817.608 264.77 Q814.229 264.77 812.284 267.455 Q810.363 270.117 810.363 274.816 Q810.363 279.515 812.284 282.2 Q814.229 284.862 817.608 284.862 Q820.988 284.862 822.909 282.2 Q824.854 279.515 824.854 274.816 Z" fill="#000000" fill-rule="nonzero" fill-opacity="1" /><path clip-path="url(#clip240)" d="M846.381 264.816 Q842.955 264.816 840.965 267.501 Q838.974 270.163 838.974 274.816 Q838.974 279.469 840.942 282.154 Q842.932 284.816 846.381 284.816 Q849.784 284.816 851.775 282.131 Q853.766 279.446 853.766 274.816 Q853.766 270.21 851.775 267.524 Q849.784 264.816 846.381 264.816 M846.381 261.205 Q851.937 261.205 855.108 264.816 Q858.279 268.427 858.279 274.816 Q858.279 281.182 855.108 284.816 Q851.937 288.427 846.381 288.427 Q840.803 288.427 837.631 284.816 Q834.483 281.182 834.483 274.816 Q834.483 268.427 837.631 264.816 Q840.803 261.205 846.381 261.205 Z" fill="#000000" fill-rule="nonzero" fill-opacity="1" /><path clip-path="url(#clip240)" d="M865.34 261.83 L869.599 261.83 L869.599 287.756 L865.34 287.756 L865.34 261.83 M865.34 251.737 L869.599 251.737 L869.599 257.131 L865.34 257.131 L865.34 251.737 Z" fill="#000000" fill-rule="nonzero" fill-opacity="1" /><path clip-path="url(#clip240)" d="M900.062 272.108 L900.062 287.756 L895.802 287.756 L895.802 272.247 Q895.802 268.566 894.367 266.737 Q892.932 264.909 890.062 264.909 Q886.613 264.909 884.622 267.108 Q882.631 269.307 882.631 273.103 L882.631 287.756 L878.349 287.756 L878.349 261.83 L882.631 261.83 L882.631 265.858 Q884.159 263.52 886.219 262.362 Q888.302 261.205 891.011 261.205 Q895.478 261.205 897.77 263.983 Q900.062 266.737 900.062 272.108 Z" fill="#000000" fill-rule="nonzero" fill-opacity="1" /><path clip-path="url(#clip240)" d="M912.77 254.469 L912.77 261.83 L921.543 261.83 L921.543 265.14 L912.77 265.14 L912.77 279.214 Q912.77 282.385 913.626 283.288 Q914.506 284.191 917.168 284.191 L921.543 284.191 L921.543 287.756 L917.168 287.756 Q912.237 287.756 910.362 285.927 Q908.487 284.075 908.487 279.214 L908.487 265.14 L905.362 265.14 L905.362 261.83 L908.487 261.83 L908.487 254.469 L912.77 254.469 Z" fill="#000000" fill-rule="nonzero" fill-opacity="1" /><path clip-path="url(#clip240)" d="M943.672 262.594 L943.672 266.622 Q941.867 265.696 939.922 265.233 Q937.978 264.77 935.895 264.77 Q932.723 264.77 931.126 265.742 Q929.552 266.714 929.552 268.659 Q929.552 270.14 930.686 270.997 Q931.821 271.83 935.247 272.594 L936.705 272.918 Q941.242 273.89 943.14 275.672 Q945.061 277.432 945.061 280.603 Q945.061 284.214 942.191 286.321 Q939.344 288.427 934.344 288.427 Q932.26 288.427 929.992 288.01 Q927.747 287.617 925.247 286.807 L925.247 282.409 Q927.608 283.635 929.899 284.26 Q932.191 284.862 934.436 284.862 Q937.446 284.862 939.066 283.844 Q940.686 282.802 940.686 280.927 Q940.686 279.191 939.506 278.265 Q938.348 277.339 934.39 276.483 L932.909 276.135 Q928.95 275.302 927.191 273.589 Q925.432 271.853 925.432 268.844 Q925.432 265.186 928.024 263.196 Q930.617 261.205 935.385 261.205 Q937.747 261.205 939.83 261.552 Q941.913 261.899 943.672 262.594 Z" fill="#000000" fill-rule="nonzero" fill-opacity="1" /><path clip-path="url(#clip240)" d="M951.172 251.784 L954.876 251.784 Q958.348 257.247 960.061 262.478 Q961.797 267.71 961.797 272.872 Q961.797 278.057 960.061 283.311 Q958.348 288.566 954.876 294.006 L951.172 294.006 Q954.251 288.705 955.756 283.473 Q957.284 278.219 957.284 272.872 Q957.284 267.524 955.756 262.316 Q954.251 257.108 951.172 251.784 Z" fill="#000000" fill-rule="nonzero" fill-opacity="1" /></svg>
