<?xml version="1.0" encoding="utf-8"?>
<svg xmlns="http://www.w3.org/2000/svg" xmlns:xlink="http://www.w3.org/1999/xlink" width="600" height="400" viewBox="0 0 2400 1600">
<defs>
  <clipPath id="clip180">
    <rect x="0" y="0" width="2400" height="1600"/>
  </clipPath>
</defs>
<path clip-path="url(#clip180)" d="M0 1600 L2400 1600 L2400 0 L0 0  Z" fill="#ffffff" fill-rule="evenodd" fill-opacity="1"/>
<defs>
  <clipPath id="clip181">
    <rect x="235" y="123" width="2118" height="1301"/>
  </clipPath>
</defs>
<path clip-path="url(#clip180)" d="M235.283 1423.18 L2352.76 1423.18 L2352.76 123.472 L235.283 123.472  Z" fill="#ffffff" fill-rule="evenodd" fill-opacity="1"/>
<polyline clip-path="url(#clip181)" style="stroke:#000000; stroke-linecap:round; stroke-linejoin:round; stroke-width:2; stroke-opacity:0.1; fill:none" points="295.211,1423.18 295.211,123.472 "/>
<polyline clip-path="url(#clip181)" style="stroke:#000000; stroke-linecap:round; stroke-linejoin:round; stroke-width:2; stroke-opacity:0.1; fill:none" points="694.735,1423.18 694.735,123.472 "/>
<polyline clip-path="url(#clip181)" style="stroke:#000000; stroke-linecap:round; stroke-linejoin:round; stroke-width:2; stroke-opacity:0.1; fill:none" points="1094.26,1423.18 1094.26,123.472 "/>
<polyline clip-path="url(#clip181)" style="stroke:#000000; stroke-linecap:round; stroke-linejoin:round; stroke-width:2; stroke-opacity:0.1; fill:none" points="1493.78,1423.18 1493.78,123.472 "/>
<polyline clip-path="url(#clip181)" style="stroke:#000000; stroke-linecap:round; stroke-linejoin:round; stroke-width:2; stroke-opacity:0.1; fill:none" points="1893.3,1423.18 1893.3,123.472 "/>
<polyline clip-path="url(#clip181)" style="stroke:#000000; stroke-linecap:round; stroke-linejoin:round; stroke-width:2; stroke-opacity:0.1; fill:none" points="2292.83,1423.18 2292.83,123.472 "/>
<polyline clip-path="url(#clip181)" style="stroke:#000000; stroke-linecap:round; stroke-linejoin:round; stroke-width:2; stroke-opacity:0.1; fill:none" points="235.283,1386.4 2352.76,1386.4 "/>
<polyline clip-path="url(#clip181)" style="stroke:#000000; stroke-linecap:round; stroke-linejoin:round; stroke-width:2; stroke-opacity:0.1; fill:none" points="235.283,1156.49 2352.76,1156.49 "/>
<polyline clip-path="url(#clip181)" style="stroke:#000000; stroke-linecap:round; stroke-linejoin:round; stroke-width:2; stroke-opacity:0.1; fill:none" points="235.283,926.593 2352.76,926.593 "/>
<polyline clip-path="url(#clip181)" style="stroke:#000000; stroke-linecap:round; stroke-linejoin:round; stroke-width:2; stroke-opacity:0.1; fill:none" points="235.283,696.692 2352.76,696.692 "/>
<polyline clip-path="url(#clip181)" style="stroke:#000000; stroke-linecap:round; stroke-linejoin:round; stroke-width:2; stroke-opacity:0.1; fill:none" points="235.283,466.791 2352.76,466.791 "/>
<polyline clip-path="url(#clip181)" style="stroke:#000000; stroke-linecap:round; stroke-linejoin:round; stroke-width:2; stroke-opacity:0.1; fill:none" points="235.283,236.89 2352.76,236.89 "/>
<polyline clip-path="url(#clip180)" style="stroke:#000000; stroke-linecap:round; stroke-linejoin:round; stroke-width:4; stroke-opacity:1; fill:none" points="235.283,1423.18 2352.76,1423.18 "/>
<polyline clip-path="url(#clip180)" style="stroke:#000000; stroke-linecap:round; stroke-linejoin:round; stroke-width:4; stroke-opacity:1; fill:none" points="295.211,1423.18 295.211,1404.28 "/>
<polyline clip-path="url(#clip180)" style="stroke:#000000; stroke-linecap:round; stroke-linejoin:round; stroke-width:4; stroke-opacity:1; fill:none" points="694.735,1423.18 694.735,1404.28 "/>
<polyline clip-path="url(#clip180)" style="stroke:#000000; stroke-linecap:round; stroke-linejoin:round; stroke-width:4; stroke-opacity:1; fill:none" points="1094.26,1423.18 1094.26,1404.28 "/>
<polyline clip-path="url(#clip180)" style="stroke:#000000; stroke-linecap:round; stroke-linejoin:round; stroke-width:4; stroke-opacity:1; fill:none" points="1493.78,1423.18 1493.78,1404.28 "/>
<polyline clip-path="url(#clip180)" style="stroke:#000000; stroke-linecap:round; stroke-linejoin:round; stroke-width:4; stroke-opacity:1; fill:none" points="1893.3,1423.18 1893.3,1404.28 "/>
<polyline clip-path="url(#clip180)" style="stroke:#000000; stroke-linecap:round; stroke-linejoin:round; stroke-width:4; stroke-opacity:1; fill:none" points="2292.83,1423.18 2292.83,1404.28 "/>
<path clip-path="url(#clip180)" d="M295.211 1454.1 Q291.6 1454.1 289.772 1457.66 Q287.966 1461.2 287.966 1468.33 Q287.966 1475.44 289.772 1479.01 Q291.6 1482.55 295.211 1482.55 Q298.846 1482.55 300.651 1479.01 Q302.48 1475.44 302.48 1468.33 Q302.48 1461.2 300.651 1457.66 Q298.846 1454.1 295.211 1454.1 M295.211 1450.39 Q301.021 1450.39 304.077 1455 Q307.156 1459.58 307.156 1468.33 Q307.156 1477.06 304.077 1481.67 Q301.021 1486.25 295.211 1486.25 Q289.401 1486.25 286.322 1481.67 Q283.267 1477.06 283.267 1468.33 Q283.267 1459.58 286.322 1455 Q289.401 1450.39 295.211 1450.39 Z" fill="#000000" fill-rule="nonzero" fill-opacity="1" /><path clip-path="url(#clip180)" d="M685.117 1481.64 L692.755 1481.64 L692.755 1455.28 L684.445 1456.95 L684.445 1452.69 L692.709 1451.02 L697.385 1451.02 L697.385 1481.64 L705.024 1481.64 L705.024 1485.58 L685.117 1485.58 L685.117 1481.64 Z" fill="#000000" fill-rule="nonzero" fill-opacity="1" /><path clip-path="url(#clip180)" d="M1088.91 1481.64 L1105.23 1481.64 L1105.23 1485.58 L1083.29 1485.58 L1083.29 1481.64 Q1085.95 1478.89 1090.53 1474.26 Q1095.14 1469.61 1096.32 1468.27 Q1098.56 1465.74 1099.44 1464.01 Q1100.35 1462.25 1100.35 1460.56 Q1100.35 1457.8 1098.4 1456.07 Q1096.48 1454.33 1093.38 1454.33 Q1091.18 1454.33 1088.73 1455.09 Q1086.29 1455.86 1083.52 1457.41 L1083.52 1452.69 Q1086.34 1451.55 1088.79 1450.97 Q1091.25 1450.39 1093.29 1450.39 Q1098.66 1450.39 1101.85 1453.08 Q1105.04 1455.77 1105.04 1460.26 Q1105.04 1462.39 1104.23 1464.31 Q1103.45 1466.2 1101.34 1468.8 Q1100.76 1469.47 1097.66 1472.69 Q1094.56 1475.88 1088.91 1481.64 Z" fill="#000000" fill-rule="nonzero" fill-opacity="1" /><path clip-path="url(#clip180)" d="M1498.03 1466.95 Q1501.39 1467.66 1503.26 1469.93 Q1505.16 1472.2 1505.16 1475.53 Q1505.16 1480.65 1501.64 1483.45 Q1498.12 1486.25 1491.64 1486.25 Q1489.46 1486.25 1487.15 1485.81 Q1484.86 1485.39 1482.4 1484.54 L1482.4 1480.02 Q1484.35 1481.16 1486.66 1481.74 Q1488.98 1482.32 1491.5 1482.32 Q1495.9 1482.32 1498.19 1480.58 Q1500.51 1478.84 1500.51 1475.53 Q1500.51 1472.48 1498.35 1470.77 Q1496.22 1469.03 1492.4 1469.03 L1488.38 1469.03 L1488.38 1465.19 L1492.59 1465.19 Q1496.04 1465.19 1497.87 1463.82 Q1499.7 1462.43 1499.7 1459.84 Q1499.7 1457.18 1497.8 1455.77 Q1495.92 1454.33 1492.4 1454.33 Q1490.48 1454.33 1488.28 1454.75 Q1486.08 1455.16 1483.45 1456.04 L1483.45 1451.88 Q1486.11 1451.14 1488.42 1450.77 Q1490.76 1450.39 1492.82 1450.39 Q1498.14 1450.39 1501.25 1452.83 Q1504.35 1455.23 1504.35 1459.35 Q1504.35 1462.22 1502.7 1464.21 Q1501.06 1466.18 1498.03 1466.95 Z" fill="#000000" fill-rule="nonzero" fill-opacity="1" /><path clip-path="url(#clip180)" d="M1896.31 1455.09 L1884.51 1473.54 L1896.31 1473.54 L1896.31 1455.09 M1895.09 1451.02 L1900.97 1451.02 L1900.97 1473.54 L1905.9 1473.54 L1905.9 1477.43 L1900.97 1477.43 L1900.97 1485.58 L1896.31 1485.58 L1896.31 1477.43 L1880.71 1477.43 L1880.71 1472.92 L1895.09 1451.02 Z" fill="#000000" fill-rule="nonzero" fill-opacity="1" /><path clip-path="url(#clip180)" d="M2283.11 1451.02 L2301.46 1451.02 L2301.46 1454.96 L2287.39 1454.96 L2287.39 1463.43 Q2288.41 1463.08 2289.42 1462.92 Q2290.44 1462.73 2291.46 1462.73 Q2297.25 1462.73 2300.63 1465.9 Q2304.01 1469.08 2304.01 1474.49 Q2304.01 1480.07 2300.54 1483.17 Q2297.06 1486.25 2290.74 1486.25 Q2288.57 1486.25 2286.3 1485.88 Q2284.05 1485.51 2281.65 1484.77 L2281.65 1480.07 Q2283.73 1481.2 2285.95 1481.76 Q2288.17 1482.32 2290.65 1482.32 Q2294.66 1482.32 2296.99 1480.21 Q2299.33 1478.1 2299.33 1474.49 Q2299.33 1470.88 2296.99 1468.77 Q2294.66 1466.67 2290.65 1466.67 Q2288.78 1466.67 2286.9 1467.08 Q2285.05 1467.5 2283.11 1468.38 L2283.11 1451.02 Z" fill="#000000" fill-rule="nonzero" fill-opacity="1" /><path clip-path="url(#clip180)" d="M923.376 1520.52 L932.033 1520.52 L953.104 1560.28 L953.104 1520.52 L959.342 1520.52 L959.342 1568.04 L950.685 1568.04 L929.615 1528.29 L929.615 1568.04 L923.376 1568.04 L923.376 1520.52 Z" fill="#000000" fill-rule="nonzero" fill-opacity="1" /><path clip-path="url(#clip180)" d="M971.278 1553.98 L971.278 1532.4 L977.135 1532.4 L977.135 1553.75 Q977.135 1558.81 979.108 1561.36 Q981.081 1563.87 985.028 1563.87 Q989.77 1563.87 992.508 1560.85 Q995.277 1557.83 995.277 1552.61 L995.277 1532.4 L1001.13 1532.4 L1001.13 1568.04 L995.277 1568.04 L995.277 1562.57 Q993.144 1565.82 990.312 1567.41 Q987.511 1568.97 983.787 1568.97 Q977.644 1568.97 974.461 1565.15 Q971.278 1561.33 971.278 1553.98 M986.015 1531.54 L986.015 1531.54 Z" fill="#000000" fill-rule="nonzero" fill-opacity="1" /><path clip-path="url(#clip180)" d="M1040.95 1539.24 Q1043.15 1535.29 1046.2 1533.41 Q1049.26 1531.54 1053.4 1531.54 Q1058.97 1531.54 1061.99 1535.45 Q1065.01 1539.33 1065.01 1546.53 L1065.01 1568.04 L1059.12 1568.04 L1059.12 1546.72 Q1059.12 1541.59 1057.31 1539.11 Q1055.5 1536.63 1051.77 1536.63 Q1047.22 1536.63 1044.58 1539.65 Q1041.94 1542.68 1041.94 1547.9 L1041.94 1568.04 L1036.05 1568.04 L1036.05 1546.72 Q1036.05 1541.56 1034.23 1539.11 Q1032.42 1536.63 1028.63 1536.63 Q1024.15 1536.63 1021.5 1539.68 Q1018.86 1542.71 1018.86 1547.9 L1018.86 1568.04 L1012.97 1568.04 L1012.97 1532.4 L1018.86 1532.4 L1018.86 1537.93 Q1020.87 1534.66 1023.67 1533.1 Q1026.47 1531.54 1030.32 1531.54 Q1034.2 1531.54 1036.91 1533.51 Q1039.65 1535.48 1040.95 1539.24 Z" fill="#000000" fill-rule="nonzero" fill-opacity="1" /><path clip-path="url(#clip180)" d="M1102.28 1550.25 Q1102.28 1543.79 1099.61 1540.13 Q1096.97 1536.44 1092.32 1536.44 Q1087.67 1536.44 1085 1540.13 Q1082.36 1543.79 1082.36 1550.25 Q1082.36 1556.71 1085 1560.4 Q1087.67 1564.07 1092.32 1564.07 Q1096.97 1564.07 1099.61 1560.4 Q1102.28 1556.71 1102.28 1550.25 M1082.36 1537.81 Q1084.21 1534.62 1087.01 1533.1 Q1089.84 1531.54 1093.75 1531.54 Q1100.25 1531.54 1104.29 1536.69 Q1108.36 1541.85 1108.36 1550.25 Q1108.36 1558.65 1104.29 1563.81 Q1100.25 1568.97 1093.75 1568.97 Q1089.84 1568.97 1087.01 1567.44 Q1084.21 1565.88 1082.36 1562.7 L1082.36 1568.04 L1076.47 1568.04 L1076.47 1518.52 L1082.36 1518.52 L1082.36 1537.81 Z" fill="#000000" fill-rule="nonzero" fill-opacity="1" /><path clip-path="url(#clip180)" d="M1148.56 1548.76 L1148.56 1551.62 L1121.64 1551.62 Q1122.02 1557.67 1125.26 1560.85 Q1128.54 1564 1134.37 1564 Q1137.74 1564 1140.89 1563.17 Q1144.08 1562.35 1147.19 1560.69 L1147.19 1566.23 Q1144.04 1567.57 1140.73 1568.27 Q1137.42 1568.97 1134.02 1568.97 Q1125.49 1568.97 1120.49 1564 Q1115.52 1559.04 1115.52 1550.57 Q1115.52 1541.82 1120.24 1536.69 Q1124.98 1531.54 1133 1531.54 Q1140.19 1531.54 1144.36 1536.18 Q1148.56 1540.8 1148.56 1548.76 M1142.71 1547.04 Q1142.64 1542.23 1140 1539.37 Q1137.39 1536.5 1133.06 1536.5 Q1128.16 1536.5 1125.2 1539.27 Q1122.27 1542.04 1121.83 1547.07 L1142.71 1547.04 Z" fill="#000000" fill-rule="nonzero" fill-opacity="1" /><path clip-path="url(#clip180)" d="M1178.83 1537.87 Q1177.85 1537.3 1176.67 1537.04 Q1175.52 1536.76 1174.12 1536.76 Q1169.16 1536.76 1166.48 1540 Q1163.84 1543.22 1163.84 1549.27 L1163.84 1568.04 L1157.95 1568.04 L1157.95 1532.4 L1163.84 1532.4 L1163.84 1537.93 Q1165.69 1534.69 1168.65 1533.13 Q1171.61 1531.54 1175.84 1531.54 Q1176.44 1531.54 1177.18 1531.63 Q1177.91 1531.7 1178.8 1531.85 L1178.83 1537.87 Z" fill="#000000" fill-rule="nonzero" fill-opacity="1" /><path clip-path="url(#clip180)" d="M1219.51 1536.5 Q1214.8 1536.5 1212.06 1540.19 Q1209.32 1543.85 1209.32 1550.25 Q1209.32 1556.65 1212.03 1560.34 Q1214.77 1564 1219.51 1564 Q1224.19 1564 1226.92 1560.31 Q1229.66 1556.62 1229.66 1550.25 Q1229.66 1543.92 1226.92 1540.23 Q1224.19 1536.5 1219.51 1536.5 M1219.51 1531.54 Q1227.15 1531.54 1231.51 1536.5 Q1235.87 1541.47 1235.87 1550.25 Q1235.87 1559 1231.51 1564 Q1227.15 1568.97 1219.51 1568.97 Q1211.84 1568.97 1207.48 1564 Q1203.15 1559 1203.15 1550.25 Q1203.15 1541.47 1207.48 1536.5 Q1211.84 1531.54 1219.51 1531.54 Z" fill="#000000" fill-rule="nonzero" fill-opacity="1" /><path clip-path="url(#clip180)" d="M1263.62 1518.52 L1263.62 1523.39 L1258.02 1523.39 Q1254.87 1523.39 1253.63 1524.66 Q1252.42 1525.93 1252.42 1529.24 L1252.42 1532.4 L1262.06 1532.4 L1262.06 1536.95 L1252.42 1536.95 L1252.42 1568.04 L1246.53 1568.04 L1246.53 1536.95 L1240.93 1536.95 L1240.93 1532.4 L1246.53 1532.4 L1246.53 1529.91 Q1246.53 1523.96 1249.3 1521.26 Q1252.07 1518.52 1258.08 1518.52 L1263.62 1518.52 Z" fill="#000000" fill-rule="nonzero" fill-opacity="1" /><path clip-path="url(#clip180)" d="M1314.84 1550.25 Q1314.84 1543.79 1312.16 1540.13 Q1309.52 1536.44 1304.87 1536.44 Q1300.23 1536.44 1297.55 1540.13 Q1294.91 1543.79 1294.91 1550.25 Q1294.91 1556.71 1297.55 1560.4 Q1300.23 1564.07 1304.87 1564.07 Q1309.52 1564.07 1312.16 1560.4 Q1314.84 1556.71 1314.84 1550.25 M1294.91 1537.81 Q1296.76 1534.62 1299.56 1533.1 Q1302.39 1531.54 1306.31 1531.54 Q1312.8 1531.54 1316.84 1536.69 Q1320.91 1541.85 1320.91 1550.25 Q1320.91 1558.65 1316.84 1563.81 Q1312.8 1568.97 1306.31 1568.97 Q1302.39 1568.97 1299.56 1567.44 Q1296.76 1565.88 1294.91 1562.7 L1294.91 1568.04 L1289.02 1568.04 L1289.02 1518.52 L1294.91 1518.52 L1294.91 1537.81 Z" fill="#000000" fill-rule="nonzero" fill-opacity="1" /><path clip-path="url(#clip180)" d="M1351.28 1537.87 Q1350.29 1537.3 1349.11 1537.04 Q1347.97 1536.76 1346.57 1536.76 Q1341.6 1536.76 1338.93 1540 Q1336.29 1543.22 1336.29 1549.27 L1336.29 1568.04 L1330.4 1568.04 L1330.4 1532.4 L1336.29 1532.4 L1336.29 1537.93 Q1338.13 1534.69 1341.09 1533.13 Q1344.05 1531.54 1348.29 1531.54 Q1348.89 1531.54 1349.62 1531.63 Q1350.36 1531.7 1351.25 1531.85 L1351.28 1537.87 Z" fill="#000000" fill-rule="nonzero" fill-opacity="1" /><path clip-path="url(#clip180)" d="M1386.48 1548.76 L1386.48 1551.62 L1359.55 1551.62 Q1359.94 1557.67 1363.18 1560.85 Q1366.46 1564 1372.29 1564 Q1375.66 1564 1378.81 1563.17 Q1381.99 1562.35 1385.11 1560.69 L1385.11 1566.23 Q1381.96 1567.57 1378.65 1568.27 Q1375.34 1568.97 1371.94 1568.97 Q1363.41 1568.97 1358.41 1564 Q1353.44 1559.04 1353.44 1550.57 Q1353.44 1541.82 1358.15 1536.69 Q1362.9 1531.54 1370.92 1531.54 Q1378.11 1531.54 1382.28 1536.18 Q1386.48 1540.8 1386.48 1548.76 M1380.62 1547.04 Q1380.56 1542.23 1377.92 1539.37 Q1375.31 1536.5 1370.98 1536.5 Q1366.08 1536.5 1363.12 1539.27 Q1360.19 1542.04 1359.75 1547.07 L1380.62 1547.04 Z" fill="#000000" fill-rule="nonzero" fill-opacity="1" /><path clip-path="url(#clip180)" d="M1412.29 1550.12 Q1405.2 1550.12 1402.46 1551.75 Q1399.72 1553.37 1399.72 1557.29 Q1399.72 1560.4 1401.76 1562.25 Q1403.83 1564.07 1407.36 1564.07 Q1412.23 1564.07 1415.16 1560.63 Q1418.12 1557.16 1418.12 1551.43 L1418.12 1550.12 L1412.29 1550.12 M1423.98 1547.71 L1423.98 1568.04 L1418.12 1568.04 L1418.12 1562.63 Q1416.11 1565.88 1413.12 1567.44 Q1410.13 1568.97 1405.8 1568.97 Q1400.33 1568.97 1397.08 1565.91 Q1393.87 1562.82 1393.87 1557.67 Q1393.87 1551.65 1397.88 1548.6 Q1401.92 1545.54 1409.91 1545.54 L1418.12 1545.54 L1418.12 1544.97 Q1418.12 1540.93 1415.45 1538.73 Q1412.8 1536.5 1408 1536.5 Q1404.94 1536.5 1402.05 1537.23 Q1399.15 1537.97 1396.48 1539.43 L1396.48 1534.02 Q1399.69 1532.78 1402.71 1532.17 Q1405.74 1531.54 1408.6 1531.54 Q1416.34 1531.54 1420.16 1535.55 Q1423.98 1539.56 1423.98 1547.71 Z" fill="#000000" fill-rule="nonzero" fill-opacity="1" /><path clip-path="url(#clip180)" d="M1435.82 1518.52 L1441.7 1518.52 L1441.7 1547.77 L1459.18 1532.4 L1466.66 1532.4 L1447.75 1549.07 L1467.45 1568.04 L1459.81 1568.04 L1441.7 1550.63 L1441.7 1568.04 L1435.82 1568.04 L1435.82 1518.52 Z" fill="#000000" fill-rule="nonzero" fill-opacity="1" /><path clip-path="url(#clip180)" d="M1479.45 1562.7 L1479.45 1581.6 L1473.56 1581.6 L1473.56 1532.4 L1479.45 1532.4 L1479.45 1537.81 Q1481.3 1534.62 1484.1 1533.1 Q1486.93 1531.54 1490.85 1531.54 Q1497.34 1531.54 1501.38 1536.69 Q1505.46 1541.85 1505.46 1550.25 Q1505.46 1558.65 1501.38 1563.81 Q1497.34 1568.97 1490.85 1568.97 Q1486.93 1568.97 1484.1 1567.44 Q1481.3 1565.88 1479.45 1562.7 M1499.38 1550.25 Q1499.38 1543.79 1496.7 1540.13 Q1494.06 1536.44 1489.41 1536.44 Q1484.77 1536.44 1482.09 1540.13 Q1479.45 1543.79 1479.45 1550.25 Q1479.45 1556.71 1482.09 1560.4 Q1484.77 1564.07 1489.41 1564.07 Q1494.06 1564.07 1496.7 1560.4 Q1499.38 1556.71 1499.38 1550.25 Z" fill="#000000" fill-rule="nonzero" fill-opacity="1" /><path clip-path="url(#clip180)" d="M1528.98 1536.5 Q1524.27 1536.5 1521.53 1540.19 Q1518.79 1543.85 1518.79 1550.25 Q1518.79 1556.65 1521.5 1560.34 Q1524.24 1564 1528.98 1564 Q1533.66 1564 1536.39 1560.31 Q1539.13 1556.62 1539.13 1550.25 Q1539.13 1543.92 1536.39 1540.23 Q1533.66 1536.5 1528.98 1536.5 M1528.98 1531.54 Q1536.62 1531.54 1540.98 1536.5 Q1545.34 1541.47 1545.34 1550.25 Q1545.34 1559 1540.98 1564 Q1536.62 1568.97 1528.98 1568.97 Q1521.31 1568.97 1516.95 1564 Q1512.62 1559 1512.62 1550.25 Q1512.62 1541.47 1516.95 1536.5 Q1521.31 1531.54 1528.98 1531.54 Z" fill="#000000" fill-rule="nonzero" fill-opacity="1" /><path clip-path="url(#clip180)" d="M1555.05 1532.4 L1560.9 1532.4 L1560.9 1568.04 L1555.05 1568.04 L1555.05 1532.4 M1555.05 1518.52 L1560.9 1518.52 L1560.9 1525.93 L1555.05 1525.93 L1555.05 1518.52 Z" fill="#000000" fill-rule="nonzero" fill-opacity="1" /><path clip-path="url(#clip180)" d="M1602.79 1546.53 L1602.79 1568.04 L1596.93 1568.04 L1596.93 1546.72 Q1596.93 1541.66 1594.96 1539.14 Q1592.98 1536.63 1589.04 1536.63 Q1584.3 1536.63 1581.56 1539.65 Q1578.82 1542.68 1578.82 1547.9 L1578.82 1568.04 L1572.93 1568.04 L1572.93 1532.4 L1578.82 1532.4 L1578.82 1537.93 Q1580.92 1534.72 1583.75 1533.13 Q1586.62 1531.54 1590.34 1531.54 Q1596.49 1531.54 1599.64 1535.36 Q1602.79 1539.14 1602.79 1546.53 Z" fill="#000000" fill-rule="nonzero" fill-opacity="1" /><path clip-path="url(#clip180)" d="M1620.26 1522.27 L1620.26 1532.4 L1632.32 1532.4 L1632.32 1536.95 L1620.26 1536.95 L1620.26 1556.3 Q1620.26 1560.66 1621.44 1561.9 Q1622.65 1563.14 1626.31 1563.14 L1632.32 1563.14 L1632.32 1568.04 L1626.31 1568.04 Q1619.53 1568.04 1616.95 1565.53 Q1614.37 1562.98 1614.37 1556.3 L1614.37 1536.95 L1610.08 1536.95 L1610.08 1532.4 L1614.37 1532.4 L1614.37 1522.27 L1620.26 1522.27 Z" fill="#000000" fill-rule="nonzero" fill-opacity="1" /><path clip-path="url(#clip180)" d="M1662.75 1533.45 L1662.75 1538.98 Q1660.27 1537.71 1657.6 1537.07 Q1654.92 1536.44 1652.06 1536.44 Q1647.7 1536.44 1645.5 1537.77 Q1643.34 1539.11 1643.34 1541.79 Q1643.34 1543.82 1644.9 1545 Q1646.46 1546.15 1651.17 1547.2 L1653.17 1547.64 Q1659.41 1548.98 1662.02 1551.43 Q1664.66 1553.85 1664.66 1558.21 Q1664.66 1563.17 1660.72 1566.07 Q1656.8 1568.97 1649.93 1568.97 Q1647.06 1568.97 1643.94 1568.39 Q1640.85 1567.85 1637.42 1566.74 L1637.42 1560.69 Q1640.66 1562.38 1643.81 1563.24 Q1646.97 1564.07 1650.05 1564.07 Q1654.19 1564.07 1656.42 1562.66 Q1658.65 1561.23 1658.65 1558.65 Q1658.65 1556.27 1657.02 1554.99 Q1655.43 1553.72 1649.99 1552.54 L1647.95 1552.07 Q1642.51 1550.92 1640.09 1548.56 Q1637.67 1546.18 1637.67 1542.04 Q1637.67 1537.01 1641.24 1534.27 Q1644.8 1531.54 1651.36 1531.54 Q1654.6 1531.54 1657.47 1532.01 Q1660.33 1532.49 1662.75 1533.45 Z" fill="#000000" fill-rule="nonzero" fill-opacity="1" /><polyline clip-path="url(#clip180)" style="stroke:#000000; stroke-linecap:round; stroke-linejoin:round; stroke-width:4; stroke-opacity:1; fill:none" points="235.283,1423.18 235.283,123.472 "/>
<polyline clip-path="url(#clip180)" style="stroke:#000000; stroke-linecap:round; stroke-linejoin:round; stroke-width:4; stroke-opacity:1; fill:none" points="235.283,1386.4 254.18,1386.4 "/>
<polyline clip-path="url(#clip180)" style="stroke:#000000; stroke-linecap:round; stroke-linejoin:round; stroke-width:4; stroke-opacity:1; fill:none" points="235.283,1156.49 254.18,1156.49 "/>
<polyline clip-path="url(#clip180)" style="stroke:#000000; stroke-linecap:round; stroke-linejoin:round; stroke-width:4; stroke-opacity:1; fill:none" points="235.283,926.593 254.18,926.593 "/>
<polyline clip-path="url(#clip180)" style="stroke:#000000; stroke-linecap:round; stroke-linejoin:round; stroke-width:4; stroke-opacity:1; fill:none" points="235.283,696.692 254.18,696.692 "/>
<polyline clip-path="url(#clip180)" style="stroke:#000000; stroke-linecap:round; stroke-linejoin:round; stroke-width:4; stroke-opacity:1; fill:none" points="235.283,466.791 254.18,466.791 "/>
<polyline clip-path="url(#clip180)" style="stroke:#000000; stroke-linecap:round; stroke-linejoin:round; stroke-width:4; stroke-opacity:1; fill:none" points="235.283,236.89 254.18,236.89 "/>
<path clip-path="url(#clip180)" d="M129.862 1373.19 L118.056 1391.64 L129.862 1391.64 L129.862 1373.19 M128.635 1369.12 L134.515 1369.12 L134.515 1391.64 L139.445 1391.64 L139.445 1395.53 L134.515 1395.53 L134.515 1403.68 L129.862 1403.68 L129.862 1395.53 L114.26 1395.53 L114.26 1391.01 L128.635 1369.12 Z" fill="#000000" fill-rule="nonzero" fill-opacity="1" /><path clip-path="url(#clip180)" d="M157.755 1384.53 Q154.607 1384.53 152.755 1386.69 Q150.927 1388.84 150.927 1392.59 Q150.927 1396.31 152.755 1398.49 Q154.607 1400.64 157.755 1400.64 Q160.903 1400.64 162.732 1398.49 Q164.584 1396.31 164.584 1392.59 Q164.584 1388.84 162.732 1386.69 Q160.903 1384.53 157.755 1384.53 M167.038 1369.88 L167.038 1374.14 Q165.278 1373.31 163.473 1372.87 Q161.69 1372.43 159.931 1372.43 Q155.302 1372.43 152.848 1375.55 Q150.417 1378.68 150.07 1385 Q151.436 1382.98 153.496 1381.92 Q155.556 1380.83 158.033 1380.83 Q163.241 1380.83 166.251 1384 Q169.283 1387.15 169.283 1392.59 Q169.283 1397.91 166.135 1401.13 Q162.987 1404.35 157.755 1404.35 Q151.76 1404.35 148.589 1399.76 Q145.417 1395.16 145.417 1386.43 Q145.417 1378.24 149.306 1373.37 Q153.195 1368.49 159.746 1368.49 Q161.505 1368.49 163.288 1368.84 Q165.093 1369.19 167.038 1369.88 Z" fill="#000000" fill-rule="nonzero" fill-opacity="1" /><path clip-path="url(#clip180)" d="M187.338 1372.19 Q183.727 1372.19 181.899 1375.76 Q180.093 1379.3 180.093 1386.43 Q180.093 1393.54 181.899 1397.1 Q183.727 1400.64 187.338 1400.64 Q190.973 1400.64 192.778 1397.1 Q194.607 1393.54 194.607 1386.43 Q194.607 1379.3 192.778 1375.76 Q190.973 1372.19 187.338 1372.19 M187.338 1368.49 Q193.149 1368.49 196.204 1373.1 Q199.283 1377.68 199.283 1386.43 Q199.283 1395.16 196.204 1399.76 Q193.149 1404.35 187.338 1404.35 Q181.528 1404.35 178.45 1399.76 Q175.394 1395.16 175.394 1386.43 Q175.394 1377.68 178.45 1373.1 Q181.528 1368.49 187.338 1368.49 Z" fill="#000000" fill-rule="nonzero" fill-opacity="1" /><path clip-path="url(#clip180)" d="M130.857 1143.29 L119.052 1161.74 L130.857 1161.74 L130.857 1143.29 M129.63 1139.21 L135.51 1139.21 L135.51 1161.74 L140.441 1161.74 L140.441 1165.63 L135.51 1165.63 L135.51 1173.77 L130.857 1173.77 L130.857 1165.63 L115.256 1165.63 L115.256 1161.11 L129.63 1139.21 Z" fill="#000000" fill-rule="nonzero" fill-opacity="1" /><path clip-path="url(#clip180)" d="M158.751 1154.63 Q155.603 1154.63 153.751 1156.78 Q151.922 1158.94 151.922 1162.69 Q151.922 1166.41 153.751 1168.59 Q155.603 1170.74 158.751 1170.74 Q161.899 1170.74 163.727 1168.59 Q165.579 1166.41 165.579 1162.69 Q165.579 1158.94 163.727 1156.78 Q161.899 1154.63 158.751 1154.63 M168.033 1139.98 L168.033 1144.24 Q166.274 1143.4 164.468 1142.96 Q162.686 1142.52 160.927 1142.52 Q156.297 1142.52 153.843 1145.65 Q151.413 1148.77 151.066 1155.09 Q152.431 1153.08 154.491 1152.02 Q156.552 1150.93 159.028 1150.93 Q164.237 1150.93 167.246 1154.1 Q170.278 1157.25 170.278 1162.69 Q170.278 1168.01 167.13 1171.23 Q163.982 1174.45 158.751 1174.45 Q152.755 1174.45 149.584 1169.86 Q146.413 1165.26 146.413 1156.53 Q146.413 1148.33 150.302 1143.47 Q154.19 1138.59 160.741 1138.59 Q162.501 1138.59 164.283 1138.94 Q166.089 1139.28 168.033 1139.98 Z" fill="#000000" fill-rule="nonzero" fill-opacity="1" /><path clip-path="url(#clip180)" d="M178.38 1139.21 L196.737 1139.21 L196.737 1143.15 L182.663 1143.15 L182.663 1151.62 Q183.681 1151.27 184.7 1151.11 Q185.718 1150.93 186.737 1150.93 Q192.524 1150.93 195.903 1154.1 Q199.283 1157.27 199.283 1162.69 Q199.283 1168.27 195.811 1171.37 Q192.338 1174.45 186.019 1174.45 Q183.843 1174.45 181.575 1174.08 Q179.329 1173.71 176.922 1172.96 L176.922 1168.27 Q179.005 1169.4 181.227 1169.96 Q183.45 1170.51 185.926 1170.51 Q189.931 1170.51 192.269 1168.4 Q194.607 1166.3 194.607 1162.69 Q194.607 1159.08 192.269 1156.97 Q189.931 1154.86 185.926 1154.86 Q184.051 1154.86 182.176 1155.28 Q180.325 1155.7 178.38 1156.58 L178.38 1139.21 Z" fill="#000000" fill-rule="nonzero" fill-opacity="1" /><path clip-path="url(#clip180)" d="M129.862 913.387 L118.056 931.836 L129.862 931.836 L129.862 913.387 M128.635 909.313 L134.515 909.313 L134.515 931.836 L139.445 931.836 L139.445 935.725 L134.515 935.725 L134.515 943.873 L129.862 943.873 L129.862 935.725 L114.26 935.725 L114.26 931.211 L128.635 909.313 Z" fill="#000000" fill-rule="nonzero" fill-opacity="1" /><path clip-path="url(#clip180)" d="M145.996 909.313 L168.218 909.313 L168.218 911.304 L155.672 943.873 L150.788 943.873 L162.593 913.249 L145.996 913.249 L145.996 909.313 Z" fill="#000000" fill-rule="nonzero" fill-opacity="1" /><path clip-path="url(#clip180)" d="M187.338 912.392 Q183.727 912.392 181.899 915.957 Q180.093 919.499 180.093 926.628 Q180.093 933.735 181.899 937.299 Q183.727 940.841 187.338 940.841 Q190.973 940.841 192.778 937.299 Q194.607 933.735 194.607 926.628 Q194.607 919.499 192.778 915.957 Q190.973 912.392 187.338 912.392 M187.338 908.688 Q193.149 908.688 196.204 913.295 Q199.283 917.878 199.283 926.628 Q199.283 935.355 196.204 939.961 Q193.149 944.545 187.338 944.545 Q181.528 944.545 178.45 939.961 Q175.394 935.355 175.394 926.628 Q175.394 917.878 178.45 913.295 Q181.528 908.688 187.338 908.688 Z" fill="#000000" fill-rule="nonzero" fill-opacity="1" /><path clip-path="url(#clip180)" d="M130.857 683.486 L119.052 701.935 L130.857 701.935 L130.857 683.486 M129.63 679.412 L135.51 679.412 L135.51 701.935 L140.441 701.935 L140.441 705.824 L135.51 705.824 L135.51 713.972 L130.857 713.972 L130.857 705.824 L115.256 705.824 L115.256 701.31 L129.63 679.412 Z" fill="#000000" fill-rule="nonzero" fill-opacity="1" /><path clip-path="url(#clip180)" d="M146.991 679.412 L169.214 679.412 L169.214 681.403 L156.667 713.972 L151.783 713.972 L163.589 683.347 L146.991 683.347 L146.991 679.412 Z" fill="#000000" fill-rule="nonzero" fill-opacity="1" /><path clip-path="url(#clip180)" d="M178.38 679.412 L196.737 679.412 L196.737 683.347 L182.663 683.347 L182.663 691.82 Q183.681 691.472 184.7 691.31 Q185.718 691.125 186.737 691.125 Q192.524 691.125 195.903 694.296 Q199.283 697.468 199.283 702.884 Q199.283 708.463 195.811 711.565 Q192.338 714.644 186.019 714.644 Q183.843 714.644 181.575 714.273 Q179.329 713.903 176.922 713.162 L176.922 708.463 Q179.005 709.597 181.227 710.153 Q183.45 710.708 185.926 710.708 Q189.931 710.708 192.269 708.602 Q194.607 706.495 194.607 702.884 Q194.607 699.273 192.269 697.167 Q189.931 695.06 185.926 695.06 Q184.051 695.06 182.176 695.477 Q180.325 695.894 178.38 696.773 L178.38 679.412 Z" fill="#000000" fill-rule="nonzero" fill-opacity="1" /><path clip-path="url(#clip180)" d="M129.862 453.585 L118.056 472.034 L129.862 472.034 L129.862 453.585 M128.635 449.511 L134.515 449.511 L134.515 472.034 L139.445 472.034 L139.445 475.923 L134.515 475.923 L134.515 484.071 L129.862 484.071 L129.862 475.923 L114.26 475.923 L114.26 471.409 L128.635 449.511 Z" fill="#000000" fill-rule="nonzero" fill-opacity="1" /><path clip-path="url(#clip180)" d="M157.177 467.659 Q153.843 467.659 151.922 469.442 Q150.024 471.224 150.024 474.349 Q150.024 477.474 151.922 479.256 Q153.843 481.039 157.177 481.039 Q160.51 481.039 162.431 479.256 Q164.352 477.451 164.352 474.349 Q164.352 471.224 162.431 469.442 Q160.533 467.659 157.177 467.659 M152.501 465.668 Q149.491 464.928 147.802 462.868 Q146.135 460.807 146.135 457.844 Q146.135 453.701 149.075 451.294 Q152.038 448.886 157.177 448.886 Q162.339 448.886 165.278 451.294 Q168.218 453.701 168.218 457.844 Q168.218 460.807 166.528 462.868 Q164.862 464.928 161.876 465.668 Q165.255 466.455 167.13 468.747 Q169.028 471.039 169.028 474.349 Q169.028 479.372 165.95 482.057 Q162.894 484.742 157.177 484.742 Q151.459 484.742 148.38 482.057 Q145.325 479.372 145.325 474.349 Q145.325 471.039 147.223 468.747 Q149.121 466.455 152.501 465.668 M150.788 458.284 Q150.788 460.969 152.454 462.474 Q154.144 463.979 157.177 463.979 Q160.186 463.979 161.876 462.474 Q163.589 460.969 163.589 458.284 Q163.589 455.599 161.876 454.094 Q160.186 452.59 157.177 452.59 Q154.144 452.59 152.454 454.094 Q150.788 455.599 150.788 458.284 Z" fill="#000000" fill-rule="nonzero" fill-opacity="1" /><path clip-path="url(#clip180)" d="M187.338 452.59 Q183.727 452.59 181.899 456.155 Q180.093 459.696 180.093 466.826 Q180.093 473.932 181.899 477.497 Q183.727 481.039 187.338 481.039 Q190.973 481.039 192.778 477.497 Q194.607 473.932 194.607 466.826 Q194.607 459.696 192.778 456.155 Q190.973 452.59 187.338 452.59 M187.338 448.886 Q193.149 448.886 196.204 453.493 Q199.283 458.076 199.283 466.826 Q199.283 475.553 196.204 480.159 Q193.149 484.742 187.338 484.742 Q181.528 484.742 178.45 480.159 Q175.394 475.553 175.394 466.826 Q175.394 458.076 178.45 453.493 Q181.528 448.886 187.338 448.886 Z" fill="#000000" fill-rule="nonzero" fill-opacity="1" /><path clip-path="url(#clip180)" d="M130.857 223.684 L119.052 242.133 L130.857 242.133 L130.857 223.684 M129.63 219.61 L135.51 219.61 L135.51 242.133 L140.441 242.133 L140.441 246.022 L135.51 246.022 L135.51 254.17 L130.857 254.17 L130.857 246.022 L115.256 246.022 L115.256 241.508 L129.63 219.61 Z" fill="#000000" fill-rule="nonzero" fill-opacity="1" /><path clip-path="url(#clip180)" d="M158.172 237.758 Q154.839 237.758 152.917 239.54 Q151.019 241.323 151.019 244.448 Q151.019 247.573 152.917 249.355 Q154.839 251.138 158.172 251.138 Q161.505 251.138 163.427 249.355 Q165.348 247.55 165.348 244.448 Q165.348 241.323 163.427 239.54 Q161.528 237.758 158.172 237.758 M153.496 235.767 Q150.487 235.027 148.797 232.966 Q147.13 230.906 147.13 227.943 Q147.13 223.8 150.07 221.392 Q153.033 218.985 158.172 218.985 Q163.334 218.985 166.274 221.392 Q169.214 223.8 169.214 227.943 Q169.214 230.906 167.524 232.966 Q165.857 235.027 162.871 235.767 Q166.251 236.554 168.126 238.846 Q170.024 241.138 170.024 244.448 Q170.024 249.471 166.945 252.156 Q163.89 254.841 158.172 254.841 Q152.454 254.841 149.376 252.156 Q146.32 249.471 146.32 244.448 Q146.32 241.138 148.218 238.846 Q150.116 236.554 153.496 235.767 M151.783 228.383 Q151.783 231.068 153.45 232.573 Q155.14 234.078 158.172 234.078 Q161.181 234.078 162.871 232.573 Q164.584 231.068 164.584 228.383 Q164.584 225.698 162.871 224.193 Q161.181 222.689 158.172 222.689 Q155.14 222.689 153.45 224.193 Q151.783 225.698 151.783 228.383 Z" fill="#000000" fill-rule="nonzero" fill-opacity="1" /><path clip-path="url(#clip180)" d="M178.38 219.61 L196.737 219.61 L196.737 223.545 L182.663 223.545 L182.663 232.017 Q183.681 231.67 184.7 231.508 Q185.718 231.323 186.737 231.323 Q192.524 231.323 195.903 234.494 Q199.283 237.665 199.283 243.082 Q199.283 248.661 195.811 251.763 Q192.338 254.841 186.019 254.841 Q183.843 254.841 181.575 254.471 Q179.329 254.101 176.922 253.36 L176.922 248.661 Q179.005 249.795 181.227 250.351 Q183.45 250.906 185.926 250.906 Q189.931 250.906 192.269 248.8 Q194.607 246.693 194.607 243.082 Q194.607 239.471 192.269 237.365 Q189.931 235.258 185.926 235.258 Q184.051 235.258 182.176 235.675 Q180.325 236.091 178.38 236.971 L178.38 219.61 Z" fill="#000000" fill-rule="nonzero" fill-opacity="1" /><path clip-path="url(#clip180)" d="M20.8447 1001.66 Q20.8447 1008.67 26.0645 1012.8 Q31.2844 1016.91 40.2919 1016.91 Q49.2675 1016.91 54.4874 1012.8 Q59.7073 1008.67 59.7073 1001.66 Q59.7073 994.662 54.4874 990.588 Q49.2675 986.482 40.2919 986.482 Q31.2844 986.482 26.0645 990.588 Q20.8447 994.662 20.8447 1001.66 M15.6248 1001.66 Q15.6248 991.67 22.3406 985.686 Q29.0246 979.702 40.2919 979.702 Q51.5274 979.702 58.2432 985.686 Q64.9272 991.67 64.9272 1001.66 Q64.9272 1011.69 58.2432 1017.71 Q51.5592 1023.69 40.2919 1023.69 Q29.0246 1023.69 22.3406 1017.71 Q15.6248 1011.69 15.6248 1001.66 Z" fill="#000000" fill-rule="nonzero" fill-opacity="1" /><path clip-path="url(#clip180)" d="M46.212 944.309 Q39.7508 944.309 36.0905 946.982 Q32.3984 949.624 32.3984 954.271 Q32.3984 958.918 36.0905 961.592 Q39.7508 964.234 46.212 964.234 Q52.6732 964.234 56.3653 961.592 Q60.0256 958.918 60.0256 954.271 Q60.0256 949.624 56.3653 946.982 Q52.6732 944.309 46.212 944.309 M33.7671 964.234 Q30.5842 962.387 29.0564 959.587 Q27.4968 956.754 27.4968 952.839 Q27.4968 946.346 32.6531 942.304 Q37.8093 938.23 46.212 938.23 Q54.6147 938.23 59.771 942.304 Q64.9272 946.346 64.9272 952.839 Q64.9272 956.754 63.3994 959.587 Q61.8398 962.387 58.657 964.234 L64.0042 964.234 L64.0042 970.122 L14.479 970.122 L14.479 964.234 L33.7671 964.234 Z" fill="#000000" fill-rule="nonzero" fill-opacity="1" /><path clip-path="url(#clip180)" d="M28.3562 928.522 L28.3562 922.665 L64.6407 922.665 Q71.452 922.665 74.5076 925.275 Q77.5631 927.854 77.5631 933.614 L77.5631 935.842 L72.5979 935.842 L72.5979 934.283 Q72.5979 930.941 71.0383 929.731 Q69.5105 928.522 64.6407 928.522 L28.3562 928.522 M14.479 928.522 L14.479 922.665 L21.895 922.665 L21.895 928.522 L14.479 928.522 Z" fill="#000000" fill-rule="nonzero" fill-opacity="1" /><path clip-path="url(#clip180)" d="M44.7161 879.92 L47.5806 879.92 L47.5806 906.847 Q53.6281 906.465 56.8109 903.218 Q59.9619 899.94 59.9619 894.115 Q59.9619 890.741 59.1344 887.59 Q58.3069 884.408 56.6518 881.288 L62.1899 881.288 Q63.5267 884.439 64.227 887.75 Q64.9272 891.06 64.9272 894.465 Q64.9272 902.995 59.9619 907.993 Q54.9967 912.958 46.5303 912.958 Q37.7774 912.958 32.6531 908.247 Q27.4968 903.505 27.4968 895.484 Q27.4968 888.291 32.1438 884.121 Q36.7589 879.92 44.7161 879.92 M42.9973 885.776 Q38.1912 885.84 35.3266 888.482 Q32.4621 891.092 32.4621 895.42 Q32.4621 900.322 35.2312 903.282 Q38.0002 906.21 43.0292 906.656 L42.9973 885.776 Z" fill="#000000" fill-rule="nonzero" fill-opacity="1" /><path clip-path="url(#clip180)" d="M29.7248 844.654 L35.1993 844.654 Q33.8307 847.136 33.1623 849.651 Q32.4621 852.133 32.4621 854.68 Q32.4621 860.377 36.0905 863.528 Q39.6872 866.679 46.212 866.679 Q52.7369 866.679 56.3653 863.528 Q59.9619 860.377 59.9619 854.68 Q59.9619 852.133 59.2935 849.651 Q58.5933 847.136 57.2247 844.654 L62.6355 844.654 Q63.7814 847.105 64.3543 849.746 Q64.9272 852.356 64.9272 855.316 Q64.9272 863.369 59.8664 868.111 Q54.8057 872.854 46.212 872.854 Q37.491 872.854 32.4939 868.08 Q27.4968 863.273 27.4968 854.934 Q27.4968 852.229 28.0697 849.651 Q28.6108 847.073 29.7248 844.654 Z" fill="#000000" fill-rule="nonzero" fill-opacity="1" /><path clip-path="url(#clip180)" d="M18.2347 828.676 L28.3562 828.676 L28.3562 816.613 L32.9077 816.613 L32.9077 828.676 L52.2594 828.676 Q56.6199 828.676 57.8613 827.498 Q59.1026 826.289 59.1026 822.628 L59.1026 816.613 L64.0042 816.613 L64.0042 822.628 Q64.0042 829.408 61.4897 831.986 Q58.9434 834.564 52.2594 834.564 L32.9077 834.564 L32.9077 838.861 L28.3562 838.861 L28.3562 834.564 L18.2347 834.564 L18.2347 828.676 Z" fill="#000000" fill-rule="nonzero" fill-opacity="1" /><path clip-path="url(#clip180)" d="M28.3562 808.91 L28.3562 803.054 L64.0042 803.054 L64.0042 808.91 L28.3562 808.91 M14.479 808.91 L14.479 803.054 L21.895 803.054 L21.895 808.91 L14.479 808.91 Z" fill="#000000" fill-rule="nonzero" fill-opacity="1" /><path clip-path="url(#clip180)" d="M28.3562 795.001 L28.3562 788.795 L58.275 777.655 L28.3562 766.515 L28.3562 760.308 L64.0042 773.676 L64.0042 781.633 L28.3562 795.001 Z" fill="#000000" fill-rule="nonzero" fill-opacity="1" /><path clip-path="url(#clip180)" d="M44.7161 721.732 L47.5806 721.732 L47.5806 748.659 Q53.6281 748.277 56.8109 745.03 Q59.9619 741.752 59.9619 735.927 Q59.9619 732.554 59.1344 729.403 Q58.3069 726.22 56.6518 723.101 L62.1899 723.101 Q63.5267 726.252 64.227 729.562 Q64.9272 732.872 64.9272 736.278 Q64.9272 744.808 59.9619 749.805 Q54.9967 754.77 46.5303 754.77 Q37.7774 754.77 32.6531 750.059 Q27.4968 745.317 27.4968 737.296 Q27.4968 730.103 32.1438 725.933 Q36.7589 721.732 44.7161 721.732 M42.9973 727.588 Q38.1912 727.652 35.3266 730.294 Q32.4621 732.904 32.4621 737.232 Q32.4621 742.134 35.2312 745.094 Q38.0002 748.022 43.0292 748.468 L42.9973 727.588 Z" fill="#000000" fill-rule="nonzero" fill-opacity="1" /><path clip-path="url(#clip180)" d="M28.3562 695.601 L28.3562 689.394 L58.275 678.254 L28.3562 667.114 L28.3562 660.908 L64.0042 674.276 L64.0042 682.233 L28.3562 695.601 Z" fill="#000000" fill-rule="nonzero" fill-opacity="1" /><path clip-path="url(#clip180)" d="M46.0847 636.622 Q46.0847 643.72 47.7079 646.457 Q49.3312 649.195 53.2461 649.195 Q56.3653 649.195 58.2114 647.158 Q60.0256 645.089 60.0256 641.556 Q60.0256 636.686 56.5881 633.758 Q53.1188 630.798 47.3897 630.798 L46.0847 630.798 L46.0847 636.622 M43.6657 624.941 L64.0042 624.941 L64.0042 630.798 L58.5933 630.798 Q61.8398 632.803 63.3994 635.795 Q64.9272 638.787 64.9272 643.115 Q64.9272 648.59 61.8716 651.836 Q58.7843 655.051 53.6281 655.051 Q47.6125 655.051 44.5569 651.041 Q41.5014 646.999 41.5014 639.01 L41.5014 630.798 L40.9285 630.798 Q36.8862 630.798 34.6901 633.471 Q32.4621 636.113 32.4621 640.919 Q32.4621 643.975 33.1941 646.871 Q33.9262 649.768 35.3903 652.441 L29.9795 652.441 Q28.7381 649.227 28.1334 646.203 Q27.4968 643.179 27.4968 640.315 Q27.4968 632.58 31.5072 628.761 Q35.5176 624.941 43.6657 624.941 Z" fill="#000000" fill-rule="nonzero" fill-opacity="1" /><path clip-path="url(#clip180)" d="M14.479 612.878 L14.479 607.022 L64.0042 607.022 L64.0042 612.878 L14.479 612.878 Z" fill="#000000" fill-rule="nonzero" fill-opacity="1" /><path clip-path="url(#clip180)" d="M49.9359 595.373 L28.3562 595.373 L28.3562 589.516 L49.7131 589.516 Q54.7739 589.516 57.3202 587.543 Q59.8346 585.569 59.8346 581.623 Q59.8346 576.88 56.8109 574.143 Q53.7872 571.374 48.5673 571.374 L28.3562 571.374 L28.3562 565.517 L64.0042 565.517 L64.0042 571.374 L58.5296 571.374 Q61.7762 573.506 63.3676 576.339 Q64.9272 579.14 64.9272 582.864 Q64.9272 589.007 61.1078 592.19 Q57.2883 595.373 49.9359 595.373 M27.4968 580.636 L27.4968 580.636 Z" fill="#000000" fill-rule="nonzero" fill-opacity="1" /><path clip-path="url(#clip180)" d="M44.7161 522.963 L47.5806 522.963 L47.5806 549.89 Q53.6281 549.508 56.8109 546.261 Q59.9619 542.983 59.9619 537.158 Q59.9619 533.784 59.1344 530.633 Q58.3069 527.451 56.6518 524.331 L62.1899 524.331 Q63.5267 527.482 64.227 530.793 Q64.9272 534.103 64.9272 537.508 Q64.9272 546.038 59.9619 551.036 Q54.9967 556.001 46.5303 556.001 Q37.7774 556.001 32.6531 551.29 Q27.4968 546.548 27.4968 538.527 Q27.4968 531.334 32.1438 527.164 Q36.7589 522.963 44.7161 522.963 M42.9973 528.819 Q38.1912 528.883 35.3266 531.525 Q32.4621 534.135 32.4621 538.463 Q32.4621 543.365 35.2312 546.325 Q38.0002 549.253 43.0292 549.699 L42.9973 528.819 Z" fill="#000000" fill-rule="nonzero" fill-opacity="1" /><path clip-path="url(#clip180)" d="M457.872 18.8205 L457.872 41.5461 L468.162 41.5461 Q473.873 41.5461 476.993 38.5889 Q480.112 35.6318 480.112 30.163 Q480.112 24.7348 476.993 21.7777 Q473.873 18.8205 468.162 18.8205 L457.872 18.8205 M449.689 12.096 L468.162 12.096 Q478.329 12.096 483.514 16.714 Q488.74 21.2916 488.74 30.163 Q488.74 39.1155 483.514 43.6931 Q478.329 48.2706 468.162 48.2706 L457.872 48.2706 L457.872 72.576 L449.689 72.576 L449.689 12.096 Z" fill="#000000" fill-rule="nonzero" fill-opacity="1" /><path clip-path="url(#clip180)" d="M494.33 12.096 L502.594 12.096 L515.314 63.2184 L527.993 12.096 L537.189 12.096 L549.909 63.2184 L562.588 12.096 L570.892 12.096 L555.702 72.576 L545.412 72.576 L532.652 20.0763 L519.77 72.576 L509.481 72.576 L494.33 12.096 Z" fill="#000000" fill-rule="nonzero" fill-opacity="1" /><path clip-path="url(#clip180)" d="M581.749 12.096 L589.932 12.096 L589.932 65.6895 L619.382 65.6895 L619.382 72.576 L581.749 72.576 L581.749 12.096 Z" fill="#000000" fill-rule="nonzero" fill-opacity="1" /><path clip-path="url(#clip180)" d="M662.524 18.8205 L662.524 65.8515 L672.408 65.8515 Q684.925 65.8515 690.718 60.1802 Q696.552 54.509 696.552 42.2752 Q696.552 30.1225 690.718 24.4918 Q684.925 18.8205 672.408 18.8205 L662.524 18.8205 M654.341 12.096 L671.152 12.096 Q688.733 12.096 696.957 19.4281 Q705.18 26.7198 705.18 42.2752 Q705.18 57.9117 696.916 65.2439 Q688.652 72.576 671.152 72.576 L654.341 72.576 L654.341 12.096 Z" fill="#000000" fill-rule="nonzero" fill-opacity="1" /><path clip-path="url(#clip180)" d="M756.707 48.0275 L756.707 51.6733 L722.437 51.6733 Q722.923 59.3701 727.055 63.421 Q731.227 67.4314 738.64 67.4314 Q742.934 67.4314 746.945 66.3781 Q750.996 65.3249 754.966 63.2184 L754.966 70.267 Q750.955 71.9684 746.742 72.8596 Q742.529 73.7508 738.195 73.7508 Q727.338 73.7508 720.978 67.4314 Q714.659 61.1119 714.659 50.3365 Q714.659 39.1965 720.654 32.6746 Q726.69 26.1121 736.899 26.1121 Q746.054 26.1121 751.36 32.0264 Q756.707 37.9003 756.707 48.0275 M749.254 45.84 Q749.173 39.7232 745.811 36.0774 Q742.489 32.4315 736.98 32.4315 Q730.741 32.4315 726.974 35.9558 Q723.247 39.4801 722.68 45.8805 L749.254 45.84 Z" fill="#000000" fill-rule="nonzero" fill-opacity="1" /><path clip-path="url(#clip180)" d="M801.591 28.9478 L801.591 35.9153 Q798.432 34.1734 795.232 33.3227 Q792.072 32.4315 788.831 32.4315 Q781.58 32.4315 777.57 37.0496 Q773.559 41.6271 773.559 49.9314 Q773.559 58.2358 777.57 62.8538 Q781.58 67.4314 788.831 67.4314 Q792.072 67.4314 795.232 66.5807 Q798.432 65.6895 801.591 63.9476 L801.591 70.8341 Q798.472 72.2924 795.11 73.0216 Q791.788 73.7508 788.021 73.7508 Q777.772 73.7508 771.736 67.3098 Q765.7 60.8689 765.7 49.9314 Q765.7 38.832 771.777 32.472 Q777.894 26.1121 788.507 26.1121 Q791.95 26.1121 795.232 26.8413 Q798.513 27.5299 801.591 28.9478 Z" fill="#000000" fill-rule="nonzero" fill-opacity="1" /><path clip-path="url(#clip180)" d="M814.554 27.2059 L822.008 27.2059 L822.008 72.576 L814.554 72.576 L814.554 27.2059 M814.554 9.54393 L822.008 9.54393 L822.008 18.9825 L814.554 18.9825 L814.554 9.54393 Z" fill="#000000" fill-rule="nonzero" fill-opacity="1" /><path clip-path="url(#clip180)" d="M866.527 28.5427 L866.527 35.5912 Q863.368 33.9709 859.965 33.1607 Q856.562 32.3505 852.916 32.3505 Q847.367 32.3505 844.572 34.0519 Q841.817 35.7533 841.817 39.156 Q841.817 41.7486 843.802 43.2475 Q845.787 44.7058 851.782 46.0426 L854.334 46.6097 Q862.274 48.3111 865.596 51.4303 Q868.958 54.509 868.958 60.0587 Q868.958 66.3781 863.935 70.0644 Q858.952 73.7508 850.202 73.7508 Q846.556 73.7508 842.587 73.0216 Q838.657 72.3329 834.282 70.9151 L834.282 63.2184 Q838.414 65.3654 842.425 66.4591 Q846.435 67.5124 850.364 67.5124 Q855.631 67.5124 858.466 65.73 Q861.302 63.9071 861.302 60.6258 Q861.302 57.5877 859.236 55.9673 Q857.21 54.3469 850.283 52.8481 L847.691 52.2405 Q840.764 50.7821 837.685 47.7845 Q834.606 44.7463 834.606 39.4801 Q834.606 33.0797 839.143 29.5959 Q843.68 26.1121 852.025 26.1121 Q856.157 26.1121 859.803 26.7198 Q863.449 27.3274 866.527 28.5427 Z" fill="#000000" fill-rule="nonzero" fill-opacity="1" /><path clip-path="url(#clip180)" d="M880.827 27.2059 L888.281 27.2059 L888.281 72.576 L880.827 72.576 L880.827 27.2059 M880.827 9.54393 L888.281 9.54393 L888.281 18.9825 L880.827 18.9825 L880.827 9.54393 Z" fill="#000000" fill-rule="nonzero" fill-opacity="1" /><path clip-path="url(#clip180)" d="M921.458 32.4315 Q915.462 32.4315 911.979 37.1306 Q908.495 41.7891 908.495 49.9314 Q908.495 58.0738 911.938 62.7728 Q915.422 67.4314 921.458 67.4314 Q927.413 67.4314 930.896 62.7323 Q934.38 58.0333 934.38 49.9314 Q934.38 41.8701 930.896 37.1711 Q927.413 32.4315 921.458 32.4315 M921.458 26.1121 Q931.18 26.1121 936.73 32.4315 Q942.279 38.7509 942.279 49.9314 Q942.279 61.0714 936.73 67.4314 Q931.18 73.7508 921.458 73.7508 Q911.695 73.7508 906.145 67.4314 Q900.636 61.0714 900.636 49.9314 Q900.636 38.7509 906.145 32.4315 Q911.695 26.1121 921.458 26.1121 Z" fill="#000000" fill-rule="nonzero" fill-opacity="1" /><path clip-path="url(#clip180)" d="M992.349 45.1919 L992.349 72.576 L984.895 72.576 L984.895 45.4349 Q984.895 38.994 982.383 35.7938 Q979.872 32.5936 974.849 32.5936 Q968.813 32.5936 965.329 36.4419 Q961.845 40.2903 961.845 46.9338 L961.845 72.576 L954.351 72.576 L954.351 27.2059 L961.845 27.2059 L961.845 34.2544 Q964.519 30.163 968.124 28.1376 Q971.77 26.1121 976.51 26.1121 Q984.328 26.1121 988.338 30.9732 Q992.349 35.7938 992.349 45.1919 Z" fill="#000000" fill-rule="nonzero" fill-opacity="1" /><path clip-path="url(#clip180)" d="M1062.59 44.2197 Q1065.22 45.1109 1067.7 48.0275 Q1070.21 50.9442 1072.72 56.0483 L1081.02 72.576 L1072.23 72.576 L1064.5 57.061 Q1061.5 50.9847 1058.66 48.9997 Q1055.87 47.0148 1051.01 47.0148 L1042.09 47.0148 L1042.09 72.576 L1033.91 72.576 L1033.91 12.096 L1052.38 12.096 Q1062.75 12.096 1067.86 16.4305 Q1072.96 20.7649 1072.96 29.5149 Q1072.96 35.2267 1070.29 38.994 Q1067.65 42.7613 1062.59 44.2197 M1042.09 18.8205 L1042.09 40.2903 L1052.38 40.2903 Q1058.3 40.2903 1061.29 37.5762 Q1064.33 34.8216 1064.33 29.5149 Q1064.33 24.2082 1061.29 21.5346 Q1058.3 18.8205 1052.38 18.8205 L1042.09 18.8205 Z" fill="#000000" fill-rule="nonzero" fill-opacity="1" /><path clip-path="url(#clip180)" d="M1086.73 54.671 L1086.73 27.2059 L1094.19 27.2059 L1094.19 54.3874 Q1094.19 60.8284 1096.7 64.0691 Q1099.21 67.2693 1104.23 67.2693 Q1110.27 67.2693 1113.75 63.421 Q1117.28 59.5726 1117.28 52.9291 L1117.28 27.2059 L1124.73 27.2059 L1124.73 72.576 L1117.28 72.576 L1117.28 65.6084 Q1114.56 69.7404 1110.96 71.7658 Q1107.39 73.7508 1102.65 73.7508 Q1094.84 73.7508 1090.79 68.8897 Q1086.73 64.0286 1086.73 54.671 M1105.49 26.1121 L1105.49 26.1121 Z" fill="#000000" fill-rule="nonzero" fill-opacity="1" /><path clip-path="url(#clip180)" d="M1140.09 9.54393 L1147.54 9.54393 L1147.54 72.576 L1140.09 72.576 L1140.09 9.54393 Z" fill="#000000" fill-rule="nonzero" fill-opacity="1" /><path clip-path="url(#clip180)" d="M1201.94 48.0275 L1201.94 51.6733 L1167.67 51.6733 Q1168.16 59.3701 1172.29 63.421 Q1176.46 67.4314 1183.88 67.4314 Q1188.17 67.4314 1192.18 66.3781 Q1196.23 65.3249 1200.2 63.2184 L1200.2 70.267 Q1196.19 71.9684 1191.98 72.8596 Q1187.76 73.7508 1183.43 73.7508 Q1172.57 73.7508 1166.21 67.4314 Q1159.89 61.1119 1159.89 50.3365 Q1159.89 39.1965 1165.89 32.6746 Q1171.93 26.1121 1182.13 26.1121 Q1191.29 26.1121 1196.6 32.0264 Q1201.94 37.9003 1201.94 48.0275 M1194.49 45.84 Q1194.41 39.7232 1191.05 36.0774 Q1187.72 32.4315 1182.21 32.4315 Q1175.98 32.4315 1172.21 35.9558 Q1168.48 39.4801 1167.91 45.8805 L1194.49 45.84 Z" fill="#000000" fill-rule="nonzero" fill-opacity="1" /><path clip-path="url(#clip180)" d="M1243.1 28.5427 L1243.1 35.5912 Q1239.94 33.9709 1236.54 33.1607 Q1233.13 32.3505 1229.49 32.3505 Q1223.94 32.3505 1221.14 34.0519 Q1218.39 35.7533 1218.39 39.156 Q1218.39 41.7486 1220.37 43.2475 Q1222.36 44.7058 1228.35 46.0426 L1230.91 46.6097 Q1238.85 48.3111 1242.17 51.4303 Q1245.53 54.509 1245.53 60.0587 Q1245.53 66.3781 1240.51 70.0644 Q1235.52 73.7508 1226.77 73.7508 Q1223.13 73.7508 1219.16 73.0216 Q1215.23 72.3329 1210.85 70.9151 L1210.85 63.2184 Q1214.99 65.3654 1219 66.4591 Q1223.01 67.5124 1226.94 67.5124 Q1232.2 67.5124 1235.04 65.73 Q1237.87 63.9071 1237.87 60.6258 Q1237.87 57.5877 1235.81 55.9673 Q1233.78 54.3469 1226.86 52.8481 L1224.26 52.2405 Q1217.34 50.7821 1214.26 47.7845 Q1211.18 44.7463 1211.18 39.4801 Q1211.18 33.0797 1215.72 29.5959 Q1220.25 26.1121 1228.6 26.1121 Q1232.73 26.1121 1236.38 26.7198 Q1240.02 27.3274 1243.1 28.5427 Z" fill="#000000" fill-rule="nonzero" fill-opacity="1" /><path clip-path="url(#clip180)" d="M1259.3 62.2867 L1267.85 62.2867 L1267.85 72.576 L1259.3 72.576 L1259.3 62.2867 M1259.3 29.6769 L1267.85 29.6769 L1267.85 39.9662 L1259.3 39.9662 L1259.3 29.6769 Z" fill="#000000" fill-rule="nonzero" fill-opacity="1" /><path clip-path="url(#clip180)" d="M1320.23 43.6931 L1320.23 65.8515 L1333.35 65.8515 Q1339.96 65.8515 1343.12 63.1374 Q1346.32 60.3828 1346.32 54.752 Q1346.32 49.0808 1343.12 46.4072 Q1339.96 43.6931 1333.35 43.6931 L1320.23 43.6931 M1320.23 18.8205 L1320.23 37.0496 L1332.34 37.0496 Q1338.34 37.0496 1341.25 34.8216 Q1344.21 32.5531 1344.21 27.935 Q1344.21 23.3575 1341.25 21.089 Q1338.34 18.8205 1332.34 18.8205 L1320.23 18.8205 M1312.05 12.096 L1332.95 12.096 Q1342.31 12.096 1347.37 15.9849 Q1352.43 19.8737 1352.43 27.0438 Q1352.43 32.5936 1349.84 35.8748 Q1347.25 39.156 1342.23 39.9662 Q1348.26 41.2625 1351.58 45.3944 Q1354.94 49.4858 1354.94 55.6432 Q1354.94 63.745 1349.44 68.1605 Q1343.93 72.576 1333.76 72.576 L1312.05 72.576 L1312.05 12.096 Z" fill="#000000" fill-rule="nonzero" fill-opacity="1" /><path clip-path="url(#clip180)" d="M1386.22 32.4315 Q1380.22 32.4315 1376.74 37.1306 Q1373.26 41.7891 1373.26 49.9314 Q1373.26 58.0738 1376.7 62.7728 Q1380.18 67.4314 1386.22 67.4314 Q1392.17 67.4314 1395.66 62.7323 Q1399.14 58.0333 1399.14 49.9314 Q1399.14 41.8701 1395.66 37.1711 Q1392.17 32.4315 1386.22 32.4315 M1386.22 26.1121 Q1395.94 26.1121 1401.49 32.4315 Q1407.04 38.7509 1407.04 49.9314 Q1407.04 61.0714 1401.49 67.4314 Q1395.94 73.7508 1386.22 73.7508 Q1376.46 73.7508 1370.91 67.4314 Q1365.4 61.0714 1365.4 49.9314 Q1365.4 38.7509 1370.91 32.4315 Q1376.46 26.1121 1386.22 26.1121 Z" fill="#000000" fill-rule="nonzero" fill-opacity="1" /><path clip-path="url(#clip180)" d="M1418.63 54.671 L1418.63 27.2059 L1426.08 27.2059 L1426.08 54.3874 Q1426.08 60.8284 1428.59 64.0691 Q1431.1 67.2693 1436.13 67.2693 Q1442.16 67.2693 1445.64 63.421 Q1449.17 59.5726 1449.17 52.9291 L1449.17 27.2059 L1456.62 27.2059 L1456.62 72.576 L1449.17 72.576 L1449.17 65.6084 Q1446.45 69.7404 1442.85 71.7658 Q1439.28 73.7508 1434.55 73.7508 Q1426.73 73.7508 1422.68 68.8897 Q1418.63 64.0286 1418.63 54.671 M1437.38 26.1121 L1437.38 26.1121 Z" fill="#000000" fill-rule="nonzero" fill-opacity="1" /><path clip-path="url(#clip180)" d="M1509.69 45.1919 L1509.69 72.576 L1502.24 72.576 L1502.24 45.4349 Q1502.24 38.994 1499.72 35.7938 Q1497.21 32.5936 1492.19 32.5936 Q1486.15 32.5936 1482.67 36.4419 Q1479.19 40.2903 1479.19 46.9338 L1479.19 72.576 L1471.69 72.576 L1471.69 27.2059 L1479.19 27.2059 L1479.19 34.2544 Q1481.86 30.163 1485.47 28.1376 Q1489.11 26.1121 1493.85 26.1121 Q1501.67 26.1121 1505.68 30.9732 Q1509.69 35.7938 1509.69 45.1919 Z" fill="#000000" fill-rule="nonzero" fill-opacity="1" /><path clip-path="url(#clip180)" d="M1554.41 34.0924 L1554.41 9.54393 L1561.87 9.54393 L1561.87 72.576 L1554.41 72.576 L1554.41 65.7705 Q1552.06 69.8214 1548.46 71.8063 Q1544.89 73.7508 1539.87 73.7508 Q1531.65 73.7508 1526.46 67.1883 Q1521.32 60.6258 1521.32 49.9314 Q1521.32 39.2371 1526.46 32.6746 Q1531.65 26.1121 1539.87 26.1121 Q1544.89 26.1121 1548.46 28.0971 Q1552.06 30.0415 1554.41 34.0924 M1529.01 49.9314 Q1529.01 58.1548 1532.37 62.8538 Q1535.78 67.5124 1541.69 67.5124 Q1547.61 67.5124 1551.01 62.8538 Q1554.41 58.1548 1554.41 49.9314 Q1554.41 41.7081 1551.01 37.0496 Q1547.61 32.3505 1541.69 32.3505 Q1535.78 32.3505 1532.37 37.0496 Q1529.01 41.7081 1529.01 49.9314 Z" fill="#000000" fill-rule="nonzero" fill-opacity="1" /><path clip-path="url(#clip180)" d="M1649.2 16.7545 L1649.2 25.383 Q1645.07 21.5346 1640.37 19.6307 Q1635.71 17.7268 1630.45 17.7268 Q1620.08 17.7268 1614.57 24.0867 Q1609.06 30.4061 1609.06 42.3968 Q1609.06 54.3469 1614.57 60.7069 Q1620.08 67.0263 1630.45 67.0263 Q1635.71 67.0263 1640.37 65.1223 Q1645.07 63.2184 1649.2 59.3701 L1649.2 67.9175 Q1644.91 70.8341 1640.09 72.2924 Q1635.31 73.7508 1629.96 73.7508 Q1616.23 73.7508 1608.33 65.3654 Q1600.43 56.9395 1600.43 42.3968 Q1600.43 27.8135 1608.33 19.4281 Q1616.23 11.0023 1629.96 11.0023 Q1635.39 11.0023 1640.17 12.4606 Q1644.99 13.8784 1649.2 16.7545 Z" fill="#000000" fill-rule="nonzero" fill-opacity="1" /><path clip-path="url(#clip180)" d="M1679.1 32.4315 Q1673.1 32.4315 1669.62 37.1306 Q1666.14 41.7891 1666.14 49.9314 Q1666.14 58.0738 1669.58 62.7728 Q1673.06 67.4314 1679.1 67.4314 Q1685.05 67.4314 1688.54 62.7323 Q1692.02 58.0333 1692.02 49.9314 Q1692.02 41.8701 1688.54 37.1711 Q1685.05 32.4315 1679.1 32.4315 M1679.1 26.1121 Q1688.82 26.1121 1694.37 32.4315 Q1699.92 38.7509 1699.92 49.9314 Q1699.92 61.0714 1694.37 67.4314 Q1688.82 73.7508 1679.1 73.7508 Q1669.34 73.7508 1663.79 67.4314 Q1658.28 61.0714 1658.28 49.9314 Q1658.28 38.7509 1663.79 32.4315 Q1669.34 26.1121 1679.1 26.1121 Z" fill="#000000" fill-rule="nonzero" fill-opacity="1" /><path clip-path="url(#clip180)" d="M1749.99 45.1919 L1749.99 72.576 L1742.54 72.576 L1742.54 45.4349 Q1742.54 38.994 1740.02 35.7938 Q1737.51 32.5936 1732.49 32.5936 Q1726.45 32.5936 1722.97 36.4419 Q1719.49 40.2903 1719.49 46.9338 L1719.49 72.576 L1711.99 72.576 L1711.99 27.2059 L1719.49 27.2059 L1719.49 34.2544 Q1722.16 30.163 1725.76 28.1376 Q1729.41 26.1121 1734.15 26.1121 Q1741.97 26.1121 1745.98 30.9732 Q1749.99 35.7938 1749.99 45.1919 Z" fill="#000000" fill-rule="nonzero" fill-opacity="1" /><path clip-path="url(#clip180)" d="M1759.51 27.2059 L1767.41 27.2059 L1781.59 65.2844 L1795.76 27.2059 L1803.66 27.2059 L1786.65 72.576 L1776.52 72.576 L1759.51 27.2059 Z" fill="#000000" fill-rule="nonzero" fill-opacity="1" /><path clip-path="url(#clip180)" d="M1852.76 48.0275 L1852.76 51.6733 L1818.49 51.6733 Q1818.98 59.3701 1823.11 63.421 Q1827.28 67.4314 1834.69 67.4314 Q1838.99 67.4314 1843 66.3781 Q1847.05 65.3249 1851.02 63.2184 L1851.02 70.267 Q1847.01 71.9684 1842.8 72.8596 Q1838.58 73.7508 1834.25 73.7508 Q1823.39 73.7508 1817.03 67.4314 Q1810.71 61.1119 1810.71 50.3365 Q1810.71 39.1965 1816.71 32.6746 Q1822.74 26.1121 1832.95 26.1121 Q1842.11 26.1121 1847.41 32.0264 Q1852.76 37.9003 1852.76 48.0275 M1845.31 45.84 Q1845.23 39.7232 1841.86 36.0774 Q1838.54 32.4315 1833.03 32.4315 Q1826.79 32.4315 1823.03 35.9558 Q1819.3 39.4801 1818.73 45.8805 L1845.31 45.84 Z" fill="#000000" fill-rule="nonzero" fill-opacity="1" /><path clip-path="url(#clip180)" d="M1891.28 34.1734 Q1890.03 33.4443 1888.53 33.1202 Q1887.07 32.7556 1885.29 32.7556 Q1878.97 32.7556 1875.57 36.8875 Q1872.2 40.9789 1872.2 48.6757 L1872.2 72.576 L1864.71 72.576 L1864.71 27.2059 L1872.2 27.2059 L1872.2 34.2544 Q1874.55 30.1225 1878.32 28.1376 Q1882.09 26.1121 1887.48 26.1121 Q1888.25 26.1121 1889.18 26.2337 Q1890.11 26.3147 1891.24 26.5172 L1891.28 34.1734 Z" fill="#000000" fill-rule="nonzero" fill-opacity="1" /><path clip-path="url(#clip180)" d="M1927.5 49.3643 Q1927.5 41.2625 1924.14 36.8065 Q1920.82 32.3505 1914.78 32.3505 Q1908.78 32.3505 1905.42 36.8065 Q1902.1 41.2625 1902.1 49.3643 Q1902.1 57.4256 1905.42 61.8816 Q1908.78 66.3376 1914.78 66.3376 Q1920.82 66.3376 1924.14 61.8816 Q1927.5 57.4256 1927.5 49.3643 M1934.95 66.9452 Q1934.95 78.5308 1929.81 84.1616 Q1924.66 89.8329 1914.05 89.8329 Q1910.12 89.8329 1906.64 89.2252 Q1903.15 88.6581 1899.87 87.4428 L1899.87 80.1917 Q1903.15 81.9741 1906.35 82.8248 Q1909.55 83.6755 1912.88 83.6755 Q1920.21 83.6755 1923.85 79.8271 Q1927.5 76.0193 1927.5 68.282 L1927.5 64.5957 Q1925.19 68.6061 1921.59 70.5911 Q1917.98 72.576 1912.96 72.576 Q1904.61 72.576 1899.51 66.2161 Q1894.4 59.8562 1894.4 49.3643 Q1894.4 38.832 1899.51 32.472 Q1904.61 26.1121 1912.96 26.1121 Q1917.98 26.1121 1921.59 28.0971 Q1925.19 30.082 1927.5 34.0924 L1927.5 27.2059 L1934.95 27.2059 L1934.95 66.9452 Z" fill="#000000" fill-rule="nonzero" fill-opacity="1" /><path clip-path="url(#clip180)" d="M1989.11 48.0275 L1989.11 51.6733 L1954.84 51.6733 Q1955.33 59.3701 1959.46 63.421 Q1963.63 67.4314 1971.05 67.4314 Q1975.34 67.4314 1979.35 66.3781 Q1983.4 65.3249 1987.37 63.2184 L1987.37 70.267 Q1983.36 71.9684 1979.15 72.8596 Q1974.94 73.7508 1970.6 73.7508 Q1959.74 73.7508 1953.39 67.4314 Q1947.07 61.1119 1947.07 50.3365 Q1947.07 39.1965 1953.06 32.6746 Q1959.1 26.1121 1969.31 26.1121 Q1978.46 26.1121 1983.77 32.0264 Q1989.11 37.9003 1989.11 48.0275 M1981.66 45.84 Q1981.58 39.7232 1978.22 36.0774 Q1974.9 32.4315 1969.39 32.4315 Q1963.15 32.4315 1959.38 35.9558 Q1955.65 39.4801 1955.09 45.8805 L1981.66 45.84 Z" fill="#000000" fill-rule="nonzero" fill-opacity="1" /><path clip-path="url(#clip180)" d="M2039.06 45.1919 L2039.06 72.576 L2031.61 72.576 L2031.61 45.4349 Q2031.61 38.994 2029.1 35.7938 Q2026.58 32.5936 2021.56 32.5936 Q2015.53 32.5936 2012.04 36.4419 Q2008.56 40.2903 2008.56 46.9338 L2008.56 72.576 L2001.06 72.576 L2001.06 27.2059 L2008.56 27.2059 L2008.56 34.2544 Q2011.23 30.163 2014.84 28.1376 Q2018.48 26.1121 2023.22 26.1121 Q2031.04 26.1121 2035.05 30.9732 Q2039.06 35.7938 2039.06 45.1919 Z" fill="#000000" fill-rule="nonzero" fill-opacity="1" /><path clip-path="url(#clip180)" d="M2086.58 28.9478 L2086.58 35.9153 Q2083.42 34.1734 2080.22 33.3227 Q2077.06 32.4315 2073.82 32.4315 Q2066.57 32.4315 2062.56 37.0496 Q2058.55 41.6271 2058.55 49.9314 Q2058.55 58.2358 2062.56 62.8538 Q2066.57 67.4314 2073.82 67.4314 Q2077.06 67.4314 2080.22 66.5807 Q2083.42 65.6895 2086.58 63.9476 L2086.58 70.8341 Q2083.46 72.2924 2080.1 73.0216 Q2076.78 73.7508 2073.01 73.7508 Q2062.76 73.7508 2056.72 67.3098 Q2050.69 60.8689 2050.69 49.9314 Q2050.69 38.832 2056.76 32.472 Q2062.88 26.1121 2073.49 26.1121 Q2076.94 26.1121 2080.22 26.8413 Q2083.5 27.5299 2086.58 28.9478 Z" fill="#000000" fill-rule="nonzero" fill-opacity="1" /><path clip-path="url(#clip180)" d="M2138.35 48.0275 L2138.35 51.6733 L2104.08 51.6733 Q2104.56 59.3701 2108.7 63.421 Q2112.87 67.4314 2120.28 67.4314 Q2124.58 67.4314 2128.59 66.3781 Q2132.64 65.3249 2136.61 63.2184 L2136.61 70.267 Q2132.6 71.9684 2128.38 72.8596 Q2124.17 73.7508 2119.84 73.7508 Q2108.98 73.7508 2102.62 67.4314 Q2096.3 61.1119 2096.3 50.3365 Q2096.3 39.1965 2102.3 32.6746 Q2108.33 26.1121 2118.54 26.1121 Q2127.7 26.1121 2133 32.0264 Q2138.35 37.9003 2138.35 48.0275 M2130.9 45.84 Q2130.81 39.7232 2127.45 36.0774 Q2124.13 32.4315 2118.62 32.4315 Q2112.38 32.4315 2108.62 35.9558 Q2104.89 39.4801 2104.32 45.8805 L2130.9 45.84 Z" fill="#000000" fill-rule="nonzero" fill-opacity="1" /><polyline clip-path="url(#clip181)" style="stroke:#009af9; stroke-linecap:round; stroke-linejoin:round; stroke-width:8; stroke-opacity:1; fill:none" points="295.211,1386.4 694.735,1156.49 1094.26,875.504 1493.78,869.118 1893.3,908.201 2292.83,875.504 "/>
<circle clip-path="url(#clip181)" cx="295.211" cy="1386.4" r="14.4" fill="#009af9" fill-rule="evenodd" fill-opacity="1" stroke="#000000" stroke-opacity="1" stroke-width="3.2"/>
<circle clip-path="url(#clip181)" cx="694.735" cy="1156.49" r="14.4" fill="#009af9" fill-rule="evenodd" fill-opacity="1" stroke="#000000" stroke-opacity="1" stroke-width="3.2"/>
<circle clip-path="url(#clip181)" cx="1094.26" cy="875.504" r="14.4" fill="#009af9" fill-rule="evenodd" fill-opacity="1" stroke="#000000" stroke-opacity="1" stroke-width="3.2"/>
<circle clip-path="url(#clip181)" cx="1493.78" cy="869.118" r="14.4" fill="#009af9" fill-rule="evenodd" fill-opacity="1" stroke="#000000" stroke-opacity="1" stroke-width="3.2"/>
<circle clip-path="url(#clip181)" cx="1893.3" cy="908.201" r="14.4" fill="#009af9" fill-rule="evenodd" fill-opacity="1" stroke="#000000" stroke-opacity="1" stroke-width="3.2"/>
<circle clip-path="url(#clip181)" cx="2292.83" cy="875.504" r="14.4" fill="#009af9" fill-rule="evenodd" fill-opacity="1" stroke="#000000" stroke-opacity="1" stroke-width="3.2"/>
<polyline clip-path="url(#clip181)" style="stroke:#e26f46; stroke-linecap:round; stroke-linejoin:round; stroke-width:8; stroke-opacity:1; fill:none" points="295.211,160.256 694.735,620.059 1094.26,637.088 1493.78,735.009 1893.3,822.372 2292.83,815.9 "/>
<circle clip-path="url(#clip181)" cx="295.211" cy="160.256" r="14.4" fill="#e26f46" fill-rule="evenodd" fill-opacity="1" stroke="#000000" stroke-opacity="1" stroke-width="3.2"/>
<circle clip-path="url(#clip181)" cx="694.735" cy="620.059" r="14.4" fill="#e26f46" fill-rule="evenodd" fill-opacity="1" stroke="#000000" stroke-opacity="1" stroke-width="3.2"/>
<circle clip-path="url(#clip181)" cx="1094.26" cy="637.088" r="14.4" fill="#e26f46" fill-rule="evenodd" fill-opacity="1" stroke="#000000" stroke-opacity="1" stroke-width="3.2"/>
<circle clip-path="url(#clip181)" cx="1493.78" cy="735.009" r="14.4" fill="#e26f46" fill-rule="evenodd" fill-opacity="1" stroke="#000000" stroke-opacity="1" stroke-width="3.2"/>
<circle clip-path="url(#clip181)" cx="1893.3" cy="822.372" r="14.4" fill="#e26f46" fill-rule="evenodd" fill-opacity="1" stroke="#000000" stroke-opacity="1" stroke-width="3.2"/>
<circle clip-path="url(#clip181)" cx="2292.83" cy="815.9" r="14.4" fill="#e26f46" fill-rule="evenodd" fill-opacity="1" stroke="#000000" stroke-opacity="1" stroke-width="3.2"/>
<path clip-path="url(#clip180)" d="M1584.32 1379.86 L2282.17 1379.86 L2282.17 1224.34 L1584.32 1224.34  Z" fill="#ffffff" fill-rule="evenodd" fill-opacity="1"/>
<polyline clip-path="url(#clip180)" style="stroke:#000000; stroke-linecap:round; stroke-linejoin:round; stroke-width:4; stroke-opacity:1; fill:none" points="1584.32,1379.86 2282.17,1379.86 2282.17,1224.34 1584.32,1224.34 1584.32,1379.86 "/>
<polyline clip-path="url(#clip180)" style="stroke:#009af9; stroke-linecap:round; stroke-linejoin:round; stroke-width:8; stroke-opacity:1; fill:none" points="1607.85,1276.18 1749.01,1276.18 "/>
<circle clip-path="url(#clip180)" cx="1678.43" cy="1276.18" r="19.6062" fill="#009af9" fill-rule="evenodd" fill-opacity="1" stroke="#000000" stroke-opacity="1" stroke-width="4.55111"/>
<path clip-path="url(#clip180)" d="M1777.21 1262.74 L1777.21 1275.72 L1783.09 1275.72 Q1786.36 1275.72 1788.14 1274.04 Q1789.92 1272.35 1789.92 1269.22 Q1789.92 1266.12 1788.14 1264.43 Q1786.36 1262.74 1783.09 1262.74 L1777.21 1262.74 M1772.54 1258.9 L1783.09 1258.9 Q1788.9 1258.9 1791.87 1261.54 Q1794.85 1264.15 1794.85 1269.22 Q1794.85 1274.34 1791.87 1276.95 Q1788.9 1279.57 1783.09 1279.57 L1777.21 1279.57 L1777.21 1293.46 L1772.54 1293.46 L1772.54 1258.9 Z" fill="#000000" fill-rule="nonzero" fill-opacity="1" /><path clip-path="url(#clip180)" d="M1815.13 1271.51 Q1814.41 1271.1 1813.56 1270.91 Q1812.72 1270.7 1811.7 1270.7 Q1808.09 1270.7 1806.15 1273.06 Q1804.23 1275.4 1804.23 1279.8 L1804.23 1293.46 L1799.94 1293.46 L1799.94 1267.53 L1804.23 1267.53 L1804.23 1271.56 Q1805.57 1269.2 1807.72 1268.06 Q1809.88 1266.91 1812.95 1266.91 Q1813.39 1266.91 1813.93 1266.97 Q1814.46 1267.02 1815.11 1267.14 L1815.13 1271.51 Z" fill="#000000" fill-rule="nonzero" fill-opacity="1" /><path clip-path="url(#clip180)" d="M1819.6 1267.53 L1823.86 1267.53 L1823.86 1293.46 L1819.6 1293.46 L1819.6 1267.53 M1819.6 1257.44 L1823.86 1257.44 L1823.86 1262.83 L1819.6 1262.83 L1819.6 1257.44 Z" fill="#000000" fill-rule="nonzero" fill-opacity="1" /><path clip-path="url(#clip180)" d="M1852.95 1272.51 Q1854.55 1269.64 1856.77 1268.27 Q1859 1266.91 1862 1266.91 Q1866.06 1266.91 1868.25 1269.75 Q1870.45 1272.58 1870.45 1277.81 L1870.45 1293.46 L1866.17 1293.46 L1866.17 1277.95 Q1866.17 1274.22 1864.85 1272.41 Q1863.53 1270.61 1860.82 1270.61 Q1857.51 1270.61 1855.59 1272.81 Q1853.67 1275.01 1853.67 1278.8 L1853.67 1293.46 L1849.39 1293.46 L1849.39 1277.95 Q1849.39 1274.2 1848.07 1272.41 Q1846.75 1270.61 1844 1270.61 Q1840.73 1270.61 1838.81 1272.83 Q1836.89 1275.03 1836.89 1278.8 L1836.89 1293.46 L1832.61 1293.46 L1832.61 1267.53 L1836.89 1267.53 L1836.89 1271.56 Q1838.35 1269.17 1840.38 1268.04 Q1842.42 1266.91 1845.22 1266.91 Q1848.05 1266.91 1850.01 1268.34 Q1852 1269.78 1852.95 1272.51 Z" fill="#000000" fill-rule="nonzero" fill-opacity="1" /><path clip-path="url(#clip180)" d="M1890.73 1280.42 Q1885.57 1280.42 1883.58 1281.6 Q1881.59 1282.79 1881.59 1285.63 Q1881.59 1287.9 1883.07 1289.24 Q1884.57 1290.56 1887.14 1290.56 Q1890.69 1290.56 1892.81 1288.06 Q1894.97 1285.54 1894.97 1281.37 L1894.97 1280.42 L1890.73 1280.42 M1899.23 1278.66 L1899.23 1293.46 L1894.97 1293.46 L1894.97 1289.52 Q1893.51 1291.88 1891.33 1293.02 Q1889.16 1294.13 1886.01 1294.13 Q1882.03 1294.13 1879.67 1291.91 Q1877.33 1289.66 1877.33 1285.91 Q1877.33 1281.54 1880.25 1279.31 Q1883.19 1277.09 1889 1277.09 L1894.97 1277.09 L1894.97 1276.67 Q1894.97 1273.73 1893.02 1272.14 Q1891.1 1270.52 1887.61 1270.52 Q1885.38 1270.52 1883.28 1271.05 Q1881.17 1271.58 1879.23 1272.65 L1879.23 1268.71 Q1881.56 1267.81 1883.76 1267.37 Q1885.96 1266.91 1888.05 1266.91 Q1893.67 1266.91 1896.45 1269.82 Q1899.23 1272.74 1899.23 1278.66 Z" fill="#000000" fill-rule="nonzero" fill-opacity="1" /><path clip-path="url(#clip180)" d="M1908 1257.44 L1912.26 1257.44 L1912.26 1293.46 L1908 1293.46 L1908 1257.44 Z" fill="#000000" fill-rule="nonzero" fill-opacity="1" /><path clip-path="url(#clip180)" d="M1946.47 1257.48 Q1943.37 1262.81 1941.87 1268.02 Q1940.36 1273.22 1940.36 1278.57 Q1940.36 1283.92 1941.87 1289.17 Q1943.39 1294.41 1946.47 1299.71 L1942.77 1299.71 Q1939.3 1294.27 1937.56 1289.01 Q1935.85 1283.76 1935.85 1278.57 Q1935.85 1273.41 1937.56 1268.18 Q1939.27 1262.95 1942.77 1257.48 L1946.47 1257.48 Z" fill="#000000" fill-rule="nonzero" fill-opacity="1" /><path clip-path="url(#clip180)" d="M1954.74 1257.44 L1958.99 1257.44 L1958.99 1293.46 L1954.74 1293.46 L1954.74 1257.44 Z" fill="#000000" fill-rule="nonzero" fill-opacity="1" /><path clip-path="url(#clip180)" d="M1977.95 1270.52 Q1974.53 1270.52 1972.54 1273.2 Q1970.55 1275.86 1970.55 1280.52 Q1970.55 1285.17 1972.51 1287.85 Q1974.5 1290.52 1977.95 1290.52 Q1981.36 1290.52 1983.35 1287.83 Q1985.34 1285.15 1985.34 1280.52 Q1985.34 1275.91 1983.35 1273.22 Q1981.36 1270.52 1977.95 1270.52 M1977.95 1266.91 Q1983.51 1266.91 1986.68 1270.52 Q1989.85 1274.13 1989.85 1280.52 Q1989.85 1286.88 1986.68 1290.52 Q1983.51 1294.13 1977.95 1294.13 Q1972.37 1294.13 1969.2 1290.52 Q1966.05 1286.88 1966.05 1280.52 Q1966.05 1274.13 1969.2 1270.52 Q1972.37 1266.91 1977.95 1266.91 Z" fill="#000000" fill-rule="nonzero" fill-opacity="1" /><path clip-path="url(#clip180)" d="M1994.43 1267.53 L1998.69 1267.53 L2004.02 1287.76 L2009.32 1267.53 L2014.34 1267.53 L2019.67 1287.76 L2024.97 1267.53 L2029.23 1267.53 L2022.44 1293.46 L2017.42 1293.46 L2011.84 1272.21 L2006.24 1293.46 L2001.22 1293.46 L1994.43 1267.53 Z" fill="#000000" fill-rule="nonzero" fill-opacity="1" /><path clip-path="url(#clip180)" d="M2057.86 1279.43 L2057.86 1281.51 L2038.28 1281.51 Q2038.55 1285.91 2040.92 1288.22 Q2043.3 1290.52 2047.54 1290.52 Q2049.99 1290.52 2052.28 1289.91 Q2054.6 1289.31 2056.86 1288.11 L2056.86 1292.14 Q2054.57 1293.11 2052.17 1293.62 Q2049.76 1294.13 2047.28 1294.13 Q2041.08 1294.13 2037.44 1290.52 Q2033.83 1286.91 2033.83 1280.75 Q2033.83 1274.38 2037.26 1270.66 Q2040.71 1266.91 2046.54 1266.91 Q2051.77 1266.91 2054.8 1270.29 Q2057.86 1273.64 2057.86 1279.43 M2053.6 1278.18 Q2053.55 1274.68 2051.63 1272.6 Q2049.74 1270.52 2046.59 1270.52 Q2043.02 1270.52 2040.87 1272.53 Q2038.74 1274.54 2038.42 1278.2 L2053.6 1278.18 Z" fill="#000000" fill-rule="nonzero" fill-opacity="1" /><path clip-path="url(#clip180)" d="M2079.87 1271.51 Q2079.16 1271.1 2078.3 1270.91 Q2077.47 1270.7 2076.45 1270.7 Q2072.84 1270.7 2070.89 1273.06 Q2068.97 1275.4 2068.97 1279.8 L2068.97 1293.46 L2064.69 1293.46 L2064.69 1267.53 L2068.97 1267.53 L2068.97 1271.56 Q2070.31 1269.2 2072.47 1268.06 Q2074.62 1266.91 2077.7 1266.91 Q2078.14 1266.91 2078.67 1266.97 Q2079.2 1267.02 2079.85 1267.14 L2079.87 1271.51 Z" fill="#000000" fill-rule="nonzero" fill-opacity="1" /><path clip-path="url(#clip180)" d="M2118.02 1280.52 Q2118.02 1275.82 2116.08 1273.16 Q2114.16 1270.47 2110.78 1270.47 Q2107.4 1270.47 2105.45 1273.16 Q2103.53 1275.82 2103.53 1280.52 Q2103.53 1285.22 2105.45 1287.9 Q2107.4 1290.56 2110.78 1290.56 Q2114.16 1290.56 2116.08 1287.9 Q2118.02 1285.22 2118.02 1280.52 M2103.53 1271.47 Q2104.87 1269.15 2106.91 1268.04 Q2108.97 1266.91 2111.82 1266.91 Q2116.54 1266.91 2119.48 1270.66 Q2122.44 1274.41 2122.44 1280.52 Q2122.44 1286.63 2119.48 1290.38 Q2116.54 1294.13 2111.82 1294.13 Q2108.97 1294.13 2106.91 1293.02 Q2104.87 1291.88 2103.53 1289.57 L2103.53 1293.46 L2099.25 1293.46 L2099.25 1257.44 L2103.53 1257.44 L2103.53 1271.47 Z" fill="#000000" fill-rule="nonzero" fill-opacity="1" /><path clip-path="url(#clip180)" d="M2139.55 1270.52 Q2136.12 1270.52 2134.13 1273.2 Q2132.14 1275.86 2132.14 1280.52 Q2132.14 1285.17 2134.11 1287.85 Q2136.1 1290.52 2139.55 1290.52 Q2142.95 1290.52 2144.94 1287.83 Q2146.93 1285.15 2146.93 1280.52 Q2146.93 1275.91 2144.94 1273.22 Q2142.95 1270.52 2139.55 1270.52 M2139.55 1266.91 Q2145.1 1266.91 2148.28 1270.52 Q2151.45 1274.13 2151.45 1280.52 Q2151.45 1286.88 2148.28 1290.52 Q2145.1 1294.13 2139.55 1294.13 Q2133.97 1294.13 2130.8 1290.52 Q2127.65 1286.88 2127.65 1280.52 Q2127.65 1274.13 2130.8 1270.52 Q2133.97 1266.91 2139.55 1266.91 Z" fill="#000000" fill-rule="nonzero" fill-opacity="1" /><path clip-path="url(#clip180)" d="M2158.07 1283.22 L2158.07 1267.53 L2162.33 1267.53 L2162.33 1283.06 Q2162.33 1286.74 2163.76 1288.6 Q2165.2 1290.42 2168.07 1290.42 Q2171.52 1290.42 2173.51 1288.22 Q2175.52 1286.03 2175.52 1282.23 L2175.52 1267.53 L2179.78 1267.53 L2179.78 1293.46 L2175.52 1293.46 L2175.52 1289.47 Q2173.97 1291.84 2171.91 1292.99 Q2169.87 1294.13 2167.17 1294.13 Q2162.7 1294.13 2160.38 1291.35 Q2158.07 1288.57 2158.07 1283.22 M2168.79 1266.91 L2168.79 1266.91 Z" fill="#000000" fill-rule="nonzero" fill-opacity="1" /><path clip-path="url(#clip180)" d="M2210.1 1277.81 L2210.1 1293.46 L2205.85 1293.46 L2205.85 1277.95 Q2205.85 1274.27 2204.41 1272.44 Q2202.97 1270.61 2200.1 1270.61 Q2196.66 1270.61 2194.66 1272.81 Q2192.67 1275.01 2192.67 1278.8 L2192.67 1293.46 L2188.39 1293.46 L2188.39 1267.53 L2192.67 1267.53 L2192.67 1271.56 Q2194.2 1269.22 2196.26 1268.06 Q2198.35 1266.91 2201.05 1266.91 Q2205.52 1266.91 2207.81 1269.68 Q2210.1 1272.44 2210.1 1277.81 Z" fill="#000000" fill-rule="nonzero" fill-opacity="1" /><path clip-path="url(#clip180)" d="M2235.66 1271.47 L2235.66 1257.44 L2239.92 1257.44 L2239.92 1293.46 L2235.66 1293.46 L2235.66 1289.57 Q2234.32 1291.88 2232.26 1293.02 Q2230.22 1294.13 2227.35 1294.13 Q2222.65 1294.13 2219.69 1290.38 Q2216.75 1286.63 2216.75 1280.52 Q2216.75 1274.41 2219.69 1270.66 Q2222.65 1266.91 2227.35 1266.91 Q2230.22 1266.91 2232.26 1268.04 Q2234.32 1269.15 2235.66 1271.47 M2221.15 1280.52 Q2221.15 1285.22 2223.07 1287.9 Q2225.01 1290.56 2228.39 1290.56 Q2231.77 1290.56 2233.72 1287.9 Q2235.66 1285.22 2235.66 1280.52 Q2235.66 1275.82 2233.72 1273.16 Q2231.77 1270.47 2228.39 1270.47 Q2225.01 1270.47 2223.07 1273.16 Q2221.15 1275.82 2221.15 1280.52 Z" fill="#000000" fill-rule="nonzero" fill-opacity="1" /><path clip-path="url(#clip180)" d="M2248.02 1257.48 L2251.72 1257.48 Q2255.2 1262.95 2256.91 1268.18 Q2258.65 1273.41 2258.65 1278.57 Q2258.65 1283.76 2256.91 1289.01 Q2255.2 1294.27 2251.72 1299.71 L2248.02 1299.71 Q2251.1 1294.41 2252.6 1289.17 Q2254.13 1283.92 2254.13 1278.57 Q2254.13 1273.22 2252.6 1268.02 Q2251.1 1262.81 2248.02 1257.48 Z" fill="#000000" fill-rule="nonzero" fill-opacity="1" /><polyline clip-path="url(#clip180)" style="stroke:#e26f46; stroke-linecap:round; stroke-linejoin:round; stroke-width:8; stroke-opacity:1; fill:none" points="1607.85,1328.02 1749.01,1328.02 "/>
<circle clip-path="url(#clip180)" cx="1678.43" cy="1328.02" r="19.6062" fill="#e26f46" fill-rule="evenodd" fill-opacity="1" stroke="#000000" stroke-opacity="1" stroke-width="4.55111"/>
<path clip-path="url(#clip180)" d="M1777.21 1314.58 L1777.21 1341.45 L1782.86 1341.45 Q1790.01 1341.45 1793.32 1338.21 Q1796.66 1334.97 1796.66 1327.98 Q1796.66 1321.04 1793.32 1317.82 Q1790.01 1314.58 1782.86 1314.58 L1777.21 1314.58 M1772.54 1310.74 L1782.14 1310.74 Q1792.19 1310.74 1796.89 1314.93 Q1801.59 1319.09 1801.59 1327.98 Q1801.59 1336.92 1796.87 1341.11 Q1792.14 1345.3 1782.14 1345.3 L1772.54 1345.3 L1772.54 1310.74 Z" fill="#000000" fill-rule="nonzero" fill-opacity="1" /><path clip-path="url(#clip180)" d="M1808.42 1335.06 L1808.42 1319.37 L1812.68 1319.37 L1812.68 1334.9 Q1812.68 1338.58 1814.11 1340.44 Q1815.55 1342.26 1818.42 1342.26 Q1821.87 1342.26 1823.86 1340.06 Q1825.87 1337.87 1825.87 1334.07 L1825.87 1319.37 L1830.13 1319.37 L1830.13 1345.3 L1825.87 1345.3 L1825.87 1341.31 Q1824.32 1343.68 1822.26 1344.83 Q1820.22 1345.97 1817.51 1345.97 Q1813.05 1345.97 1810.73 1343.19 Q1808.42 1340.41 1808.42 1335.06 M1819.13 1318.75 L1819.13 1318.75 Z" fill="#000000" fill-rule="nonzero" fill-opacity="1" /><path clip-path="url(#clip180)" d="M1850.69 1332.26 Q1845.52 1332.26 1843.53 1333.44 Q1841.54 1334.63 1841.54 1337.47 Q1841.54 1339.74 1843.02 1341.08 Q1844.53 1342.4 1847.1 1342.4 Q1850.64 1342.4 1852.77 1339.9 Q1854.92 1337.38 1854.92 1333.21 L1854.92 1332.26 L1850.69 1332.26 M1859.18 1330.5 L1859.18 1345.3 L1854.92 1345.3 L1854.92 1341.36 Q1853.46 1343.72 1851.29 1344.86 Q1849.11 1345.97 1845.96 1345.97 Q1841.98 1345.97 1839.62 1343.75 Q1837.28 1341.5 1837.28 1337.75 Q1837.28 1333.38 1840.2 1331.15 Q1843.14 1328.93 1848.95 1328.93 L1854.92 1328.93 L1854.92 1328.51 Q1854.92 1325.57 1852.98 1323.98 Q1851.06 1322.36 1847.56 1322.36 Q1845.34 1322.36 1843.23 1322.89 Q1841.13 1323.42 1839.18 1324.49 L1839.18 1320.55 Q1841.52 1319.65 1843.72 1319.21 Q1845.92 1318.75 1848 1318.75 Q1853.63 1318.75 1856.4 1321.66 Q1859.18 1324.58 1859.18 1330.5 Z" fill="#000000" fill-rule="nonzero" fill-opacity="1" /><path clip-path="url(#clip180)" d="M1867.95 1309.28 L1872.21 1309.28 L1872.21 1345.3 L1867.95 1345.3 L1867.95 1309.28 Z" fill="#000000" fill-rule="nonzero" fill-opacity="1" /><path clip-path="url(#clip180)" d="M1906.43 1309.32 Q1903.32 1314.65 1901.82 1319.86 Q1900.31 1325.06 1900.31 1330.41 Q1900.31 1335.76 1901.82 1341.01 Q1903.35 1346.25 1906.43 1351.55 L1902.72 1351.55 Q1899.25 1346.11 1897.51 1340.85 Q1895.8 1335.6 1895.8 1330.41 Q1895.8 1325.25 1897.51 1320.02 Q1899.23 1314.79 1902.72 1309.32 L1906.43 1309.32 Z" fill="#000000" fill-rule="nonzero" fill-opacity="1" /><path clip-path="url(#clip180)" d="M1914.25 1335.06 L1914.25 1319.37 L1918.51 1319.37 L1918.51 1334.9 Q1918.51 1338.58 1919.94 1340.44 Q1921.38 1342.26 1924.25 1342.26 Q1927.7 1342.26 1929.69 1340.06 Q1931.7 1337.87 1931.7 1334.07 L1931.7 1319.37 L1935.96 1319.37 L1935.96 1345.3 L1931.7 1345.3 L1931.7 1341.31 Q1930.15 1343.68 1928.09 1344.83 Q1926.06 1345.97 1923.35 1345.97 Q1918.88 1345.97 1916.56 1343.19 Q1914.25 1340.41 1914.25 1335.06 M1924.97 1318.75 L1924.97 1318.75 Z" fill="#000000" fill-rule="nonzero" fill-opacity="1" /><path clip-path="url(#clip180)" d="M1948.86 1341.41 L1948.86 1355.16 L1944.57 1355.16 L1944.57 1319.37 L1948.86 1319.37 L1948.86 1323.31 Q1950.2 1320.99 1952.24 1319.88 Q1954.3 1318.75 1957.14 1318.75 Q1961.87 1318.75 1964.8 1322.5 Q1967.77 1326.25 1967.77 1332.36 Q1967.77 1338.47 1964.8 1342.22 Q1961.87 1345.97 1957.14 1345.97 Q1954.3 1345.97 1952.24 1344.86 Q1950.2 1343.72 1948.86 1341.41 M1963.35 1332.36 Q1963.35 1327.66 1961.4 1325 Q1959.48 1322.31 1956.1 1322.31 Q1952.72 1322.31 1950.78 1325 Q1948.86 1327.66 1948.86 1332.36 Q1948.86 1337.06 1950.78 1339.74 Q1952.72 1342.4 1956.1 1342.4 Q1959.48 1342.4 1961.4 1339.74 Q1963.35 1337.06 1963.35 1332.36 Z" fill="#000000" fill-rule="nonzero" fill-opacity="1" /><path clip-path="url(#clip180)" d="M1978.95 1341.41 L1978.95 1355.16 L1974.67 1355.16 L1974.67 1319.37 L1978.95 1319.37 L1978.95 1323.31 Q1980.29 1320.99 1982.33 1319.88 Q1984.39 1318.75 1987.24 1318.75 Q1991.96 1318.75 1994.9 1322.5 Q1997.86 1326.25 1997.86 1332.36 Q1997.86 1338.47 1994.9 1342.22 Q1991.96 1345.97 1987.24 1345.97 Q1984.39 1345.97 1982.33 1344.86 Q1980.29 1343.72 1978.95 1341.41 M1993.44 1332.36 Q1993.44 1327.66 1991.49 1325 Q1989.57 1322.31 1986.19 1322.31 Q1982.81 1322.31 1980.87 1325 Q1978.95 1327.66 1978.95 1332.36 Q1978.95 1337.06 1980.87 1339.74 Q1982.81 1342.4 1986.19 1342.4 Q1989.57 1342.4 1991.49 1339.74 Q1993.44 1337.06 1993.44 1332.36 Z" fill="#000000" fill-rule="nonzero" fill-opacity="1" /><path clip-path="url(#clip180)" d="M2027.1 1331.27 L2027.1 1333.35 L2007.51 1333.35 Q2007.79 1337.75 2010.15 1340.06 Q2012.54 1342.36 2016.77 1342.36 Q2019.23 1342.36 2021.52 1341.75 Q2023.83 1341.15 2026.1 1339.95 L2026.1 1343.98 Q2023.81 1344.95 2021.4 1345.46 Q2018.99 1345.97 2016.52 1345.97 Q2010.31 1345.97 2006.68 1342.36 Q2003.07 1338.75 2003.07 1332.59 Q2003.07 1326.22 2006.49 1322.5 Q2009.94 1318.75 2015.78 1318.75 Q2021.01 1318.75 2024.04 1322.13 Q2027.1 1325.48 2027.1 1331.27 M2022.84 1330.02 Q2022.79 1326.52 2020.87 1324.44 Q2018.97 1322.36 2015.82 1322.36 Q2012.26 1322.36 2010.11 1324.37 Q2007.98 1326.38 2007.65 1330.04 L2022.84 1330.02 Z" fill="#000000" fill-rule="nonzero" fill-opacity="1" /><path clip-path="url(#clip180)" d="M2049.11 1323.35 Q2048.39 1322.94 2047.54 1322.75 Q2046.7 1322.54 2045.68 1322.54 Q2042.07 1322.54 2040.13 1324.9 Q2038.21 1327.24 2038.21 1331.64 L2038.21 1345.3 L2033.92 1345.3 L2033.92 1319.37 L2038.21 1319.37 L2038.21 1323.4 Q2039.55 1321.04 2041.7 1319.9 Q2043.86 1318.75 2046.93 1318.75 Q2047.37 1318.75 2047.91 1318.81 Q2048.44 1318.86 2049.09 1318.98 L2049.11 1323.35 Z" fill="#000000" fill-rule="nonzero" fill-opacity="1" /><path clip-path="url(#clip180)" d="M2087.26 1332.36 Q2087.26 1327.66 2085.31 1325 Q2083.39 1322.31 2080.01 1322.31 Q2076.63 1322.31 2074.69 1325 Q2072.77 1327.66 2072.77 1332.36 Q2072.77 1337.06 2074.69 1339.74 Q2076.63 1342.4 2080.01 1342.4 Q2083.39 1342.4 2085.31 1339.74 Q2087.26 1337.06 2087.26 1332.36 M2072.77 1323.31 Q2074.11 1320.99 2076.15 1319.88 Q2078.21 1318.75 2081.05 1318.75 Q2085.78 1318.75 2088.72 1322.5 Q2091.68 1326.25 2091.68 1332.36 Q2091.68 1338.47 2088.72 1342.22 Q2085.78 1345.97 2081.05 1345.97 Q2078.21 1345.97 2076.15 1344.86 Q2074.11 1343.72 2072.77 1341.41 L2072.77 1345.3 L2068.48 1345.3 L2068.48 1309.28 L2072.77 1309.28 L2072.77 1323.31 Z" fill="#000000" fill-rule="nonzero" fill-opacity="1" /><path clip-path="url(#clip180)" d="M2108.79 1322.36 Q2105.36 1322.36 2103.37 1325.04 Q2101.38 1327.7 2101.38 1332.36 Q2101.38 1337.01 2103.35 1339.69 Q2105.34 1342.36 2108.79 1342.36 Q2112.19 1342.36 2114.18 1339.67 Q2116.17 1336.99 2116.17 1332.36 Q2116.17 1327.75 2114.18 1325.06 Q2112.19 1322.36 2108.79 1322.36 M2108.79 1318.75 Q2114.34 1318.75 2117.51 1322.36 Q2120.68 1325.97 2120.68 1332.36 Q2120.68 1338.72 2117.51 1342.36 Q2114.34 1345.97 2108.79 1345.97 Q2103.21 1345.97 2100.04 1342.36 Q2096.89 1338.72 2096.89 1332.36 Q2096.89 1325.97 2100.04 1322.36 Q2103.21 1318.75 2108.79 1318.75 Z" fill="#000000" fill-rule="nonzero" fill-opacity="1" /><path clip-path="url(#clip180)" d="M2127.3 1335.06 L2127.3 1319.37 L2131.56 1319.37 L2131.56 1334.9 Q2131.56 1338.58 2133 1340.44 Q2134.43 1342.26 2137.3 1342.26 Q2140.75 1342.26 2142.74 1340.06 Q2144.76 1337.87 2144.76 1334.07 L2144.76 1319.37 L2149.02 1319.37 L2149.02 1345.3 L2144.76 1345.3 L2144.76 1341.31 Q2143.21 1343.68 2141.15 1344.83 Q2139.11 1345.97 2136.4 1345.97 Q2131.93 1345.97 2129.62 1343.19 Q2127.3 1340.41 2127.3 1335.06 M2138.02 1318.75 L2138.02 1318.75 Z" fill="#000000" fill-rule="nonzero" fill-opacity="1" /><path clip-path="url(#clip180)" d="M2179.34 1329.65 L2179.34 1345.3 L2175.08 1345.3 L2175.08 1329.79 Q2175.08 1326.11 2173.65 1324.28 Q2172.21 1322.45 2169.34 1322.45 Q2165.89 1322.45 2163.9 1324.65 Q2161.91 1326.85 2161.91 1330.64 L2161.91 1345.3 L2157.63 1345.3 L2157.63 1319.37 L2161.91 1319.37 L2161.91 1323.4 Q2163.44 1321.06 2165.5 1319.9 Q2167.58 1318.75 2170.29 1318.75 Q2174.76 1318.75 2177.05 1321.52 Q2179.34 1324.28 2179.34 1329.65 Z" fill="#000000" fill-rule="nonzero" fill-opacity="1" /><path clip-path="url(#clip180)" d="M2204.9 1323.31 L2204.9 1309.28 L2209.16 1309.28 L2209.16 1345.3 L2204.9 1345.3 L2204.9 1341.41 Q2203.55 1343.72 2201.49 1344.86 Q2199.46 1345.97 2196.59 1345.97 Q2191.89 1345.97 2188.92 1342.22 Q2185.98 1338.47 2185.98 1332.36 Q2185.98 1326.25 2188.92 1322.5 Q2191.89 1318.75 2196.59 1318.75 Q2199.46 1318.75 2201.49 1319.88 Q2203.55 1320.99 2204.9 1323.31 M2190.38 1332.36 Q2190.38 1337.06 2192.3 1339.74 Q2194.25 1342.4 2197.63 1342.4 Q2201.01 1342.4 2202.95 1339.74 Q2204.9 1337.06 2204.9 1332.36 Q2204.9 1327.66 2202.95 1325 Q2201.01 1322.31 2197.63 1322.31 Q2194.25 1322.31 2192.3 1325 Q2190.38 1327.66 2190.38 1332.36 Z" fill="#000000" fill-rule="nonzero" fill-opacity="1" /><path clip-path="url(#clip180)" d="M2217.26 1309.32 L2220.96 1309.32 Q2224.43 1314.79 2226.15 1320.02 Q2227.88 1325.25 2227.88 1330.41 Q2227.88 1335.6 2226.15 1340.85 Q2224.43 1346.11 2220.96 1351.55 L2217.26 1351.55 Q2220.34 1346.25 2221.84 1341.01 Q2223.37 1335.76 2223.37 1330.41 Q2223.37 1325.06 2221.84 1319.86 Q2220.34 1314.65 2217.26 1309.32 Z" fill="#000000" fill-rule="nonzero" fill-opacity="1" /></svg>
